G04 EAGLE Gerber RS-274X export*
G75*
%MOMM*%
%FSLAX34Y34*%
%LPD*%
%INSilkscreen Top*%
%IPPOS*%
%AMOC8*
5,1,8,0,0,1.08239X$1,22.5*%
G01*
%ADD10C,0.228600*%
%ADD11C,0.500000*%
%ADD12C,0.127000*%
%ADD13C,0.152400*%
%ADD14C,0.200000*%
%ADD15R,0.200000X0.200000*%
%ADD16C,0.203200*%
%ADD17C,0.200000*%
%ADD18C,0.400000*%
%ADD19C,0.120000*%
%ADD20C,0.010000*%
%ADD21C,0.075000*%


D10*
X11143Y21032D02*
X14675Y23857D01*
X14675Y11143D01*
X18206Y11143D02*
X11143Y11143D01*
X23772Y11143D02*
X23772Y11849D01*
X24478Y11849D01*
X24478Y11143D01*
X23772Y11143D01*
X30043Y17500D02*
X30046Y17750D01*
X30055Y18000D01*
X30070Y18250D01*
X30091Y18499D01*
X30118Y18748D01*
X30150Y18996D01*
X30189Y19243D01*
X30234Y19489D01*
X30284Y19734D01*
X30340Y19978D01*
X30402Y20220D01*
X30470Y20461D01*
X30544Y20700D01*
X30623Y20937D01*
X30708Y21172D01*
X30798Y21405D01*
X30894Y21636D01*
X30996Y21865D01*
X31102Y22091D01*
X31103Y22091D02*
X31138Y22187D01*
X31176Y22280D01*
X31218Y22373D01*
X31264Y22463D01*
X31313Y22552D01*
X31365Y22638D01*
X31421Y22723D01*
X31480Y22805D01*
X31542Y22885D01*
X31607Y22963D01*
X31675Y23038D01*
X31746Y23110D01*
X31820Y23180D01*
X31896Y23246D01*
X31975Y23310D01*
X32056Y23370D01*
X32140Y23428D01*
X32225Y23482D01*
X32313Y23532D01*
X32403Y23579D01*
X32494Y23623D01*
X32587Y23663D01*
X32682Y23700D01*
X32778Y23732D01*
X32875Y23761D01*
X32973Y23787D01*
X33072Y23808D01*
X33171Y23826D01*
X33272Y23839D01*
X33373Y23849D01*
X33474Y23855D01*
X33575Y23857D01*
X33676Y23855D01*
X33777Y23849D01*
X33878Y23839D01*
X33979Y23826D01*
X34078Y23808D01*
X34177Y23787D01*
X34275Y23761D01*
X34372Y23732D01*
X34468Y23700D01*
X34563Y23663D01*
X34656Y23623D01*
X34747Y23579D01*
X34837Y23532D01*
X34925Y23482D01*
X35010Y23428D01*
X35094Y23370D01*
X35175Y23310D01*
X35254Y23246D01*
X35330Y23180D01*
X35404Y23110D01*
X35475Y23038D01*
X35543Y22963D01*
X35608Y22885D01*
X35670Y22805D01*
X35729Y22723D01*
X35785Y22638D01*
X35837Y22552D01*
X35886Y22463D01*
X35932Y22373D01*
X35974Y22280D01*
X36012Y22187D01*
X36047Y22091D01*
X36153Y21865D01*
X36255Y21636D01*
X36351Y21405D01*
X36441Y21172D01*
X36526Y20937D01*
X36605Y20700D01*
X36679Y20461D01*
X36747Y20220D01*
X36809Y19978D01*
X36865Y19734D01*
X36915Y19489D01*
X36960Y19243D01*
X36999Y18996D01*
X37031Y18748D01*
X37058Y18499D01*
X37079Y18250D01*
X37094Y18000D01*
X37103Y17750D01*
X37106Y17500D01*
X30043Y17500D02*
X30046Y17250D01*
X30055Y17000D01*
X30070Y16750D01*
X30091Y16501D01*
X30118Y16252D01*
X30150Y16004D01*
X30189Y15757D01*
X30234Y15511D01*
X30284Y15266D01*
X30340Y15022D01*
X30402Y14780D01*
X30470Y14539D01*
X30544Y14300D01*
X30623Y14063D01*
X30708Y13828D01*
X30798Y13595D01*
X30894Y13364D01*
X30996Y13135D01*
X31102Y12909D01*
X31103Y12909D02*
X31138Y12813D01*
X31176Y12720D01*
X31218Y12627D01*
X31264Y12537D01*
X31313Y12448D01*
X31365Y12362D01*
X31421Y12277D01*
X31480Y12195D01*
X31542Y12115D01*
X31607Y12037D01*
X31675Y11962D01*
X31746Y11890D01*
X31820Y11820D01*
X31896Y11754D01*
X31975Y11690D01*
X32056Y11630D01*
X32140Y11572D01*
X32225Y11518D01*
X32313Y11468D01*
X32403Y11421D01*
X32494Y11377D01*
X32587Y11337D01*
X32682Y11300D01*
X32778Y11268D01*
X32875Y11239D01*
X32973Y11213D01*
X33072Y11192D01*
X33171Y11174D01*
X33272Y11161D01*
X33373Y11151D01*
X33474Y11145D01*
X33575Y11143D01*
X36047Y12909D02*
X36153Y13135D01*
X36255Y13364D01*
X36351Y13595D01*
X36441Y13828D01*
X36526Y14063D01*
X36605Y14300D01*
X36679Y14539D01*
X36747Y14780D01*
X36809Y15022D01*
X36865Y15266D01*
X36915Y15511D01*
X36960Y15757D01*
X36999Y16004D01*
X37031Y16252D01*
X37058Y16501D01*
X37079Y16750D01*
X37094Y17000D01*
X37103Y17250D01*
X37106Y17500D01*
X36047Y12909D02*
X36012Y12813D01*
X35974Y12720D01*
X35932Y12627D01*
X35886Y12537D01*
X35837Y12448D01*
X35785Y12362D01*
X35729Y12277D01*
X35670Y12195D01*
X35608Y12115D01*
X35543Y12037D01*
X35475Y11962D01*
X35404Y11890D01*
X35330Y11820D01*
X35254Y11754D01*
X35175Y11690D01*
X35094Y11630D01*
X35010Y11572D01*
X34925Y11518D01*
X34837Y11468D01*
X34747Y11421D01*
X34656Y11377D01*
X34563Y11337D01*
X34468Y11300D01*
X34372Y11268D01*
X34275Y11239D01*
X34177Y11213D01*
X34078Y11192D01*
X33979Y11174D01*
X33878Y11161D01*
X33777Y11151D01*
X33676Y11145D01*
X33575Y11143D01*
X30749Y13968D02*
X36400Y21032D01*
D11*
X165000Y140000D03*
D12*
X241000Y136000D02*
X241000Y128000D01*
X241000Y136000D02*
X233000Y136000D01*
X241000Y72000D02*
X241000Y64000D01*
X233000Y64000D01*
X177000Y136000D02*
X169000Y136000D01*
X169000Y128000D01*
X169000Y64000D02*
X177000Y64000D01*
X169000Y64000D02*
X169000Y72000D01*
D13*
X197877Y143081D02*
X197877Y149318D01*
X197877Y143081D02*
X197879Y142984D01*
X197885Y142888D01*
X197894Y142792D01*
X197908Y142696D01*
X197925Y142601D01*
X197947Y142507D01*
X197972Y142414D01*
X198000Y142321D01*
X198033Y142230D01*
X198069Y142141D01*
X198109Y142053D01*
X198152Y141966D01*
X198198Y141882D01*
X198248Y141799D01*
X198302Y141718D01*
X198358Y141640D01*
X198418Y141564D01*
X198480Y141490D01*
X198546Y141419D01*
X198614Y141351D01*
X198685Y141285D01*
X198759Y141223D01*
X198835Y141163D01*
X198913Y141107D01*
X198994Y141053D01*
X199077Y141003D01*
X199161Y140957D01*
X199248Y140914D01*
X199336Y140874D01*
X199425Y140838D01*
X199516Y140805D01*
X199609Y140777D01*
X199702Y140752D01*
X199796Y140730D01*
X199891Y140713D01*
X199987Y140699D01*
X200083Y140690D01*
X200179Y140684D01*
X200276Y140682D01*
X200373Y140684D01*
X200469Y140690D01*
X200565Y140699D01*
X200661Y140713D01*
X200756Y140730D01*
X200850Y140752D01*
X200943Y140777D01*
X201036Y140805D01*
X201127Y140838D01*
X201216Y140874D01*
X201304Y140914D01*
X201391Y140957D01*
X201475Y141003D01*
X201558Y141053D01*
X201639Y141107D01*
X201717Y141163D01*
X201793Y141223D01*
X201867Y141285D01*
X201938Y141351D01*
X202006Y141419D01*
X202072Y141490D01*
X202134Y141564D01*
X202194Y141640D01*
X202250Y141718D01*
X202304Y141799D01*
X202354Y141881D01*
X202400Y141966D01*
X202443Y142053D01*
X202483Y142141D01*
X202519Y142230D01*
X202552Y142321D01*
X202580Y142414D01*
X202605Y142507D01*
X202627Y142601D01*
X202644Y142696D01*
X202658Y142792D01*
X202667Y142888D01*
X202673Y142984D01*
X202675Y143081D01*
X202674Y143081D02*
X202674Y149318D01*
X207326Y147399D02*
X209724Y149318D01*
X209724Y140682D01*
X207326Y140682D02*
X212123Y140682D01*
X116818Y42610D02*
X116818Y40691D01*
X116816Y40605D01*
X116810Y40519D01*
X116801Y40433D01*
X116787Y40348D01*
X116770Y40264D01*
X116749Y40180D01*
X116724Y40098D01*
X116696Y40017D01*
X116664Y39937D01*
X116628Y39858D01*
X116589Y39782D01*
X116546Y39707D01*
X116501Y39634D01*
X116452Y39563D01*
X116399Y39495D01*
X116344Y39428D01*
X116286Y39365D01*
X116225Y39304D01*
X116162Y39246D01*
X116095Y39191D01*
X116027Y39139D01*
X115956Y39089D01*
X115883Y39044D01*
X115808Y39001D01*
X115732Y38962D01*
X115653Y38926D01*
X115573Y38894D01*
X115492Y38866D01*
X115410Y38841D01*
X115326Y38820D01*
X115242Y38803D01*
X115157Y38789D01*
X115071Y38780D01*
X114985Y38774D01*
X114899Y38772D01*
X110101Y38772D01*
X110015Y38774D01*
X109929Y38780D01*
X109843Y38789D01*
X109758Y38803D01*
X109674Y38820D01*
X109590Y38841D01*
X109508Y38866D01*
X109427Y38894D01*
X109347Y38926D01*
X109268Y38962D01*
X109192Y39001D01*
X109117Y39044D01*
X109044Y39089D01*
X108973Y39138D01*
X108905Y39191D01*
X108838Y39246D01*
X108775Y39304D01*
X108714Y39365D01*
X108656Y39428D01*
X108601Y39495D01*
X108549Y39563D01*
X108499Y39634D01*
X108454Y39707D01*
X108411Y39782D01*
X108372Y39858D01*
X108336Y39937D01*
X108304Y40017D01*
X108276Y40098D01*
X108251Y40180D01*
X108230Y40264D01*
X108213Y40348D01*
X108199Y40433D01*
X108190Y40519D01*
X108184Y40605D01*
X108182Y40691D01*
X108182Y42610D01*
X110101Y46430D02*
X108182Y48829D01*
X116818Y48829D01*
X116818Y46430D02*
X116818Y51228D01*
X130571Y90682D02*
X130571Y99318D01*
X132970Y99318D01*
X133067Y99316D01*
X133163Y99310D01*
X133259Y99301D01*
X133355Y99287D01*
X133450Y99270D01*
X133544Y99248D01*
X133637Y99223D01*
X133730Y99195D01*
X133821Y99162D01*
X133910Y99126D01*
X133998Y99086D01*
X134085Y99043D01*
X134170Y98997D01*
X134252Y98947D01*
X134333Y98893D01*
X134411Y98837D01*
X134487Y98777D01*
X134561Y98715D01*
X134632Y98649D01*
X134700Y98581D01*
X134766Y98510D01*
X134828Y98436D01*
X134888Y98360D01*
X134944Y98282D01*
X134998Y98201D01*
X135048Y98118D01*
X135094Y98034D01*
X135137Y97947D01*
X135177Y97859D01*
X135213Y97770D01*
X135246Y97679D01*
X135274Y97586D01*
X135299Y97493D01*
X135321Y97399D01*
X135338Y97304D01*
X135352Y97208D01*
X135361Y97112D01*
X135367Y97016D01*
X135369Y96919D01*
X135367Y96822D01*
X135361Y96726D01*
X135352Y96630D01*
X135338Y96534D01*
X135321Y96439D01*
X135299Y96345D01*
X135274Y96252D01*
X135246Y96159D01*
X135213Y96068D01*
X135177Y95979D01*
X135137Y95891D01*
X135094Y95804D01*
X135048Y95719D01*
X134998Y95637D01*
X134944Y95556D01*
X134888Y95478D01*
X134828Y95402D01*
X134766Y95328D01*
X134700Y95257D01*
X134632Y95189D01*
X134561Y95123D01*
X134487Y95061D01*
X134411Y95001D01*
X134333Y94945D01*
X134252Y94891D01*
X134170Y94841D01*
X134085Y94795D01*
X133998Y94752D01*
X133910Y94712D01*
X133821Y94676D01*
X133730Y94643D01*
X133637Y94615D01*
X133544Y94590D01*
X133450Y94568D01*
X133355Y94551D01*
X133259Y94537D01*
X133163Y94528D01*
X133067Y94522D01*
X132970Y94520D01*
X130571Y94520D01*
X133450Y94520D02*
X135369Y90682D01*
X139631Y97399D02*
X142030Y99318D01*
X142030Y90682D01*
X139631Y90682D02*
X144429Y90682D01*
X130571Y110682D02*
X130571Y119318D01*
X132970Y119318D01*
X133067Y119316D01*
X133163Y119310D01*
X133259Y119301D01*
X133355Y119287D01*
X133450Y119270D01*
X133544Y119248D01*
X133637Y119223D01*
X133730Y119195D01*
X133821Y119162D01*
X133910Y119126D01*
X133998Y119086D01*
X134085Y119043D01*
X134170Y118997D01*
X134252Y118947D01*
X134333Y118893D01*
X134411Y118837D01*
X134487Y118777D01*
X134561Y118715D01*
X134632Y118649D01*
X134700Y118581D01*
X134766Y118510D01*
X134828Y118436D01*
X134888Y118360D01*
X134944Y118282D01*
X134998Y118201D01*
X135048Y118118D01*
X135094Y118034D01*
X135137Y117947D01*
X135177Y117859D01*
X135213Y117770D01*
X135246Y117679D01*
X135274Y117586D01*
X135299Y117493D01*
X135321Y117399D01*
X135338Y117304D01*
X135352Y117208D01*
X135361Y117112D01*
X135367Y117016D01*
X135369Y116919D01*
X135367Y116822D01*
X135361Y116726D01*
X135352Y116630D01*
X135338Y116534D01*
X135321Y116439D01*
X135299Y116345D01*
X135274Y116252D01*
X135246Y116159D01*
X135213Y116068D01*
X135177Y115979D01*
X135137Y115891D01*
X135094Y115804D01*
X135048Y115719D01*
X134998Y115637D01*
X134944Y115556D01*
X134888Y115478D01*
X134828Y115402D01*
X134766Y115328D01*
X134700Y115257D01*
X134632Y115189D01*
X134561Y115123D01*
X134487Y115061D01*
X134411Y115001D01*
X134333Y114945D01*
X134252Y114891D01*
X134170Y114841D01*
X134085Y114795D01*
X133998Y114752D01*
X133910Y114712D01*
X133821Y114676D01*
X133730Y114643D01*
X133637Y114615D01*
X133544Y114590D01*
X133450Y114568D01*
X133355Y114551D01*
X133259Y114537D01*
X133163Y114528D01*
X133067Y114522D01*
X132970Y114520D01*
X130571Y114520D01*
X133450Y114520D02*
X135369Y110682D01*
X142270Y119318D02*
X142362Y119316D01*
X142453Y119310D01*
X142544Y119301D01*
X142635Y119287D01*
X142725Y119270D01*
X142814Y119248D01*
X142902Y119223D01*
X142989Y119195D01*
X143075Y119162D01*
X143159Y119126D01*
X143242Y119087D01*
X143323Y119044D01*
X143402Y118997D01*
X143479Y118948D01*
X143554Y118895D01*
X143626Y118839D01*
X143696Y118780D01*
X143764Y118718D01*
X143829Y118653D01*
X143891Y118585D01*
X143950Y118515D01*
X144006Y118443D01*
X144059Y118368D01*
X144108Y118291D01*
X144155Y118212D01*
X144198Y118131D01*
X144237Y118048D01*
X144273Y117964D01*
X144306Y117878D01*
X144334Y117791D01*
X144359Y117703D01*
X144381Y117614D01*
X144398Y117524D01*
X144412Y117433D01*
X144421Y117342D01*
X144427Y117251D01*
X144429Y117159D01*
X142270Y119318D02*
X142167Y119316D01*
X142065Y119310D01*
X141963Y119301D01*
X141861Y119288D01*
X141760Y119271D01*
X141659Y119250D01*
X141560Y119226D01*
X141461Y119197D01*
X141364Y119166D01*
X141267Y119130D01*
X141172Y119092D01*
X141079Y119049D01*
X140987Y119003D01*
X140897Y118954D01*
X140809Y118902D01*
X140722Y118846D01*
X140638Y118787D01*
X140557Y118726D01*
X140477Y118661D01*
X140400Y118593D01*
X140325Y118522D01*
X140254Y118449D01*
X140185Y118373D01*
X140118Y118295D01*
X140055Y118214D01*
X139995Y118131D01*
X139938Y118046D01*
X139884Y117959D01*
X139833Y117869D01*
X139786Y117778D01*
X139742Y117686D01*
X139701Y117591D01*
X139664Y117496D01*
X139631Y117399D01*
X143709Y115480D02*
X143776Y115546D01*
X143840Y115615D01*
X143901Y115686D01*
X143959Y115760D01*
X144014Y115836D01*
X144066Y115914D01*
X144115Y115994D01*
X144161Y116076D01*
X144203Y116160D01*
X144242Y116246D01*
X144277Y116333D01*
X144308Y116421D01*
X144336Y116511D01*
X144361Y116601D01*
X144382Y116693D01*
X144399Y116785D01*
X144412Y116878D01*
X144421Y116971D01*
X144427Y117065D01*
X144429Y117159D01*
X143709Y115480D02*
X139631Y110682D01*
X144429Y110682D01*
X170691Y45682D02*
X172610Y45682D01*
X170691Y45682D02*
X170605Y45684D01*
X170519Y45690D01*
X170433Y45699D01*
X170348Y45713D01*
X170264Y45730D01*
X170180Y45751D01*
X170098Y45776D01*
X170017Y45804D01*
X169937Y45836D01*
X169858Y45872D01*
X169782Y45911D01*
X169707Y45954D01*
X169634Y45999D01*
X169563Y46048D01*
X169495Y46101D01*
X169428Y46156D01*
X169365Y46214D01*
X169304Y46275D01*
X169246Y46338D01*
X169191Y46405D01*
X169138Y46473D01*
X169089Y46544D01*
X169044Y46617D01*
X169001Y46692D01*
X168962Y46768D01*
X168926Y46847D01*
X168894Y46927D01*
X168866Y47008D01*
X168841Y47090D01*
X168820Y47174D01*
X168803Y47258D01*
X168789Y47343D01*
X168780Y47429D01*
X168774Y47515D01*
X168772Y47601D01*
X168772Y52399D01*
X168774Y52485D01*
X168780Y52571D01*
X168789Y52657D01*
X168803Y52742D01*
X168820Y52826D01*
X168841Y52910D01*
X168866Y52992D01*
X168894Y53073D01*
X168926Y53153D01*
X168962Y53232D01*
X169001Y53308D01*
X169044Y53383D01*
X169089Y53456D01*
X169138Y53527D01*
X169191Y53595D01*
X169246Y53662D01*
X169304Y53725D01*
X169365Y53786D01*
X169428Y53844D01*
X169495Y53899D01*
X169563Y53951D01*
X169634Y54001D01*
X169707Y54046D01*
X169782Y54089D01*
X169858Y54128D01*
X169937Y54164D01*
X170017Y54196D01*
X170098Y54224D01*
X170180Y54249D01*
X170264Y54270D01*
X170348Y54287D01*
X170433Y54301D01*
X170519Y54310D01*
X170605Y54316D01*
X170691Y54318D01*
X172610Y54318D01*
X179069Y54318D02*
X179161Y54316D01*
X179252Y54310D01*
X179343Y54301D01*
X179434Y54287D01*
X179524Y54270D01*
X179613Y54248D01*
X179701Y54223D01*
X179788Y54195D01*
X179874Y54162D01*
X179958Y54126D01*
X180041Y54087D01*
X180122Y54044D01*
X180201Y53997D01*
X180278Y53948D01*
X180353Y53895D01*
X180425Y53839D01*
X180495Y53780D01*
X180563Y53718D01*
X180628Y53653D01*
X180690Y53585D01*
X180749Y53515D01*
X180805Y53443D01*
X180858Y53368D01*
X180907Y53291D01*
X180954Y53212D01*
X180997Y53131D01*
X181036Y53048D01*
X181072Y52964D01*
X181105Y52878D01*
X181133Y52791D01*
X181158Y52703D01*
X181180Y52614D01*
X181197Y52524D01*
X181211Y52433D01*
X181220Y52342D01*
X181226Y52251D01*
X181228Y52159D01*
X179069Y54318D02*
X178966Y54316D01*
X178864Y54310D01*
X178762Y54301D01*
X178660Y54288D01*
X178559Y54271D01*
X178458Y54250D01*
X178359Y54226D01*
X178260Y54197D01*
X178163Y54166D01*
X178066Y54130D01*
X177971Y54092D01*
X177878Y54049D01*
X177786Y54003D01*
X177696Y53954D01*
X177608Y53902D01*
X177521Y53846D01*
X177437Y53787D01*
X177356Y53726D01*
X177276Y53661D01*
X177199Y53593D01*
X177124Y53522D01*
X177053Y53449D01*
X176984Y53373D01*
X176917Y53295D01*
X176854Y53214D01*
X176794Y53131D01*
X176737Y53046D01*
X176683Y52959D01*
X176632Y52869D01*
X176585Y52778D01*
X176541Y52686D01*
X176500Y52591D01*
X176463Y52496D01*
X176430Y52399D01*
X180508Y50480D02*
X180575Y50546D01*
X180639Y50615D01*
X180700Y50686D01*
X180758Y50760D01*
X180813Y50836D01*
X180865Y50914D01*
X180914Y50994D01*
X180960Y51076D01*
X181002Y51160D01*
X181041Y51246D01*
X181076Y51333D01*
X181107Y51421D01*
X181135Y51511D01*
X181160Y51601D01*
X181181Y51693D01*
X181198Y51785D01*
X181211Y51878D01*
X181220Y51971D01*
X181226Y52065D01*
X181228Y52159D01*
X180508Y50480D02*
X176430Y45682D01*
X181228Y45682D01*
X180110Y170682D02*
X178191Y170682D01*
X178105Y170684D01*
X178019Y170690D01*
X177933Y170699D01*
X177848Y170713D01*
X177764Y170730D01*
X177680Y170751D01*
X177598Y170776D01*
X177517Y170804D01*
X177437Y170836D01*
X177358Y170872D01*
X177282Y170911D01*
X177207Y170954D01*
X177134Y170999D01*
X177063Y171048D01*
X176995Y171101D01*
X176928Y171156D01*
X176865Y171214D01*
X176804Y171275D01*
X176746Y171338D01*
X176691Y171405D01*
X176638Y171473D01*
X176589Y171544D01*
X176544Y171617D01*
X176501Y171692D01*
X176462Y171768D01*
X176426Y171847D01*
X176394Y171927D01*
X176366Y172008D01*
X176341Y172090D01*
X176320Y172174D01*
X176303Y172258D01*
X176289Y172343D01*
X176280Y172429D01*
X176274Y172515D01*
X176272Y172601D01*
X176272Y177399D01*
X176274Y177485D01*
X176280Y177571D01*
X176289Y177657D01*
X176303Y177742D01*
X176320Y177826D01*
X176341Y177910D01*
X176366Y177992D01*
X176394Y178073D01*
X176426Y178153D01*
X176462Y178232D01*
X176501Y178308D01*
X176544Y178383D01*
X176589Y178456D01*
X176638Y178527D01*
X176691Y178595D01*
X176746Y178662D01*
X176804Y178725D01*
X176865Y178786D01*
X176928Y178844D01*
X176995Y178899D01*
X177063Y178951D01*
X177134Y179001D01*
X177207Y179046D01*
X177282Y179089D01*
X177358Y179128D01*
X177437Y179164D01*
X177517Y179196D01*
X177598Y179224D01*
X177680Y179249D01*
X177764Y179270D01*
X177848Y179287D01*
X177933Y179301D01*
X178019Y179310D01*
X178105Y179316D01*
X178191Y179318D01*
X180110Y179318D01*
X183930Y170682D02*
X186329Y170682D01*
X186426Y170684D01*
X186522Y170690D01*
X186618Y170699D01*
X186714Y170713D01*
X186809Y170730D01*
X186903Y170752D01*
X186996Y170777D01*
X187089Y170805D01*
X187180Y170838D01*
X187269Y170874D01*
X187357Y170914D01*
X187444Y170957D01*
X187529Y171003D01*
X187611Y171053D01*
X187692Y171107D01*
X187770Y171163D01*
X187846Y171223D01*
X187920Y171285D01*
X187991Y171351D01*
X188059Y171419D01*
X188125Y171490D01*
X188187Y171564D01*
X188247Y171640D01*
X188303Y171718D01*
X188357Y171799D01*
X188407Y171882D01*
X188453Y171966D01*
X188496Y172053D01*
X188536Y172141D01*
X188572Y172230D01*
X188605Y172321D01*
X188633Y172414D01*
X188658Y172507D01*
X188680Y172601D01*
X188697Y172696D01*
X188711Y172792D01*
X188720Y172888D01*
X188726Y172984D01*
X188728Y173081D01*
X188726Y173178D01*
X188720Y173274D01*
X188711Y173370D01*
X188697Y173466D01*
X188680Y173561D01*
X188658Y173655D01*
X188633Y173748D01*
X188605Y173841D01*
X188572Y173932D01*
X188536Y174021D01*
X188496Y174109D01*
X188453Y174196D01*
X188407Y174280D01*
X188357Y174363D01*
X188303Y174444D01*
X188247Y174522D01*
X188187Y174598D01*
X188125Y174672D01*
X188059Y174743D01*
X187991Y174811D01*
X187920Y174877D01*
X187846Y174939D01*
X187770Y174999D01*
X187692Y175055D01*
X187611Y175109D01*
X187529Y175159D01*
X187444Y175205D01*
X187357Y175248D01*
X187269Y175288D01*
X187180Y175324D01*
X187089Y175357D01*
X186996Y175385D01*
X186903Y175410D01*
X186809Y175432D01*
X186714Y175449D01*
X186618Y175463D01*
X186522Y175472D01*
X186426Y175478D01*
X186329Y175480D01*
X186809Y179318D02*
X183930Y179318D01*
X186809Y179318D02*
X186895Y179316D01*
X186981Y179310D01*
X187067Y179301D01*
X187152Y179287D01*
X187236Y179270D01*
X187320Y179249D01*
X187402Y179224D01*
X187483Y179196D01*
X187563Y179164D01*
X187642Y179128D01*
X187718Y179089D01*
X187793Y179046D01*
X187866Y179001D01*
X187937Y178952D01*
X188005Y178899D01*
X188072Y178844D01*
X188135Y178786D01*
X188196Y178725D01*
X188254Y178662D01*
X188309Y178595D01*
X188362Y178527D01*
X188411Y178456D01*
X188456Y178383D01*
X188499Y178308D01*
X188538Y178232D01*
X188574Y178153D01*
X188606Y178073D01*
X188634Y177992D01*
X188659Y177910D01*
X188680Y177826D01*
X188697Y177742D01*
X188711Y177657D01*
X188720Y177571D01*
X188726Y177485D01*
X188728Y177399D01*
X188726Y177313D01*
X188720Y177227D01*
X188711Y177141D01*
X188697Y177056D01*
X188680Y176972D01*
X188659Y176888D01*
X188634Y176806D01*
X188606Y176725D01*
X188574Y176645D01*
X188538Y176566D01*
X188499Y176490D01*
X188456Y176415D01*
X188411Y176342D01*
X188362Y176271D01*
X188309Y176203D01*
X188254Y176136D01*
X188196Y176073D01*
X188135Y176012D01*
X188072Y175954D01*
X188005Y175899D01*
X187937Y175846D01*
X187866Y175797D01*
X187793Y175752D01*
X187718Y175709D01*
X187642Y175670D01*
X187563Y175634D01*
X187483Y175602D01*
X187402Y175574D01*
X187320Y175549D01*
X187236Y175528D01*
X187152Y175511D01*
X187067Y175497D01*
X186981Y175488D01*
X186895Y175482D01*
X186809Y175480D01*
X184890Y175480D01*
X269318Y100110D02*
X269318Y98191D01*
X269316Y98105D01*
X269310Y98019D01*
X269301Y97933D01*
X269287Y97848D01*
X269270Y97764D01*
X269249Y97680D01*
X269224Y97598D01*
X269196Y97517D01*
X269164Y97437D01*
X269128Y97358D01*
X269089Y97282D01*
X269046Y97207D01*
X269001Y97134D01*
X268952Y97063D01*
X268899Y96995D01*
X268844Y96928D01*
X268786Y96865D01*
X268725Y96804D01*
X268662Y96746D01*
X268595Y96691D01*
X268527Y96639D01*
X268456Y96589D01*
X268383Y96544D01*
X268308Y96501D01*
X268232Y96462D01*
X268153Y96426D01*
X268073Y96394D01*
X267992Y96366D01*
X267910Y96341D01*
X267826Y96320D01*
X267742Y96303D01*
X267657Y96289D01*
X267571Y96280D01*
X267485Y96274D01*
X267399Y96272D01*
X262601Y96272D01*
X262515Y96274D01*
X262429Y96280D01*
X262343Y96289D01*
X262258Y96303D01*
X262174Y96320D01*
X262090Y96341D01*
X262008Y96366D01*
X261927Y96394D01*
X261847Y96426D01*
X261768Y96462D01*
X261692Y96501D01*
X261617Y96544D01*
X261544Y96589D01*
X261473Y96638D01*
X261405Y96691D01*
X261338Y96746D01*
X261275Y96804D01*
X261214Y96865D01*
X261156Y96928D01*
X261101Y96995D01*
X261049Y97063D01*
X260999Y97134D01*
X260954Y97207D01*
X260911Y97282D01*
X260872Y97358D01*
X260836Y97437D01*
X260804Y97517D01*
X260776Y97598D01*
X260751Y97680D01*
X260730Y97764D01*
X260713Y97848D01*
X260699Y97933D01*
X260690Y98019D01*
X260684Y98105D01*
X260682Y98191D01*
X260682Y100110D01*
X260682Y105849D02*
X267399Y103930D01*
X267399Y108728D01*
X265480Y107289D02*
X269318Y107289D01*
X225110Y170682D02*
X223191Y170682D01*
X223105Y170684D01*
X223019Y170690D01*
X222933Y170699D01*
X222848Y170713D01*
X222764Y170730D01*
X222680Y170751D01*
X222598Y170776D01*
X222517Y170804D01*
X222437Y170836D01*
X222358Y170872D01*
X222282Y170911D01*
X222207Y170954D01*
X222134Y170999D01*
X222063Y171048D01*
X221995Y171101D01*
X221928Y171156D01*
X221865Y171214D01*
X221804Y171275D01*
X221746Y171338D01*
X221691Y171405D01*
X221638Y171473D01*
X221589Y171544D01*
X221544Y171617D01*
X221501Y171692D01*
X221462Y171768D01*
X221426Y171847D01*
X221394Y171927D01*
X221366Y172008D01*
X221341Y172090D01*
X221320Y172174D01*
X221303Y172258D01*
X221289Y172343D01*
X221280Y172429D01*
X221274Y172515D01*
X221272Y172601D01*
X221272Y177399D01*
X221274Y177485D01*
X221280Y177571D01*
X221289Y177657D01*
X221303Y177742D01*
X221320Y177826D01*
X221341Y177910D01*
X221366Y177992D01*
X221394Y178073D01*
X221426Y178153D01*
X221462Y178232D01*
X221501Y178308D01*
X221544Y178383D01*
X221589Y178456D01*
X221638Y178527D01*
X221691Y178595D01*
X221746Y178662D01*
X221804Y178725D01*
X221865Y178786D01*
X221928Y178844D01*
X221995Y178899D01*
X222063Y178951D01*
X222134Y179001D01*
X222207Y179046D01*
X222282Y179089D01*
X222358Y179128D01*
X222437Y179164D01*
X222517Y179196D01*
X222598Y179224D01*
X222680Y179249D01*
X222764Y179270D01*
X222848Y179287D01*
X222933Y179301D01*
X223019Y179310D01*
X223105Y179316D01*
X223191Y179318D01*
X225110Y179318D01*
X228930Y170682D02*
X231809Y170682D01*
X231895Y170684D01*
X231981Y170690D01*
X232067Y170699D01*
X232152Y170713D01*
X232236Y170730D01*
X232320Y170751D01*
X232402Y170776D01*
X232483Y170804D01*
X232563Y170836D01*
X232642Y170872D01*
X232718Y170911D01*
X232793Y170954D01*
X232866Y170999D01*
X232937Y171049D01*
X233005Y171101D01*
X233072Y171156D01*
X233135Y171214D01*
X233196Y171275D01*
X233254Y171338D01*
X233309Y171405D01*
X233362Y171473D01*
X233411Y171544D01*
X233456Y171617D01*
X233499Y171692D01*
X233538Y171768D01*
X233574Y171847D01*
X233606Y171927D01*
X233634Y172008D01*
X233659Y172091D01*
X233680Y172174D01*
X233697Y172258D01*
X233711Y172343D01*
X233720Y172429D01*
X233726Y172515D01*
X233728Y172601D01*
X233728Y173561D01*
X233726Y173647D01*
X233720Y173733D01*
X233711Y173819D01*
X233697Y173904D01*
X233680Y173988D01*
X233659Y174072D01*
X233634Y174154D01*
X233606Y174235D01*
X233574Y174315D01*
X233538Y174394D01*
X233499Y174470D01*
X233456Y174545D01*
X233411Y174618D01*
X233362Y174689D01*
X233309Y174757D01*
X233254Y174824D01*
X233196Y174887D01*
X233135Y174948D01*
X233072Y175006D01*
X233005Y175061D01*
X232937Y175114D01*
X232866Y175163D01*
X232793Y175208D01*
X232718Y175251D01*
X232642Y175290D01*
X232563Y175326D01*
X232483Y175358D01*
X232402Y175386D01*
X232320Y175411D01*
X232236Y175432D01*
X232152Y175449D01*
X232067Y175463D01*
X231981Y175472D01*
X231895Y175478D01*
X231809Y175480D01*
X228930Y175480D01*
X228930Y179318D01*
X233728Y179318D01*
X331818Y27610D02*
X331818Y25691D01*
X331816Y25605D01*
X331810Y25519D01*
X331801Y25433D01*
X331787Y25348D01*
X331770Y25264D01*
X331749Y25180D01*
X331724Y25098D01*
X331696Y25017D01*
X331664Y24937D01*
X331628Y24858D01*
X331589Y24782D01*
X331546Y24707D01*
X331501Y24634D01*
X331452Y24563D01*
X331399Y24495D01*
X331344Y24428D01*
X331286Y24365D01*
X331225Y24304D01*
X331162Y24246D01*
X331095Y24191D01*
X331027Y24139D01*
X330956Y24089D01*
X330883Y24044D01*
X330808Y24001D01*
X330732Y23962D01*
X330653Y23926D01*
X330573Y23894D01*
X330492Y23866D01*
X330410Y23841D01*
X330326Y23820D01*
X330242Y23803D01*
X330157Y23789D01*
X330071Y23780D01*
X329985Y23774D01*
X329899Y23772D01*
X325101Y23772D01*
X325015Y23774D01*
X324929Y23780D01*
X324843Y23789D01*
X324758Y23803D01*
X324674Y23820D01*
X324590Y23841D01*
X324508Y23866D01*
X324427Y23894D01*
X324347Y23926D01*
X324268Y23962D01*
X324192Y24001D01*
X324117Y24044D01*
X324044Y24089D01*
X323973Y24138D01*
X323905Y24191D01*
X323838Y24246D01*
X323775Y24304D01*
X323714Y24365D01*
X323656Y24428D01*
X323601Y24495D01*
X323549Y24563D01*
X323499Y24634D01*
X323454Y24707D01*
X323411Y24782D01*
X323372Y24858D01*
X323336Y24937D01*
X323304Y25017D01*
X323276Y25098D01*
X323251Y25180D01*
X323230Y25264D01*
X323213Y25348D01*
X323199Y25433D01*
X323190Y25519D01*
X323184Y25605D01*
X323182Y25691D01*
X323182Y27610D01*
X323182Y31430D02*
X324142Y31430D01*
X323182Y31430D02*
X323182Y36228D01*
X331818Y33829D01*
X284318Y180571D02*
X275682Y180571D01*
X275682Y182970D01*
X275684Y183067D01*
X275690Y183163D01*
X275699Y183259D01*
X275713Y183355D01*
X275730Y183450D01*
X275752Y183544D01*
X275777Y183637D01*
X275805Y183730D01*
X275838Y183821D01*
X275874Y183910D01*
X275914Y183998D01*
X275957Y184085D01*
X276003Y184170D01*
X276053Y184252D01*
X276107Y184333D01*
X276163Y184411D01*
X276223Y184487D01*
X276285Y184561D01*
X276351Y184632D01*
X276419Y184700D01*
X276490Y184766D01*
X276564Y184828D01*
X276640Y184888D01*
X276718Y184944D01*
X276799Y184998D01*
X276882Y185048D01*
X276966Y185094D01*
X277053Y185137D01*
X277141Y185177D01*
X277230Y185213D01*
X277321Y185246D01*
X277414Y185274D01*
X277507Y185299D01*
X277601Y185321D01*
X277696Y185338D01*
X277792Y185352D01*
X277888Y185361D01*
X277984Y185367D01*
X278081Y185369D01*
X278178Y185367D01*
X278274Y185361D01*
X278370Y185352D01*
X278466Y185338D01*
X278561Y185321D01*
X278655Y185299D01*
X278748Y185274D01*
X278841Y185246D01*
X278932Y185213D01*
X279021Y185177D01*
X279109Y185137D01*
X279196Y185094D01*
X279281Y185048D01*
X279363Y184998D01*
X279444Y184944D01*
X279522Y184888D01*
X279598Y184828D01*
X279672Y184766D01*
X279743Y184700D01*
X279811Y184632D01*
X279877Y184561D01*
X279939Y184487D01*
X279999Y184411D01*
X280055Y184333D01*
X280109Y184252D01*
X280159Y184170D01*
X280205Y184085D01*
X280248Y183998D01*
X280288Y183910D01*
X280324Y183821D01*
X280357Y183730D01*
X280385Y183637D01*
X280410Y183544D01*
X280432Y183450D01*
X280449Y183355D01*
X280463Y183259D01*
X280472Y183163D01*
X280478Y183067D01*
X280480Y182970D01*
X280480Y180571D01*
X280480Y183450D02*
X284318Y185369D01*
X284318Y189631D02*
X284318Y192030D01*
X284316Y192127D01*
X284310Y192223D01*
X284301Y192319D01*
X284287Y192415D01*
X284270Y192510D01*
X284248Y192604D01*
X284223Y192697D01*
X284195Y192790D01*
X284162Y192881D01*
X284126Y192970D01*
X284086Y193058D01*
X284043Y193145D01*
X283997Y193230D01*
X283947Y193312D01*
X283893Y193393D01*
X283837Y193471D01*
X283777Y193547D01*
X283715Y193621D01*
X283649Y193692D01*
X283581Y193760D01*
X283510Y193826D01*
X283436Y193888D01*
X283360Y193948D01*
X283282Y194004D01*
X283201Y194058D01*
X283119Y194108D01*
X283034Y194154D01*
X282947Y194197D01*
X282859Y194237D01*
X282770Y194273D01*
X282679Y194306D01*
X282586Y194334D01*
X282493Y194359D01*
X282399Y194381D01*
X282304Y194398D01*
X282208Y194412D01*
X282112Y194421D01*
X282016Y194427D01*
X281919Y194429D01*
X281822Y194427D01*
X281726Y194421D01*
X281630Y194412D01*
X281534Y194398D01*
X281439Y194381D01*
X281345Y194359D01*
X281252Y194334D01*
X281159Y194306D01*
X281068Y194273D01*
X280979Y194237D01*
X280891Y194197D01*
X280804Y194154D01*
X280720Y194108D01*
X280637Y194058D01*
X280556Y194004D01*
X280478Y193948D01*
X280402Y193888D01*
X280328Y193826D01*
X280257Y193760D01*
X280189Y193692D01*
X280123Y193621D01*
X280061Y193547D01*
X280001Y193471D01*
X279945Y193393D01*
X279891Y193312D01*
X279841Y193230D01*
X279795Y193145D01*
X279752Y193058D01*
X279712Y192970D01*
X279676Y192881D01*
X279643Y192790D01*
X279615Y192697D01*
X279590Y192604D01*
X279568Y192510D01*
X279551Y192415D01*
X279537Y192319D01*
X279528Y192223D01*
X279522Y192127D01*
X279520Y192030D01*
X275682Y192509D02*
X275682Y189631D01*
X275682Y192509D02*
X275684Y192595D01*
X275690Y192681D01*
X275699Y192767D01*
X275713Y192852D01*
X275730Y192936D01*
X275751Y193020D01*
X275776Y193102D01*
X275804Y193183D01*
X275836Y193263D01*
X275872Y193342D01*
X275911Y193418D01*
X275954Y193493D01*
X275999Y193566D01*
X276048Y193637D01*
X276101Y193705D01*
X276156Y193772D01*
X276214Y193835D01*
X276275Y193896D01*
X276338Y193954D01*
X276405Y194009D01*
X276473Y194062D01*
X276544Y194111D01*
X276617Y194156D01*
X276692Y194199D01*
X276768Y194238D01*
X276847Y194274D01*
X276927Y194306D01*
X277008Y194334D01*
X277090Y194359D01*
X277174Y194380D01*
X277258Y194397D01*
X277343Y194411D01*
X277429Y194420D01*
X277515Y194426D01*
X277601Y194428D01*
X277687Y194426D01*
X277773Y194420D01*
X277859Y194411D01*
X277944Y194397D01*
X278028Y194380D01*
X278112Y194359D01*
X278194Y194334D01*
X278275Y194306D01*
X278355Y194274D01*
X278434Y194238D01*
X278510Y194199D01*
X278585Y194156D01*
X278658Y194111D01*
X278729Y194062D01*
X278797Y194009D01*
X278864Y193954D01*
X278927Y193896D01*
X278988Y193835D01*
X279046Y193772D01*
X279101Y193705D01*
X279154Y193637D01*
X279203Y193566D01*
X279248Y193493D01*
X279291Y193418D01*
X279330Y193342D01*
X279366Y193263D01*
X279398Y193183D01*
X279426Y193102D01*
X279451Y193020D01*
X279472Y192936D01*
X279489Y192852D01*
X279503Y192767D01*
X279512Y192681D01*
X279518Y192595D01*
X279520Y192509D01*
X279520Y190590D01*
D14*
X290000Y177500D03*
D15*
X297500Y161000D03*
D13*
X301818Y180377D02*
X293182Y180377D01*
X293182Y182776D01*
X293184Y182873D01*
X293190Y182969D01*
X293199Y183065D01*
X293213Y183161D01*
X293230Y183256D01*
X293252Y183350D01*
X293277Y183443D01*
X293305Y183536D01*
X293338Y183627D01*
X293374Y183716D01*
X293414Y183804D01*
X293457Y183891D01*
X293503Y183976D01*
X293553Y184058D01*
X293607Y184139D01*
X293663Y184217D01*
X293723Y184293D01*
X293785Y184367D01*
X293851Y184438D01*
X293919Y184506D01*
X293990Y184572D01*
X294064Y184634D01*
X294140Y184694D01*
X294218Y184750D01*
X294299Y184804D01*
X294382Y184854D01*
X294466Y184900D01*
X294553Y184943D01*
X294641Y184983D01*
X294730Y185019D01*
X294821Y185052D01*
X294914Y185080D01*
X295007Y185105D01*
X295101Y185127D01*
X295196Y185144D01*
X295292Y185158D01*
X295388Y185167D01*
X295484Y185173D01*
X295581Y185175D01*
X299419Y185175D01*
X299516Y185173D01*
X299612Y185167D01*
X299708Y185158D01*
X299804Y185144D01*
X299899Y185127D01*
X299993Y185105D01*
X300086Y185080D01*
X300179Y185052D01*
X300270Y185019D01*
X300359Y184983D01*
X300447Y184943D01*
X300534Y184900D01*
X300619Y184854D01*
X300701Y184804D01*
X300782Y184750D01*
X300860Y184694D01*
X300936Y184634D01*
X301010Y184572D01*
X301081Y184506D01*
X301149Y184438D01*
X301215Y184367D01*
X301277Y184293D01*
X301337Y184217D01*
X301393Y184139D01*
X301447Y184058D01*
X301497Y183976D01*
X301543Y183891D01*
X301586Y183804D01*
X301626Y183716D01*
X301662Y183627D01*
X301695Y183536D01*
X301723Y183443D01*
X301748Y183350D01*
X301770Y183256D01*
X301787Y183161D01*
X301801Y183065D01*
X301810Y182969D01*
X301816Y182873D01*
X301818Y182776D01*
X301818Y180377D01*
X295101Y189826D02*
X293182Y192224D01*
X301818Y192224D01*
X301818Y189826D02*
X301818Y194623D01*
D16*
X43000Y143200D02*
X25000Y143200D01*
X25000Y56800D02*
X43000Y56800D01*
D13*
X78182Y96742D02*
X84899Y96742D01*
X84985Y96740D01*
X85071Y96734D01*
X85157Y96725D01*
X85242Y96711D01*
X85326Y96694D01*
X85410Y96673D01*
X85492Y96648D01*
X85573Y96620D01*
X85653Y96588D01*
X85732Y96552D01*
X85808Y96513D01*
X85883Y96470D01*
X85956Y96425D01*
X86027Y96375D01*
X86095Y96323D01*
X86162Y96268D01*
X86225Y96210D01*
X86286Y96149D01*
X86344Y96086D01*
X86399Y96019D01*
X86452Y95951D01*
X86501Y95880D01*
X86546Y95807D01*
X86589Y95732D01*
X86628Y95656D01*
X86664Y95577D01*
X86696Y95497D01*
X86724Y95416D01*
X86749Y95333D01*
X86770Y95250D01*
X86787Y95166D01*
X86801Y95081D01*
X86810Y94995D01*
X86816Y94909D01*
X86818Y94823D01*
X86818Y93863D01*
X80101Y101339D02*
X78182Y103738D01*
X86818Y103738D01*
X86818Y101339D02*
X86818Y106137D01*
D17*
X346000Y177050D02*
X346000Y22950D01*
X346000Y177050D02*
X404000Y177050D01*
X404000Y22950D01*
X346000Y22950D01*
D11*
X353000Y145000D03*
D13*
X358428Y180682D02*
X358428Y189318D01*
X360827Y189318D01*
X360924Y189316D01*
X361020Y189310D01*
X361116Y189301D01*
X361212Y189287D01*
X361307Y189270D01*
X361401Y189248D01*
X361494Y189223D01*
X361587Y189195D01*
X361678Y189162D01*
X361767Y189126D01*
X361855Y189086D01*
X361942Y189043D01*
X362027Y188997D01*
X362109Y188947D01*
X362190Y188893D01*
X362268Y188837D01*
X362344Y188777D01*
X362418Y188715D01*
X362489Y188649D01*
X362557Y188581D01*
X362623Y188510D01*
X362685Y188436D01*
X362745Y188360D01*
X362801Y188282D01*
X362855Y188201D01*
X362905Y188119D01*
X362951Y188034D01*
X362994Y187947D01*
X363034Y187859D01*
X363070Y187770D01*
X363103Y187679D01*
X363131Y187586D01*
X363156Y187493D01*
X363178Y187399D01*
X363195Y187304D01*
X363209Y187208D01*
X363218Y187112D01*
X363224Y187016D01*
X363226Y186919D01*
X363226Y183081D01*
X363224Y182984D01*
X363218Y182888D01*
X363209Y182792D01*
X363195Y182696D01*
X363178Y182601D01*
X363156Y182507D01*
X363131Y182414D01*
X363103Y182321D01*
X363070Y182230D01*
X363034Y182141D01*
X362994Y182053D01*
X362951Y181966D01*
X362905Y181882D01*
X362855Y181799D01*
X362801Y181718D01*
X362745Y181640D01*
X362685Y181564D01*
X362623Y181490D01*
X362557Y181419D01*
X362489Y181351D01*
X362418Y181285D01*
X362344Y181223D01*
X362268Y181163D01*
X362190Y181107D01*
X362109Y181053D01*
X362027Y181003D01*
X361942Y180957D01*
X361855Y180914D01*
X361767Y180874D01*
X361678Y180838D01*
X361587Y180805D01*
X361494Y180777D01*
X361401Y180752D01*
X361307Y180730D01*
X361212Y180713D01*
X361116Y180699D01*
X361020Y180690D01*
X360924Y180684D01*
X360827Y180682D01*
X358428Y180682D01*
X368376Y185480D02*
X370775Y185480D01*
X370872Y185478D01*
X370968Y185472D01*
X371064Y185463D01*
X371160Y185449D01*
X371255Y185432D01*
X371349Y185410D01*
X371442Y185385D01*
X371535Y185357D01*
X371626Y185324D01*
X371715Y185288D01*
X371803Y185248D01*
X371890Y185205D01*
X371975Y185159D01*
X372057Y185109D01*
X372138Y185055D01*
X372216Y184999D01*
X372292Y184939D01*
X372366Y184877D01*
X372437Y184811D01*
X372505Y184743D01*
X372571Y184672D01*
X372633Y184598D01*
X372693Y184522D01*
X372749Y184444D01*
X372803Y184363D01*
X372853Y184280D01*
X372899Y184196D01*
X372942Y184109D01*
X372982Y184021D01*
X373018Y183932D01*
X373051Y183841D01*
X373079Y183748D01*
X373104Y183655D01*
X373126Y183561D01*
X373143Y183466D01*
X373157Y183370D01*
X373166Y183274D01*
X373172Y183178D01*
X373174Y183081D01*
X373172Y182984D01*
X373166Y182888D01*
X373157Y182792D01*
X373143Y182696D01*
X373126Y182601D01*
X373104Y182507D01*
X373079Y182414D01*
X373051Y182321D01*
X373018Y182230D01*
X372982Y182141D01*
X372942Y182053D01*
X372899Y181966D01*
X372853Y181882D01*
X372803Y181799D01*
X372749Y181718D01*
X372693Y181640D01*
X372633Y181564D01*
X372571Y181490D01*
X372505Y181419D01*
X372437Y181351D01*
X372366Y181285D01*
X372292Y181223D01*
X372216Y181163D01*
X372138Y181107D01*
X372057Y181053D01*
X371975Y181003D01*
X371890Y180957D01*
X371803Y180914D01*
X371715Y180874D01*
X371626Y180838D01*
X371535Y180805D01*
X371442Y180777D01*
X371349Y180752D01*
X371255Y180730D01*
X371160Y180713D01*
X371064Y180699D01*
X370968Y180690D01*
X370872Y180684D01*
X370775Y180682D01*
X368376Y180682D01*
X368376Y189318D01*
X370775Y189318D01*
X370861Y189316D01*
X370947Y189310D01*
X371033Y189301D01*
X371118Y189287D01*
X371202Y189270D01*
X371286Y189249D01*
X371368Y189224D01*
X371449Y189196D01*
X371529Y189164D01*
X371608Y189128D01*
X371684Y189089D01*
X371759Y189046D01*
X371832Y189001D01*
X371903Y188952D01*
X371971Y188899D01*
X372038Y188844D01*
X372101Y188786D01*
X372162Y188725D01*
X372220Y188662D01*
X372275Y188595D01*
X372328Y188527D01*
X372377Y188456D01*
X372422Y188383D01*
X372465Y188308D01*
X372504Y188232D01*
X372540Y188153D01*
X372572Y188073D01*
X372600Y187992D01*
X372625Y187910D01*
X372646Y187826D01*
X372663Y187742D01*
X372677Y187657D01*
X372686Y187571D01*
X372692Y187485D01*
X372694Y187399D01*
X372692Y187313D01*
X372686Y187227D01*
X372677Y187141D01*
X372663Y187056D01*
X372646Y186972D01*
X372625Y186888D01*
X372600Y186806D01*
X372572Y186725D01*
X372540Y186645D01*
X372504Y186566D01*
X372465Y186490D01*
X372422Y186415D01*
X372377Y186342D01*
X372328Y186271D01*
X372275Y186203D01*
X372220Y186136D01*
X372162Y186073D01*
X372101Y186012D01*
X372038Y185954D01*
X371971Y185899D01*
X371903Y185846D01*
X371832Y185797D01*
X371759Y185752D01*
X371684Y185709D01*
X371608Y185670D01*
X371529Y185634D01*
X371449Y185602D01*
X371368Y185574D01*
X371286Y185549D01*
X371202Y185528D01*
X371118Y185511D01*
X371033Y185497D01*
X370947Y185488D01*
X370861Y185482D01*
X370775Y185480D01*
X380684Y185480D02*
X382123Y185480D01*
X382123Y180682D01*
X379245Y180682D01*
X379159Y180684D01*
X379073Y180690D01*
X378987Y180699D01*
X378902Y180713D01*
X378818Y180730D01*
X378734Y180751D01*
X378652Y180776D01*
X378571Y180804D01*
X378491Y180836D01*
X378412Y180872D01*
X378336Y180911D01*
X378261Y180954D01*
X378188Y180999D01*
X378117Y181048D01*
X378049Y181101D01*
X377982Y181156D01*
X377919Y181214D01*
X377858Y181275D01*
X377800Y181338D01*
X377745Y181405D01*
X377692Y181473D01*
X377643Y181544D01*
X377598Y181617D01*
X377555Y181692D01*
X377516Y181768D01*
X377480Y181847D01*
X377448Y181927D01*
X377420Y182008D01*
X377395Y182090D01*
X377374Y182174D01*
X377357Y182258D01*
X377343Y182343D01*
X377334Y182429D01*
X377328Y182515D01*
X377326Y182601D01*
X377326Y187399D01*
X377328Y187485D01*
X377334Y187571D01*
X377343Y187657D01*
X377357Y187742D01*
X377374Y187826D01*
X377395Y187910D01*
X377420Y187992D01*
X377448Y188073D01*
X377480Y188153D01*
X377516Y188232D01*
X377555Y188308D01*
X377598Y188383D01*
X377643Y188456D01*
X377692Y188527D01*
X377745Y188595D01*
X377800Y188662D01*
X377858Y188725D01*
X377919Y188786D01*
X377982Y188844D01*
X378049Y188899D01*
X378117Y188951D01*
X378188Y189001D01*
X378261Y189046D01*
X378336Y189089D01*
X378412Y189128D01*
X378491Y189164D01*
X378571Y189196D01*
X378652Y189224D01*
X378734Y189249D01*
X378818Y189270D01*
X378902Y189287D01*
X378987Y189301D01*
X379073Y189310D01*
X379159Y189316D01*
X379245Y189318D01*
X382123Y189318D01*
X386774Y187399D02*
X389173Y189318D01*
X389173Y180682D01*
X386774Y180682D02*
X391572Y180682D01*
X52610Y13182D02*
X50691Y13182D01*
X50605Y13184D01*
X50519Y13190D01*
X50433Y13199D01*
X50348Y13213D01*
X50264Y13230D01*
X50180Y13251D01*
X50098Y13276D01*
X50017Y13304D01*
X49937Y13336D01*
X49858Y13372D01*
X49782Y13411D01*
X49707Y13454D01*
X49634Y13499D01*
X49563Y13548D01*
X49495Y13601D01*
X49428Y13656D01*
X49365Y13714D01*
X49304Y13775D01*
X49246Y13838D01*
X49191Y13905D01*
X49138Y13973D01*
X49089Y14044D01*
X49044Y14117D01*
X49001Y14192D01*
X48962Y14268D01*
X48926Y14347D01*
X48894Y14427D01*
X48866Y14508D01*
X48841Y14590D01*
X48820Y14674D01*
X48803Y14758D01*
X48789Y14843D01*
X48780Y14929D01*
X48774Y15015D01*
X48772Y15101D01*
X48772Y19899D01*
X48774Y19985D01*
X48780Y20071D01*
X48789Y20157D01*
X48803Y20242D01*
X48820Y20326D01*
X48841Y20410D01*
X48866Y20492D01*
X48894Y20573D01*
X48926Y20653D01*
X48962Y20732D01*
X49001Y20808D01*
X49044Y20883D01*
X49089Y20956D01*
X49138Y21027D01*
X49191Y21095D01*
X49246Y21162D01*
X49304Y21225D01*
X49365Y21286D01*
X49428Y21344D01*
X49495Y21399D01*
X49563Y21451D01*
X49634Y21501D01*
X49707Y21546D01*
X49782Y21589D01*
X49858Y21628D01*
X49937Y21664D01*
X50017Y21696D01*
X50098Y21724D01*
X50180Y21749D01*
X50264Y21770D01*
X50348Y21787D01*
X50433Y21801D01*
X50519Y21810D01*
X50605Y21816D01*
X50691Y21818D01*
X52610Y21818D01*
X58349Y17020D02*
X61228Y17020D01*
X58349Y17020D02*
X58263Y17022D01*
X58177Y17028D01*
X58091Y17037D01*
X58006Y17051D01*
X57922Y17068D01*
X57838Y17089D01*
X57756Y17114D01*
X57675Y17142D01*
X57595Y17174D01*
X57516Y17210D01*
X57440Y17249D01*
X57365Y17292D01*
X57292Y17337D01*
X57221Y17386D01*
X57153Y17439D01*
X57086Y17494D01*
X57023Y17552D01*
X56962Y17613D01*
X56904Y17676D01*
X56849Y17743D01*
X56796Y17811D01*
X56747Y17882D01*
X56702Y17955D01*
X56659Y18030D01*
X56620Y18106D01*
X56584Y18185D01*
X56552Y18265D01*
X56524Y18346D01*
X56499Y18428D01*
X56478Y18512D01*
X56461Y18596D01*
X56447Y18681D01*
X56438Y18767D01*
X56432Y18853D01*
X56430Y18939D01*
X56430Y19419D01*
X56432Y19516D01*
X56438Y19612D01*
X56447Y19708D01*
X56461Y19804D01*
X56478Y19899D01*
X56500Y19993D01*
X56525Y20086D01*
X56553Y20179D01*
X56586Y20270D01*
X56622Y20359D01*
X56662Y20447D01*
X56705Y20534D01*
X56751Y20619D01*
X56801Y20701D01*
X56855Y20782D01*
X56911Y20860D01*
X56971Y20936D01*
X57033Y21010D01*
X57099Y21081D01*
X57167Y21149D01*
X57238Y21215D01*
X57312Y21277D01*
X57388Y21337D01*
X57466Y21393D01*
X57547Y21447D01*
X57630Y21497D01*
X57714Y21543D01*
X57801Y21586D01*
X57889Y21626D01*
X57978Y21662D01*
X58069Y21695D01*
X58162Y21723D01*
X58255Y21748D01*
X58349Y21770D01*
X58444Y21787D01*
X58540Y21801D01*
X58636Y21810D01*
X58732Y21816D01*
X58829Y21818D01*
X58926Y21816D01*
X59022Y21810D01*
X59118Y21801D01*
X59214Y21787D01*
X59309Y21770D01*
X59403Y21748D01*
X59496Y21723D01*
X59589Y21695D01*
X59680Y21662D01*
X59769Y21626D01*
X59857Y21586D01*
X59944Y21543D01*
X60029Y21497D01*
X60111Y21447D01*
X60192Y21393D01*
X60270Y21337D01*
X60346Y21277D01*
X60420Y21215D01*
X60491Y21149D01*
X60559Y21081D01*
X60625Y21010D01*
X60687Y20936D01*
X60747Y20860D01*
X60803Y20782D01*
X60857Y20701D01*
X60907Y20619D01*
X60953Y20534D01*
X60996Y20447D01*
X61036Y20359D01*
X61072Y20270D01*
X61105Y20179D01*
X61133Y20086D01*
X61158Y19993D01*
X61180Y19899D01*
X61197Y19804D01*
X61211Y19708D01*
X61220Y19612D01*
X61226Y19516D01*
X61228Y19419D01*
X61228Y17020D01*
X61226Y16897D01*
X61220Y16774D01*
X61210Y16651D01*
X61196Y16529D01*
X61179Y16407D01*
X61157Y16286D01*
X61132Y16166D01*
X61102Y16046D01*
X61069Y15928D01*
X61032Y15811D01*
X60992Y15694D01*
X60948Y15580D01*
X60900Y15466D01*
X60848Y15355D01*
X60793Y15245D01*
X60734Y15137D01*
X60672Y15030D01*
X60607Y14926D01*
X60538Y14824D01*
X60466Y14724D01*
X60391Y14627D01*
X60312Y14532D01*
X60231Y14440D01*
X60147Y14350D01*
X60060Y14263D01*
X59970Y14179D01*
X59878Y14098D01*
X59783Y14019D01*
X59686Y13944D01*
X59586Y13872D01*
X59484Y13803D01*
X59380Y13738D01*
X59273Y13676D01*
X59165Y13617D01*
X59055Y13562D01*
X58944Y13510D01*
X58830Y13463D01*
X58716Y13418D01*
X58599Y13378D01*
X58482Y13341D01*
X58364Y13308D01*
X58244Y13278D01*
X58124Y13253D01*
X58003Y13231D01*
X57881Y13214D01*
X57759Y13200D01*
X57636Y13190D01*
X57513Y13184D01*
X57390Y13182D01*
X136119Y188182D02*
X138038Y188182D01*
X136119Y188182D02*
X136033Y188184D01*
X135947Y188190D01*
X135861Y188199D01*
X135776Y188213D01*
X135692Y188230D01*
X135608Y188251D01*
X135526Y188276D01*
X135445Y188304D01*
X135365Y188336D01*
X135286Y188372D01*
X135210Y188411D01*
X135135Y188454D01*
X135062Y188499D01*
X134991Y188548D01*
X134923Y188601D01*
X134856Y188656D01*
X134793Y188714D01*
X134732Y188775D01*
X134674Y188838D01*
X134619Y188905D01*
X134566Y188973D01*
X134517Y189044D01*
X134472Y189117D01*
X134429Y189192D01*
X134390Y189268D01*
X134354Y189347D01*
X134322Y189427D01*
X134294Y189508D01*
X134269Y189590D01*
X134248Y189674D01*
X134231Y189758D01*
X134217Y189843D01*
X134208Y189929D01*
X134202Y190015D01*
X134200Y190101D01*
X134200Y194899D01*
X134202Y194985D01*
X134208Y195071D01*
X134217Y195157D01*
X134231Y195242D01*
X134248Y195326D01*
X134269Y195410D01*
X134294Y195492D01*
X134322Y195573D01*
X134354Y195653D01*
X134390Y195732D01*
X134429Y195808D01*
X134472Y195883D01*
X134517Y195956D01*
X134566Y196027D01*
X134619Y196095D01*
X134674Y196162D01*
X134732Y196225D01*
X134793Y196286D01*
X134856Y196344D01*
X134923Y196399D01*
X134991Y196451D01*
X135062Y196501D01*
X135135Y196546D01*
X135210Y196589D01*
X135286Y196628D01*
X135365Y196664D01*
X135445Y196696D01*
X135526Y196724D01*
X135608Y196749D01*
X135692Y196770D01*
X135776Y196787D01*
X135861Y196801D01*
X135947Y196810D01*
X136033Y196816D01*
X136119Y196818D01*
X138038Y196818D01*
X141858Y194899D02*
X144257Y196818D01*
X144257Y188182D01*
X141858Y188182D02*
X146656Y188182D01*
X151002Y192500D02*
X151004Y192670D01*
X151010Y192840D01*
X151020Y193009D01*
X151034Y193179D01*
X151053Y193348D01*
X151075Y193516D01*
X151101Y193684D01*
X151131Y193851D01*
X151166Y194017D01*
X151204Y194183D01*
X151246Y194348D01*
X151292Y194511D01*
X151342Y194674D01*
X151396Y194835D01*
X151453Y194995D01*
X151515Y195153D01*
X151580Y195310D01*
X151649Y195465D01*
X151722Y195619D01*
X151750Y195695D01*
X151782Y195770D01*
X151817Y195844D01*
X151855Y195916D01*
X151897Y195986D01*
X151942Y196054D01*
X151990Y196120D01*
X152041Y196184D01*
X152095Y196245D01*
X152151Y196304D01*
X152211Y196360D01*
X152272Y196413D01*
X152336Y196463D01*
X152403Y196511D01*
X152471Y196555D01*
X152542Y196596D01*
X152614Y196634D01*
X152688Y196668D01*
X152763Y196699D01*
X152840Y196727D01*
X152918Y196751D01*
X152997Y196771D01*
X153077Y196788D01*
X153157Y196801D01*
X153238Y196811D01*
X153319Y196816D01*
X153401Y196818D01*
X153483Y196816D01*
X153564Y196811D01*
X153645Y196801D01*
X153725Y196788D01*
X153805Y196771D01*
X153884Y196751D01*
X153962Y196727D01*
X154039Y196699D01*
X154114Y196668D01*
X154188Y196634D01*
X154260Y196596D01*
X154331Y196555D01*
X154399Y196511D01*
X154466Y196463D01*
X154530Y196413D01*
X154591Y196360D01*
X154651Y196304D01*
X154707Y196245D01*
X154761Y196184D01*
X154812Y196120D01*
X154860Y196054D01*
X154905Y195986D01*
X154947Y195916D01*
X154985Y195844D01*
X155020Y195770D01*
X155052Y195695D01*
X155080Y195619D01*
X155153Y195465D01*
X155222Y195310D01*
X155287Y195153D01*
X155349Y194995D01*
X155406Y194835D01*
X155460Y194674D01*
X155510Y194511D01*
X155556Y194348D01*
X155598Y194183D01*
X155636Y194017D01*
X155671Y193851D01*
X155701Y193684D01*
X155727Y193516D01*
X155749Y193348D01*
X155768Y193179D01*
X155782Y193009D01*
X155792Y192840D01*
X155798Y192670D01*
X155800Y192500D01*
X151002Y192500D02*
X151004Y192330D01*
X151010Y192160D01*
X151020Y191991D01*
X151034Y191821D01*
X151053Y191652D01*
X151075Y191484D01*
X151101Y191316D01*
X151131Y191149D01*
X151166Y190983D01*
X151204Y190817D01*
X151246Y190652D01*
X151292Y190489D01*
X151342Y190327D01*
X151396Y190165D01*
X151453Y190006D01*
X151515Y189847D01*
X151580Y189690D01*
X151649Y189535D01*
X151722Y189381D01*
X151750Y189305D01*
X151782Y189230D01*
X151817Y189156D01*
X151855Y189084D01*
X151897Y189014D01*
X151942Y188946D01*
X151990Y188880D01*
X152041Y188816D01*
X152095Y188755D01*
X152151Y188696D01*
X152211Y188640D01*
X152272Y188587D01*
X152336Y188537D01*
X152403Y188489D01*
X152471Y188445D01*
X152542Y188404D01*
X152614Y188366D01*
X152688Y188332D01*
X152763Y188301D01*
X152840Y188273D01*
X152918Y188249D01*
X152997Y188229D01*
X153077Y188212D01*
X153157Y188199D01*
X153238Y188189D01*
X153319Y188184D01*
X153401Y188182D01*
X155080Y189381D02*
X155153Y189535D01*
X155222Y189690D01*
X155287Y189847D01*
X155349Y190006D01*
X155406Y190165D01*
X155460Y190327D01*
X155510Y190489D01*
X155556Y190652D01*
X155598Y190817D01*
X155636Y190983D01*
X155671Y191149D01*
X155701Y191316D01*
X155727Y191484D01*
X155749Y191652D01*
X155768Y191821D01*
X155782Y191991D01*
X155792Y192160D01*
X155798Y192330D01*
X155800Y192500D01*
X155080Y189381D02*
X155052Y189305D01*
X155020Y189230D01*
X154985Y189156D01*
X154947Y189084D01*
X154905Y189014D01*
X154860Y188946D01*
X154812Y188880D01*
X154761Y188816D01*
X154707Y188755D01*
X154651Y188696D01*
X154591Y188640D01*
X154530Y188587D01*
X154466Y188537D01*
X154399Y188489D01*
X154331Y188445D01*
X154260Y188404D01*
X154188Y188366D01*
X154114Y188332D01*
X154039Y188301D01*
X153962Y188273D01*
X153884Y188249D01*
X153805Y188229D01*
X153725Y188212D01*
X153645Y188199D01*
X153564Y188189D01*
X153483Y188184D01*
X153401Y188182D01*
X151482Y190101D02*
X155320Y194899D01*
X161818Y148038D02*
X161818Y146119D01*
X161816Y146033D01*
X161810Y145947D01*
X161801Y145861D01*
X161787Y145776D01*
X161770Y145692D01*
X161749Y145608D01*
X161724Y145526D01*
X161696Y145445D01*
X161664Y145365D01*
X161628Y145286D01*
X161589Y145210D01*
X161546Y145135D01*
X161501Y145062D01*
X161452Y144991D01*
X161399Y144923D01*
X161344Y144856D01*
X161286Y144793D01*
X161225Y144732D01*
X161162Y144674D01*
X161095Y144619D01*
X161027Y144567D01*
X160956Y144517D01*
X160883Y144472D01*
X160808Y144429D01*
X160732Y144390D01*
X160653Y144354D01*
X160573Y144322D01*
X160492Y144294D01*
X160410Y144269D01*
X160326Y144248D01*
X160242Y144231D01*
X160157Y144217D01*
X160071Y144208D01*
X159985Y144202D01*
X159899Y144200D01*
X155101Y144200D01*
X155015Y144202D01*
X154929Y144208D01*
X154843Y144217D01*
X154758Y144231D01*
X154674Y144248D01*
X154590Y144269D01*
X154508Y144294D01*
X154427Y144322D01*
X154347Y144354D01*
X154268Y144390D01*
X154192Y144429D01*
X154117Y144472D01*
X154044Y144517D01*
X153973Y144566D01*
X153905Y144619D01*
X153838Y144674D01*
X153775Y144732D01*
X153714Y144793D01*
X153656Y144856D01*
X153601Y144923D01*
X153549Y144991D01*
X153499Y145062D01*
X153454Y145135D01*
X153411Y145210D01*
X153372Y145286D01*
X153336Y145365D01*
X153304Y145445D01*
X153276Y145526D01*
X153251Y145608D01*
X153230Y145692D01*
X153213Y145776D01*
X153199Y145861D01*
X153190Y145947D01*
X153184Y146033D01*
X153182Y146119D01*
X153182Y148038D01*
X155101Y151858D02*
X153182Y154257D01*
X161818Y154257D01*
X161818Y151858D02*
X161818Y156656D01*
X155101Y161002D02*
X153182Y163401D01*
X161818Y163401D01*
X161818Y161002D02*
X161818Y165800D01*
X76818Y148038D02*
X76818Y146119D01*
X76816Y146033D01*
X76810Y145947D01*
X76801Y145861D01*
X76787Y145776D01*
X76770Y145692D01*
X76749Y145608D01*
X76724Y145526D01*
X76696Y145445D01*
X76664Y145365D01*
X76628Y145286D01*
X76589Y145210D01*
X76546Y145135D01*
X76501Y145062D01*
X76452Y144991D01*
X76399Y144923D01*
X76344Y144856D01*
X76286Y144793D01*
X76225Y144732D01*
X76162Y144674D01*
X76095Y144619D01*
X76027Y144567D01*
X75956Y144517D01*
X75883Y144472D01*
X75808Y144429D01*
X75732Y144390D01*
X75653Y144354D01*
X75573Y144322D01*
X75492Y144294D01*
X75410Y144269D01*
X75326Y144248D01*
X75242Y144231D01*
X75157Y144217D01*
X75071Y144208D01*
X74985Y144202D01*
X74899Y144200D01*
X70101Y144200D01*
X70015Y144202D01*
X69929Y144208D01*
X69843Y144217D01*
X69758Y144231D01*
X69674Y144248D01*
X69590Y144269D01*
X69508Y144294D01*
X69427Y144322D01*
X69347Y144354D01*
X69268Y144390D01*
X69192Y144429D01*
X69117Y144472D01*
X69044Y144517D01*
X68973Y144566D01*
X68905Y144619D01*
X68838Y144674D01*
X68775Y144732D01*
X68714Y144793D01*
X68656Y144856D01*
X68601Y144923D01*
X68549Y144991D01*
X68499Y145062D01*
X68454Y145135D01*
X68411Y145210D01*
X68372Y145286D01*
X68336Y145365D01*
X68304Y145445D01*
X68276Y145526D01*
X68251Y145608D01*
X68230Y145692D01*
X68213Y145776D01*
X68199Y145861D01*
X68190Y145947D01*
X68184Y146033D01*
X68182Y146119D01*
X68182Y148038D01*
X70101Y151858D02*
X68182Y154257D01*
X76818Y154257D01*
X76818Y151858D02*
X76818Y156656D01*
X68182Y163641D02*
X68184Y163733D01*
X68190Y163824D01*
X68199Y163915D01*
X68213Y164006D01*
X68230Y164096D01*
X68252Y164185D01*
X68277Y164273D01*
X68305Y164360D01*
X68338Y164446D01*
X68374Y164530D01*
X68413Y164613D01*
X68456Y164694D01*
X68503Y164773D01*
X68552Y164850D01*
X68605Y164925D01*
X68661Y164997D01*
X68720Y165067D01*
X68782Y165135D01*
X68847Y165200D01*
X68915Y165262D01*
X68985Y165321D01*
X69057Y165377D01*
X69132Y165430D01*
X69209Y165479D01*
X69288Y165526D01*
X69369Y165569D01*
X69452Y165608D01*
X69536Y165644D01*
X69622Y165677D01*
X69709Y165705D01*
X69797Y165730D01*
X69886Y165752D01*
X69976Y165769D01*
X70067Y165783D01*
X70158Y165792D01*
X70249Y165798D01*
X70341Y165800D01*
X68182Y163641D02*
X68184Y163538D01*
X68190Y163436D01*
X68199Y163334D01*
X68212Y163232D01*
X68229Y163131D01*
X68250Y163030D01*
X68274Y162931D01*
X68303Y162832D01*
X68334Y162735D01*
X68370Y162638D01*
X68408Y162543D01*
X68451Y162450D01*
X68497Y162358D01*
X68546Y162268D01*
X68598Y162180D01*
X68654Y162093D01*
X68713Y162009D01*
X68774Y161928D01*
X68839Y161848D01*
X68907Y161771D01*
X68978Y161696D01*
X69051Y161625D01*
X69127Y161556D01*
X69205Y161489D01*
X69286Y161426D01*
X69369Y161366D01*
X69454Y161309D01*
X69541Y161255D01*
X69631Y161204D01*
X69722Y161157D01*
X69814Y161113D01*
X69909Y161072D01*
X70004Y161035D01*
X70101Y161002D01*
X72020Y165080D02*
X71954Y165147D01*
X71885Y165211D01*
X71814Y165272D01*
X71740Y165330D01*
X71664Y165385D01*
X71586Y165437D01*
X71506Y165486D01*
X71424Y165532D01*
X71340Y165574D01*
X71254Y165613D01*
X71167Y165648D01*
X71079Y165679D01*
X70989Y165707D01*
X70899Y165732D01*
X70807Y165753D01*
X70715Y165770D01*
X70622Y165783D01*
X70529Y165792D01*
X70435Y165798D01*
X70341Y165800D01*
X72020Y165080D02*
X76818Y161002D01*
X76818Y165800D01*
X13071Y44318D02*
X13071Y35682D01*
X13071Y44318D02*
X15470Y44318D01*
X15567Y44316D01*
X15663Y44310D01*
X15759Y44301D01*
X15855Y44287D01*
X15950Y44270D01*
X16044Y44248D01*
X16137Y44223D01*
X16230Y44195D01*
X16321Y44162D01*
X16410Y44126D01*
X16498Y44086D01*
X16585Y44043D01*
X16670Y43997D01*
X16752Y43947D01*
X16833Y43893D01*
X16911Y43837D01*
X16987Y43777D01*
X17061Y43715D01*
X17132Y43649D01*
X17200Y43581D01*
X17266Y43510D01*
X17328Y43436D01*
X17388Y43360D01*
X17444Y43282D01*
X17498Y43201D01*
X17548Y43118D01*
X17594Y43034D01*
X17637Y42947D01*
X17677Y42859D01*
X17713Y42770D01*
X17746Y42679D01*
X17774Y42586D01*
X17799Y42493D01*
X17821Y42399D01*
X17838Y42304D01*
X17852Y42208D01*
X17861Y42112D01*
X17867Y42016D01*
X17869Y41919D01*
X17867Y41822D01*
X17861Y41726D01*
X17852Y41630D01*
X17838Y41534D01*
X17821Y41439D01*
X17799Y41345D01*
X17774Y41252D01*
X17746Y41159D01*
X17713Y41068D01*
X17677Y40979D01*
X17637Y40891D01*
X17594Y40804D01*
X17548Y40719D01*
X17498Y40637D01*
X17444Y40556D01*
X17388Y40478D01*
X17328Y40402D01*
X17266Y40328D01*
X17200Y40257D01*
X17132Y40189D01*
X17061Y40123D01*
X16987Y40061D01*
X16911Y40001D01*
X16833Y39945D01*
X16752Y39891D01*
X16669Y39841D01*
X16585Y39795D01*
X16498Y39752D01*
X16410Y39712D01*
X16321Y39676D01*
X16230Y39643D01*
X16137Y39615D01*
X16044Y39590D01*
X15950Y39568D01*
X15855Y39551D01*
X15759Y39537D01*
X15663Y39528D01*
X15567Y39522D01*
X15470Y39520D01*
X13071Y39520D01*
X15950Y39520D02*
X17869Y35682D01*
X22131Y35682D02*
X25009Y35682D01*
X25095Y35684D01*
X25181Y35690D01*
X25267Y35699D01*
X25352Y35713D01*
X25436Y35730D01*
X25520Y35751D01*
X25602Y35776D01*
X25683Y35804D01*
X25763Y35836D01*
X25842Y35872D01*
X25918Y35911D01*
X25993Y35954D01*
X26066Y35999D01*
X26137Y36049D01*
X26205Y36101D01*
X26272Y36156D01*
X26335Y36214D01*
X26396Y36275D01*
X26454Y36338D01*
X26509Y36405D01*
X26562Y36473D01*
X26611Y36544D01*
X26656Y36617D01*
X26699Y36692D01*
X26738Y36768D01*
X26774Y36847D01*
X26806Y36927D01*
X26834Y37008D01*
X26859Y37091D01*
X26880Y37174D01*
X26897Y37258D01*
X26911Y37343D01*
X26920Y37429D01*
X26926Y37515D01*
X26928Y37601D01*
X26929Y37601D02*
X26929Y38561D01*
X26928Y38561D02*
X26926Y38647D01*
X26920Y38733D01*
X26911Y38819D01*
X26897Y38904D01*
X26880Y38988D01*
X26859Y39072D01*
X26834Y39154D01*
X26806Y39235D01*
X26774Y39315D01*
X26738Y39394D01*
X26699Y39470D01*
X26656Y39545D01*
X26611Y39618D01*
X26562Y39689D01*
X26509Y39757D01*
X26454Y39824D01*
X26396Y39887D01*
X26335Y39948D01*
X26272Y40006D01*
X26205Y40061D01*
X26137Y40114D01*
X26066Y40163D01*
X25993Y40208D01*
X25918Y40251D01*
X25842Y40290D01*
X25763Y40326D01*
X25683Y40358D01*
X25602Y40386D01*
X25520Y40411D01*
X25436Y40432D01*
X25352Y40449D01*
X25267Y40463D01*
X25181Y40472D01*
X25095Y40478D01*
X25009Y40480D01*
X22131Y40480D01*
X22131Y44318D01*
X26929Y44318D01*
X13071Y155682D02*
X13071Y164318D01*
X15470Y164318D01*
X15567Y164316D01*
X15663Y164310D01*
X15759Y164301D01*
X15855Y164287D01*
X15950Y164270D01*
X16044Y164248D01*
X16137Y164223D01*
X16230Y164195D01*
X16321Y164162D01*
X16410Y164126D01*
X16498Y164086D01*
X16585Y164043D01*
X16670Y163997D01*
X16752Y163947D01*
X16833Y163893D01*
X16911Y163837D01*
X16987Y163777D01*
X17061Y163715D01*
X17132Y163649D01*
X17200Y163581D01*
X17266Y163510D01*
X17328Y163436D01*
X17388Y163360D01*
X17444Y163282D01*
X17498Y163201D01*
X17548Y163118D01*
X17594Y163034D01*
X17637Y162947D01*
X17677Y162859D01*
X17713Y162770D01*
X17746Y162679D01*
X17774Y162586D01*
X17799Y162493D01*
X17821Y162399D01*
X17838Y162304D01*
X17852Y162208D01*
X17861Y162112D01*
X17867Y162016D01*
X17869Y161919D01*
X17867Y161822D01*
X17861Y161726D01*
X17852Y161630D01*
X17838Y161534D01*
X17821Y161439D01*
X17799Y161345D01*
X17774Y161252D01*
X17746Y161159D01*
X17713Y161068D01*
X17677Y160979D01*
X17637Y160891D01*
X17594Y160804D01*
X17548Y160720D01*
X17498Y160637D01*
X17444Y160556D01*
X17388Y160478D01*
X17328Y160402D01*
X17266Y160328D01*
X17200Y160257D01*
X17132Y160189D01*
X17061Y160123D01*
X16987Y160061D01*
X16911Y160001D01*
X16833Y159945D01*
X16752Y159891D01*
X16669Y159841D01*
X16585Y159795D01*
X16498Y159752D01*
X16410Y159712D01*
X16321Y159676D01*
X16230Y159643D01*
X16137Y159615D01*
X16044Y159590D01*
X15950Y159568D01*
X15855Y159551D01*
X15759Y159537D01*
X15663Y159528D01*
X15567Y159522D01*
X15470Y159520D01*
X13071Y159520D01*
X15950Y159520D02*
X17869Y155682D01*
X22131Y160480D02*
X25009Y160480D01*
X25095Y160478D01*
X25181Y160472D01*
X25267Y160463D01*
X25352Y160449D01*
X25436Y160432D01*
X25520Y160411D01*
X25602Y160386D01*
X25683Y160358D01*
X25763Y160326D01*
X25842Y160290D01*
X25918Y160251D01*
X25993Y160208D01*
X26066Y160163D01*
X26137Y160114D01*
X26205Y160061D01*
X26272Y160006D01*
X26335Y159948D01*
X26396Y159887D01*
X26454Y159824D01*
X26509Y159757D01*
X26562Y159689D01*
X26611Y159618D01*
X26656Y159545D01*
X26699Y159470D01*
X26738Y159394D01*
X26774Y159315D01*
X26806Y159235D01*
X26834Y159154D01*
X26859Y159072D01*
X26880Y158988D01*
X26897Y158904D01*
X26911Y158819D01*
X26920Y158733D01*
X26926Y158647D01*
X26928Y158561D01*
X26929Y158561D02*
X26929Y158081D01*
X26927Y157984D01*
X26921Y157888D01*
X26912Y157792D01*
X26898Y157696D01*
X26881Y157601D01*
X26859Y157507D01*
X26834Y157414D01*
X26806Y157321D01*
X26773Y157230D01*
X26737Y157141D01*
X26697Y157053D01*
X26654Y156966D01*
X26608Y156881D01*
X26558Y156799D01*
X26504Y156718D01*
X26448Y156640D01*
X26388Y156564D01*
X26326Y156490D01*
X26260Y156419D01*
X26192Y156351D01*
X26121Y156285D01*
X26047Y156223D01*
X25971Y156163D01*
X25893Y156107D01*
X25812Y156053D01*
X25729Y156003D01*
X25645Y155957D01*
X25558Y155914D01*
X25470Y155874D01*
X25381Y155838D01*
X25290Y155805D01*
X25197Y155777D01*
X25104Y155752D01*
X25010Y155730D01*
X24915Y155713D01*
X24819Y155699D01*
X24723Y155690D01*
X24627Y155684D01*
X24530Y155682D01*
X24433Y155684D01*
X24337Y155690D01*
X24241Y155699D01*
X24145Y155713D01*
X24050Y155730D01*
X23956Y155752D01*
X23863Y155777D01*
X23770Y155805D01*
X23679Y155838D01*
X23590Y155874D01*
X23502Y155914D01*
X23415Y155957D01*
X23330Y156003D01*
X23248Y156053D01*
X23167Y156107D01*
X23089Y156163D01*
X23013Y156223D01*
X22939Y156285D01*
X22868Y156351D01*
X22800Y156419D01*
X22734Y156490D01*
X22672Y156564D01*
X22612Y156640D01*
X22556Y156718D01*
X22502Y156799D01*
X22452Y156882D01*
X22406Y156966D01*
X22363Y157053D01*
X22323Y157141D01*
X22287Y157230D01*
X22254Y157321D01*
X22226Y157414D01*
X22201Y157507D01*
X22179Y157601D01*
X22162Y157696D01*
X22148Y157792D01*
X22139Y157888D01*
X22133Y157984D01*
X22131Y158081D01*
X22131Y160480D01*
X22133Y160603D01*
X22139Y160726D01*
X22149Y160849D01*
X22163Y160971D01*
X22180Y161093D01*
X22202Y161214D01*
X22227Y161334D01*
X22257Y161454D01*
X22290Y161572D01*
X22327Y161689D01*
X22367Y161806D01*
X22411Y161920D01*
X22459Y162034D01*
X22511Y162145D01*
X22566Y162255D01*
X22625Y162363D01*
X22687Y162470D01*
X22752Y162574D01*
X22821Y162676D01*
X22893Y162776D01*
X22968Y162873D01*
X23047Y162968D01*
X23128Y163060D01*
X23212Y163150D01*
X23299Y163237D01*
X23389Y163321D01*
X23481Y163402D01*
X23576Y163481D01*
X23673Y163556D01*
X23773Y163628D01*
X23875Y163697D01*
X23979Y163762D01*
X24086Y163824D01*
X24194Y163883D01*
X24304Y163938D01*
X24415Y163990D01*
X24529Y164037D01*
X24643Y164082D01*
X24760Y164122D01*
X24877Y164159D01*
X24995Y164192D01*
X25115Y164222D01*
X25235Y164247D01*
X25356Y164269D01*
X25478Y164286D01*
X25600Y164300D01*
X25723Y164310D01*
X25846Y164316D01*
X25969Y164318D01*
X253182Y178071D02*
X261818Y178071D01*
X253182Y178071D02*
X253182Y180470D01*
X253184Y180567D01*
X253190Y180663D01*
X253199Y180759D01*
X253213Y180855D01*
X253230Y180950D01*
X253252Y181044D01*
X253277Y181137D01*
X253305Y181230D01*
X253338Y181321D01*
X253374Y181410D01*
X253414Y181498D01*
X253457Y181585D01*
X253503Y181670D01*
X253553Y181752D01*
X253607Y181833D01*
X253663Y181911D01*
X253723Y181987D01*
X253785Y182061D01*
X253851Y182132D01*
X253919Y182200D01*
X253990Y182266D01*
X254064Y182328D01*
X254140Y182388D01*
X254218Y182444D01*
X254299Y182498D01*
X254382Y182548D01*
X254466Y182594D01*
X254553Y182637D01*
X254641Y182677D01*
X254730Y182713D01*
X254821Y182746D01*
X254914Y182774D01*
X255007Y182799D01*
X255101Y182821D01*
X255196Y182838D01*
X255292Y182852D01*
X255388Y182861D01*
X255484Y182867D01*
X255581Y182869D01*
X255678Y182867D01*
X255774Y182861D01*
X255870Y182852D01*
X255966Y182838D01*
X256061Y182821D01*
X256155Y182799D01*
X256248Y182774D01*
X256341Y182746D01*
X256432Y182713D01*
X256521Y182677D01*
X256609Y182637D01*
X256696Y182594D01*
X256781Y182548D01*
X256863Y182498D01*
X256944Y182444D01*
X257022Y182388D01*
X257098Y182328D01*
X257172Y182266D01*
X257243Y182200D01*
X257311Y182132D01*
X257377Y182061D01*
X257439Y181987D01*
X257499Y181911D01*
X257555Y181833D01*
X257609Y181752D01*
X257659Y181670D01*
X257705Y181585D01*
X257748Y181498D01*
X257788Y181410D01*
X257824Y181321D01*
X257857Y181230D01*
X257885Y181137D01*
X257910Y181044D01*
X257932Y180950D01*
X257949Y180855D01*
X257963Y180759D01*
X257972Y180663D01*
X257978Y180567D01*
X257980Y180470D01*
X257980Y178071D01*
X257980Y180950D02*
X261818Y182869D01*
X254142Y187131D02*
X253182Y187131D01*
X253182Y191929D01*
X261818Y189530D01*
X139318Y13071D02*
X130682Y13071D01*
X130682Y15470D01*
X130684Y15567D01*
X130690Y15663D01*
X130699Y15759D01*
X130713Y15855D01*
X130730Y15950D01*
X130752Y16044D01*
X130777Y16137D01*
X130805Y16230D01*
X130838Y16321D01*
X130874Y16410D01*
X130914Y16498D01*
X130957Y16585D01*
X131003Y16670D01*
X131053Y16752D01*
X131107Y16833D01*
X131163Y16911D01*
X131223Y16987D01*
X131285Y17061D01*
X131351Y17132D01*
X131419Y17200D01*
X131490Y17266D01*
X131564Y17328D01*
X131640Y17388D01*
X131718Y17444D01*
X131799Y17498D01*
X131882Y17548D01*
X131966Y17594D01*
X132053Y17637D01*
X132141Y17677D01*
X132230Y17713D01*
X132321Y17746D01*
X132414Y17774D01*
X132507Y17799D01*
X132601Y17821D01*
X132696Y17838D01*
X132792Y17852D01*
X132888Y17861D01*
X132984Y17867D01*
X133081Y17869D01*
X133178Y17867D01*
X133274Y17861D01*
X133370Y17852D01*
X133466Y17838D01*
X133561Y17821D01*
X133655Y17799D01*
X133748Y17774D01*
X133841Y17746D01*
X133932Y17713D01*
X134021Y17677D01*
X134109Y17637D01*
X134196Y17594D01*
X134281Y17548D01*
X134363Y17498D01*
X134444Y17444D01*
X134522Y17388D01*
X134598Y17328D01*
X134672Y17266D01*
X134743Y17200D01*
X134811Y17132D01*
X134877Y17061D01*
X134939Y16987D01*
X134999Y16911D01*
X135055Y16833D01*
X135109Y16752D01*
X135159Y16670D01*
X135205Y16585D01*
X135248Y16498D01*
X135288Y16410D01*
X135324Y16321D01*
X135357Y16230D01*
X135385Y16137D01*
X135410Y16044D01*
X135432Y15950D01*
X135449Y15855D01*
X135463Y15759D01*
X135472Y15663D01*
X135478Y15567D01*
X135480Y15470D01*
X135480Y13071D01*
X135480Y15950D02*
X139318Y17869D01*
X136919Y22131D02*
X136822Y22133D01*
X136726Y22139D01*
X136630Y22148D01*
X136534Y22162D01*
X136439Y22179D01*
X136345Y22201D01*
X136252Y22226D01*
X136159Y22254D01*
X136068Y22287D01*
X135979Y22323D01*
X135891Y22363D01*
X135804Y22406D01*
X135719Y22452D01*
X135637Y22502D01*
X135556Y22556D01*
X135478Y22612D01*
X135402Y22672D01*
X135328Y22734D01*
X135257Y22800D01*
X135189Y22868D01*
X135123Y22939D01*
X135061Y23013D01*
X135001Y23089D01*
X134945Y23167D01*
X134891Y23248D01*
X134841Y23331D01*
X134795Y23415D01*
X134752Y23502D01*
X134712Y23590D01*
X134676Y23679D01*
X134643Y23770D01*
X134615Y23863D01*
X134590Y23956D01*
X134568Y24050D01*
X134551Y24145D01*
X134537Y24241D01*
X134528Y24337D01*
X134522Y24433D01*
X134520Y24530D01*
X134522Y24627D01*
X134528Y24723D01*
X134537Y24819D01*
X134551Y24915D01*
X134568Y25010D01*
X134590Y25104D01*
X134615Y25197D01*
X134643Y25290D01*
X134676Y25381D01*
X134712Y25470D01*
X134752Y25558D01*
X134795Y25645D01*
X134841Y25730D01*
X134891Y25812D01*
X134945Y25893D01*
X135001Y25971D01*
X135061Y26047D01*
X135123Y26121D01*
X135189Y26192D01*
X135257Y26260D01*
X135328Y26326D01*
X135402Y26388D01*
X135478Y26448D01*
X135556Y26504D01*
X135637Y26558D01*
X135720Y26608D01*
X135804Y26654D01*
X135891Y26697D01*
X135979Y26737D01*
X136068Y26773D01*
X136159Y26806D01*
X136252Y26834D01*
X136345Y26859D01*
X136439Y26881D01*
X136534Y26898D01*
X136630Y26912D01*
X136726Y26921D01*
X136822Y26927D01*
X136919Y26929D01*
X137016Y26927D01*
X137112Y26921D01*
X137208Y26912D01*
X137304Y26898D01*
X137399Y26881D01*
X137493Y26859D01*
X137586Y26834D01*
X137679Y26806D01*
X137770Y26773D01*
X137859Y26737D01*
X137947Y26697D01*
X138034Y26654D01*
X138119Y26608D01*
X138201Y26558D01*
X138282Y26504D01*
X138360Y26448D01*
X138436Y26388D01*
X138510Y26326D01*
X138581Y26260D01*
X138649Y26192D01*
X138715Y26121D01*
X138777Y26047D01*
X138837Y25971D01*
X138893Y25893D01*
X138947Y25812D01*
X138997Y25729D01*
X139043Y25645D01*
X139086Y25558D01*
X139126Y25470D01*
X139162Y25381D01*
X139195Y25290D01*
X139223Y25197D01*
X139248Y25104D01*
X139270Y25010D01*
X139287Y24915D01*
X139301Y24819D01*
X139310Y24723D01*
X139316Y24627D01*
X139318Y24530D01*
X139316Y24433D01*
X139310Y24337D01*
X139301Y24241D01*
X139287Y24145D01*
X139270Y24050D01*
X139248Y23956D01*
X139223Y23863D01*
X139195Y23770D01*
X139162Y23679D01*
X139126Y23590D01*
X139086Y23502D01*
X139043Y23415D01*
X138997Y23330D01*
X138947Y23248D01*
X138893Y23167D01*
X138837Y23089D01*
X138777Y23013D01*
X138715Y22939D01*
X138649Y22868D01*
X138581Y22800D01*
X138510Y22734D01*
X138436Y22672D01*
X138360Y22612D01*
X138282Y22556D01*
X138201Y22502D01*
X138119Y22452D01*
X138034Y22406D01*
X137947Y22363D01*
X137859Y22323D01*
X137770Y22287D01*
X137679Y22254D01*
X137586Y22226D01*
X137493Y22201D01*
X137399Y22179D01*
X137304Y22162D01*
X137208Y22148D01*
X137112Y22139D01*
X137016Y22133D01*
X136919Y22131D01*
X132601Y22611D02*
X132515Y22613D01*
X132429Y22619D01*
X132343Y22628D01*
X132258Y22642D01*
X132174Y22659D01*
X132090Y22680D01*
X132008Y22705D01*
X131927Y22733D01*
X131847Y22765D01*
X131768Y22801D01*
X131692Y22840D01*
X131617Y22883D01*
X131544Y22928D01*
X131473Y22977D01*
X131405Y23030D01*
X131338Y23085D01*
X131275Y23143D01*
X131214Y23204D01*
X131156Y23267D01*
X131101Y23334D01*
X131048Y23402D01*
X130999Y23473D01*
X130954Y23546D01*
X130911Y23621D01*
X130872Y23697D01*
X130836Y23776D01*
X130804Y23856D01*
X130776Y23937D01*
X130751Y24019D01*
X130730Y24103D01*
X130713Y24187D01*
X130699Y24272D01*
X130690Y24358D01*
X130684Y24444D01*
X130682Y24530D01*
X130684Y24616D01*
X130690Y24702D01*
X130699Y24788D01*
X130713Y24873D01*
X130730Y24957D01*
X130751Y25041D01*
X130776Y25123D01*
X130804Y25204D01*
X130836Y25284D01*
X130872Y25363D01*
X130911Y25439D01*
X130954Y25514D01*
X130999Y25587D01*
X131048Y25658D01*
X131101Y25726D01*
X131156Y25793D01*
X131214Y25856D01*
X131275Y25917D01*
X131338Y25975D01*
X131405Y26030D01*
X131473Y26083D01*
X131544Y26132D01*
X131617Y26177D01*
X131692Y26220D01*
X131768Y26259D01*
X131847Y26295D01*
X131927Y26327D01*
X132008Y26355D01*
X132090Y26380D01*
X132174Y26401D01*
X132258Y26418D01*
X132343Y26432D01*
X132429Y26441D01*
X132515Y26447D01*
X132601Y26449D01*
X132687Y26447D01*
X132773Y26441D01*
X132859Y26432D01*
X132944Y26418D01*
X133028Y26401D01*
X133112Y26380D01*
X133194Y26355D01*
X133275Y26327D01*
X133355Y26295D01*
X133434Y26259D01*
X133510Y26220D01*
X133585Y26177D01*
X133658Y26132D01*
X133729Y26083D01*
X133797Y26030D01*
X133864Y25975D01*
X133927Y25917D01*
X133988Y25856D01*
X134046Y25793D01*
X134101Y25726D01*
X134154Y25658D01*
X134203Y25587D01*
X134248Y25514D01*
X134291Y25439D01*
X134330Y25363D01*
X134366Y25284D01*
X134398Y25204D01*
X134426Y25123D01*
X134451Y25041D01*
X134472Y24957D01*
X134489Y24873D01*
X134503Y24788D01*
X134512Y24702D01*
X134518Y24616D01*
X134520Y24530D01*
X134518Y24444D01*
X134512Y24358D01*
X134503Y24272D01*
X134489Y24187D01*
X134472Y24103D01*
X134451Y24019D01*
X134426Y23937D01*
X134398Y23856D01*
X134366Y23776D01*
X134330Y23697D01*
X134291Y23621D01*
X134248Y23546D01*
X134203Y23473D01*
X134154Y23402D01*
X134101Y23334D01*
X134046Y23267D01*
X133988Y23204D01*
X133927Y23143D01*
X133864Y23085D01*
X133797Y23030D01*
X133729Y22977D01*
X133658Y22928D01*
X133585Y22883D01*
X133510Y22840D01*
X133434Y22801D01*
X133355Y22765D01*
X133275Y22733D01*
X133194Y22705D01*
X133112Y22680D01*
X133028Y22659D01*
X132944Y22642D01*
X132859Y22628D01*
X132773Y22619D01*
X132687Y22613D01*
X132601Y22611D01*
X159318Y10538D02*
X159318Y8619D01*
X159316Y8533D01*
X159310Y8447D01*
X159301Y8361D01*
X159287Y8276D01*
X159270Y8192D01*
X159249Y8108D01*
X159224Y8026D01*
X159196Y7945D01*
X159164Y7865D01*
X159128Y7786D01*
X159089Y7710D01*
X159046Y7635D01*
X159001Y7562D01*
X158952Y7491D01*
X158899Y7423D01*
X158844Y7356D01*
X158786Y7293D01*
X158725Y7232D01*
X158662Y7174D01*
X158595Y7119D01*
X158527Y7067D01*
X158456Y7017D01*
X158383Y6972D01*
X158308Y6929D01*
X158232Y6890D01*
X158153Y6854D01*
X158073Y6822D01*
X157992Y6794D01*
X157910Y6769D01*
X157826Y6748D01*
X157742Y6731D01*
X157657Y6717D01*
X157571Y6708D01*
X157485Y6702D01*
X157399Y6700D01*
X152601Y6700D01*
X152515Y6702D01*
X152429Y6708D01*
X152343Y6717D01*
X152258Y6731D01*
X152174Y6748D01*
X152090Y6769D01*
X152008Y6794D01*
X151927Y6822D01*
X151847Y6854D01*
X151768Y6890D01*
X151692Y6929D01*
X151617Y6972D01*
X151544Y7017D01*
X151473Y7066D01*
X151405Y7119D01*
X151338Y7174D01*
X151275Y7232D01*
X151214Y7293D01*
X151156Y7356D01*
X151101Y7423D01*
X151049Y7491D01*
X150999Y7562D01*
X150954Y7635D01*
X150911Y7710D01*
X150872Y7786D01*
X150836Y7865D01*
X150804Y7945D01*
X150776Y8026D01*
X150751Y8108D01*
X150730Y8192D01*
X150713Y8276D01*
X150699Y8361D01*
X150690Y8447D01*
X150684Y8533D01*
X150682Y8619D01*
X150682Y10538D01*
X152601Y14358D02*
X150682Y16757D01*
X159318Y16757D01*
X159318Y14358D02*
X159318Y19156D01*
X159318Y23502D02*
X159318Y25901D01*
X159316Y25998D01*
X159310Y26094D01*
X159301Y26190D01*
X159287Y26286D01*
X159270Y26381D01*
X159248Y26475D01*
X159223Y26568D01*
X159195Y26661D01*
X159162Y26752D01*
X159126Y26841D01*
X159086Y26929D01*
X159043Y27016D01*
X158997Y27101D01*
X158947Y27183D01*
X158893Y27264D01*
X158837Y27342D01*
X158777Y27418D01*
X158715Y27492D01*
X158649Y27563D01*
X158581Y27631D01*
X158510Y27697D01*
X158436Y27759D01*
X158360Y27819D01*
X158282Y27875D01*
X158201Y27929D01*
X158119Y27979D01*
X158034Y28025D01*
X157947Y28068D01*
X157859Y28108D01*
X157770Y28144D01*
X157679Y28177D01*
X157586Y28205D01*
X157493Y28230D01*
X157399Y28252D01*
X157304Y28269D01*
X157208Y28283D01*
X157112Y28292D01*
X157016Y28298D01*
X156919Y28300D01*
X156822Y28298D01*
X156726Y28292D01*
X156630Y28283D01*
X156534Y28269D01*
X156439Y28252D01*
X156345Y28230D01*
X156252Y28205D01*
X156159Y28177D01*
X156068Y28144D01*
X155979Y28108D01*
X155891Y28068D01*
X155804Y28025D01*
X155720Y27979D01*
X155637Y27929D01*
X155556Y27875D01*
X155478Y27819D01*
X155402Y27759D01*
X155328Y27697D01*
X155257Y27631D01*
X155189Y27563D01*
X155123Y27492D01*
X155061Y27418D01*
X155001Y27342D01*
X154945Y27264D01*
X154891Y27183D01*
X154841Y27101D01*
X154795Y27016D01*
X154752Y26929D01*
X154712Y26841D01*
X154676Y26752D01*
X154643Y26661D01*
X154615Y26568D01*
X154590Y26475D01*
X154568Y26381D01*
X154551Y26286D01*
X154537Y26190D01*
X154528Y26094D01*
X154522Y25998D01*
X154520Y25901D01*
X150682Y26381D02*
X150682Y23502D01*
X150682Y26381D02*
X150684Y26467D01*
X150690Y26553D01*
X150699Y26639D01*
X150713Y26724D01*
X150730Y26808D01*
X150751Y26892D01*
X150776Y26974D01*
X150804Y27055D01*
X150836Y27135D01*
X150872Y27214D01*
X150911Y27290D01*
X150954Y27365D01*
X150999Y27438D01*
X151048Y27509D01*
X151101Y27577D01*
X151156Y27644D01*
X151214Y27707D01*
X151275Y27768D01*
X151338Y27826D01*
X151405Y27881D01*
X151473Y27934D01*
X151544Y27983D01*
X151617Y28028D01*
X151692Y28071D01*
X151768Y28110D01*
X151847Y28146D01*
X151927Y28178D01*
X152008Y28206D01*
X152090Y28231D01*
X152174Y28252D01*
X152258Y28269D01*
X152343Y28283D01*
X152429Y28292D01*
X152515Y28298D01*
X152601Y28300D01*
X152687Y28298D01*
X152773Y28292D01*
X152859Y28283D01*
X152944Y28269D01*
X153028Y28252D01*
X153112Y28231D01*
X153194Y28206D01*
X153275Y28178D01*
X153355Y28146D01*
X153434Y28110D01*
X153510Y28071D01*
X153585Y28028D01*
X153658Y27983D01*
X153729Y27934D01*
X153797Y27881D01*
X153864Y27826D01*
X153927Y27768D01*
X153988Y27707D01*
X154046Y27644D01*
X154101Y27577D01*
X154154Y27509D01*
X154203Y27438D01*
X154248Y27365D01*
X154291Y27290D01*
X154330Y27214D01*
X154366Y27135D01*
X154398Y27055D01*
X154426Y26974D01*
X154451Y26892D01*
X154472Y26808D01*
X154489Y26724D01*
X154503Y26639D01*
X154512Y26553D01*
X154518Y26467D01*
X154520Y26381D01*
X154520Y24462D01*
D14*
X12500Y177500D03*
D15*
X29000Y185000D03*
D13*
X48182Y177877D02*
X56818Y177877D01*
X48182Y177877D02*
X48182Y180276D01*
X48184Y180373D01*
X48190Y180469D01*
X48199Y180565D01*
X48213Y180661D01*
X48230Y180756D01*
X48252Y180850D01*
X48277Y180943D01*
X48305Y181036D01*
X48338Y181127D01*
X48374Y181216D01*
X48414Y181304D01*
X48457Y181391D01*
X48503Y181476D01*
X48553Y181558D01*
X48607Y181639D01*
X48663Y181717D01*
X48723Y181793D01*
X48785Y181867D01*
X48851Y181938D01*
X48919Y182006D01*
X48990Y182072D01*
X49064Y182134D01*
X49140Y182194D01*
X49218Y182250D01*
X49299Y182304D01*
X49382Y182354D01*
X49466Y182400D01*
X49553Y182443D01*
X49641Y182483D01*
X49730Y182519D01*
X49821Y182552D01*
X49914Y182580D01*
X50007Y182605D01*
X50101Y182627D01*
X50196Y182644D01*
X50292Y182658D01*
X50388Y182667D01*
X50484Y182673D01*
X50581Y182675D01*
X54419Y182675D01*
X54516Y182673D01*
X54612Y182667D01*
X54708Y182658D01*
X54804Y182644D01*
X54899Y182627D01*
X54993Y182605D01*
X55086Y182580D01*
X55179Y182552D01*
X55270Y182519D01*
X55359Y182483D01*
X55447Y182443D01*
X55534Y182400D01*
X55619Y182354D01*
X55701Y182304D01*
X55782Y182250D01*
X55860Y182194D01*
X55936Y182134D01*
X56010Y182072D01*
X56081Y182006D01*
X56149Y181938D01*
X56215Y181867D01*
X56277Y181793D01*
X56337Y181717D01*
X56393Y181639D01*
X56447Y181558D01*
X56497Y181476D01*
X56543Y181391D01*
X56586Y181304D01*
X56626Y181216D01*
X56662Y181127D01*
X56695Y181036D01*
X56723Y180943D01*
X56748Y180850D01*
X56770Y180756D01*
X56787Y180661D01*
X56801Y180565D01*
X56810Y180469D01*
X56816Y180373D01*
X56818Y180276D01*
X56818Y177877D01*
X48182Y189964D02*
X48184Y190056D01*
X48190Y190147D01*
X48199Y190238D01*
X48213Y190329D01*
X48230Y190419D01*
X48252Y190508D01*
X48277Y190596D01*
X48305Y190683D01*
X48338Y190769D01*
X48374Y190853D01*
X48413Y190936D01*
X48456Y191017D01*
X48503Y191096D01*
X48552Y191173D01*
X48605Y191248D01*
X48661Y191320D01*
X48720Y191390D01*
X48782Y191458D01*
X48847Y191523D01*
X48915Y191585D01*
X48985Y191644D01*
X49057Y191700D01*
X49132Y191753D01*
X49209Y191802D01*
X49288Y191849D01*
X49369Y191892D01*
X49452Y191931D01*
X49536Y191967D01*
X49622Y192000D01*
X49709Y192028D01*
X49797Y192053D01*
X49886Y192075D01*
X49976Y192092D01*
X50067Y192106D01*
X50158Y192115D01*
X50249Y192121D01*
X50341Y192123D01*
X48182Y189964D02*
X48184Y189861D01*
X48190Y189759D01*
X48199Y189657D01*
X48212Y189555D01*
X48229Y189454D01*
X48250Y189353D01*
X48274Y189254D01*
X48303Y189155D01*
X48334Y189058D01*
X48370Y188961D01*
X48408Y188866D01*
X48451Y188773D01*
X48497Y188681D01*
X48546Y188591D01*
X48598Y188503D01*
X48654Y188416D01*
X48713Y188332D01*
X48774Y188251D01*
X48839Y188171D01*
X48907Y188094D01*
X48978Y188019D01*
X49051Y187948D01*
X49127Y187879D01*
X49205Y187812D01*
X49286Y187749D01*
X49369Y187689D01*
X49454Y187632D01*
X49541Y187578D01*
X49631Y187527D01*
X49722Y187480D01*
X49814Y187436D01*
X49909Y187395D01*
X50004Y187358D01*
X50101Y187325D01*
X52020Y191403D02*
X51954Y191470D01*
X51885Y191534D01*
X51814Y191595D01*
X51740Y191653D01*
X51664Y191708D01*
X51586Y191760D01*
X51506Y191809D01*
X51424Y191855D01*
X51340Y191897D01*
X51254Y191936D01*
X51167Y191971D01*
X51079Y192002D01*
X50989Y192030D01*
X50899Y192055D01*
X50807Y192076D01*
X50715Y192093D01*
X50622Y192106D01*
X50529Y192115D01*
X50435Y192121D01*
X50341Y192123D01*
X52020Y191404D02*
X56818Y187326D01*
X56818Y192123D01*
X90682Y178071D02*
X99318Y178071D01*
X90682Y178071D02*
X90682Y180470D01*
X90684Y180567D01*
X90690Y180663D01*
X90699Y180759D01*
X90713Y180855D01*
X90730Y180950D01*
X90752Y181044D01*
X90777Y181137D01*
X90805Y181230D01*
X90838Y181321D01*
X90874Y181410D01*
X90914Y181498D01*
X90957Y181585D01*
X91003Y181670D01*
X91053Y181752D01*
X91107Y181833D01*
X91163Y181911D01*
X91223Y181987D01*
X91285Y182061D01*
X91351Y182132D01*
X91419Y182200D01*
X91490Y182266D01*
X91564Y182328D01*
X91640Y182388D01*
X91718Y182444D01*
X91799Y182498D01*
X91882Y182548D01*
X91966Y182594D01*
X92053Y182637D01*
X92141Y182677D01*
X92230Y182713D01*
X92321Y182746D01*
X92414Y182774D01*
X92507Y182799D01*
X92601Y182821D01*
X92696Y182838D01*
X92792Y182852D01*
X92888Y182861D01*
X92984Y182867D01*
X93081Y182869D01*
X93178Y182867D01*
X93274Y182861D01*
X93370Y182852D01*
X93466Y182838D01*
X93561Y182821D01*
X93655Y182799D01*
X93748Y182774D01*
X93841Y182746D01*
X93932Y182713D01*
X94021Y182677D01*
X94109Y182637D01*
X94196Y182594D01*
X94281Y182548D01*
X94363Y182498D01*
X94444Y182444D01*
X94522Y182388D01*
X94598Y182328D01*
X94672Y182266D01*
X94743Y182200D01*
X94811Y182132D01*
X94877Y182061D01*
X94939Y181987D01*
X94999Y181911D01*
X95055Y181833D01*
X95109Y181752D01*
X95159Y181670D01*
X95205Y181585D01*
X95248Y181498D01*
X95288Y181410D01*
X95324Y181321D01*
X95357Y181230D01*
X95385Y181137D01*
X95410Y181044D01*
X95432Y180950D01*
X95449Y180855D01*
X95463Y180759D01*
X95472Y180663D01*
X95478Y180567D01*
X95480Y180470D01*
X95480Y178071D01*
X95480Y180950D02*
X99318Y182869D01*
X95480Y189050D02*
X95480Y191929D01*
X95480Y189050D02*
X95478Y188964D01*
X95472Y188878D01*
X95463Y188792D01*
X95449Y188707D01*
X95432Y188623D01*
X95411Y188539D01*
X95386Y188457D01*
X95358Y188376D01*
X95326Y188296D01*
X95290Y188217D01*
X95251Y188141D01*
X95208Y188066D01*
X95163Y187993D01*
X95114Y187922D01*
X95061Y187854D01*
X95006Y187787D01*
X94948Y187724D01*
X94887Y187663D01*
X94824Y187605D01*
X94757Y187550D01*
X94689Y187498D01*
X94618Y187448D01*
X94545Y187403D01*
X94470Y187360D01*
X94394Y187321D01*
X94315Y187285D01*
X94235Y187253D01*
X94154Y187225D01*
X94072Y187200D01*
X93988Y187179D01*
X93904Y187162D01*
X93819Y187148D01*
X93733Y187139D01*
X93647Y187133D01*
X93561Y187131D01*
X93081Y187131D01*
X92984Y187133D01*
X92888Y187139D01*
X92792Y187148D01*
X92696Y187162D01*
X92601Y187179D01*
X92507Y187201D01*
X92414Y187226D01*
X92321Y187254D01*
X92230Y187287D01*
X92141Y187323D01*
X92053Y187363D01*
X91966Y187406D01*
X91881Y187452D01*
X91799Y187502D01*
X91718Y187556D01*
X91640Y187612D01*
X91564Y187672D01*
X91490Y187734D01*
X91419Y187800D01*
X91351Y187868D01*
X91285Y187939D01*
X91223Y188013D01*
X91163Y188089D01*
X91107Y188167D01*
X91053Y188248D01*
X91003Y188331D01*
X90957Y188415D01*
X90914Y188502D01*
X90874Y188590D01*
X90838Y188679D01*
X90805Y188770D01*
X90777Y188863D01*
X90752Y188956D01*
X90730Y189050D01*
X90713Y189145D01*
X90699Y189241D01*
X90690Y189337D01*
X90684Y189433D01*
X90682Y189530D01*
X90684Y189627D01*
X90690Y189723D01*
X90699Y189819D01*
X90713Y189915D01*
X90730Y190010D01*
X90752Y190104D01*
X90777Y190197D01*
X90805Y190290D01*
X90838Y190381D01*
X90874Y190470D01*
X90914Y190558D01*
X90957Y190645D01*
X91003Y190730D01*
X91053Y190812D01*
X91107Y190893D01*
X91163Y190971D01*
X91223Y191047D01*
X91285Y191121D01*
X91351Y191192D01*
X91419Y191260D01*
X91490Y191326D01*
X91564Y191388D01*
X91640Y191448D01*
X91718Y191504D01*
X91799Y191558D01*
X91882Y191608D01*
X91966Y191654D01*
X92053Y191697D01*
X92141Y191737D01*
X92230Y191773D01*
X92321Y191806D01*
X92414Y191834D01*
X92507Y191859D01*
X92601Y191881D01*
X92696Y191898D01*
X92792Y191912D01*
X92888Y191921D01*
X92984Y191927D01*
X93081Y191929D01*
X95480Y191929D01*
X95480Y191928D02*
X95603Y191926D01*
X95726Y191920D01*
X95849Y191910D01*
X95971Y191896D01*
X96093Y191879D01*
X96214Y191857D01*
X96334Y191832D01*
X96454Y191802D01*
X96572Y191769D01*
X96689Y191732D01*
X96806Y191692D01*
X96920Y191648D01*
X97034Y191600D01*
X97145Y191548D01*
X97255Y191493D01*
X97363Y191434D01*
X97470Y191372D01*
X97574Y191307D01*
X97676Y191238D01*
X97776Y191166D01*
X97873Y191091D01*
X97968Y191012D01*
X98060Y190931D01*
X98150Y190847D01*
X98237Y190760D01*
X98321Y190670D01*
X98402Y190578D01*
X98481Y190483D01*
X98556Y190386D01*
X98628Y190286D01*
X98697Y190184D01*
X98762Y190080D01*
X98824Y189973D01*
X98883Y189865D01*
X98938Y189755D01*
X98990Y189644D01*
X99038Y189530D01*
X99082Y189416D01*
X99122Y189299D01*
X99159Y189182D01*
X99192Y189064D01*
X99222Y188944D01*
X99247Y188824D01*
X99269Y188703D01*
X99286Y188581D01*
X99300Y188459D01*
X99310Y188336D01*
X99316Y188213D01*
X99318Y188090D01*
X190691Y45682D02*
X192610Y45682D01*
X190691Y45682D02*
X190605Y45684D01*
X190519Y45690D01*
X190433Y45699D01*
X190348Y45713D01*
X190264Y45730D01*
X190180Y45751D01*
X190098Y45776D01*
X190017Y45804D01*
X189937Y45836D01*
X189858Y45872D01*
X189782Y45911D01*
X189707Y45954D01*
X189634Y45999D01*
X189563Y46048D01*
X189495Y46101D01*
X189428Y46156D01*
X189365Y46214D01*
X189304Y46275D01*
X189246Y46338D01*
X189191Y46405D01*
X189138Y46473D01*
X189089Y46544D01*
X189044Y46617D01*
X189001Y46692D01*
X188962Y46768D01*
X188926Y46847D01*
X188894Y46927D01*
X188866Y47008D01*
X188841Y47090D01*
X188820Y47174D01*
X188803Y47258D01*
X188789Y47343D01*
X188780Y47429D01*
X188774Y47515D01*
X188772Y47601D01*
X188772Y52399D01*
X188774Y52485D01*
X188780Y52571D01*
X188789Y52657D01*
X188803Y52742D01*
X188820Y52826D01*
X188841Y52910D01*
X188866Y52992D01*
X188894Y53073D01*
X188926Y53153D01*
X188962Y53232D01*
X189001Y53308D01*
X189044Y53383D01*
X189089Y53456D01*
X189138Y53527D01*
X189191Y53595D01*
X189246Y53662D01*
X189304Y53725D01*
X189365Y53786D01*
X189428Y53844D01*
X189495Y53899D01*
X189563Y53951D01*
X189634Y54001D01*
X189707Y54046D01*
X189782Y54089D01*
X189858Y54128D01*
X189937Y54164D01*
X190017Y54196D01*
X190098Y54224D01*
X190180Y54249D01*
X190264Y54270D01*
X190348Y54287D01*
X190433Y54301D01*
X190519Y54310D01*
X190605Y54316D01*
X190691Y54318D01*
X192610Y54318D01*
X196430Y48081D02*
X196432Y48178D01*
X196438Y48274D01*
X196447Y48370D01*
X196461Y48466D01*
X196478Y48561D01*
X196500Y48655D01*
X196525Y48748D01*
X196553Y48841D01*
X196586Y48932D01*
X196622Y49021D01*
X196662Y49109D01*
X196705Y49196D01*
X196751Y49281D01*
X196801Y49363D01*
X196855Y49444D01*
X196911Y49522D01*
X196971Y49598D01*
X197033Y49672D01*
X197099Y49743D01*
X197167Y49811D01*
X197238Y49877D01*
X197312Y49939D01*
X197388Y49999D01*
X197466Y50055D01*
X197547Y50109D01*
X197630Y50159D01*
X197714Y50205D01*
X197801Y50248D01*
X197889Y50288D01*
X197978Y50324D01*
X198069Y50357D01*
X198162Y50385D01*
X198255Y50410D01*
X198349Y50432D01*
X198444Y50449D01*
X198540Y50463D01*
X198636Y50472D01*
X198732Y50478D01*
X198829Y50480D01*
X198926Y50478D01*
X199022Y50472D01*
X199118Y50463D01*
X199214Y50449D01*
X199309Y50432D01*
X199403Y50410D01*
X199496Y50385D01*
X199589Y50357D01*
X199680Y50324D01*
X199769Y50288D01*
X199857Y50248D01*
X199944Y50205D01*
X200029Y50159D01*
X200111Y50109D01*
X200192Y50055D01*
X200270Y49999D01*
X200346Y49939D01*
X200420Y49877D01*
X200491Y49811D01*
X200559Y49743D01*
X200625Y49672D01*
X200687Y49598D01*
X200747Y49522D01*
X200803Y49444D01*
X200857Y49363D01*
X200907Y49281D01*
X200953Y49196D01*
X200996Y49109D01*
X201036Y49021D01*
X201072Y48932D01*
X201105Y48841D01*
X201133Y48748D01*
X201158Y48655D01*
X201180Y48561D01*
X201197Y48466D01*
X201211Y48370D01*
X201220Y48274D01*
X201226Y48178D01*
X201228Y48081D01*
X201226Y47984D01*
X201220Y47888D01*
X201211Y47792D01*
X201197Y47696D01*
X201180Y47601D01*
X201158Y47507D01*
X201133Y47414D01*
X201105Y47321D01*
X201072Y47230D01*
X201036Y47141D01*
X200996Y47053D01*
X200953Y46966D01*
X200907Y46881D01*
X200857Y46799D01*
X200803Y46718D01*
X200747Y46640D01*
X200687Y46564D01*
X200625Y46490D01*
X200559Y46419D01*
X200491Y46351D01*
X200420Y46285D01*
X200346Y46223D01*
X200270Y46163D01*
X200192Y46107D01*
X200111Y46053D01*
X200028Y46003D01*
X199944Y45957D01*
X199857Y45914D01*
X199769Y45874D01*
X199680Y45838D01*
X199589Y45805D01*
X199496Y45777D01*
X199403Y45752D01*
X199309Y45730D01*
X199214Y45713D01*
X199118Y45699D01*
X199022Y45690D01*
X198926Y45684D01*
X198829Y45682D01*
X198732Y45684D01*
X198636Y45690D01*
X198540Y45699D01*
X198444Y45713D01*
X198349Y45730D01*
X198255Y45752D01*
X198162Y45777D01*
X198069Y45805D01*
X197978Y45838D01*
X197889Y45874D01*
X197801Y45914D01*
X197714Y45957D01*
X197630Y46003D01*
X197547Y46053D01*
X197466Y46107D01*
X197388Y46163D01*
X197312Y46223D01*
X197238Y46285D01*
X197167Y46351D01*
X197099Y46419D01*
X197033Y46490D01*
X196971Y46564D01*
X196911Y46640D01*
X196855Y46718D01*
X196801Y46799D01*
X196751Y46882D01*
X196705Y46966D01*
X196662Y47053D01*
X196622Y47141D01*
X196586Y47230D01*
X196553Y47321D01*
X196525Y47414D01*
X196500Y47507D01*
X196478Y47601D01*
X196461Y47696D01*
X196447Y47792D01*
X196438Y47888D01*
X196432Y47984D01*
X196430Y48081D01*
X196910Y52399D02*
X196912Y52485D01*
X196918Y52571D01*
X196927Y52657D01*
X196941Y52742D01*
X196958Y52826D01*
X196979Y52910D01*
X197004Y52992D01*
X197032Y53073D01*
X197064Y53153D01*
X197100Y53232D01*
X197139Y53308D01*
X197182Y53383D01*
X197227Y53456D01*
X197276Y53527D01*
X197329Y53595D01*
X197384Y53662D01*
X197442Y53725D01*
X197503Y53786D01*
X197566Y53844D01*
X197633Y53899D01*
X197701Y53952D01*
X197772Y54001D01*
X197845Y54046D01*
X197920Y54089D01*
X197996Y54128D01*
X198075Y54164D01*
X198155Y54196D01*
X198236Y54224D01*
X198318Y54249D01*
X198402Y54270D01*
X198486Y54287D01*
X198571Y54301D01*
X198657Y54310D01*
X198743Y54316D01*
X198829Y54318D01*
X198915Y54316D01*
X199001Y54310D01*
X199087Y54301D01*
X199172Y54287D01*
X199256Y54270D01*
X199340Y54249D01*
X199422Y54224D01*
X199503Y54196D01*
X199583Y54164D01*
X199662Y54128D01*
X199738Y54089D01*
X199813Y54046D01*
X199886Y54001D01*
X199957Y53952D01*
X200025Y53899D01*
X200092Y53844D01*
X200155Y53786D01*
X200216Y53725D01*
X200274Y53662D01*
X200329Y53595D01*
X200382Y53527D01*
X200431Y53456D01*
X200476Y53383D01*
X200519Y53308D01*
X200558Y53232D01*
X200594Y53153D01*
X200626Y53073D01*
X200654Y52992D01*
X200679Y52910D01*
X200700Y52826D01*
X200717Y52742D01*
X200731Y52657D01*
X200740Y52571D01*
X200746Y52485D01*
X200748Y52399D01*
X200746Y52313D01*
X200740Y52227D01*
X200731Y52141D01*
X200717Y52056D01*
X200700Y51972D01*
X200679Y51888D01*
X200654Y51806D01*
X200626Y51725D01*
X200594Y51645D01*
X200558Y51566D01*
X200519Y51490D01*
X200476Y51415D01*
X200431Y51342D01*
X200382Y51271D01*
X200329Y51203D01*
X200274Y51136D01*
X200216Y51073D01*
X200155Y51012D01*
X200092Y50954D01*
X200025Y50899D01*
X199957Y50846D01*
X199886Y50797D01*
X199813Y50752D01*
X199738Y50709D01*
X199662Y50670D01*
X199583Y50634D01*
X199503Y50602D01*
X199422Y50574D01*
X199340Y50549D01*
X199256Y50528D01*
X199172Y50511D01*
X199087Y50497D01*
X199001Y50488D01*
X198915Y50482D01*
X198829Y50480D01*
X198743Y50482D01*
X198657Y50488D01*
X198571Y50497D01*
X198486Y50511D01*
X198402Y50528D01*
X198318Y50549D01*
X198236Y50574D01*
X198155Y50602D01*
X198075Y50634D01*
X197996Y50670D01*
X197920Y50709D01*
X197845Y50752D01*
X197772Y50797D01*
X197701Y50846D01*
X197633Y50899D01*
X197566Y50954D01*
X197503Y51012D01*
X197442Y51073D01*
X197384Y51136D01*
X197329Y51203D01*
X197276Y51271D01*
X197227Y51342D01*
X197182Y51415D01*
X197139Y51490D01*
X197100Y51566D01*
X197064Y51645D01*
X197032Y51725D01*
X197004Y51806D01*
X196979Y51888D01*
X196958Y51972D01*
X196941Y52056D01*
X196927Y52141D01*
X196918Y52227D01*
X196912Y52313D01*
X196910Y52399D01*
X246119Y45682D02*
X248038Y45682D01*
X246119Y45682D02*
X246033Y45684D01*
X245947Y45690D01*
X245861Y45699D01*
X245776Y45713D01*
X245692Y45730D01*
X245608Y45751D01*
X245526Y45776D01*
X245445Y45804D01*
X245365Y45836D01*
X245286Y45872D01*
X245210Y45911D01*
X245135Y45954D01*
X245062Y45999D01*
X244991Y46048D01*
X244923Y46101D01*
X244856Y46156D01*
X244793Y46214D01*
X244732Y46275D01*
X244674Y46338D01*
X244619Y46405D01*
X244566Y46473D01*
X244517Y46544D01*
X244472Y46617D01*
X244429Y46692D01*
X244390Y46768D01*
X244354Y46847D01*
X244322Y46927D01*
X244294Y47008D01*
X244269Y47090D01*
X244248Y47174D01*
X244231Y47258D01*
X244217Y47343D01*
X244208Y47429D01*
X244202Y47515D01*
X244200Y47601D01*
X244200Y52399D01*
X244202Y52485D01*
X244208Y52571D01*
X244217Y52657D01*
X244231Y52742D01*
X244248Y52826D01*
X244269Y52910D01*
X244294Y52992D01*
X244322Y53073D01*
X244354Y53153D01*
X244390Y53232D01*
X244429Y53308D01*
X244472Y53383D01*
X244517Y53456D01*
X244566Y53527D01*
X244619Y53595D01*
X244674Y53662D01*
X244732Y53725D01*
X244793Y53786D01*
X244856Y53844D01*
X244923Y53899D01*
X244991Y53951D01*
X245062Y54001D01*
X245135Y54046D01*
X245210Y54089D01*
X245286Y54128D01*
X245365Y54164D01*
X245445Y54196D01*
X245526Y54224D01*
X245608Y54249D01*
X245692Y54270D01*
X245776Y54287D01*
X245861Y54301D01*
X245947Y54310D01*
X246033Y54316D01*
X246119Y54318D01*
X248038Y54318D01*
X251858Y52399D02*
X254257Y54318D01*
X254257Y45682D01*
X251858Y45682D02*
X256656Y45682D01*
X261002Y47601D02*
X262921Y54318D01*
X261002Y47601D02*
X265800Y47601D01*
X264361Y49520D02*
X264361Y45682D01*
D18*
X245099Y35125D03*
D19*
X240659Y27651D02*
X240659Y27349D01*
X209341Y27349D02*
X209341Y27651D01*
X223349Y14341D02*
X226651Y14341D01*
X226651Y40659D02*
X223349Y40659D01*
D13*
X220668Y50240D02*
X217789Y54318D01*
X220668Y50240D02*
X223547Y54318D01*
X220668Y50240D02*
X220668Y45682D01*
X227413Y52399D02*
X229812Y54318D01*
X229812Y45682D01*
X227413Y45682D02*
X232211Y45682D01*
X320682Y178071D02*
X329318Y178071D01*
X320682Y178071D02*
X320682Y180470D01*
X320684Y180567D01*
X320690Y180663D01*
X320699Y180759D01*
X320713Y180855D01*
X320730Y180950D01*
X320752Y181044D01*
X320777Y181137D01*
X320805Y181230D01*
X320838Y181321D01*
X320874Y181410D01*
X320914Y181498D01*
X320957Y181585D01*
X321003Y181670D01*
X321053Y181752D01*
X321107Y181833D01*
X321163Y181911D01*
X321223Y181987D01*
X321285Y182061D01*
X321351Y182132D01*
X321419Y182200D01*
X321490Y182266D01*
X321564Y182328D01*
X321640Y182388D01*
X321718Y182444D01*
X321799Y182498D01*
X321882Y182548D01*
X321966Y182594D01*
X322053Y182637D01*
X322141Y182677D01*
X322230Y182713D01*
X322321Y182746D01*
X322414Y182774D01*
X322507Y182799D01*
X322601Y182821D01*
X322696Y182838D01*
X322792Y182852D01*
X322888Y182861D01*
X322984Y182867D01*
X323081Y182869D01*
X323178Y182867D01*
X323274Y182861D01*
X323370Y182852D01*
X323466Y182838D01*
X323561Y182821D01*
X323655Y182799D01*
X323748Y182774D01*
X323841Y182746D01*
X323932Y182713D01*
X324021Y182677D01*
X324109Y182637D01*
X324196Y182594D01*
X324281Y182548D01*
X324363Y182498D01*
X324444Y182444D01*
X324522Y182388D01*
X324598Y182328D01*
X324672Y182266D01*
X324743Y182200D01*
X324811Y182132D01*
X324877Y182061D01*
X324939Y181987D01*
X324999Y181911D01*
X325055Y181833D01*
X325109Y181752D01*
X325159Y181670D01*
X325205Y181585D01*
X325248Y181498D01*
X325288Y181410D01*
X325324Y181321D01*
X325357Y181230D01*
X325385Y181137D01*
X325410Y181044D01*
X325432Y180950D01*
X325449Y180855D01*
X325463Y180759D01*
X325472Y180663D01*
X325478Y180567D01*
X325480Y180470D01*
X325480Y178071D01*
X325480Y180950D02*
X329318Y182869D01*
X327399Y187131D02*
X320682Y189050D01*
X327399Y187131D02*
X327399Y191929D01*
X325480Y190489D02*
X329318Y190489D01*
D12*
X279500Y28500D02*
X279502Y28440D01*
X279507Y28379D01*
X279516Y28320D01*
X279529Y28261D01*
X279545Y28202D01*
X279565Y28145D01*
X279588Y28090D01*
X279615Y28035D01*
X279644Y27983D01*
X279677Y27932D01*
X279713Y27883D01*
X279751Y27837D01*
X279793Y27793D01*
X279837Y27751D01*
X279883Y27713D01*
X279932Y27677D01*
X279983Y27644D01*
X280035Y27615D01*
X280090Y27588D01*
X280145Y27565D01*
X280202Y27545D01*
X280261Y27529D01*
X280320Y27516D01*
X280379Y27507D01*
X280440Y27502D01*
X280500Y27500D01*
X279500Y28500D02*
X279500Y86500D01*
X279502Y86560D01*
X279507Y86621D01*
X279516Y86680D01*
X279529Y86739D01*
X279545Y86798D01*
X279565Y86855D01*
X279588Y86910D01*
X279615Y86965D01*
X279644Y87017D01*
X279677Y87068D01*
X279713Y87117D01*
X279751Y87163D01*
X279793Y87207D01*
X279837Y87249D01*
X279883Y87287D01*
X279932Y87323D01*
X279983Y87356D01*
X280035Y87385D01*
X280090Y87412D01*
X280145Y87435D01*
X280202Y87455D01*
X280261Y87471D01*
X280320Y87484D01*
X280379Y87493D01*
X280440Y87498D01*
X280500Y87500D01*
X287500Y87500D01*
X307500Y87500D02*
X314500Y87500D01*
X314560Y87498D01*
X314621Y87493D01*
X314680Y87484D01*
X314739Y87471D01*
X314798Y87455D01*
X314855Y87435D01*
X314910Y87412D01*
X314965Y87385D01*
X315017Y87356D01*
X315068Y87323D01*
X315117Y87287D01*
X315163Y87249D01*
X315207Y87207D01*
X315249Y87163D01*
X315287Y87117D01*
X315323Y87068D01*
X315356Y87017D01*
X315385Y86965D01*
X315412Y86910D01*
X315435Y86855D01*
X315455Y86798D01*
X315471Y86739D01*
X315484Y86680D01*
X315493Y86621D01*
X315498Y86560D01*
X315500Y86500D01*
X315500Y28500D01*
X315498Y28440D01*
X315493Y28379D01*
X315484Y28320D01*
X315471Y28261D01*
X315455Y28202D01*
X315435Y28145D01*
X315412Y28090D01*
X315385Y28035D01*
X315356Y27983D01*
X315323Y27932D01*
X315287Y27883D01*
X315249Y27837D01*
X315207Y27793D01*
X315163Y27751D01*
X315117Y27713D01*
X315068Y27677D01*
X315017Y27644D01*
X314965Y27615D01*
X314910Y27588D01*
X314855Y27565D01*
X314798Y27545D01*
X314739Y27529D01*
X314680Y27516D01*
X314621Y27507D01*
X314560Y27502D01*
X314500Y27500D01*
X287500Y27500D02*
X280500Y27500D01*
X307500Y27500D02*
X314500Y27500D01*
D13*
X286818Y93560D02*
X286816Y93646D01*
X286810Y93732D01*
X286801Y93818D01*
X286787Y93903D01*
X286770Y93987D01*
X286749Y94071D01*
X286724Y94153D01*
X286696Y94234D01*
X286664Y94314D01*
X286628Y94393D01*
X286589Y94469D01*
X286546Y94544D01*
X286501Y94617D01*
X286452Y94688D01*
X286399Y94756D01*
X286344Y94823D01*
X286286Y94886D01*
X286225Y94947D01*
X286162Y95005D01*
X286095Y95060D01*
X286027Y95113D01*
X285956Y95162D01*
X285883Y95207D01*
X285808Y95250D01*
X285732Y95289D01*
X285653Y95325D01*
X285573Y95357D01*
X285492Y95385D01*
X285410Y95410D01*
X285326Y95431D01*
X285242Y95448D01*
X285157Y95462D01*
X285071Y95471D01*
X284985Y95477D01*
X284899Y95479D01*
X286818Y93560D02*
X286816Y93437D01*
X286811Y93314D01*
X286801Y93191D01*
X286788Y93069D01*
X286771Y92947D01*
X286751Y92825D01*
X286727Y92705D01*
X286699Y92585D01*
X286668Y92466D01*
X286632Y92348D01*
X286594Y92231D01*
X286552Y92115D01*
X286506Y92001D01*
X286457Y91888D01*
X286405Y91777D01*
X286349Y91667D01*
X286290Y91559D01*
X286227Y91453D01*
X286162Y91349D01*
X286093Y91246D01*
X286021Y91146D01*
X285946Y91049D01*
X285869Y90953D01*
X285788Y90860D01*
X285705Y90769D01*
X285619Y90681D01*
X280101Y90922D02*
X280015Y90924D01*
X279929Y90930D01*
X279843Y90939D01*
X279758Y90953D01*
X279674Y90970D01*
X279590Y90991D01*
X279508Y91016D01*
X279427Y91044D01*
X279347Y91076D01*
X279268Y91112D01*
X279192Y91151D01*
X279117Y91194D01*
X279044Y91239D01*
X278973Y91288D01*
X278905Y91341D01*
X278838Y91396D01*
X278775Y91454D01*
X278714Y91515D01*
X278656Y91578D01*
X278601Y91645D01*
X278548Y91713D01*
X278499Y91784D01*
X278454Y91857D01*
X278411Y91932D01*
X278372Y92008D01*
X278336Y92087D01*
X278304Y92167D01*
X278276Y92248D01*
X278251Y92330D01*
X278230Y92414D01*
X278213Y92498D01*
X278199Y92583D01*
X278190Y92669D01*
X278184Y92755D01*
X278182Y92841D01*
X278184Y92957D01*
X278189Y93072D01*
X278199Y93188D01*
X278212Y93303D01*
X278228Y93417D01*
X278249Y93531D01*
X278273Y93645D01*
X278301Y93757D01*
X278332Y93868D01*
X278367Y93979D01*
X278405Y94088D01*
X278447Y94196D01*
X278492Y94302D01*
X278541Y94408D01*
X278593Y94511D01*
X278648Y94613D01*
X278707Y94712D01*
X278769Y94810D01*
X278834Y94906D01*
X278902Y95000D01*
X281780Y91881D02*
X281734Y91806D01*
X281684Y91733D01*
X281631Y91663D01*
X281575Y91595D01*
X281516Y91530D01*
X281454Y91467D01*
X281390Y91408D01*
X281322Y91351D01*
X281252Y91297D01*
X281180Y91247D01*
X281106Y91200D01*
X281030Y91156D01*
X280951Y91116D01*
X280871Y91080D01*
X280790Y91047D01*
X280707Y91018D01*
X280622Y90992D01*
X280537Y90970D01*
X280451Y90953D01*
X280364Y90939D01*
X280277Y90929D01*
X280189Y90923D01*
X280101Y90921D01*
X283220Y94520D02*
X283266Y94594D01*
X283316Y94667D01*
X283369Y94737D01*
X283425Y94805D01*
X283484Y94870D01*
X283546Y94933D01*
X283611Y94992D01*
X283678Y95049D01*
X283748Y95103D01*
X283820Y95153D01*
X283894Y95200D01*
X283970Y95244D01*
X284049Y95284D01*
X284129Y95320D01*
X284210Y95353D01*
X284293Y95383D01*
X284378Y95408D01*
X284463Y95430D01*
X284549Y95447D01*
X284636Y95461D01*
X284723Y95471D01*
X284811Y95477D01*
X284899Y95479D01*
X283220Y94520D02*
X281780Y91881D01*
X280101Y99521D02*
X278182Y101920D01*
X286818Y101920D01*
X286818Y104318D02*
X286818Y99521D01*
X96818Y33804D02*
X88182Y33804D01*
X88182Y37642D01*
X92020Y37642D02*
X92020Y33804D01*
X90101Y41398D02*
X88182Y43797D01*
X96818Y43797D01*
X96818Y41398D02*
X96818Y46196D01*
D20*
X102000Y155000D02*
X102100Y155000D01*
D12*
X107000Y140800D02*
X123000Y140800D01*
X123000Y169200D02*
X107000Y169200D01*
D21*
X121500Y167700D02*
X121500Y142200D01*
X108400Y142200D01*
X108400Y167700D01*
X121500Y167700D01*
D13*
X107877Y175581D02*
X107877Y181818D01*
X107877Y175581D02*
X107879Y175484D01*
X107885Y175388D01*
X107894Y175292D01*
X107908Y175196D01*
X107925Y175101D01*
X107947Y175007D01*
X107972Y174914D01*
X108000Y174821D01*
X108033Y174730D01*
X108069Y174641D01*
X108109Y174553D01*
X108152Y174466D01*
X108198Y174382D01*
X108248Y174299D01*
X108302Y174218D01*
X108358Y174140D01*
X108418Y174064D01*
X108480Y173990D01*
X108546Y173919D01*
X108614Y173851D01*
X108685Y173785D01*
X108759Y173723D01*
X108835Y173663D01*
X108913Y173607D01*
X108994Y173553D01*
X109076Y173503D01*
X109161Y173457D01*
X109248Y173414D01*
X109336Y173374D01*
X109425Y173338D01*
X109516Y173305D01*
X109609Y173277D01*
X109702Y173252D01*
X109796Y173230D01*
X109891Y173213D01*
X109987Y173199D01*
X110083Y173190D01*
X110179Y173184D01*
X110276Y173182D01*
X110373Y173184D01*
X110469Y173190D01*
X110565Y173199D01*
X110661Y173213D01*
X110756Y173230D01*
X110850Y173252D01*
X110943Y173277D01*
X111036Y173305D01*
X111127Y173338D01*
X111216Y173374D01*
X111304Y173414D01*
X111391Y173457D01*
X111475Y173503D01*
X111558Y173553D01*
X111639Y173607D01*
X111717Y173663D01*
X111793Y173723D01*
X111867Y173785D01*
X111938Y173851D01*
X112006Y173919D01*
X112072Y173990D01*
X112134Y174064D01*
X112194Y174140D01*
X112250Y174218D01*
X112304Y174299D01*
X112354Y174381D01*
X112400Y174466D01*
X112443Y174553D01*
X112483Y174641D01*
X112519Y174730D01*
X112552Y174821D01*
X112580Y174914D01*
X112605Y175007D01*
X112627Y175101D01*
X112644Y175196D01*
X112658Y175292D01*
X112667Y175388D01*
X112673Y175484D01*
X112675Y175581D01*
X112675Y181818D01*
X119964Y181818D02*
X120056Y181816D01*
X120147Y181810D01*
X120238Y181801D01*
X120329Y181787D01*
X120419Y181770D01*
X120508Y181748D01*
X120596Y181723D01*
X120683Y181695D01*
X120769Y181662D01*
X120853Y181626D01*
X120936Y181587D01*
X121017Y181544D01*
X121096Y181497D01*
X121173Y181448D01*
X121248Y181395D01*
X121320Y181339D01*
X121390Y181280D01*
X121458Y181218D01*
X121523Y181153D01*
X121585Y181085D01*
X121644Y181015D01*
X121700Y180943D01*
X121753Y180868D01*
X121802Y180791D01*
X121849Y180712D01*
X121892Y180631D01*
X121931Y180548D01*
X121967Y180464D01*
X122000Y180378D01*
X122028Y180291D01*
X122053Y180203D01*
X122075Y180114D01*
X122092Y180024D01*
X122106Y179933D01*
X122115Y179842D01*
X122121Y179751D01*
X122123Y179659D01*
X119964Y181818D02*
X119861Y181816D01*
X119759Y181810D01*
X119657Y181801D01*
X119555Y181788D01*
X119454Y181771D01*
X119353Y181750D01*
X119254Y181726D01*
X119155Y181697D01*
X119058Y181666D01*
X118961Y181630D01*
X118866Y181592D01*
X118773Y181549D01*
X118681Y181503D01*
X118591Y181454D01*
X118503Y181402D01*
X118416Y181346D01*
X118332Y181287D01*
X118251Y181226D01*
X118171Y181161D01*
X118094Y181093D01*
X118019Y181022D01*
X117948Y180949D01*
X117879Y180873D01*
X117812Y180795D01*
X117749Y180714D01*
X117689Y180631D01*
X117632Y180546D01*
X117578Y180459D01*
X117527Y180369D01*
X117480Y180278D01*
X117436Y180186D01*
X117395Y180091D01*
X117358Y179996D01*
X117325Y179899D01*
X121403Y177980D02*
X121470Y178046D01*
X121534Y178115D01*
X121595Y178186D01*
X121653Y178260D01*
X121708Y178336D01*
X121760Y178414D01*
X121809Y178494D01*
X121855Y178576D01*
X121897Y178660D01*
X121936Y178746D01*
X121971Y178833D01*
X122002Y178921D01*
X122030Y179011D01*
X122055Y179101D01*
X122076Y179193D01*
X122093Y179285D01*
X122106Y179378D01*
X122115Y179471D01*
X122121Y179565D01*
X122123Y179659D01*
X121404Y177980D02*
X117326Y173182D01*
X122123Y173182D01*
X310896Y108276D02*
X319024Y108276D01*
X310896Y108276D02*
X310896Y113864D01*
X310896Y136724D02*
X319024Y136724D01*
X310896Y136724D02*
X310896Y131136D01*
X294419Y115760D02*
X290581Y115760D01*
X290484Y115762D01*
X290388Y115768D01*
X290292Y115777D01*
X290196Y115791D01*
X290101Y115808D01*
X290007Y115830D01*
X289914Y115855D01*
X289821Y115883D01*
X289730Y115916D01*
X289641Y115952D01*
X289553Y115992D01*
X289466Y116035D01*
X289382Y116081D01*
X289299Y116131D01*
X289218Y116185D01*
X289140Y116241D01*
X289064Y116301D01*
X288990Y116363D01*
X288919Y116429D01*
X288851Y116497D01*
X288785Y116568D01*
X288723Y116642D01*
X288663Y116718D01*
X288607Y116796D01*
X288553Y116877D01*
X288503Y116960D01*
X288457Y117044D01*
X288414Y117131D01*
X288374Y117219D01*
X288338Y117308D01*
X288305Y117399D01*
X288277Y117492D01*
X288252Y117585D01*
X288230Y117679D01*
X288213Y117774D01*
X288199Y117870D01*
X288190Y117966D01*
X288184Y118062D01*
X288182Y118159D01*
X288184Y118256D01*
X288190Y118352D01*
X288199Y118448D01*
X288213Y118544D01*
X288230Y118639D01*
X288252Y118733D01*
X288277Y118826D01*
X288305Y118919D01*
X288338Y119010D01*
X288374Y119099D01*
X288414Y119187D01*
X288457Y119274D01*
X288503Y119359D01*
X288553Y119441D01*
X288607Y119522D01*
X288663Y119600D01*
X288723Y119676D01*
X288785Y119750D01*
X288851Y119821D01*
X288919Y119889D01*
X288990Y119955D01*
X289064Y120017D01*
X289140Y120077D01*
X289218Y120133D01*
X289299Y120187D01*
X289382Y120237D01*
X289466Y120283D01*
X289553Y120326D01*
X289641Y120366D01*
X289730Y120402D01*
X289821Y120435D01*
X289914Y120463D01*
X290007Y120488D01*
X290101Y120510D01*
X290196Y120527D01*
X290292Y120541D01*
X290388Y120550D01*
X290484Y120556D01*
X290581Y120558D01*
X294419Y120558D01*
X294516Y120556D01*
X294612Y120550D01*
X294708Y120541D01*
X294804Y120527D01*
X294899Y120510D01*
X294993Y120488D01*
X295086Y120463D01*
X295179Y120435D01*
X295270Y120402D01*
X295359Y120366D01*
X295447Y120326D01*
X295534Y120283D01*
X295619Y120237D01*
X295701Y120187D01*
X295782Y120133D01*
X295860Y120077D01*
X295936Y120017D01*
X296010Y119955D01*
X296081Y119889D01*
X296149Y119821D01*
X296215Y119750D01*
X296277Y119676D01*
X296337Y119600D01*
X296393Y119522D01*
X296447Y119441D01*
X296497Y119358D01*
X296543Y119274D01*
X296586Y119187D01*
X296626Y119099D01*
X296662Y119010D01*
X296695Y118919D01*
X296723Y118826D01*
X296748Y118733D01*
X296770Y118639D01*
X296787Y118544D01*
X296801Y118448D01*
X296810Y118352D01*
X296816Y118256D01*
X296818Y118159D01*
X296816Y118062D01*
X296810Y117966D01*
X296801Y117870D01*
X296787Y117774D01*
X296770Y117679D01*
X296748Y117585D01*
X296723Y117492D01*
X296695Y117399D01*
X296662Y117308D01*
X296626Y117219D01*
X296586Y117131D01*
X296543Y117044D01*
X296497Y116959D01*
X296447Y116877D01*
X296393Y116796D01*
X296337Y116718D01*
X296277Y116642D01*
X296215Y116568D01*
X296149Y116497D01*
X296081Y116429D01*
X296010Y116363D01*
X295936Y116301D01*
X295860Y116241D01*
X295782Y116185D01*
X295701Y116131D01*
X295619Y116081D01*
X295534Y116035D01*
X295447Y115992D01*
X295359Y115952D01*
X295270Y115916D01*
X295179Y115883D01*
X295086Y115855D01*
X294993Y115830D01*
X294899Y115808D01*
X294804Y115791D01*
X294708Y115777D01*
X294612Y115768D01*
X294516Y115762D01*
X294419Y115760D01*
X294899Y119599D02*
X296818Y121518D01*
X290101Y124442D02*
X288182Y126841D01*
X296818Y126841D01*
X296818Y124442D02*
X296818Y129240D01*
M02*
