G04 EAGLE Gerber RS-274X export*
G75*
%MOMM*%
%FSLAX34Y34*%
%LPD*%
%INSilkscreen Bottom*%
%IPPOS*%
%AMOC8*
5,1,8,0,0,1.08239X$1,22.5*%
G01*
%ADD10C,0.279400*%
%ADD11C,0.228600*%
%ADD12C,0.152400*%
%ADD13C,0.127000*%
%ADD14C,0.300000*%


D10*
X333603Y7507D02*
X328608Y22493D01*
X323612Y7507D01*
X324861Y11254D02*
X332354Y11254D01*
X316828Y7507D02*
X316828Y17498D01*
X312665Y17498D01*
X312567Y17496D01*
X312469Y17490D01*
X312371Y17481D01*
X312274Y17467D01*
X312178Y17450D01*
X312082Y17429D01*
X311987Y17404D01*
X311893Y17376D01*
X311800Y17344D01*
X311709Y17308D01*
X311619Y17269D01*
X311531Y17226D01*
X311444Y17180D01*
X311360Y17130D01*
X311277Y17077D01*
X311197Y17021D01*
X311119Y16962D01*
X311043Y16900D01*
X310969Y16834D01*
X310899Y16766D01*
X310831Y16696D01*
X310766Y16622D01*
X310703Y16547D01*
X310644Y16468D01*
X310588Y16388D01*
X310535Y16305D01*
X310486Y16221D01*
X310439Y16134D01*
X310396Y16046D01*
X310357Y15956D01*
X310321Y15865D01*
X310289Y15772D01*
X310261Y15678D01*
X310236Y15583D01*
X310215Y15487D01*
X310198Y15391D01*
X310184Y15294D01*
X310175Y15196D01*
X310169Y15098D01*
X310167Y15000D01*
X310167Y7507D01*
X296210Y7507D02*
X296210Y22493D01*
X296210Y7507D02*
X300372Y7507D01*
X300470Y7509D01*
X300568Y7515D01*
X300666Y7524D01*
X300763Y7538D01*
X300859Y7555D01*
X300955Y7576D01*
X301050Y7601D01*
X301144Y7629D01*
X301237Y7661D01*
X301328Y7697D01*
X301418Y7736D01*
X301506Y7779D01*
X301593Y7826D01*
X301677Y7875D01*
X301760Y7928D01*
X301840Y7984D01*
X301919Y8043D01*
X301994Y8106D01*
X302068Y8171D01*
X302138Y8239D01*
X302206Y8309D01*
X302272Y8383D01*
X302334Y8459D01*
X302393Y8537D01*
X302449Y8617D01*
X302502Y8700D01*
X302552Y8784D01*
X302598Y8871D01*
X302641Y8959D01*
X302680Y9049D01*
X302716Y9140D01*
X302748Y9233D01*
X302776Y9327D01*
X302801Y9422D01*
X302822Y9518D01*
X302839Y9614D01*
X302853Y9711D01*
X302862Y9809D01*
X302868Y9907D01*
X302870Y10005D01*
X302870Y15000D01*
X302868Y15098D01*
X302862Y15196D01*
X302853Y15294D01*
X302839Y15391D01*
X302822Y15487D01*
X302801Y15583D01*
X302776Y15678D01*
X302748Y15772D01*
X302716Y15865D01*
X302680Y15956D01*
X302641Y16046D01*
X302598Y16134D01*
X302551Y16221D01*
X302502Y16305D01*
X302449Y16388D01*
X302393Y16468D01*
X302334Y16546D01*
X302271Y16622D01*
X302206Y16696D01*
X302138Y16766D01*
X302068Y16834D01*
X301994Y16899D01*
X301918Y16962D01*
X301840Y17021D01*
X301760Y17077D01*
X301677Y17130D01*
X301593Y17179D01*
X301506Y17226D01*
X301418Y17269D01*
X301328Y17308D01*
X301237Y17344D01*
X301144Y17376D01*
X301050Y17404D01*
X300955Y17429D01*
X300859Y17450D01*
X300763Y17467D01*
X300666Y17481D01*
X300568Y17490D01*
X300470Y17496D01*
X300372Y17498D01*
X296210Y17498D01*
X288043Y17498D02*
X288043Y7507D01*
X288043Y17498D02*
X283047Y17498D01*
X283047Y15833D01*
X275252Y7507D02*
X271089Y7507D01*
X275252Y7507D02*
X275350Y7509D01*
X275448Y7515D01*
X275546Y7524D01*
X275643Y7538D01*
X275739Y7555D01*
X275835Y7576D01*
X275930Y7601D01*
X276024Y7629D01*
X276117Y7661D01*
X276208Y7697D01*
X276298Y7736D01*
X276386Y7779D01*
X276473Y7826D01*
X276557Y7875D01*
X276640Y7928D01*
X276720Y7984D01*
X276799Y8043D01*
X276874Y8106D01*
X276948Y8171D01*
X277018Y8239D01*
X277086Y8309D01*
X277152Y8383D01*
X277214Y8459D01*
X277273Y8537D01*
X277329Y8617D01*
X277382Y8700D01*
X277432Y8784D01*
X277478Y8871D01*
X277521Y8959D01*
X277560Y9049D01*
X277596Y9140D01*
X277628Y9233D01*
X277656Y9327D01*
X277681Y9422D01*
X277702Y9518D01*
X277719Y9614D01*
X277733Y9711D01*
X277742Y9809D01*
X277748Y9907D01*
X277750Y10005D01*
X277750Y14167D01*
X277749Y14167D02*
X277747Y14281D01*
X277741Y14394D01*
X277732Y14508D01*
X277718Y14620D01*
X277701Y14733D01*
X277679Y14845D01*
X277654Y14955D01*
X277626Y15065D01*
X277593Y15174D01*
X277557Y15282D01*
X277517Y15389D01*
X277473Y15494D01*
X277426Y15597D01*
X277376Y15699D01*
X277322Y15799D01*
X277264Y15897D01*
X277203Y15993D01*
X277140Y16087D01*
X277072Y16179D01*
X277002Y16269D01*
X276929Y16355D01*
X276853Y16440D01*
X276774Y16522D01*
X276692Y16601D01*
X276607Y16677D01*
X276521Y16750D01*
X276431Y16820D01*
X276339Y16888D01*
X276245Y16951D01*
X276149Y17012D01*
X276051Y17070D01*
X275951Y17124D01*
X275849Y17174D01*
X275746Y17221D01*
X275641Y17265D01*
X275534Y17305D01*
X275426Y17341D01*
X275317Y17374D01*
X275207Y17402D01*
X275097Y17427D01*
X274985Y17449D01*
X274872Y17466D01*
X274760Y17480D01*
X274646Y17489D01*
X274533Y17495D01*
X274419Y17497D01*
X274305Y17495D01*
X274192Y17489D01*
X274078Y17480D01*
X273966Y17466D01*
X273853Y17449D01*
X273741Y17427D01*
X273631Y17402D01*
X273521Y17374D01*
X273412Y17341D01*
X273304Y17305D01*
X273197Y17265D01*
X273092Y17221D01*
X272989Y17174D01*
X272887Y17124D01*
X272787Y17070D01*
X272689Y17012D01*
X272593Y16951D01*
X272499Y16888D01*
X272407Y16820D01*
X272317Y16750D01*
X272231Y16677D01*
X272146Y16601D01*
X272064Y16522D01*
X271985Y16440D01*
X271909Y16355D01*
X271836Y16269D01*
X271766Y16179D01*
X271698Y16087D01*
X271635Y15993D01*
X271574Y15897D01*
X271516Y15799D01*
X271462Y15699D01*
X271412Y15597D01*
X271365Y15494D01*
X271321Y15389D01*
X271281Y15282D01*
X271245Y15174D01*
X271212Y15065D01*
X271184Y14955D01*
X271159Y14845D01*
X271137Y14733D01*
X271120Y14620D01*
X271106Y14508D01*
X271097Y14394D01*
X271091Y14281D01*
X271089Y14167D01*
X271089Y12502D01*
X277750Y12502D01*
X261399Y13335D02*
X257653Y13335D01*
X261399Y13335D02*
X261505Y13333D01*
X261612Y13327D01*
X261718Y13318D01*
X261823Y13304D01*
X261928Y13287D01*
X262033Y13265D01*
X262136Y13240D01*
X262239Y13211D01*
X262340Y13179D01*
X262440Y13143D01*
X262539Y13103D01*
X262636Y13059D01*
X262731Y13013D01*
X262825Y12962D01*
X262917Y12908D01*
X263007Y12851D01*
X263095Y12791D01*
X263180Y12727D01*
X263263Y12661D01*
X263344Y12591D01*
X263422Y12519D01*
X263497Y12444D01*
X263569Y12366D01*
X263639Y12285D01*
X263705Y12202D01*
X263769Y12117D01*
X263829Y12029D01*
X263886Y11939D01*
X263940Y11847D01*
X263991Y11753D01*
X264037Y11658D01*
X264081Y11561D01*
X264121Y11462D01*
X264157Y11362D01*
X264189Y11261D01*
X264218Y11158D01*
X264243Y11055D01*
X264265Y10950D01*
X264282Y10845D01*
X264296Y10740D01*
X264305Y10634D01*
X264311Y10527D01*
X264313Y10421D01*
X264311Y10315D01*
X264305Y10208D01*
X264296Y10102D01*
X264282Y9997D01*
X264265Y9892D01*
X264243Y9787D01*
X264218Y9684D01*
X264189Y9581D01*
X264157Y9480D01*
X264121Y9380D01*
X264081Y9281D01*
X264037Y9184D01*
X263991Y9089D01*
X263940Y8995D01*
X263886Y8903D01*
X263829Y8813D01*
X263769Y8725D01*
X263705Y8640D01*
X263639Y8557D01*
X263569Y8476D01*
X263497Y8398D01*
X263422Y8323D01*
X263344Y8251D01*
X263263Y8181D01*
X263180Y8115D01*
X263095Y8051D01*
X263007Y7991D01*
X262917Y7934D01*
X262825Y7880D01*
X262731Y7829D01*
X262636Y7783D01*
X262539Y7739D01*
X262440Y7699D01*
X262340Y7663D01*
X262239Y7631D01*
X262136Y7602D01*
X262033Y7577D01*
X261928Y7555D01*
X261823Y7538D01*
X261718Y7524D01*
X261612Y7515D01*
X261505Y7509D01*
X261399Y7507D01*
X257653Y7507D01*
X257653Y15000D01*
X257652Y15000D02*
X257654Y15098D01*
X257660Y15196D01*
X257669Y15294D01*
X257683Y15391D01*
X257700Y15487D01*
X257721Y15583D01*
X257746Y15678D01*
X257774Y15772D01*
X257806Y15865D01*
X257842Y15956D01*
X257881Y16046D01*
X257924Y16134D01*
X257971Y16221D01*
X258020Y16305D01*
X258073Y16388D01*
X258129Y16468D01*
X258188Y16547D01*
X258251Y16622D01*
X258316Y16696D01*
X258384Y16766D01*
X258454Y16834D01*
X258528Y16900D01*
X258604Y16962D01*
X258682Y17021D01*
X258762Y17077D01*
X258845Y17130D01*
X258929Y17180D01*
X259016Y17226D01*
X259104Y17269D01*
X259194Y17308D01*
X259285Y17344D01*
X259378Y17376D01*
X259472Y17404D01*
X259567Y17429D01*
X259663Y17450D01*
X259759Y17467D01*
X259856Y17481D01*
X259954Y17490D01*
X260052Y17496D01*
X260150Y17498D01*
X263481Y17498D01*
X248886Y13335D02*
X244723Y11670D01*
X248886Y13334D02*
X248971Y13370D01*
X249054Y13410D01*
X249135Y13453D01*
X249215Y13500D01*
X249292Y13550D01*
X249368Y13603D01*
X249441Y13659D01*
X249511Y13719D01*
X249579Y13781D01*
X249644Y13846D01*
X249706Y13914D01*
X249766Y13985D01*
X249822Y14058D01*
X249875Y14133D01*
X249925Y14211D01*
X249971Y14290D01*
X250014Y14372D01*
X250054Y14455D01*
X250090Y14540D01*
X250122Y14626D01*
X250151Y14714D01*
X250175Y14803D01*
X250196Y14893D01*
X250213Y14983D01*
X250227Y15074D01*
X250236Y15166D01*
X250241Y15258D01*
X250243Y15350D01*
X250241Y15442D01*
X250234Y15534D01*
X250224Y15626D01*
X250210Y15717D01*
X250192Y15808D01*
X250170Y15897D01*
X250144Y15986D01*
X250114Y16073D01*
X250081Y16159D01*
X250044Y16243D01*
X250004Y16326D01*
X249960Y16407D01*
X249913Y16486D01*
X249862Y16563D01*
X249808Y16638D01*
X249751Y16711D01*
X249691Y16781D01*
X249628Y16848D01*
X249562Y16912D01*
X249494Y16974D01*
X249423Y17033D01*
X249349Y17088D01*
X249273Y17141D01*
X249195Y17190D01*
X249115Y17236D01*
X249034Y17278D01*
X248950Y17317D01*
X248865Y17352D01*
X248778Y17383D01*
X248690Y17411D01*
X248601Y17435D01*
X248511Y17455D01*
X248421Y17472D01*
X248329Y17484D01*
X248237Y17493D01*
X248145Y17497D01*
X248053Y17498D01*
X247826Y17492D01*
X247599Y17481D01*
X247372Y17464D01*
X247146Y17441D01*
X246920Y17414D01*
X246695Y17380D01*
X246471Y17342D01*
X246248Y17298D01*
X246026Y17249D01*
X245805Y17194D01*
X245586Y17134D01*
X245368Y17069D01*
X245152Y16998D01*
X244938Y16923D01*
X244725Y16842D01*
X244515Y16756D01*
X244306Y16665D01*
X244723Y11670D02*
X244638Y11634D01*
X244555Y11594D01*
X244474Y11551D01*
X244394Y11504D01*
X244317Y11454D01*
X244241Y11401D01*
X244168Y11345D01*
X244098Y11285D01*
X244030Y11223D01*
X243965Y11158D01*
X243903Y11090D01*
X243843Y11019D01*
X243787Y10946D01*
X243734Y10871D01*
X243684Y10793D01*
X243638Y10714D01*
X243595Y10632D01*
X243555Y10549D01*
X243519Y10464D01*
X243487Y10378D01*
X243458Y10290D01*
X243434Y10201D01*
X243413Y10111D01*
X243396Y10021D01*
X243382Y9930D01*
X243373Y9838D01*
X243368Y9746D01*
X243366Y9654D01*
X243368Y9562D01*
X243375Y9470D01*
X243385Y9378D01*
X243399Y9287D01*
X243417Y9196D01*
X243439Y9107D01*
X243465Y9018D01*
X243495Y8931D01*
X243528Y8845D01*
X243565Y8761D01*
X243605Y8678D01*
X243649Y8597D01*
X243696Y8518D01*
X243747Y8441D01*
X243801Y8366D01*
X243858Y8293D01*
X243918Y8223D01*
X243981Y8156D01*
X244047Y8092D01*
X244115Y8030D01*
X244186Y7971D01*
X244260Y7916D01*
X244336Y7863D01*
X244414Y7814D01*
X244494Y7768D01*
X244575Y7726D01*
X244659Y7687D01*
X244744Y7652D01*
X244831Y7621D01*
X244919Y7593D01*
X245008Y7569D01*
X245098Y7549D01*
X245188Y7532D01*
X245280Y7520D01*
X245372Y7511D01*
X245464Y7507D01*
X245556Y7506D01*
X245556Y7507D02*
X245890Y7516D01*
X246223Y7533D01*
X246556Y7557D01*
X246889Y7590D01*
X247220Y7630D01*
X247551Y7678D01*
X247880Y7734D01*
X248208Y7797D01*
X248534Y7869D01*
X248858Y7948D01*
X249181Y8034D01*
X249501Y8129D01*
X249819Y8231D01*
X250135Y8340D01*
X228562Y22493D02*
X220237Y22493D01*
X228562Y7507D01*
X220237Y7507D01*
X210858Y13335D02*
X207112Y13335D01*
X210858Y13335D02*
X210964Y13333D01*
X211071Y13327D01*
X211177Y13318D01*
X211282Y13304D01*
X211387Y13287D01*
X211492Y13265D01*
X211595Y13240D01*
X211698Y13211D01*
X211799Y13179D01*
X211899Y13143D01*
X211998Y13103D01*
X212095Y13059D01*
X212190Y13013D01*
X212284Y12962D01*
X212376Y12908D01*
X212466Y12851D01*
X212554Y12791D01*
X212639Y12727D01*
X212722Y12661D01*
X212803Y12591D01*
X212881Y12519D01*
X212956Y12444D01*
X213028Y12366D01*
X213098Y12285D01*
X213164Y12202D01*
X213228Y12117D01*
X213288Y12029D01*
X213345Y11939D01*
X213399Y11847D01*
X213450Y11753D01*
X213496Y11658D01*
X213540Y11561D01*
X213580Y11462D01*
X213616Y11362D01*
X213648Y11261D01*
X213677Y11158D01*
X213702Y11055D01*
X213724Y10950D01*
X213741Y10845D01*
X213755Y10740D01*
X213764Y10634D01*
X213770Y10527D01*
X213772Y10421D01*
X213770Y10315D01*
X213764Y10208D01*
X213755Y10102D01*
X213741Y9997D01*
X213724Y9892D01*
X213702Y9787D01*
X213677Y9684D01*
X213648Y9581D01*
X213616Y9480D01*
X213580Y9380D01*
X213540Y9281D01*
X213496Y9184D01*
X213450Y9089D01*
X213399Y8995D01*
X213345Y8903D01*
X213288Y8813D01*
X213228Y8725D01*
X213164Y8640D01*
X213098Y8557D01*
X213028Y8476D01*
X212956Y8398D01*
X212881Y8323D01*
X212803Y8251D01*
X212722Y8181D01*
X212639Y8115D01*
X212554Y8051D01*
X212466Y7991D01*
X212376Y7934D01*
X212284Y7880D01*
X212190Y7829D01*
X212095Y7783D01*
X211998Y7739D01*
X211899Y7699D01*
X211799Y7663D01*
X211698Y7631D01*
X211595Y7602D01*
X211492Y7577D01*
X211387Y7555D01*
X211282Y7538D01*
X211177Y7524D01*
X211071Y7515D01*
X210964Y7509D01*
X210858Y7507D01*
X207112Y7507D01*
X207112Y15000D01*
X207111Y15000D02*
X207113Y15098D01*
X207119Y15196D01*
X207128Y15294D01*
X207142Y15391D01*
X207159Y15487D01*
X207180Y15583D01*
X207205Y15678D01*
X207233Y15772D01*
X207265Y15865D01*
X207301Y15956D01*
X207340Y16046D01*
X207383Y16134D01*
X207430Y16221D01*
X207479Y16305D01*
X207532Y16388D01*
X207588Y16468D01*
X207647Y16547D01*
X207710Y16622D01*
X207775Y16696D01*
X207843Y16766D01*
X207913Y16834D01*
X207987Y16900D01*
X208063Y16962D01*
X208141Y17021D01*
X208221Y17077D01*
X208304Y17130D01*
X208388Y17180D01*
X208475Y17226D01*
X208563Y17269D01*
X208653Y17308D01*
X208744Y17344D01*
X208837Y17376D01*
X208931Y17404D01*
X209026Y17429D01*
X209122Y17450D01*
X209218Y17467D01*
X209315Y17481D01*
X209413Y17490D01*
X209511Y17496D01*
X209609Y17498D01*
X212940Y17498D01*
X198962Y17498D02*
X198962Y2512D01*
X198962Y17498D02*
X194799Y17498D01*
X194701Y17496D01*
X194603Y17490D01*
X194505Y17481D01*
X194408Y17467D01*
X194312Y17450D01*
X194216Y17429D01*
X194121Y17404D01*
X194027Y17376D01*
X193934Y17344D01*
X193843Y17308D01*
X193753Y17269D01*
X193665Y17226D01*
X193578Y17180D01*
X193494Y17130D01*
X193411Y17077D01*
X193331Y17021D01*
X193253Y16962D01*
X193177Y16900D01*
X193103Y16834D01*
X193033Y16766D01*
X192965Y16696D01*
X192900Y16622D01*
X192837Y16547D01*
X192778Y16468D01*
X192722Y16388D01*
X192669Y16305D01*
X192620Y16221D01*
X192573Y16134D01*
X192530Y16046D01*
X192491Y15956D01*
X192455Y15865D01*
X192423Y15772D01*
X192395Y15678D01*
X192370Y15583D01*
X192349Y15487D01*
X192332Y15391D01*
X192318Y15294D01*
X192309Y15196D01*
X192303Y15098D01*
X192301Y15000D01*
X192302Y15000D02*
X192302Y10005D01*
X192301Y10005D02*
X192303Y9907D01*
X192309Y9809D01*
X192318Y9711D01*
X192332Y9614D01*
X192349Y9518D01*
X192370Y9422D01*
X192395Y9327D01*
X192423Y9233D01*
X192455Y9140D01*
X192491Y9049D01*
X192530Y8959D01*
X192573Y8871D01*
X192620Y8784D01*
X192669Y8700D01*
X192722Y8617D01*
X192778Y8537D01*
X192837Y8459D01*
X192900Y8383D01*
X192965Y8309D01*
X193033Y8239D01*
X193103Y8171D01*
X193177Y8106D01*
X193253Y8043D01*
X193331Y7984D01*
X193411Y7928D01*
X193494Y7875D01*
X193578Y7826D01*
X193665Y7779D01*
X193753Y7736D01*
X193843Y7697D01*
X193934Y7661D01*
X194027Y7629D01*
X194121Y7601D01*
X194216Y7576D01*
X194312Y7555D01*
X194408Y7538D01*
X194505Y7524D01*
X194603Y7515D01*
X194701Y7509D01*
X194799Y7507D01*
X198962Y7507D01*
X184716Y7507D02*
X184716Y19995D01*
X184714Y20093D01*
X184708Y20191D01*
X184699Y20289D01*
X184685Y20386D01*
X184668Y20482D01*
X184647Y20578D01*
X184622Y20673D01*
X184594Y20767D01*
X184562Y20860D01*
X184526Y20951D01*
X184487Y21041D01*
X184444Y21129D01*
X184398Y21216D01*
X184348Y21300D01*
X184295Y21383D01*
X184239Y21463D01*
X184180Y21541D01*
X184118Y21617D01*
X184052Y21691D01*
X183984Y21761D01*
X183914Y21829D01*
X183840Y21894D01*
X183765Y21957D01*
X183686Y22016D01*
X183606Y22072D01*
X183523Y22125D01*
X183439Y22174D01*
X183352Y22221D01*
X183264Y22264D01*
X183174Y22303D01*
X183083Y22339D01*
X182990Y22371D01*
X182896Y22399D01*
X182801Y22424D01*
X182705Y22445D01*
X182609Y22462D01*
X182512Y22476D01*
X182414Y22485D01*
X182316Y22491D01*
X182218Y22493D01*
X181386Y22493D01*
X181386Y17498D02*
X186381Y17498D01*
X176575Y22493D02*
X176575Y10005D01*
X176573Y9907D01*
X176567Y9809D01*
X176558Y9711D01*
X176544Y9614D01*
X176527Y9518D01*
X176506Y9422D01*
X176481Y9327D01*
X176453Y9233D01*
X176421Y9140D01*
X176385Y9049D01*
X176346Y8959D01*
X176303Y8871D01*
X176256Y8784D01*
X176207Y8700D01*
X176154Y8617D01*
X176098Y8537D01*
X176039Y8459D01*
X175977Y8383D01*
X175911Y8309D01*
X175843Y8239D01*
X175773Y8171D01*
X175699Y8106D01*
X175624Y8043D01*
X175545Y7984D01*
X175465Y7928D01*
X175382Y7875D01*
X175298Y7826D01*
X175211Y7779D01*
X175123Y7736D01*
X175033Y7697D01*
X174942Y7661D01*
X174849Y7629D01*
X174755Y7601D01*
X174660Y7576D01*
X174564Y7555D01*
X174468Y7538D01*
X174371Y7524D01*
X174273Y7515D01*
X174175Y7509D01*
X174077Y7507D01*
D11*
X333857Y178643D02*
X333857Y187119D01*
X327500Y187119D01*
X327410Y187117D01*
X327320Y187111D01*
X327231Y187102D01*
X327142Y187089D01*
X327054Y187071D01*
X326966Y187051D01*
X326880Y187026D01*
X326794Y186998D01*
X326710Y186966D01*
X326627Y186931D01*
X326546Y186892D01*
X326467Y186850D01*
X326389Y186804D01*
X326313Y186756D01*
X326240Y186704D01*
X326169Y186649D01*
X326100Y186591D01*
X326034Y186530D01*
X325970Y186466D01*
X325909Y186400D01*
X325851Y186331D01*
X325796Y186260D01*
X325744Y186187D01*
X325696Y186111D01*
X325650Y186033D01*
X325608Y185954D01*
X325569Y185873D01*
X325534Y185790D01*
X325502Y185706D01*
X325474Y185620D01*
X325449Y185534D01*
X325429Y185446D01*
X325411Y185358D01*
X325398Y185269D01*
X325389Y185180D01*
X325383Y185090D01*
X325381Y185000D01*
X325381Y178643D01*
X329619Y178643D02*
X329619Y187119D01*
X318944Y174405D02*
X317532Y174405D01*
X313294Y187119D01*
X318944Y187119D02*
X316119Y178643D01*
X307051Y178643D02*
X307051Y191357D01*
X303519Y191357D01*
X303401Y191355D01*
X303283Y191349D01*
X303165Y191339D01*
X303048Y191325D01*
X302932Y191308D01*
X302815Y191286D01*
X302700Y191261D01*
X302586Y191232D01*
X302473Y191198D01*
X302360Y191162D01*
X302250Y191121D01*
X302140Y191077D01*
X302032Y191029D01*
X301926Y190977D01*
X301822Y190922D01*
X301719Y190864D01*
X301618Y190802D01*
X301520Y190737D01*
X301424Y190669D01*
X301330Y190597D01*
X301239Y190522D01*
X301150Y190445D01*
X301064Y190364D01*
X300980Y190280D01*
X300899Y190194D01*
X300822Y190105D01*
X300747Y190014D01*
X300675Y189920D01*
X300607Y189824D01*
X300542Y189726D01*
X300480Y189625D01*
X300422Y189522D01*
X300367Y189418D01*
X300315Y189312D01*
X300267Y189204D01*
X300223Y189094D01*
X300182Y188984D01*
X300146Y188871D01*
X300112Y188758D01*
X300083Y188644D01*
X300058Y188529D01*
X300036Y188412D01*
X300019Y188296D01*
X300005Y188179D01*
X299995Y188061D01*
X299989Y187943D01*
X299987Y187825D01*
X299987Y182175D01*
X299989Y182057D01*
X299995Y181939D01*
X300005Y181821D01*
X300019Y181704D01*
X300036Y181588D01*
X300058Y181471D01*
X300083Y181356D01*
X300112Y181242D01*
X300146Y181129D01*
X300182Y181016D01*
X300223Y180906D01*
X300267Y180796D01*
X300315Y180688D01*
X300367Y180582D01*
X300422Y180478D01*
X300480Y180375D01*
X300542Y180274D01*
X300607Y180176D01*
X300675Y180080D01*
X300747Y179986D01*
X300822Y179895D01*
X300899Y179806D01*
X300980Y179720D01*
X301064Y179636D01*
X301150Y179555D01*
X301239Y179478D01*
X301330Y179403D01*
X301424Y179331D01*
X301520Y179263D01*
X301618Y179198D01*
X301719Y179136D01*
X301822Y179078D01*
X301926Y179023D01*
X302032Y178971D01*
X302140Y178923D01*
X302250Y178879D01*
X302360Y178838D01*
X302473Y178802D01*
X302586Y178768D01*
X302700Y178739D01*
X302815Y178714D01*
X302932Y178692D01*
X303048Y178675D01*
X303165Y178661D01*
X303283Y178651D01*
X303401Y178645D01*
X303519Y178643D01*
X307051Y178643D01*
X292360Y178643D02*
X292360Y191357D01*
X288829Y191357D01*
X288711Y191355D01*
X288593Y191349D01*
X288475Y191339D01*
X288358Y191325D01*
X288242Y191308D01*
X288125Y191286D01*
X288010Y191261D01*
X287896Y191232D01*
X287783Y191198D01*
X287670Y191162D01*
X287560Y191121D01*
X287450Y191077D01*
X287342Y191029D01*
X287236Y190977D01*
X287132Y190922D01*
X287029Y190864D01*
X286928Y190802D01*
X286830Y190737D01*
X286734Y190669D01*
X286640Y190597D01*
X286549Y190522D01*
X286460Y190445D01*
X286374Y190364D01*
X286290Y190280D01*
X286209Y190194D01*
X286132Y190105D01*
X286057Y190014D01*
X285985Y189920D01*
X285917Y189824D01*
X285852Y189726D01*
X285790Y189625D01*
X285732Y189522D01*
X285677Y189418D01*
X285625Y189312D01*
X285577Y189204D01*
X285533Y189094D01*
X285492Y188984D01*
X285456Y188871D01*
X285422Y188758D01*
X285393Y188644D01*
X285368Y188529D01*
X285346Y188412D01*
X285329Y188296D01*
X285315Y188179D01*
X285305Y188061D01*
X285299Y187943D01*
X285297Y187825D01*
X285299Y187707D01*
X285305Y187589D01*
X285315Y187471D01*
X285329Y187354D01*
X285346Y187238D01*
X285368Y187121D01*
X285393Y187006D01*
X285422Y186892D01*
X285456Y186779D01*
X285492Y186666D01*
X285533Y186556D01*
X285577Y186446D01*
X285625Y186338D01*
X285677Y186232D01*
X285732Y186128D01*
X285790Y186025D01*
X285852Y185924D01*
X285917Y185826D01*
X285985Y185730D01*
X286057Y185636D01*
X286132Y185545D01*
X286209Y185456D01*
X286290Y185370D01*
X286374Y185286D01*
X286460Y185205D01*
X286549Y185128D01*
X286640Y185053D01*
X286734Y184981D01*
X286830Y184913D01*
X286928Y184848D01*
X287029Y184786D01*
X287132Y184728D01*
X287236Y184673D01*
X287342Y184621D01*
X287450Y184573D01*
X287560Y184529D01*
X287670Y184488D01*
X287783Y184452D01*
X287896Y184418D01*
X288010Y184389D01*
X288125Y184364D01*
X288242Y184342D01*
X288358Y184325D01*
X288475Y184311D01*
X288593Y184301D01*
X288711Y184295D01*
X288829Y184293D01*
X288829Y184294D02*
X292360Y184294D01*
X278769Y178643D02*
X278769Y191357D01*
X280182Y178643D02*
X277356Y178643D01*
X277356Y191357D02*
X280182Y191357D01*
X264301Y188532D02*
X260769Y191357D01*
X260769Y178643D01*
X264301Y178643D02*
X257237Y178643D01*
X251672Y178643D02*
X251672Y179349D01*
X250966Y179349D01*
X250966Y178643D01*
X251672Y178643D01*
X245401Y185000D02*
X245398Y185250D01*
X245389Y185500D01*
X245374Y185750D01*
X245353Y185999D01*
X245326Y186248D01*
X245294Y186496D01*
X245255Y186743D01*
X245210Y186989D01*
X245160Y187234D01*
X245104Y187478D01*
X245042Y187720D01*
X244974Y187961D01*
X244900Y188200D01*
X244821Y188437D01*
X244736Y188672D01*
X244646Y188905D01*
X244550Y189136D01*
X244448Y189365D01*
X244342Y189591D01*
X244341Y189591D02*
X244306Y189687D01*
X244268Y189780D01*
X244226Y189873D01*
X244180Y189963D01*
X244131Y190052D01*
X244079Y190138D01*
X244023Y190223D01*
X243964Y190305D01*
X243902Y190385D01*
X243837Y190463D01*
X243769Y190538D01*
X243698Y190610D01*
X243624Y190680D01*
X243548Y190746D01*
X243469Y190810D01*
X243388Y190870D01*
X243304Y190928D01*
X243219Y190982D01*
X243131Y191032D01*
X243041Y191079D01*
X242950Y191123D01*
X242857Y191163D01*
X242762Y191200D01*
X242666Y191232D01*
X242569Y191261D01*
X242471Y191287D01*
X242372Y191308D01*
X242273Y191326D01*
X242172Y191339D01*
X242071Y191349D01*
X241970Y191355D01*
X241869Y191357D01*
X241768Y191355D01*
X241667Y191349D01*
X241566Y191339D01*
X241465Y191326D01*
X241366Y191308D01*
X241267Y191287D01*
X241169Y191261D01*
X241072Y191232D01*
X240976Y191200D01*
X240881Y191163D01*
X240788Y191123D01*
X240697Y191079D01*
X240607Y191032D01*
X240519Y190982D01*
X240434Y190928D01*
X240350Y190870D01*
X240269Y190810D01*
X240190Y190746D01*
X240114Y190680D01*
X240040Y190610D01*
X239969Y190538D01*
X239901Y190463D01*
X239836Y190385D01*
X239774Y190305D01*
X239715Y190223D01*
X239659Y190138D01*
X239607Y190052D01*
X239558Y189963D01*
X239512Y189873D01*
X239470Y189780D01*
X239432Y189687D01*
X239397Y189591D01*
X239291Y189365D01*
X239189Y189136D01*
X239093Y188905D01*
X239003Y188672D01*
X238918Y188437D01*
X238839Y188200D01*
X238765Y187961D01*
X238697Y187720D01*
X238635Y187478D01*
X238579Y187234D01*
X238529Y186989D01*
X238484Y186743D01*
X238445Y186496D01*
X238413Y186248D01*
X238386Y185999D01*
X238365Y185750D01*
X238350Y185500D01*
X238341Y185250D01*
X238338Y185000D01*
X245400Y185000D02*
X245397Y184750D01*
X245388Y184500D01*
X245373Y184250D01*
X245352Y184001D01*
X245325Y183752D01*
X245293Y183504D01*
X245254Y183257D01*
X245209Y183011D01*
X245159Y182766D01*
X245103Y182522D01*
X245041Y182280D01*
X244973Y182039D01*
X244899Y181800D01*
X244820Y181563D01*
X244735Y181328D01*
X244645Y181095D01*
X244549Y180864D01*
X244447Y180635D01*
X244341Y180409D01*
X244306Y180313D01*
X244268Y180220D01*
X244226Y180127D01*
X244180Y180037D01*
X244131Y179948D01*
X244079Y179862D01*
X244023Y179777D01*
X243964Y179695D01*
X243902Y179615D01*
X243837Y179537D01*
X243769Y179462D01*
X243698Y179390D01*
X243624Y179320D01*
X243548Y179254D01*
X243469Y179190D01*
X243388Y179130D01*
X243304Y179072D01*
X243219Y179018D01*
X243131Y178968D01*
X243041Y178921D01*
X242950Y178877D01*
X242857Y178837D01*
X242762Y178800D01*
X242666Y178768D01*
X242569Y178739D01*
X242471Y178713D01*
X242372Y178692D01*
X242273Y178674D01*
X242172Y178661D01*
X242071Y178651D01*
X241970Y178645D01*
X241869Y178643D01*
X239397Y180409D02*
X239291Y180635D01*
X239189Y180864D01*
X239093Y181095D01*
X239003Y181328D01*
X238918Y181563D01*
X238839Y181800D01*
X238765Y182039D01*
X238697Y182280D01*
X238635Y182522D01*
X238579Y182766D01*
X238529Y183011D01*
X238484Y183257D01*
X238445Y183504D01*
X238413Y183752D01*
X238386Y184001D01*
X238365Y184250D01*
X238350Y184500D01*
X238341Y184750D01*
X238338Y185000D01*
X239397Y180409D02*
X239432Y180313D01*
X239470Y180220D01*
X239512Y180127D01*
X239558Y180037D01*
X239607Y179948D01*
X239659Y179862D01*
X239715Y179777D01*
X239774Y179695D01*
X239836Y179615D01*
X239901Y179537D01*
X239969Y179462D01*
X240040Y179390D01*
X240114Y179320D01*
X240190Y179254D01*
X240269Y179190D01*
X240350Y179130D01*
X240434Y179072D01*
X240519Y179018D01*
X240607Y178968D01*
X240697Y178921D01*
X240788Y178877D01*
X240881Y178837D01*
X240976Y178800D01*
X241072Y178768D01*
X241169Y178739D01*
X241267Y178713D01*
X241366Y178692D01*
X241465Y178674D01*
X241566Y178661D01*
X241667Y178651D01*
X241768Y178645D01*
X241869Y178643D01*
X244694Y181468D02*
X239044Y188532D01*
D10*
X325277Y163747D02*
X325279Y163867D01*
X325285Y163987D01*
X325294Y164107D01*
X325308Y164226D01*
X325325Y164345D01*
X325346Y164463D01*
X325371Y164581D01*
X325400Y164697D01*
X325432Y164813D01*
X325468Y164928D01*
X325508Y165041D01*
X325551Y165153D01*
X325598Y165264D01*
X325648Y165373D01*
X325702Y165480D01*
X325759Y165586D01*
X325820Y165689D01*
X325884Y165791D01*
X325951Y165891D01*
X326021Y165988D01*
X326094Y166083D01*
X326171Y166176D01*
X326250Y166266D01*
X326332Y166354D01*
X326417Y166439D01*
X326505Y166521D01*
X326595Y166600D01*
X326688Y166677D01*
X326783Y166750D01*
X326880Y166820D01*
X326980Y166887D01*
X327082Y166951D01*
X327185Y167012D01*
X327291Y167069D01*
X327398Y167123D01*
X327507Y167173D01*
X327618Y167220D01*
X327730Y167263D01*
X327843Y167303D01*
X327958Y167339D01*
X328074Y167371D01*
X328190Y167400D01*
X328308Y167425D01*
X328426Y167446D01*
X328545Y167463D01*
X328664Y167477D01*
X328784Y167486D01*
X328904Y167492D01*
X329024Y167494D01*
X329024Y167493D02*
X329162Y167491D01*
X329299Y167485D01*
X329436Y167475D01*
X329573Y167462D01*
X329709Y167444D01*
X329845Y167422D01*
X329981Y167397D01*
X330115Y167368D01*
X330248Y167335D01*
X330381Y167298D01*
X330512Y167257D01*
X330643Y167213D01*
X330771Y167165D01*
X330899Y167113D01*
X331025Y167057D01*
X331149Y166998D01*
X331272Y166936D01*
X331392Y166870D01*
X331511Y166801D01*
X331628Y166728D01*
X331743Y166652D01*
X331855Y166572D01*
X331965Y166490D01*
X332073Y166404D01*
X332178Y166316D01*
X332280Y166224D01*
X332380Y166130D01*
X332478Y166032D01*
X332572Y165932D01*
X332664Y165829D01*
X332752Y165724D01*
X332837Y165616D01*
X332920Y165506D01*
X332999Y165394D01*
X333075Y165279D01*
X333148Y165162D01*
X333217Y165043D01*
X333283Y164923D01*
X333345Y164800D01*
X333404Y164676D01*
X333459Y164550D01*
X333511Y164422D01*
X333559Y164293D01*
X333603Y164163D01*
X326527Y160833D02*
X326437Y160921D01*
X326351Y161012D01*
X326267Y161105D01*
X326186Y161201D01*
X326108Y161299D01*
X326034Y161399D01*
X325962Y161502D01*
X325894Y161607D01*
X325829Y161715D01*
X325767Y161824D01*
X325709Y161935D01*
X325654Y162048D01*
X325603Y162162D01*
X325556Y162278D01*
X325512Y162395D01*
X325472Y162514D01*
X325435Y162634D01*
X325402Y162755D01*
X325373Y162877D01*
X325348Y162999D01*
X325327Y163123D01*
X325309Y163247D01*
X325296Y163372D01*
X325286Y163497D01*
X325280Y163622D01*
X325278Y163747D01*
X326526Y160833D02*
X333603Y152507D01*
X325277Y152507D01*
X317972Y160000D02*
X317968Y160295D01*
X317958Y160589D01*
X317940Y160884D01*
X317916Y161178D01*
X317884Y161471D01*
X317846Y161763D01*
X317800Y162054D01*
X317747Y162344D01*
X317688Y162633D01*
X317622Y162920D01*
X317549Y163206D01*
X317469Y163490D01*
X317382Y163772D01*
X317289Y164051D01*
X317189Y164329D01*
X317082Y164603D01*
X316969Y164876D01*
X316849Y165145D01*
X316723Y165412D01*
X316685Y165515D01*
X316644Y165616D01*
X316600Y165715D01*
X316552Y165814D01*
X316501Y165910D01*
X316446Y166004D01*
X316388Y166097D01*
X316327Y166187D01*
X316262Y166275D01*
X316195Y166361D01*
X316124Y166444D01*
X316051Y166525D01*
X315975Y166603D01*
X315896Y166679D01*
X315814Y166751D01*
X315730Y166821D01*
X315643Y166887D01*
X315555Y166951D01*
X315464Y167011D01*
X315370Y167068D01*
X315275Y167122D01*
X315178Y167172D01*
X315080Y167219D01*
X314980Y167262D01*
X314878Y167302D01*
X314775Y167338D01*
X314671Y167370D01*
X314565Y167399D01*
X314459Y167424D01*
X314352Y167445D01*
X314244Y167462D01*
X314136Y167476D01*
X314027Y167485D01*
X313918Y167491D01*
X313809Y167493D01*
X313700Y167491D01*
X313591Y167485D01*
X313482Y167476D01*
X313374Y167462D01*
X313266Y167445D01*
X313159Y167424D01*
X313052Y167399D01*
X312947Y167370D01*
X312843Y167338D01*
X312740Y167302D01*
X312638Y167262D01*
X312538Y167219D01*
X312439Y167172D01*
X312342Y167121D01*
X312247Y167068D01*
X312154Y167011D01*
X312063Y166950D01*
X311974Y166887D01*
X311888Y166820D01*
X311803Y166751D01*
X311722Y166678D01*
X311643Y166603D01*
X311567Y166525D01*
X311493Y166444D01*
X311423Y166361D01*
X311355Y166275D01*
X311290Y166187D01*
X311229Y166096D01*
X311171Y166004D01*
X311116Y165909D01*
X311065Y165813D01*
X311017Y165715D01*
X310973Y165615D01*
X310932Y165514D01*
X310895Y165411D01*
X310895Y165412D02*
X310769Y165145D01*
X310649Y164876D01*
X310536Y164603D01*
X310429Y164329D01*
X310329Y164051D01*
X310236Y163772D01*
X310149Y163490D01*
X310069Y163206D01*
X309996Y162920D01*
X309930Y162633D01*
X309871Y162344D01*
X309818Y162054D01*
X309772Y161763D01*
X309734Y161471D01*
X309702Y161178D01*
X309678Y160884D01*
X309660Y160589D01*
X309650Y160295D01*
X309646Y160000D01*
X317972Y160000D02*
X317968Y159705D01*
X317958Y159411D01*
X317940Y159116D01*
X317916Y158822D01*
X317884Y158529D01*
X317846Y158237D01*
X317800Y157946D01*
X317747Y157656D01*
X317688Y157367D01*
X317622Y157080D01*
X317549Y156794D01*
X317469Y156510D01*
X317382Y156228D01*
X317289Y155949D01*
X317189Y155671D01*
X317082Y155397D01*
X316969Y155124D01*
X316849Y154855D01*
X316723Y154588D01*
X316685Y154485D01*
X316644Y154384D01*
X316600Y154285D01*
X316552Y154186D01*
X316501Y154090D01*
X316446Y153996D01*
X316388Y153903D01*
X316327Y153813D01*
X316262Y153725D01*
X316195Y153639D01*
X316124Y153556D01*
X316051Y153475D01*
X315975Y153397D01*
X315896Y153321D01*
X315814Y153249D01*
X315730Y153179D01*
X315643Y153113D01*
X315555Y153049D01*
X315464Y152989D01*
X315370Y152932D01*
X315275Y152878D01*
X315178Y152828D01*
X315080Y152781D01*
X314980Y152738D01*
X314878Y152698D01*
X314775Y152662D01*
X314671Y152630D01*
X314565Y152601D01*
X314459Y152576D01*
X314352Y152555D01*
X314244Y152538D01*
X314136Y152524D01*
X314027Y152515D01*
X313918Y152509D01*
X313809Y152507D01*
X310895Y154588D02*
X310769Y154855D01*
X310649Y155124D01*
X310536Y155397D01*
X310429Y155671D01*
X310329Y155949D01*
X310236Y156228D01*
X310149Y156510D01*
X310069Y156794D01*
X309996Y157080D01*
X309930Y157367D01*
X309871Y157656D01*
X309818Y157946D01*
X309772Y158237D01*
X309734Y158529D01*
X309702Y158822D01*
X309678Y159116D01*
X309660Y159411D01*
X309650Y159705D01*
X309646Y160000D01*
X310895Y154589D02*
X310932Y154486D01*
X310973Y154385D01*
X311017Y154285D01*
X311065Y154187D01*
X311116Y154091D01*
X311171Y153996D01*
X311229Y153904D01*
X311290Y153813D01*
X311355Y153725D01*
X311423Y153639D01*
X311493Y153556D01*
X311567Y153475D01*
X311643Y153397D01*
X311722Y153322D01*
X311803Y153249D01*
X311888Y153180D01*
X311974Y153113D01*
X312063Y153050D01*
X312154Y152989D01*
X312247Y152932D01*
X312342Y152879D01*
X312439Y152828D01*
X312538Y152781D01*
X312638Y152738D01*
X312740Y152698D01*
X312843Y152662D01*
X312947Y152630D01*
X313052Y152601D01*
X313159Y152576D01*
X313266Y152555D01*
X313374Y152538D01*
X313482Y152524D01*
X313591Y152515D01*
X313700Y152509D01*
X313809Y152507D01*
X317139Y155837D02*
X310479Y164163D01*
X297762Y167494D02*
X297642Y167492D01*
X297522Y167486D01*
X297402Y167477D01*
X297283Y167463D01*
X297164Y167446D01*
X297046Y167425D01*
X296928Y167400D01*
X296812Y167371D01*
X296696Y167339D01*
X296581Y167303D01*
X296468Y167263D01*
X296356Y167220D01*
X296245Y167173D01*
X296136Y167123D01*
X296029Y167069D01*
X295923Y167012D01*
X295820Y166951D01*
X295718Y166887D01*
X295618Y166820D01*
X295521Y166750D01*
X295426Y166677D01*
X295333Y166600D01*
X295243Y166521D01*
X295155Y166439D01*
X295070Y166354D01*
X294988Y166266D01*
X294909Y166176D01*
X294832Y166083D01*
X294759Y165988D01*
X294689Y165891D01*
X294622Y165791D01*
X294558Y165689D01*
X294497Y165586D01*
X294440Y165480D01*
X294386Y165373D01*
X294336Y165264D01*
X294289Y165153D01*
X294246Y165041D01*
X294206Y164928D01*
X294170Y164813D01*
X294138Y164697D01*
X294109Y164581D01*
X294084Y164463D01*
X294063Y164345D01*
X294046Y164226D01*
X294032Y164107D01*
X294023Y163987D01*
X294017Y163867D01*
X294015Y163747D01*
X297762Y167493D02*
X297900Y167491D01*
X298037Y167485D01*
X298174Y167475D01*
X298311Y167462D01*
X298447Y167444D01*
X298583Y167422D01*
X298719Y167397D01*
X298853Y167368D01*
X298986Y167335D01*
X299119Y167298D01*
X299250Y167257D01*
X299381Y167213D01*
X299509Y167165D01*
X299637Y167113D01*
X299763Y167057D01*
X299887Y166998D01*
X300010Y166936D01*
X300130Y166870D01*
X300249Y166801D01*
X300366Y166728D01*
X300481Y166652D01*
X300593Y166572D01*
X300703Y166490D01*
X300811Y166404D01*
X300916Y166316D01*
X301018Y166224D01*
X301118Y166130D01*
X301216Y166032D01*
X301310Y165932D01*
X301402Y165829D01*
X301490Y165724D01*
X301575Y165616D01*
X301658Y165506D01*
X301737Y165394D01*
X301813Y165279D01*
X301886Y165162D01*
X301955Y165043D01*
X302021Y164923D01*
X302083Y164800D01*
X302142Y164676D01*
X302197Y164550D01*
X302249Y164422D01*
X302297Y164293D01*
X302341Y164163D01*
X295264Y160833D02*
X295174Y160921D01*
X295088Y161012D01*
X295004Y161105D01*
X294923Y161201D01*
X294845Y161299D01*
X294771Y161399D01*
X294699Y161502D01*
X294631Y161607D01*
X294566Y161715D01*
X294504Y161824D01*
X294446Y161935D01*
X294391Y162048D01*
X294340Y162162D01*
X294293Y162278D01*
X294249Y162395D01*
X294209Y162514D01*
X294172Y162634D01*
X294139Y162755D01*
X294110Y162877D01*
X294085Y162999D01*
X294064Y163123D01*
X294046Y163247D01*
X294033Y163372D01*
X294023Y163497D01*
X294017Y163622D01*
X294015Y163747D01*
X295264Y160833D02*
X302341Y152507D01*
X294015Y152507D01*
X286710Y160000D02*
X286706Y160295D01*
X286696Y160589D01*
X286678Y160884D01*
X286654Y161178D01*
X286622Y161471D01*
X286584Y161763D01*
X286538Y162054D01*
X286485Y162344D01*
X286426Y162633D01*
X286360Y162920D01*
X286287Y163206D01*
X286207Y163490D01*
X286120Y163772D01*
X286027Y164051D01*
X285927Y164329D01*
X285820Y164603D01*
X285707Y164876D01*
X285587Y165145D01*
X285461Y165412D01*
X285423Y165515D01*
X285382Y165616D01*
X285338Y165715D01*
X285290Y165814D01*
X285239Y165910D01*
X285184Y166004D01*
X285126Y166097D01*
X285065Y166187D01*
X285000Y166275D01*
X284933Y166361D01*
X284862Y166444D01*
X284789Y166525D01*
X284713Y166603D01*
X284634Y166679D01*
X284552Y166751D01*
X284468Y166821D01*
X284381Y166887D01*
X284293Y166951D01*
X284202Y167011D01*
X284108Y167068D01*
X284013Y167122D01*
X283916Y167172D01*
X283818Y167219D01*
X283718Y167262D01*
X283616Y167302D01*
X283513Y167338D01*
X283409Y167370D01*
X283303Y167399D01*
X283197Y167424D01*
X283090Y167445D01*
X282982Y167462D01*
X282874Y167476D01*
X282765Y167485D01*
X282656Y167491D01*
X282547Y167493D01*
X282438Y167491D01*
X282329Y167485D01*
X282220Y167476D01*
X282112Y167462D01*
X282004Y167445D01*
X281897Y167424D01*
X281790Y167399D01*
X281685Y167370D01*
X281581Y167338D01*
X281478Y167302D01*
X281376Y167262D01*
X281276Y167219D01*
X281177Y167172D01*
X281080Y167121D01*
X280985Y167068D01*
X280892Y167011D01*
X280801Y166950D01*
X280712Y166887D01*
X280626Y166820D01*
X280541Y166751D01*
X280460Y166678D01*
X280381Y166603D01*
X280305Y166525D01*
X280231Y166444D01*
X280161Y166361D01*
X280093Y166275D01*
X280028Y166187D01*
X279967Y166096D01*
X279909Y166004D01*
X279854Y165909D01*
X279803Y165813D01*
X279755Y165715D01*
X279711Y165615D01*
X279670Y165514D01*
X279633Y165411D01*
X279632Y165412D02*
X279506Y165145D01*
X279386Y164876D01*
X279273Y164603D01*
X279166Y164329D01*
X279066Y164051D01*
X278973Y163772D01*
X278886Y163490D01*
X278806Y163206D01*
X278733Y162920D01*
X278667Y162633D01*
X278608Y162344D01*
X278555Y162054D01*
X278509Y161763D01*
X278471Y161471D01*
X278439Y161178D01*
X278415Y160884D01*
X278397Y160589D01*
X278387Y160295D01*
X278383Y160000D01*
X286710Y160000D02*
X286706Y159705D01*
X286696Y159411D01*
X286678Y159116D01*
X286654Y158822D01*
X286622Y158529D01*
X286584Y158237D01*
X286538Y157946D01*
X286485Y157656D01*
X286426Y157367D01*
X286360Y157080D01*
X286287Y156794D01*
X286207Y156510D01*
X286120Y156228D01*
X286027Y155949D01*
X285927Y155671D01*
X285820Y155397D01*
X285707Y155124D01*
X285587Y154855D01*
X285461Y154588D01*
X285423Y154485D01*
X285382Y154384D01*
X285338Y154285D01*
X285290Y154186D01*
X285239Y154090D01*
X285184Y153996D01*
X285126Y153903D01*
X285065Y153813D01*
X285000Y153725D01*
X284933Y153639D01*
X284862Y153556D01*
X284789Y153475D01*
X284713Y153397D01*
X284634Y153321D01*
X284552Y153249D01*
X284468Y153179D01*
X284381Y153113D01*
X284293Y153049D01*
X284202Y152989D01*
X284108Y152932D01*
X284013Y152878D01*
X283916Y152828D01*
X283818Y152781D01*
X283718Y152738D01*
X283616Y152698D01*
X283513Y152662D01*
X283409Y152630D01*
X283303Y152601D01*
X283197Y152576D01*
X283090Y152555D01*
X282982Y152538D01*
X282874Y152524D01*
X282765Y152515D01*
X282656Y152509D01*
X282547Y152507D01*
X279633Y154588D02*
X279507Y154855D01*
X279387Y155124D01*
X279274Y155397D01*
X279167Y155671D01*
X279067Y155949D01*
X278974Y156228D01*
X278887Y156510D01*
X278807Y156794D01*
X278734Y157080D01*
X278668Y157367D01*
X278609Y157656D01*
X278556Y157946D01*
X278510Y158237D01*
X278472Y158529D01*
X278440Y158822D01*
X278416Y159116D01*
X278398Y159411D01*
X278388Y159705D01*
X278384Y160000D01*
X279633Y154589D02*
X279670Y154486D01*
X279711Y154385D01*
X279755Y154285D01*
X279803Y154187D01*
X279854Y154091D01*
X279909Y153996D01*
X279967Y153904D01*
X280028Y153813D01*
X280093Y153725D01*
X280161Y153639D01*
X280231Y153556D01*
X280305Y153475D01*
X280381Y153397D01*
X280460Y153322D01*
X280541Y153249D01*
X280626Y153180D01*
X280712Y153113D01*
X280801Y153050D01*
X280892Y152989D01*
X280985Y152932D01*
X281080Y152879D01*
X281177Y152828D01*
X281276Y152781D01*
X281376Y152738D01*
X281478Y152698D01*
X281581Y152662D01*
X281685Y152630D01*
X281790Y152601D01*
X281897Y152576D01*
X282004Y152555D01*
X282112Y152538D01*
X282220Y152524D01*
X282329Y152515D01*
X282438Y152509D01*
X282547Y152507D01*
X285877Y155837D02*
X279216Y164163D01*
D12*
X147211Y175682D02*
X144332Y175682D01*
X144246Y175684D01*
X144160Y175690D01*
X144074Y175699D01*
X143989Y175713D01*
X143905Y175730D01*
X143821Y175751D01*
X143739Y175776D01*
X143658Y175804D01*
X143578Y175836D01*
X143499Y175872D01*
X143423Y175911D01*
X143348Y175954D01*
X143275Y175999D01*
X143204Y176048D01*
X143136Y176101D01*
X143069Y176156D01*
X143006Y176214D01*
X142945Y176275D01*
X142887Y176338D01*
X142832Y176405D01*
X142779Y176473D01*
X142730Y176544D01*
X142685Y176617D01*
X142642Y176692D01*
X142603Y176768D01*
X142567Y176847D01*
X142535Y176927D01*
X142507Y177008D01*
X142482Y177090D01*
X142461Y177174D01*
X142444Y177258D01*
X142430Y177343D01*
X142421Y177429D01*
X142415Y177515D01*
X142413Y177601D01*
X142413Y178561D01*
X142415Y178647D01*
X142421Y178733D01*
X142430Y178819D01*
X142444Y178904D01*
X142461Y178988D01*
X142482Y179072D01*
X142507Y179154D01*
X142535Y179235D01*
X142567Y179315D01*
X142603Y179394D01*
X142642Y179470D01*
X142685Y179545D01*
X142730Y179618D01*
X142780Y179689D01*
X142832Y179757D01*
X142887Y179824D01*
X142945Y179887D01*
X143006Y179948D01*
X143069Y180006D01*
X143136Y180061D01*
X143204Y180114D01*
X143275Y180163D01*
X143348Y180208D01*
X143423Y180251D01*
X143499Y180290D01*
X143578Y180326D01*
X143658Y180358D01*
X143739Y180386D01*
X143822Y180411D01*
X143905Y180432D01*
X143989Y180449D01*
X144074Y180463D01*
X144160Y180472D01*
X144246Y180478D01*
X144332Y180480D01*
X147211Y180480D01*
X147211Y184318D01*
X142413Y184318D01*
X138547Y184318D02*
X135668Y175682D01*
X132789Y184318D01*
X149144Y145682D02*
X151543Y145682D01*
X149144Y145682D02*
X149047Y145684D01*
X148951Y145690D01*
X148855Y145699D01*
X148759Y145713D01*
X148664Y145730D01*
X148570Y145752D01*
X148477Y145777D01*
X148384Y145805D01*
X148293Y145838D01*
X148204Y145874D01*
X148116Y145914D01*
X148029Y145957D01*
X147944Y146003D01*
X147862Y146053D01*
X147781Y146107D01*
X147703Y146163D01*
X147627Y146223D01*
X147553Y146285D01*
X147482Y146351D01*
X147414Y146419D01*
X147348Y146490D01*
X147286Y146564D01*
X147226Y146640D01*
X147170Y146718D01*
X147116Y146799D01*
X147066Y146882D01*
X147020Y146966D01*
X146977Y147053D01*
X146937Y147141D01*
X146901Y147230D01*
X146868Y147321D01*
X146840Y147414D01*
X146815Y147507D01*
X146793Y147601D01*
X146776Y147696D01*
X146762Y147792D01*
X146753Y147888D01*
X146747Y147984D01*
X146745Y148081D01*
X146747Y148178D01*
X146753Y148274D01*
X146762Y148370D01*
X146776Y148466D01*
X146793Y148561D01*
X146815Y148655D01*
X146840Y148748D01*
X146868Y148841D01*
X146901Y148932D01*
X146937Y149021D01*
X146977Y149109D01*
X147020Y149196D01*
X147066Y149281D01*
X147116Y149363D01*
X147170Y149444D01*
X147226Y149522D01*
X147286Y149598D01*
X147348Y149672D01*
X147414Y149743D01*
X147482Y149811D01*
X147553Y149877D01*
X147627Y149939D01*
X147703Y149999D01*
X147781Y150055D01*
X147862Y150109D01*
X147945Y150159D01*
X148029Y150205D01*
X148116Y150248D01*
X148204Y150288D01*
X148293Y150324D01*
X148384Y150357D01*
X148477Y150385D01*
X148570Y150410D01*
X148664Y150432D01*
X148759Y150449D01*
X148855Y150463D01*
X148951Y150472D01*
X149047Y150478D01*
X149144Y150480D01*
X148664Y154318D02*
X151543Y154318D01*
X148664Y154318D02*
X148578Y154316D01*
X148492Y154310D01*
X148406Y154301D01*
X148321Y154287D01*
X148237Y154270D01*
X148153Y154249D01*
X148071Y154224D01*
X147990Y154196D01*
X147910Y154164D01*
X147831Y154128D01*
X147755Y154089D01*
X147680Y154046D01*
X147607Y154001D01*
X147536Y153952D01*
X147468Y153899D01*
X147401Y153844D01*
X147338Y153786D01*
X147277Y153725D01*
X147219Y153662D01*
X147164Y153595D01*
X147111Y153527D01*
X147062Y153456D01*
X147017Y153383D01*
X146974Y153308D01*
X146935Y153232D01*
X146899Y153153D01*
X146867Y153073D01*
X146839Y152992D01*
X146814Y152910D01*
X146793Y152826D01*
X146776Y152742D01*
X146762Y152657D01*
X146753Y152571D01*
X146747Y152485D01*
X146745Y152399D01*
X146747Y152313D01*
X146753Y152227D01*
X146762Y152141D01*
X146776Y152056D01*
X146793Y151972D01*
X146814Y151888D01*
X146839Y151806D01*
X146867Y151725D01*
X146899Y151645D01*
X146935Y151566D01*
X146974Y151490D01*
X147017Y151415D01*
X147062Y151342D01*
X147111Y151271D01*
X147164Y151203D01*
X147219Y151136D01*
X147277Y151073D01*
X147338Y151012D01*
X147401Y150954D01*
X147468Y150899D01*
X147536Y150846D01*
X147607Y150797D01*
X147680Y150752D01*
X147755Y150709D01*
X147831Y150670D01*
X147910Y150634D01*
X147990Y150602D01*
X148071Y150574D01*
X148153Y150549D01*
X148237Y150528D01*
X148321Y150511D01*
X148406Y150497D01*
X148492Y150488D01*
X148578Y150482D01*
X148664Y150480D01*
X150583Y150480D01*
X142879Y154318D02*
X140000Y145682D01*
X137121Y154318D01*
X133255Y145682D02*
X130856Y145682D01*
X130759Y145684D01*
X130663Y145690D01*
X130567Y145699D01*
X130471Y145713D01*
X130376Y145730D01*
X130282Y145752D01*
X130189Y145777D01*
X130096Y145805D01*
X130005Y145838D01*
X129916Y145874D01*
X129828Y145914D01*
X129741Y145957D01*
X129656Y146003D01*
X129574Y146053D01*
X129493Y146107D01*
X129415Y146163D01*
X129339Y146223D01*
X129265Y146285D01*
X129194Y146351D01*
X129126Y146419D01*
X129060Y146490D01*
X128998Y146564D01*
X128938Y146640D01*
X128882Y146718D01*
X128828Y146799D01*
X128778Y146882D01*
X128732Y146966D01*
X128689Y147053D01*
X128649Y147141D01*
X128613Y147230D01*
X128580Y147321D01*
X128552Y147414D01*
X128527Y147507D01*
X128505Y147601D01*
X128488Y147696D01*
X128474Y147792D01*
X128465Y147888D01*
X128459Y147984D01*
X128457Y148081D01*
X128459Y148178D01*
X128465Y148274D01*
X128474Y148370D01*
X128488Y148466D01*
X128505Y148561D01*
X128527Y148655D01*
X128552Y148748D01*
X128580Y148841D01*
X128613Y148932D01*
X128649Y149021D01*
X128689Y149109D01*
X128732Y149196D01*
X128778Y149281D01*
X128828Y149363D01*
X128882Y149444D01*
X128938Y149522D01*
X128998Y149598D01*
X129060Y149672D01*
X129126Y149743D01*
X129194Y149811D01*
X129265Y149877D01*
X129339Y149939D01*
X129415Y149999D01*
X129493Y150055D01*
X129574Y150109D01*
X129657Y150159D01*
X129741Y150205D01*
X129828Y150248D01*
X129916Y150288D01*
X130005Y150324D01*
X130096Y150357D01*
X130189Y150385D01*
X130282Y150410D01*
X130376Y150432D01*
X130471Y150449D01*
X130567Y150463D01*
X130663Y150472D01*
X130759Y150478D01*
X130856Y150480D01*
X130376Y154318D02*
X133255Y154318D01*
X130376Y154318D02*
X130290Y154316D01*
X130204Y154310D01*
X130118Y154301D01*
X130033Y154287D01*
X129949Y154270D01*
X129865Y154249D01*
X129783Y154224D01*
X129702Y154196D01*
X129622Y154164D01*
X129543Y154128D01*
X129467Y154089D01*
X129392Y154046D01*
X129319Y154001D01*
X129248Y153952D01*
X129180Y153899D01*
X129113Y153844D01*
X129050Y153786D01*
X128989Y153725D01*
X128931Y153662D01*
X128876Y153595D01*
X128823Y153527D01*
X128774Y153456D01*
X128729Y153383D01*
X128686Y153308D01*
X128647Y153232D01*
X128611Y153153D01*
X128579Y153073D01*
X128551Y152992D01*
X128526Y152910D01*
X128505Y152826D01*
X128488Y152742D01*
X128474Y152657D01*
X128465Y152571D01*
X128459Y152485D01*
X128457Y152399D01*
X128459Y152313D01*
X128465Y152227D01*
X128474Y152141D01*
X128488Y152056D01*
X128505Y151972D01*
X128526Y151888D01*
X128551Y151806D01*
X128579Y151725D01*
X128611Y151645D01*
X128647Y151566D01*
X128686Y151490D01*
X128729Y151415D01*
X128774Y151342D01*
X128823Y151271D01*
X128876Y151203D01*
X128931Y151136D01*
X128989Y151073D01*
X129050Y151012D01*
X129113Y150954D01*
X129180Y150899D01*
X129248Y150846D01*
X129319Y150797D01*
X129392Y150752D01*
X129467Y150709D01*
X129543Y150670D01*
X129622Y150634D01*
X129702Y150602D01*
X129783Y150574D01*
X129865Y150549D01*
X129949Y150528D01*
X130033Y150511D01*
X130118Y150497D01*
X130204Y150488D01*
X130290Y150482D01*
X130376Y150480D01*
X132295Y150480D01*
X101818Y146788D02*
X93182Y146788D01*
X101818Y144389D02*
X101818Y149187D01*
X96540Y154405D02*
X96540Y156564D01*
X96540Y154405D02*
X96538Y154324D01*
X96532Y154243D01*
X96522Y154162D01*
X96509Y154082D01*
X96491Y154003D01*
X96470Y153925D01*
X96445Y153848D01*
X96416Y153772D01*
X96384Y153697D01*
X96348Y153625D01*
X96308Y153554D01*
X96265Y153485D01*
X96219Y153418D01*
X96170Y153354D01*
X96118Y153292D01*
X96062Y153232D01*
X96004Y153176D01*
X95944Y153122D01*
X95880Y153071D01*
X95815Y153023D01*
X95747Y152979D01*
X95677Y152938D01*
X95605Y152900D01*
X95532Y152866D01*
X95456Y152835D01*
X95380Y152808D01*
X95302Y152785D01*
X95223Y152766D01*
X95144Y152750D01*
X95063Y152738D01*
X94983Y152730D01*
X94902Y152726D01*
X94820Y152726D01*
X94739Y152730D01*
X94659Y152738D01*
X94578Y152750D01*
X94499Y152766D01*
X94420Y152785D01*
X94342Y152808D01*
X94266Y152835D01*
X94190Y152866D01*
X94117Y152900D01*
X94045Y152938D01*
X93975Y152979D01*
X93907Y153023D01*
X93842Y153071D01*
X93778Y153122D01*
X93718Y153176D01*
X93660Y153232D01*
X93604Y153292D01*
X93552Y153354D01*
X93503Y153418D01*
X93457Y153485D01*
X93414Y153554D01*
X93374Y153625D01*
X93338Y153697D01*
X93306Y153772D01*
X93277Y153848D01*
X93252Y153925D01*
X93231Y154003D01*
X93213Y154082D01*
X93200Y154162D01*
X93190Y154243D01*
X93184Y154324D01*
X93182Y154405D01*
X93182Y156564D01*
X97500Y156564D01*
X97575Y156562D01*
X97650Y156556D01*
X97725Y156546D01*
X97799Y156533D01*
X97872Y156515D01*
X97945Y156494D01*
X98016Y156468D01*
X98085Y156440D01*
X98153Y156407D01*
X98220Y156371D01*
X98284Y156332D01*
X98346Y156289D01*
X98406Y156243D01*
X98463Y156194D01*
X98518Y156143D01*
X98569Y156088D01*
X98618Y156031D01*
X98664Y155971D01*
X98707Y155909D01*
X98746Y155845D01*
X98782Y155778D01*
X98815Y155710D01*
X98843Y155641D01*
X98869Y155570D01*
X98890Y155497D01*
X98908Y155424D01*
X98921Y155350D01*
X98931Y155275D01*
X98937Y155200D01*
X98939Y155125D01*
X98939Y153205D01*
X98939Y161404D02*
X93182Y161404D01*
X98939Y161404D02*
X98939Y164283D01*
X97980Y164283D01*
X93182Y168795D02*
X93182Y171194D01*
X93182Y168795D02*
X93184Y168720D01*
X93190Y168645D01*
X93200Y168570D01*
X93213Y168496D01*
X93231Y168423D01*
X93252Y168350D01*
X93278Y168279D01*
X93306Y168210D01*
X93339Y168142D01*
X93375Y168076D01*
X93414Y168011D01*
X93457Y167949D01*
X93503Y167889D01*
X93552Y167832D01*
X93603Y167777D01*
X93658Y167726D01*
X93715Y167677D01*
X93775Y167631D01*
X93837Y167588D01*
X93902Y167549D01*
X93968Y167513D01*
X94036Y167480D01*
X94105Y167452D01*
X94176Y167426D01*
X94249Y167405D01*
X94322Y167387D01*
X94396Y167374D01*
X94471Y167364D01*
X94546Y167358D01*
X94621Y167356D01*
X97500Y167356D01*
X97575Y167358D01*
X97650Y167364D01*
X97725Y167374D01*
X97799Y167387D01*
X97872Y167405D01*
X97945Y167426D01*
X98016Y167452D01*
X98085Y167480D01*
X98153Y167513D01*
X98220Y167549D01*
X98284Y167588D01*
X98346Y167631D01*
X98406Y167677D01*
X98463Y167726D01*
X98518Y167777D01*
X98569Y167832D01*
X98618Y167889D01*
X98664Y167949D01*
X98707Y168011D01*
X98746Y168076D01*
X98782Y168142D01*
X98815Y168210D01*
X98843Y168279D01*
X98869Y168350D01*
X98890Y168423D01*
X98908Y168496D01*
X98921Y168570D01*
X98931Y168645D01*
X98937Y168720D01*
X98939Y168795D01*
X98939Y171194D01*
X91743Y171194D01*
X91668Y171192D01*
X91593Y171186D01*
X91518Y171176D01*
X91444Y171163D01*
X91371Y171145D01*
X91298Y171124D01*
X91227Y171098D01*
X91158Y171070D01*
X91090Y171037D01*
X91024Y171001D01*
X90959Y170962D01*
X90897Y170919D01*
X90837Y170873D01*
X90780Y170824D01*
X90725Y170773D01*
X90674Y170718D01*
X90625Y170661D01*
X90579Y170601D01*
X90536Y170539D01*
X90497Y170475D01*
X90461Y170408D01*
X90428Y170340D01*
X90400Y170271D01*
X90374Y170200D01*
X90353Y170127D01*
X90335Y170054D01*
X90322Y169980D01*
X90312Y169905D01*
X90306Y169830D01*
X90304Y169755D01*
X90303Y169755D02*
X90303Y167836D01*
X93182Y177093D02*
X93182Y179492D01*
X93182Y177093D02*
X93184Y177018D01*
X93190Y176943D01*
X93200Y176868D01*
X93213Y176794D01*
X93231Y176721D01*
X93252Y176648D01*
X93278Y176577D01*
X93306Y176508D01*
X93339Y176440D01*
X93375Y176374D01*
X93414Y176309D01*
X93457Y176247D01*
X93503Y176187D01*
X93552Y176130D01*
X93603Y176075D01*
X93658Y176024D01*
X93715Y175975D01*
X93775Y175929D01*
X93837Y175886D01*
X93902Y175847D01*
X93968Y175811D01*
X94036Y175778D01*
X94105Y175750D01*
X94176Y175724D01*
X94249Y175703D01*
X94322Y175685D01*
X94396Y175672D01*
X94471Y175662D01*
X94546Y175656D01*
X94621Y175654D01*
X94621Y175653D02*
X97020Y175653D01*
X97106Y175655D01*
X97192Y175661D01*
X97278Y175670D01*
X97363Y175684D01*
X97447Y175701D01*
X97531Y175722D01*
X97613Y175747D01*
X97694Y175775D01*
X97774Y175807D01*
X97853Y175843D01*
X97929Y175882D01*
X98004Y175925D01*
X98077Y175970D01*
X98148Y176019D01*
X98216Y176072D01*
X98283Y176127D01*
X98346Y176185D01*
X98407Y176246D01*
X98465Y176309D01*
X98520Y176376D01*
X98573Y176444D01*
X98622Y176515D01*
X98667Y176588D01*
X98710Y176663D01*
X98749Y176739D01*
X98785Y176818D01*
X98817Y176898D01*
X98845Y176979D01*
X98870Y177061D01*
X98891Y177145D01*
X98908Y177229D01*
X98922Y177314D01*
X98931Y177400D01*
X98937Y177486D01*
X98939Y177572D01*
X98937Y177658D01*
X98931Y177744D01*
X98922Y177830D01*
X98908Y177915D01*
X98891Y177999D01*
X98870Y178083D01*
X98845Y178165D01*
X98817Y178246D01*
X98785Y178326D01*
X98749Y178405D01*
X98710Y178481D01*
X98667Y178556D01*
X98622Y178629D01*
X98573Y178700D01*
X98520Y178768D01*
X98465Y178835D01*
X98407Y178898D01*
X98346Y178959D01*
X98283Y179017D01*
X98216Y179072D01*
X98148Y179125D01*
X98077Y179174D01*
X98004Y179219D01*
X97929Y179262D01*
X97853Y179301D01*
X97774Y179337D01*
X97694Y179369D01*
X97613Y179397D01*
X97531Y179422D01*
X97447Y179443D01*
X97363Y179460D01*
X97278Y179474D01*
X97192Y179483D01*
X97106Y179489D01*
X97020Y179491D01*
X97020Y179492D02*
X96061Y179492D01*
X96061Y175653D01*
X98939Y182732D02*
X98939Y185611D01*
X101818Y183692D02*
X94621Y183692D01*
X94548Y183694D01*
X94475Y183699D01*
X94403Y183709D01*
X94331Y183721D01*
X94260Y183738D01*
X94190Y183758D01*
X94121Y183782D01*
X94054Y183809D01*
X93987Y183839D01*
X93923Y183873D01*
X93860Y183910D01*
X93799Y183950D01*
X93740Y183993D01*
X93684Y184039D01*
X93630Y184088D01*
X93578Y184140D01*
X93529Y184194D01*
X93483Y184250D01*
X93440Y184309D01*
X93400Y184370D01*
X93363Y184433D01*
X93329Y184497D01*
X93299Y184564D01*
X93272Y184631D01*
X93248Y184700D01*
X93228Y184770D01*
X93211Y184841D01*
X93199Y184913D01*
X93189Y184985D01*
X93184Y185058D01*
X93182Y185131D01*
X93182Y185611D01*
X104840Y186590D02*
X104840Y143410D01*
X125160Y186590D02*
X125158Y186690D01*
X125152Y186789D01*
X125142Y186889D01*
X125129Y186987D01*
X125111Y187086D01*
X125090Y187183D01*
X125065Y187279D01*
X125036Y187375D01*
X125003Y187469D01*
X124967Y187562D01*
X124927Y187653D01*
X124883Y187743D01*
X124836Y187831D01*
X124786Y187917D01*
X124732Y188001D01*
X124675Y188083D01*
X124615Y188162D01*
X124551Y188240D01*
X124485Y188314D01*
X124416Y188386D01*
X124344Y188455D01*
X124270Y188521D01*
X124192Y188585D01*
X124113Y188645D01*
X124031Y188702D01*
X123947Y188756D01*
X123861Y188806D01*
X123773Y188853D01*
X123683Y188897D01*
X123592Y188937D01*
X123499Y188973D01*
X123405Y189006D01*
X123309Y189035D01*
X123213Y189060D01*
X123116Y189081D01*
X123017Y189099D01*
X122919Y189112D01*
X122819Y189122D01*
X122720Y189128D01*
X122620Y189130D01*
X125160Y143410D02*
X125158Y143310D01*
X125152Y143211D01*
X125142Y143111D01*
X125129Y143013D01*
X125111Y142914D01*
X125090Y142817D01*
X125065Y142721D01*
X125036Y142625D01*
X125003Y142531D01*
X124967Y142438D01*
X124927Y142347D01*
X124883Y142257D01*
X124836Y142169D01*
X124786Y142083D01*
X124732Y141999D01*
X124675Y141917D01*
X124615Y141838D01*
X124551Y141760D01*
X124485Y141686D01*
X124416Y141614D01*
X124344Y141545D01*
X124270Y141479D01*
X124192Y141415D01*
X124113Y141355D01*
X124031Y141298D01*
X123947Y141244D01*
X123861Y141194D01*
X123773Y141147D01*
X123683Y141103D01*
X123592Y141063D01*
X123499Y141027D01*
X123405Y140994D01*
X123309Y140965D01*
X123213Y140940D01*
X123116Y140919D01*
X123017Y140901D01*
X122919Y140888D01*
X122819Y140878D01*
X122720Y140872D01*
X122620Y140870D01*
X107380Y140870D02*
X107280Y140872D01*
X107181Y140878D01*
X107081Y140888D01*
X106983Y140901D01*
X106884Y140919D01*
X106787Y140940D01*
X106691Y140965D01*
X106595Y140994D01*
X106501Y141027D01*
X106408Y141063D01*
X106317Y141103D01*
X106227Y141147D01*
X106139Y141194D01*
X106053Y141244D01*
X105969Y141298D01*
X105887Y141355D01*
X105808Y141415D01*
X105730Y141479D01*
X105656Y141545D01*
X105584Y141614D01*
X105515Y141686D01*
X105449Y141760D01*
X105385Y141838D01*
X105325Y141917D01*
X105268Y141999D01*
X105214Y142083D01*
X105164Y142169D01*
X105117Y142257D01*
X105073Y142347D01*
X105033Y142438D01*
X104997Y142531D01*
X104964Y142625D01*
X104935Y142721D01*
X104910Y142817D01*
X104889Y142914D01*
X104871Y143013D01*
X104858Y143111D01*
X104848Y143211D01*
X104842Y143310D01*
X104840Y143410D01*
X104840Y186590D02*
X104842Y186690D01*
X104848Y186789D01*
X104858Y186889D01*
X104871Y186987D01*
X104889Y187086D01*
X104910Y187183D01*
X104935Y187279D01*
X104964Y187375D01*
X104997Y187469D01*
X105033Y187562D01*
X105073Y187653D01*
X105117Y187743D01*
X105164Y187831D01*
X105214Y187917D01*
X105268Y188001D01*
X105325Y188083D01*
X105385Y188162D01*
X105449Y188240D01*
X105515Y188314D01*
X105584Y188386D01*
X105656Y188455D01*
X105730Y188521D01*
X105808Y188585D01*
X105887Y188645D01*
X105969Y188702D01*
X106053Y188756D01*
X106139Y188806D01*
X106227Y188853D01*
X106317Y188897D01*
X106408Y188937D01*
X106501Y188973D01*
X106595Y189006D01*
X106691Y189035D01*
X106787Y189060D01*
X106884Y189081D01*
X106983Y189099D01*
X107081Y189112D01*
X107181Y189122D01*
X107280Y189128D01*
X107380Y189130D01*
X122620Y189130D01*
X122620Y140870D02*
X107380Y140870D01*
X125160Y143410D02*
X125160Y186590D01*
D13*
X130000Y75000D02*
X130000Y35000D01*
X160000Y35000D01*
X160000Y75000D01*
X130000Y75000D01*
D14*
X132500Y37500D03*
D12*
X165682Y37974D02*
X174318Y37974D01*
X165682Y37014D02*
X165682Y38933D01*
X174318Y38933D02*
X174318Y37014D01*
X165682Y44771D02*
X165682Y46690D01*
X165682Y44771D02*
X165684Y44685D01*
X165690Y44599D01*
X165699Y44513D01*
X165713Y44428D01*
X165730Y44344D01*
X165751Y44260D01*
X165776Y44178D01*
X165804Y44097D01*
X165836Y44017D01*
X165872Y43938D01*
X165911Y43862D01*
X165954Y43787D01*
X165999Y43714D01*
X166048Y43643D01*
X166101Y43575D01*
X166156Y43508D01*
X166214Y43445D01*
X166275Y43384D01*
X166338Y43326D01*
X166405Y43271D01*
X166473Y43218D01*
X166544Y43169D01*
X166617Y43124D01*
X166692Y43081D01*
X166768Y43042D01*
X166847Y43006D01*
X166927Y42974D01*
X167008Y42946D01*
X167090Y42921D01*
X167174Y42900D01*
X167258Y42883D01*
X167343Y42869D01*
X167429Y42860D01*
X167515Y42854D01*
X167601Y42852D01*
X172399Y42852D01*
X172485Y42854D01*
X172571Y42860D01*
X172657Y42869D01*
X172742Y42883D01*
X172826Y42900D01*
X172910Y42921D01*
X172992Y42946D01*
X173073Y42974D01*
X173153Y43006D01*
X173232Y43042D01*
X173308Y43081D01*
X173383Y43124D01*
X173456Y43169D01*
X173527Y43218D01*
X173595Y43271D01*
X173662Y43326D01*
X173725Y43384D01*
X173786Y43445D01*
X173844Y43508D01*
X173899Y43575D01*
X173951Y43643D01*
X174001Y43714D01*
X174046Y43787D01*
X174089Y43862D01*
X174128Y43938D01*
X174164Y44017D01*
X174196Y44097D01*
X174224Y44178D01*
X174249Y44260D01*
X174270Y44344D01*
X174287Y44428D01*
X174301Y44513D01*
X174310Y44599D01*
X174316Y44685D01*
X174318Y44771D01*
X174318Y46690D01*
X167601Y55003D02*
X167515Y55001D01*
X167429Y54995D01*
X167343Y54986D01*
X167258Y54972D01*
X167174Y54955D01*
X167090Y54934D01*
X167008Y54909D01*
X166927Y54881D01*
X166847Y54849D01*
X166768Y54813D01*
X166692Y54774D01*
X166617Y54731D01*
X166544Y54686D01*
X166473Y54637D01*
X166405Y54584D01*
X166338Y54529D01*
X166275Y54471D01*
X166214Y54410D01*
X166156Y54347D01*
X166101Y54280D01*
X166049Y54212D01*
X165999Y54141D01*
X165954Y54068D01*
X165911Y53993D01*
X165872Y53917D01*
X165836Y53838D01*
X165804Y53758D01*
X165776Y53677D01*
X165751Y53595D01*
X165730Y53511D01*
X165713Y53427D01*
X165699Y53342D01*
X165690Y53256D01*
X165684Y53170D01*
X165682Y53084D01*
X165684Y52961D01*
X165689Y52838D01*
X165699Y52715D01*
X165712Y52593D01*
X165729Y52471D01*
X165749Y52349D01*
X165773Y52229D01*
X165801Y52109D01*
X165832Y51990D01*
X165867Y51872D01*
X165906Y51755D01*
X165948Y51639D01*
X165994Y51525D01*
X166043Y51412D01*
X166095Y51301D01*
X166151Y51191D01*
X166210Y51083D01*
X166273Y50977D01*
X166338Y50872D01*
X166407Y50770D01*
X166479Y50670D01*
X166554Y50573D01*
X166631Y50477D01*
X166712Y50384D01*
X166795Y50293D01*
X166881Y50205D01*
X172399Y50445D02*
X172485Y50447D01*
X172571Y50453D01*
X172657Y50462D01*
X172742Y50476D01*
X172826Y50493D01*
X172910Y50514D01*
X172992Y50539D01*
X173073Y50567D01*
X173153Y50599D01*
X173232Y50635D01*
X173308Y50674D01*
X173383Y50717D01*
X173456Y50762D01*
X173527Y50811D01*
X173595Y50864D01*
X173662Y50919D01*
X173725Y50977D01*
X173786Y51038D01*
X173844Y51101D01*
X173899Y51168D01*
X173952Y51236D01*
X174001Y51307D01*
X174046Y51380D01*
X174089Y51455D01*
X174128Y51531D01*
X174164Y51610D01*
X174196Y51690D01*
X174224Y51771D01*
X174249Y51853D01*
X174270Y51937D01*
X174287Y52021D01*
X174301Y52106D01*
X174310Y52192D01*
X174316Y52278D01*
X174318Y52364D01*
X174316Y52480D01*
X174311Y52595D01*
X174301Y52711D01*
X174288Y52826D01*
X174272Y52940D01*
X174251Y53054D01*
X174227Y53168D01*
X174199Y53280D01*
X174168Y53391D01*
X174133Y53502D01*
X174095Y53611D01*
X174053Y53719D01*
X174008Y53825D01*
X173959Y53931D01*
X173907Y54034D01*
X173852Y54136D01*
X173793Y54235D01*
X173731Y54333D01*
X173666Y54429D01*
X173598Y54523D01*
X170720Y51404D02*
X170766Y51330D01*
X170816Y51257D01*
X170869Y51187D01*
X170925Y51119D01*
X170984Y51054D01*
X171046Y50991D01*
X171111Y50932D01*
X171178Y50875D01*
X171248Y50821D01*
X171320Y50771D01*
X171394Y50724D01*
X171470Y50680D01*
X171549Y50640D01*
X171629Y50604D01*
X171710Y50571D01*
X171793Y50542D01*
X171878Y50516D01*
X171963Y50494D01*
X172049Y50477D01*
X172136Y50463D01*
X172223Y50453D01*
X172311Y50447D01*
X172399Y50445D01*
X169280Y54044D02*
X169234Y54118D01*
X169184Y54191D01*
X169131Y54261D01*
X169075Y54329D01*
X169016Y54394D01*
X168954Y54457D01*
X168889Y54516D01*
X168822Y54573D01*
X168752Y54627D01*
X168680Y54677D01*
X168606Y54724D01*
X168530Y54768D01*
X168451Y54808D01*
X168371Y54844D01*
X168290Y54877D01*
X168207Y54906D01*
X168122Y54932D01*
X168037Y54954D01*
X167951Y54971D01*
X167864Y54985D01*
X167777Y54995D01*
X167689Y55001D01*
X167601Y55003D01*
X169280Y54043D02*
X170720Y51404D01*
X174318Y59544D02*
X165682Y59544D01*
X174318Y59544D02*
X174318Y61943D01*
X174316Y62040D01*
X174310Y62136D01*
X174301Y62232D01*
X174287Y62328D01*
X174270Y62423D01*
X174248Y62517D01*
X174223Y62610D01*
X174195Y62703D01*
X174162Y62794D01*
X174126Y62883D01*
X174086Y62971D01*
X174043Y63058D01*
X173997Y63143D01*
X173947Y63225D01*
X173893Y63306D01*
X173837Y63384D01*
X173777Y63460D01*
X173715Y63534D01*
X173649Y63605D01*
X173581Y63673D01*
X173510Y63739D01*
X173436Y63801D01*
X173360Y63861D01*
X173282Y63917D01*
X173201Y63971D01*
X173119Y64021D01*
X173034Y64067D01*
X172947Y64110D01*
X172859Y64150D01*
X172770Y64186D01*
X172679Y64219D01*
X172586Y64247D01*
X172493Y64272D01*
X172399Y64294D01*
X172304Y64311D01*
X172208Y64325D01*
X172112Y64334D01*
X172016Y64340D01*
X171919Y64342D01*
X171822Y64340D01*
X171726Y64334D01*
X171630Y64325D01*
X171534Y64311D01*
X171439Y64294D01*
X171345Y64272D01*
X171252Y64247D01*
X171159Y64219D01*
X171068Y64186D01*
X170979Y64150D01*
X170891Y64110D01*
X170804Y64067D01*
X170720Y64021D01*
X170637Y63971D01*
X170556Y63917D01*
X170478Y63861D01*
X170402Y63801D01*
X170328Y63739D01*
X170257Y63673D01*
X170189Y63605D01*
X170123Y63534D01*
X170061Y63460D01*
X170001Y63384D01*
X169945Y63306D01*
X169891Y63225D01*
X169841Y63143D01*
X169795Y63058D01*
X169752Y62971D01*
X169712Y62883D01*
X169676Y62794D01*
X169643Y62703D01*
X169615Y62610D01*
X169590Y62517D01*
X169568Y62423D01*
X169551Y62328D01*
X169537Y62232D01*
X169528Y62136D01*
X169522Y62040D01*
X169520Y61943D01*
X169520Y59544D01*
X172399Y68188D02*
X174318Y70587D01*
X165682Y70587D01*
X165682Y68188D02*
X165682Y72986D01*
M02*
