G04 EAGLE Gerber RS-274X export*
G75*
%MOMM*%
%FSLAX34Y34*%
%LPD*%
%INSoldermask Top*%
%IPPOS*%
%AMOC8*
5,1,8,0,0,1.08239X$1,22.5*%
G01*
%ADD10R,0.901600X0.351600*%
%ADD11R,0.351600X0.901600*%
%ADD12R,4.801600X4.801600*%
%ADD13R,1.101600X1.201600*%
%ADD14R,1.201600X1.101600*%
%ADD15R,1.301600X1.301600*%
%ADD16R,1.801600X0.401600*%
%ADD17R,1.801600X0.701600*%
%ADD18C,0.751600*%
%ADD19C,2.301600*%
%ADD20C,2.701600*%
%ADD21C,2.351600*%
%ADD22R,1.401600X1.601600*%
%ADD23R,1.188400X1.088400*%
%ADD24R,1.601600X1.601600*%
%ADD25R,1.601600X1.401600*%
%ADD26R,1.091600X0.791600*%
%ADD27R,1.501600X1.101600*%

G36*
X61805Y137154D02*
X61805Y137154D01*
X61807Y137151D01*
X63087Y137346D01*
X63093Y137352D01*
X63097Y137349D01*
X64301Y137824D01*
X64306Y137831D01*
X64311Y137829D01*
X65379Y138560D01*
X65382Y138567D01*
X65388Y138567D01*
X66267Y139517D01*
X66267Y139525D01*
X66273Y139526D01*
X66918Y140647D01*
X66917Y140656D01*
X66923Y140658D01*
X67302Y141895D01*
X67300Y141903D01*
X67304Y141906D01*
X67399Y143196D01*
X67396Y143201D01*
X67399Y143203D01*
X67332Y144334D01*
X67327Y144339D01*
X67331Y144343D01*
X67044Y145440D01*
X67038Y145444D01*
X67041Y145449D01*
X66546Y146468D01*
X66540Y146471D01*
X66541Y146476D01*
X65857Y147379D01*
X65850Y147381D01*
X65850Y147386D01*
X65003Y148139D01*
X64996Y148139D01*
X64995Y148144D01*
X64018Y148717D01*
X64011Y148716D01*
X64009Y148721D01*
X62938Y149092D01*
X62932Y149089D01*
X62929Y149094D01*
X61807Y149249D01*
X61802Y149246D01*
X61800Y149249D01*
X49800Y149249D01*
X49795Y149246D01*
X49792Y149249D01*
X48525Y149044D01*
X48519Y149038D01*
X48515Y149041D01*
X47325Y148559D01*
X47321Y148552D01*
X47315Y148554D01*
X46262Y147820D01*
X46260Y147812D01*
X46254Y147813D01*
X45391Y146863D01*
X45390Y146854D01*
X45385Y146854D01*
X44755Y145735D01*
X44756Y145727D01*
X44750Y145725D01*
X44385Y144495D01*
X44388Y144487D01*
X44383Y144484D01*
X44301Y143203D01*
X44304Y143199D01*
X44301Y143197D01*
X44383Y141916D01*
X44389Y141910D01*
X44385Y141905D01*
X44750Y140675D01*
X44757Y140670D01*
X44755Y140665D01*
X45385Y139546D01*
X45392Y139543D01*
X45391Y139537D01*
X46254Y138587D01*
X46262Y138586D01*
X46262Y138580D01*
X47315Y137846D01*
X47323Y137846D01*
X47325Y137841D01*
X48515Y137359D01*
X48522Y137361D01*
X48525Y137356D01*
X49792Y137151D01*
X49797Y137154D01*
X49800Y137151D01*
X61800Y137151D01*
X61805Y137154D01*
G37*
G36*
X61805Y50754D02*
X61805Y50754D01*
X61807Y50751D01*
X63087Y50946D01*
X63093Y50952D01*
X63097Y50949D01*
X64301Y51424D01*
X64306Y51431D01*
X64311Y51429D01*
X65379Y52160D01*
X65382Y52167D01*
X65388Y52167D01*
X66267Y53117D01*
X66267Y53125D01*
X66273Y53126D01*
X66918Y54247D01*
X66917Y54256D01*
X66923Y54258D01*
X67302Y55495D01*
X67300Y55503D01*
X67304Y55506D01*
X67399Y56796D01*
X67396Y56801D01*
X67399Y56803D01*
X67332Y57934D01*
X67327Y57939D01*
X67331Y57943D01*
X67044Y59040D01*
X67038Y59044D01*
X67041Y59049D01*
X66546Y60068D01*
X66540Y60071D01*
X66541Y60076D01*
X65857Y60979D01*
X65850Y60981D01*
X65850Y60986D01*
X65003Y61739D01*
X64996Y61739D01*
X64995Y61744D01*
X64018Y62317D01*
X64011Y62316D01*
X64009Y62321D01*
X62938Y62692D01*
X62932Y62689D01*
X62929Y62694D01*
X61807Y62849D01*
X61802Y62846D01*
X61800Y62849D01*
X49800Y62849D01*
X49795Y62846D01*
X49792Y62849D01*
X48525Y62644D01*
X48519Y62638D01*
X48515Y62641D01*
X47325Y62159D01*
X47321Y62152D01*
X47315Y62154D01*
X46262Y61420D01*
X46260Y61412D01*
X46254Y61413D01*
X45391Y60463D01*
X45390Y60454D01*
X45385Y60454D01*
X44755Y59335D01*
X44756Y59327D01*
X44750Y59325D01*
X44385Y58095D01*
X44388Y58087D01*
X44383Y58084D01*
X44301Y56803D01*
X44304Y56799D01*
X44301Y56797D01*
X44383Y55516D01*
X44389Y55510D01*
X44385Y55505D01*
X44750Y54275D01*
X44757Y54270D01*
X44755Y54265D01*
X45385Y53146D01*
X45392Y53143D01*
X45391Y53137D01*
X46254Y52187D01*
X46262Y52186D01*
X46262Y52180D01*
X47315Y51446D01*
X47323Y51446D01*
X47325Y51441D01*
X48515Y50959D01*
X48522Y50961D01*
X48525Y50956D01*
X49792Y50751D01*
X49797Y50754D01*
X49800Y50751D01*
X61800Y50751D01*
X61805Y50754D01*
G37*
G36*
X17003Y137153D02*
X17003Y137153D01*
X17005Y137151D01*
X18181Y137262D01*
X18186Y137267D01*
X18190Y137264D01*
X19322Y137602D01*
X19326Y137608D01*
X19331Y137606D01*
X20375Y138158D01*
X20378Y138165D01*
X20383Y138163D01*
X21299Y138909D01*
X21300Y138916D01*
X21306Y138916D01*
X22059Y139826D01*
X22059Y139833D01*
X22064Y139834D01*
X22625Y140873D01*
X22624Y140878D01*
X22628Y140880D01*
X22627Y140881D01*
X22629Y140882D01*
X22976Y142011D01*
X22976Y142012D01*
X22977Y142013D01*
X22974Y142017D01*
X22978Y142020D01*
X23099Y143195D01*
X23095Y143202D01*
X23099Y143206D01*
X22942Y144546D01*
X22937Y144552D01*
X22940Y144557D01*
X22489Y145828D01*
X22482Y145833D01*
X22484Y145838D01*
X21762Y146977D01*
X21754Y146980D01*
X21755Y146986D01*
X20797Y147936D01*
X20789Y147937D01*
X20788Y147943D01*
X19643Y148656D01*
X19635Y148655D01*
X19633Y148661D01*
X18357Y149101D01*
X18350Y149099D01*
X18347Y149103D01*
X17005Y149249D01*
X17002Y149247D01*
X17000Y149249D01*
X11000Y149249D01*
X10997Y149247D01*
X10994Y149249D01*
X9665Y149094D01*
X9659Y149088D01*
X9655Y149091D01*
X8394Y148644D01*
X8389Y148637D01*
X8384Y148639D01*
X7254Y147922D01*
X7251Y147915D01*
X7245Y147916D01*
X6303Y146966D01*
X6302Y146957D01*
X6296Y146957D01*
X5589Y145821D01*
X5590Y145813D01*
X5584Y145811D01*
X5148Y144546D01*
X5150Y144538D01*
X5145Y144536D01*
X5001Y143205D01*
X5005Y143199D01*
X5001Y143195D01*
X5111Y142029D01*
X5116Y142024D01*
X5113Y142020D01*
X5448Y140897D01*
X5454Y140893D01*
X5452Y140889D01*
X6000Y139853D01*
X6006Y139850D01*
X6005Y139845D01*
X6744Y138937D01*
X6751Y138935D01*
X6751Y138930D01*
X7653Y138183D01*
X7661Y138183D01*
X7661Y138178D01*
X8692Y137621D01*
X8699Y137622D01*
X8701Y137617D01*
X9820Y137273D01*
X9827Y137275D01*
X9830Y137271D01*
X10995Y137151D01*
X10998Y137153D01*
X11000Y137151D01*
X17000Y137151D01*
X17003Y137153D01*
G37*
G36*
X17003Y50753D02*
X17003Y50753D01*
X17005Y50751D01*
X18181Y50862D01*
X18186Y50867D01*
X18190Y50864D01*
X19322Y51202D01*
X19326Y51208D01*
X19331Y51206D01*
X20375Y51758D01*
X20378Y51765D01*
X20383Y51763D01*
X21299Y52509D01*
X21300Y52516D01*
X21306Y52516D01*
X22059Y53426D01*
X22059Y53433D01*
X22064Y53434D01*
X22625Y54473D01*
X22624Y54478D01*
X22628Y54480D01*
X22627Y54481D01*
X22629Y54482D01*
X22976Y55611D01*
X22976Y55612D01*
X22977Y55613D01*
X22974Y55617D01*
X22978Y55620D01*
X23099Y56795D01*
X23095Y56802D01*
X23099Y56806D01*
X22942Y58146D01*
X22937Y58152D01*
X22940Y58157D01*
X22489Y59428D01*
X22482Y59433D01*
X22484Y59438D01*
X21762Y60577D01*
X21754Y60580D01*
X21755Y60586D01*
X20797Y61536D01*
X20789Y61537D01*
X20788Y61543D01*
X19643Y62256D01*
X19635Y62255D01*
X19633Y62261D01*
X18357Y62701D01*
X18350Y62699D01*
X18347Y62703D01*
X17005Y62849D01*
X17002Y62847D01*
X17000Y62849D01*
X11000Y62849D01*
X10997Y62847D01*
X10994Y62849D01*
X9665Y62694D01*
X9659Y62688D01*
X9655Y62691D01*
X8394Y62244D01*
X8389Y62237D01*
X8384Y62239D01*
X7254Y61522D01*
X7251Y61515D01*
X7245Y61516D01*
X6303Y60566D01*
X6302Y60557D01*
X6296Y60557D01*
X5589Y59421D01*
X5590Y59413D01*
X5584Y59411D01*
X5148Y58146D01*
X5150Y58138D01*
X5145Y58136D01*
X5001Y56805D01*
X5005Y56799D01*
X5001Y56795D01*
X5111Y55629D01*
X5116Y55624D01*
X5113Y55620D01*
X5448Y54497D01*
X5454Y54493D01*
X5452Y54489D01*
X6000Y53453D01*
X6006Y53450D01*
X6005Y53445D01*
X6744Y52537D01*
X6751Y52535D01*
X6751Y52530D01*
X7653Y51783D01*
X7661Y51783D01*
X7661Y51778D01*
X8692Y51221D01*
X8699Y51222D01*
X8701Y51217D01*
X9820Y50873D01*
X9827Y50875D01*
X9830Y50871D01*
X10995Y50751D01*
X10998Y50753D01*
X11000Y50751D01*
X17000Y50751D01*
X17003Y50753D01*
G37*
D10*
X170250Y125000D03*
X170250Y120000D03*
X170250Y115000D03*
X170250Y110000D03*
X170250Y105000D03*
X170250Y100000D03*
X170250Y95000D03*
X170250Y90000D03*
X170250Y85000D03*
X170250Y80000D03*
X170250Y75000D03*
D11*
X180000Y65250D03*
X185000Y65250D03*
X190000Y65250D03*
X195000Y65250D03*
X200000Y65250D03*
X205000Y65250D03*
X210000Y65250D03*
X215000Y65250D03*
X220000Y65250D03*
X225000Y65250D03*
X230000Y65250D03*
D10*
X239750Y75000D03*
X239750Y80000D03*
X239750Y85000D03*
X239750Y90000D03*
X239750Y95000D03*
X239750Y100000D03*
X239750Y105000D03*
X239750Y110000D03*
X239750Y115000D03*
X239750Y120000D03*
X239750Y125000D03*
D11*
X230000Y134750D03*
X225000Y134750D03*
X220000Y134750D03*
X215000Y134750D03*
X210000Y134750D03*
X205000Y134750D03*
X200000Y134750D03*
X195000Y134750D03*
X190000Y134750D03*
X185000Y134750D03*
X180000Y134750D03*
D12*
X205000Y100000D03*
D13*
X112500Y76000D03*
X112500Y59000D03*
X104000Y95000D03*
X121000Y95000D03*
X104000Y115000D03*
X121000Y115000D03*
X175000Y36000D03*
X175000Y19000D03*
D14*
X174000Y160000D03*
X191000Y160000D03*
D13*
X265000Y86000D03*
X265000Y69000D03*
D14*
X236000Y160000D03*
X219000Y160000D03*
D13*
X327500Y46500D03*
X327500Y63500D03*
D14*
X280000Y151500D03*
X280000Y168500D03*
D15*
X297500Y170500D03*
X297500Y149500D03*
D16*
X65100Y92500D03*
X65100Y97500D03*
D17*
X65100Y67750D03*
X65100Y75500D03*
D16*
X65100Y82500D03*
X65100Y87500D03*
X65100Y107500D03*
X65100Y102500D03*
D17*
X65100Y132250D03*
X65100Y124500D03*
D16*
X65100Y117500D03*
X65100Y112500D03*
D18*
X50550Y128900D03*
X50550Y71100D03*
D19*
X362300Y55950D03*
D20*
X387700Y144050D03*
D21*
X362300Y80950D03*
X362300Y106350D03*
X362300Y131750D03*
X387700Y68250D03*
X387700Y93650D03*
X387700Y119050D03*
D22*
X94500Y17500D03*
X75500Y17500D03*
D14*
X153500Y180000D03*
X136500Y180000D03*
D13*
X145000Y163500D03*
X145000Y146500D03*
X85000Y163500D03*
X85000Y146500D03*
X53500Y40000D03*
X36500Y40000D03*
X53500Y160000D03*
X36500Y160000D03*
D14*
X257500Y151500D03*
X257500Y168500D03*
X135000Y53500D03*
X135000Y36500D03*
D13*
X155000Y53500D03*
X155000Y36500D03*
D15*
X19500Y185000D03*
X40500Y185000D03*
D13*
X83500Y185000D03*
X66500Y185000D03*
X195000Y36000D03*
X195000Y19000D03*
X255000Y36000D03*
X255000Y19000D03*
D23*
X234625Y35125D03*
X215375Y35125D03*
X215375Y19875D03*
X234625Y19875D03*
D14*
X325000Y171000D03*
X325000Y154000D03*
D24*
X297500Y95000D03*
X297500Y20000D03*
D25*
X92500Y75000D03*
X92500Y55000D03*
D26*
X102100Y164500D03*
X102100Y155000D03*
X102100Y145500D03*
X128000Y145500D03*
X128000Y164500D03*
D27*
X306500Y122500D03*
X328500Y132000D03*
X328500Y113000D03*
M02*
