G04 EAGLE Gerber RS-274X export*
G75*
%MOMM*%
%FSLAX34Y34*%
%LPD*%
%IN*%
%IPPOS*%
%AMOC8*
5,1,8,0,0,1.08239X$1,22.5*%
G01*
%ADD10C,0.010000*%
%ADD11C,0.254000*%


D10*
X11000Y146200D02*
X17200Y146200D01*
X17200Y140200D02*
X11000Y140200D01*
X17200Y140200D02*
X17308Y140202D01*
X17416Y140208D01*
X17524Y140218D01*
X17632Y140231D01*
X17739Y140249D01*
X17845Y140270D01*
X17950Y140295D01*
X18055Y140324D01*
X18158Y140357D01*
X18260Y140393D01*
X18361Y140434D01*
X18460Y140477D01*
X18557Y140525D01*
X18653Y140575D01*
X18747Y140629D01*
X18838Y140687D01*
X18928Y140748D01*
X19016Y140812D01*
X19101Y140879D01*
X19183Y140949D01*
X19263Y141022D01*
X19340Y141098D01*
X19415Y141177D01*
X19486Y141258D01*
X19555Y141342D01*
X19621Y141428D01*
X19683Y141516D01*
X19742Y141607D01*
X19798Y141700D01*
X19851Y141795D01*
X19900Y141891D01*
X19945Y141990D01*
X19987Y142090D01*
X20025Y142191D01*
X20060Y142294D01*
X20091Y142397D01*
X20118Y142502D01*
X20141Y142608D01*
X20160Y142715D01*
X20176Y142822D01*
X20188Y142930D01*
X20196Y143038D01*
X20200Y143146D01*
X20200Y143254D01*
X20196Y143362D01*
X20188Y143470D01*
X20176Y143578D01*
X20160Y143685D01*
X20141Y143792D01*
X20118Y143898D01*
X20091Y144003D01*
X20060Y144106D01*
X20025Y144209D01*
X19987Y144310D01*
X19945Y144410D01*
X19900Y144509D01*
X19851Y144605D01*
X19798Y144700D01*
X19742Y144793D01*
X19683Y144884D01*
X19621Y144972D01*
X19555Y145058D01*
X19486Y145142D01*
X19415Y145223D01*
X19340Y145302D01*
X19263Y145378D01*
X19183Y145451D01*
X19101Y145521D01*
X19016Y145588D01*
X18928Y145652D01*
X18838Y145713D01*
X18747Y145771D01*
X18653Y145825D01*
X18557Y145875D01*
X18460Y145923D01*
X18361Y145966D01*
X18260Y146007D01*
X18158Y146043D01*
X18055Y146076D01*
X17950Y146105D01*
X17845Y146130D01*
X17739Y146151D01*
X17632Y146169D01*
X17524Y146182D01*
X17416Y146192D01*
X17308Y146198D01*
X17200Y146200D01*
X11000Y146200D02*
X10892Y146198D01*
X10784Y146192D01*
X10676Y146182D01*
X10568Y146169D01*
X10461Y146151D01*
X10355Y146130D01*
X10250Y146105D01*
X10145Y146076D01*
X10042Y146043D01*
X9940Y146007D01*
X9839Y145966D01*
X9740Y145923D01*
X9643Y145875D01*
X9547Y145825D01*
X9453Y145771D01*
X9362Y145713D01*
X9272Y145652D01*
X9184Y145588D01*
X9099Y145521D01*
X9017Y145451D01*
X8937Y145378D01*
X8860Y145302D01*
X8785Y145223D01*
X8714Y145142D01*
X8645Y145058D01*
X8579Y144972D01*
X8517Y144884D01*
X8458Y144793D01*
X8402Y144700D01*
X8349Y144605D01*
X8300Y144509D01*
X8255Y144410D01*
X8213Y144310D01*
X8175Y144209D01*
X8140Y144106D01*
X8109Y144003D01*
X8082Y143898D01*
X8059Y143792D01*
X8040Y143685D01*
X8024Y143578D01*
X8012Y143470D01*
X8004Y143362D01*
X8000Y143254D01*
X8000Y143146D01*
X8004Y143038D01*
X8012Y142930D01*
X8024Y142822D01*
X8040Y142715D01*
X8059Y142608D01*
X8082Y142502D01*
X8109Y142397D01*
X8140Y142294D01*
X8175Y142191D01*
X8213Y142090D01*
X8255Y141990D01*
X8300Y141891D01*
X8349Y141795D01*
X8402Y141700D01*
X8458Y141607D01*
X8517Y141516D01*
X8579Y141428D01*
X8645Y141342D01*
X8714Y141258D01*
X8785Y141177D01*
X8860Y141098D01*
X8937Y141022D01*
X9017Y140949D01*
X9099Y140879D01*
X9184Y140812D01*
X9272Y140748D01*
X9362Y140687D01*
X9453Y140629D01*
X9547Y140575D01*
X9643Y140525D01*
X9740Y140477D01*
X9839Y140434D01*
X9940Y140393D01*
X10042Y140357D01*
X10145Y140324D01*
X10250Y140295D01*
X10355Y140270D01*
X10461Y140249D01*
X10568Y140231D01*
X10676Y140218D01*
X10784Y140208D01*
X10892Y140202D01*
X11000Y140200D01*
X50350Y146200D02*
X61350Y146200D01*
X61350Y140200D02*
X50350Y140200D01*
X50242Y140202D01*
X50134Y140208D01*
X50026Y140218D01*
X49918Y140231D01*
X49811Y140249D01*
X49705Y140270D01*
X49600Y140295D01*
X49495Y140324D01*
X49392Y140357D01*
X49290Y140393D01*
X49189Y140434D01*
X49090Y140477D01*
X48993Y140525D01*
X48897Y140575D01*
X48803Y140629D01*
X48712Y140687D01*
X48622Y140748D01*
X48534Y140812D01*
X48449Y140879D01*
X48367Y140949D01*
X48287Y141022D01*
X48210Y141098D01*
X48135Y141177D01*
X48064Y141258D01*
X47995Y141342D01*
X47929Y141428D01*
X47867Y141516D01*
X47808Y141607D01*
X47752Y141700D01*
X47699Y141795D01*
X47650Y141891D01*
X47605Y141990D01*
X47563Y142090D01*
X47525Y142191D01*
X47490Y142294D01*
X47459Y142397D01*
X47432Y142502D01*
X47409Y142608D01*
X47390Y142715D01*
X47374Y142822D01*
X47362Y142930D01*
X47354Y143038D01*
X47350Y143146D01*
X47350Y143254D01*
X47354Y143362D01*
X47362Y143470D01*
X47374Y143578D01*
X47390Y143685D01*
X47409Y143792D01*
X47432Y143898D01*
X47459Y144003D01*
X47490Y144106D01*
X47525Y144209D01*
X47563Y144310D01*
X47605Y144410D01*
X47650Y144509D01*
X47699Y144605D01*
X47752Y144700D01*
X47808Y144793D01*
X47867Y144884D01*
X47929Y144972D01*
X47995Y145058D01*
X48064Y145142D01*
X48135Y145223D01*
X48210Y145302D01*
X48287Y145378D01*
X48367Y145451D01*
X48449Y145521D01*
X48534Y145588D01*
X48622Y145652D01*
X48712Y145713D01*
X48803Y145771D01*
X48897Y145825D01*
X48993Y145875D01*
X49090Y145923D01*
X49189Y145966D01*
X49290Y146007D01*
X49392Y146043D01*
X49495Y146076D01*
X49600Y146105D01*
X49705Y146130D01*
X49811Y146151D01*
X49918Y146169D01*
X50026Y146182D01*
X50134Y146192D01*
X50242Y146198D01*
X50350Y146200D01*
X61350Y146200D02*
X61458Y146198D01*
X61566Y146192D01*
X61674Y146182D01*
X61782Y146169D01*
X61889Y146151D01*
X61995Y146130D01*
X62100Y146105D01*
X62205Y146076D01*
X62308Y146043D01*
X62410Y146007D01*
X62511Y145966D01*
X62610Y145923D01*
X62707Y145875D01*
X62803Y145825D01*
X62897Y145771D01*
X62988Y145713D01*
X63078Y145652D01*
X63166Y145588D01*
X63251Y145521D01*
X63333Y145451D01*
X63413Y145378D01*
X63490Y145302D01*
X63565Y145223D01*
X63636Y145142D01*
X63705Y145058D01*
X63771Y144972D01*
X63833Y144884D01*
X63892Y144793D01*
X63948Y144700D01*
X64001Y144605D01*
X64050Y144509D01*
X64095Y144410D01*
X64137Y144310D01*
X64175Y144209D01*
X64210Y144106D01*
X64241Y144003D01*
X64268Y143898D01*
X64291Y143792D01*
X64310Y143685D01*
X64326Y143578D01*
X64338Y143470D01*
X64346Y143362D01*
X64350Y143254D01*
X64350Y143146D01*
X64346Y143038D01*
X64338Y142930D01*
X64326Y142822D01*
X64310Y142715D01*
X64291Y142608D01*
X64268Y142502D01*
X64241Y142397D01*
X64210Y142294D01*
X64175Y142191D01*
X64137Y142090D01*
X64095Y141990D01*
X64050Y141891D01*
X64001Y141795D01*
X63948Y141700D01*
X63892Y141607D01*
X63833Y141516D01*
X63771Y141428D01*
X63705Y141342D01*
X63636Y141258D01*
X63565Y141177D01*
X63490Y141098D01*
X63413Y141022D01*
X63333Y140949D01*
X63251Y140879D01*
X63166Y140812D01*
X63078Y140748D01*
X62988Y140687D01*
X62897Y140629D01*
X62803Y140575D01*
X62707Y140525D01*
X62610Y140477D01*
X62511Y140434D01*
X62410Y140393D01*
X62308Y140357D01*
X62205Y140324D01*
X62100Y140295D01*
X61995Y140270D01*
X61889Y140249D01*
X61782Y140231D01*
X61674Y140218D01*
X61566Y140208D01*
X61458Y140202D01*
X61350Y140200D01*
X17200Y59800D02*
X11000Y59800D01*
X11000Y53800D02*
X17200Y53800D01*
X17308Y53802D01*
X17416Y53808D01*
X17524Y53818D01*
X17632Y53831D01*
X17739Y53849D01*
X17845Y53870D01*
X17950Y53895D01*
X18055Y53924D01*
X18158Y53957D01*
X18260Y53993D01*
X18361Y54034D01*
X18460Y54077D01*
X18557Y54125D01*
X18653Y54175D01*
X18747Y54229D01*
X18838Y54287D01*
X18928Y54348D01*
X19016Y54412D01*
X19101Y54479D01*
X19183Y54549D01*
X19263Y54622D01*
X19340Y54698D01*
X19415Y54777D01*
X19486Y54858D01*
X19555Y54942D01*
X19621Y55028D01*
X19683Y55116D01*
X19742Y55207D01*
X19798Y55300D01*
X19851Y55395D01*
X19900Y55491D01*
X19945Y55590D01*
X19987Y55690D01*
X20025Y55791D01*
X20060Y55894D01*
X20091Y55997D01*
X20118Y56102D01*
X20141Y56208D01*
X20160Y56315D01*
X20176Y56422D01*
X20188Y56530D01*
X20196Y56638D01*
X20200Y56746D01*
X20200Y56854D01*
X20196Y56962D01*
X20188Y57070D01*
X20176Y57178D01*
X20160Y57285D01*
X20141Y57392D01*
X20118Y57498D01*
X20091Y57603D01*
X20060Y57706D01*
X20025Y57809D01*
X19987Y57910D01*
X19945Y58010D01*
X19900Y58109D01*
X19851Y58205D01*
X19798Y58300D01*
X19742Y58393D01*
X19683Y58484D01*
X19621Y58572D01*
X19555Y58658D01*
X19486Y58742D01*
X19415Y58823D01*
X19340Y58902D01*
X19263Y58978D01*
X19183Y59051D01*
X19101Y59121D01*
X19016Y59188D01*
X18928Y59252D01*
X18838Y59313D01*
X18747Y59371D01*
X18653Y59425D01*
X18557Y59475D01*
X18460Y59523D01*
X18361Y59566D01*
X18260Y59607D01*
X18158Y59643D01*
X18055Y59676D01*
X17950Y59705D01*
X17845Y59730D01*
X17739Y59751D01*
X17632Y59769D01*
X17524Y59782D01*
X17416Y59792D01*
X17308Y59798D01*
X17200Y59800D01*
X11000Y59800D02*
X10892Y59798D01*
X10784Y59792D01*
X10676Y59782D01*
X10568Y59769D01*
X10461Y59751D01*
X10355Y59730D01*
X10250Y59705D01*
X10145Y59676D01*
X10042Y59643D01*
X9940Y59607D01*
X9839Y59566D01*
X9740Y59523D01*
X9643Y59475D01*
X9547Y59425D01*
X9453Y59371D01*
X9362Y59313D01*
X9272Y59252D01*
X9184Y59188D01*
X9099Y59121D01*
X9017Y59051D01*
X8937Y58978D01*
X8860Y58902D01*
X8785Y58823D01*
X8714Y58742D01*
X8645Y58658D01*
X8579Y58572D01*
X8517Y58484D01*
X8458Y58393D01*
X8402Y58300D01*
X8349Y58205D01*
X8300Y58109D01*
X8255Y58010D01*
X8213Y57910D01*
X8175Y57809D01*
X8140Y57706D01*
X8109Y57603D01*
X8082Y57498D01*
X8059Y57392D01*
X8040Y57285D01*
X8024Y57178D01*
X8012Y57070D01*
X8004Y56962D01*
X8000Y56854D01*
X8000Y56746D01*
X8004Y56638D01*
X8012Y56530D01*
X8024Y56422D01*
X8040Y56315D01*
X8059Y56208D01*
X8082Y56102D01*
X8109Y55997D01*
X8140Y55894D01*
X8175Y55791D01*
X8213Y55690D01*
X8255Y55590D01*
X8300Y55491D01*
X8349Y55395D01*
X8402Y55300D01*
X8458Y55207D01*
X8517Y55116D01*
X8579Y55028D01*
X8645Y54942D01*
X8714Y54858D01*
X8785Y54777D01*
X8860Y54698D01*
X8937Y54622D01*
X9017Y54549D01*
X9099Y54479D01*
X9184Y54412D01*
X9272Y54348D01*
X9362Y54287D01*
X9453Y54229D01*
X9547Y54175D01*
X9643Y54125D01*
X9740Y54077D01*
X9839Y54034D01*
X9940Y53993D01*
X10042Y53957D01*
X10145Y53924D01*
X10250Y53895D01*
X10355Y53870D01*
X10461Y53849D01*
X10568Y53831D01*
X10676Y53818D01*
X10784Y53808D01*
X10892Y53802D01*
X11000Y53800D01*
X50350Y59800D02*
X61350Y59800D01*
X61350Y53800D02*
X50350Y53800D01*
X50242Y53802D01*
X50134Y53808D01*
X50026Y53818D01*
X49918Y53831D01*
X49811Y53849D01*
X49705Y53870D01*
X49600Y53895D01*
X49495Y53924D01*
X49392Y53957D01*
X49290Y53993D01*
X49189Y54034D01*
X49090Y54077D01*
X48993Y54125D01*
X48897Y54175D01*
X48803Y54229D01*
X48712Y54287D01*
X48622Y54348D01*
X48534Y54412D01*
X48449Y54479D01*
X48367Y54549D01*
X48287Y54622D01*
X48210Y54698D01*
X48135Y54777D01*
X48064Y54858D01*
X47995Y54942D01*
X47929Y55028D01*
X47867Y55116D01*
X47808Y55207D01*
X47752Y55300D01*
X47699Y55395D01*
X47650Y55491D01*
X47605Y55590D01*
X47563Y55690D01*
X47525Y55791D01*
X47490Y55894D01*
X47459Y55997D01*
X47432Y56102D01*
X47409Y56208D01*
X47390Y56315D01*
X47374Y56422D01*
X47362Y56530D01*
X47354Y56638D01*
X47350Y56746D01*
X47350Y56854D01*
X47354Y56962D01*
X47362Y57070D01*
X47374Y57178D01*
X47390Y57285D01*
X47409Y57392D01*
X47432Y57498D01*
X47459Y57603D01*
X47490Y57706D01*
X47525Y57809D01*
X47563Y57910D01*
X47605Y58010D01*
X47650Y58109D01*
X47699Y58205D01*
X47752Y58300D01*
X47808Y58393D01*
X47867Y58484D01*
X47929Y58572D01*
X47995Y58658D01*
X48064Y58742D01*
X48135Y58823D01*
X48210Y58902D01*
X48287Y58978D01*
X48367Y59051D01*
X48449Y59121D01*
X48534Y59188D01*
X48622Y59252D01*
X48712Y59313D01*
X48803Y59371D01*
X48897Y59425D01*
X48993Y59475D01*
X49090Y59523D01*
X49189Y59566D01*
X49290Y59607D01*
X49392Y59643D01*
X49495Y59676D01*
X49600Y59705D01*
X49705Y59730D01*
X49811Y59751D01*
X49918Y59769D01*
X50026Y59782D01*
X50134Y59792D01*
X50242Y59798D01*
X50350Y59800D01*
X61350Y59800D02*
X61458Y59798D01*
X61566Y59792D01*
X61674Y59782D01*
X61782Y59769D01*
X61889Y59751D01*
X61995Y59730D01*
X62100Y59705D01*
X62205Y59676D01*
X62308Y59643D01*
X62410Y59607D01*
X62511Y59566D01*
X62610Y59523D01*
X62707Y59475D01*
X62803Y59425D01*
X62897Y59371D01*
X62988Y59313D01*
X63078Y59252D01*
X63166Y59188D01*
X63251Y59121D01*
X63333Y59051D01*
X63413Y58978D01*
X63490Y58902D01*
X63565Y58823D01*
X63636Y58742D01*
X63705Y58658D01*
X63771Y58572D01*
X63833Y58484D01*
X63892Y58393D01*
X63948Y58300D01*
X64001Y58205D01*
X64050Y58109D01*
X64095Y58010D01*
X64137Y57910D01*
X64175Y57809D01*
X64210Y57706D01*
X64241Y57603D01*
X64268Y57498D01*
X64291Y57392D01*
X64310Y57285D01*
X64326Y57178D01*
X64338Y57070D01*
X64346Y56962D01*
X64350Y56854D01*
X64350Y56746D01*
X64346Y56638D01*
X64338Y56530D01*
X64326Y56422D01*
X64310Y56315D01*
X64291Y56208D01*
X64268Y56102D01*
X64241Y55997D01*
X64210Y55894D01*
X64175Y55791D01*
X64137Y55690D01*
X64095Y55590D01*
X64050Y55491D01*
X64001Y55395D01*
X63948Y55300D01*
X63892Y55207D01*
X63833Y55116D01*
X63771Y55028D01*
X63705Y54942D01*
X63636Y54858D01*
X63565Y54777D01*
X63490Y54698D01*
X63413Y54622D01*
X63333Y54549D01*
X63251Y54479D01*
X63166Y54412D01*
X63078Y54348D01*
X62988Y54287D01*
X62897Y54229D01*
X62803Y54175D01*
X62707Y54125D01*
X62610Y54077D01*
X62511Y54034D01*
X62410Y53993D01*
X62308Y53957D01*
X62205Y53924D01*
X62100Y53895D01*
X61995Y53870D01*
X61889Y53849D01*
X61782Y53831D01*
X61674Y53818D01*
X61566Y53808D01*
X61458Y53802D01*
X61350Y53800D01*
D11*
X0Y20000D02*
X76Y18257D01*
X304Y16527D01*
X681Y14824D01*
X1206Y13160D01*
X1874Y11548D01*
X2680Y10000D01*
X3617Y8528D01*
X4679Y7144D01*
X5858Y5858D01*
X7144Y4679D01*
X8528Y3617D01*
X10000Y2680D01*
X11548Y1874D01*
X13160Y1206D01*
X14824Y681D01*
X16527Y304D01*
X18257Y76D01*
X20000Y0D01*
X390000Y0D01*
X391743Y76D01*
X393473Y304D01*
X395176Y681D01*
X396840Y1206D01*
X398452Y1874D01*
X400000Y2680D01*
X401472Y3617D01*
X402856Y4679D01*
X404142Y5858D01*
X405321Y7144D01*
X406383Y8528D01*
X407321Y10000D01*
X408126Y11548D01*
X408794Y13160D01*
X409319Y14824D01*
X409696Y16527D01*
X409924Y18257D01*
X410000Y20000D01*
X410000Y180000D01*
X409924Y181743D01*
X409696Y183473D01*
X409319Y185176D01*
X408794Y186840D01*
X408126Y188452D01*
X407321Y190000D01*
X406383Y191472D01*
X405321Y192856D01*
X404142Y194142D01*
X402856Y195321D01*
X401472Y196383D01*
X400000Y197321D01*
X398452Y198126D01*
X396840Y198794D01*
X395176Y199319D01*
X393473Y199696D01*
X391743Y199924D01*
X390000Y200000D01*
X20000Y200000D01*
X18257Y199924D01*
X16527Y199696D01*
X14824Y199319D01*
X13160Y198794D01*
X11548Y198126D01*
X10000Y197321D01*
X8528Y196383D01*
X7144Y195321D01*
X5858Y194142D01*
X4679Y192856D01*
X3617Y191472D01*
X2680Y190000D01*
X1874Y188452D01*
X1206Y186840D01*
X681Y185176D01*
X304Y183473D01*
X76Y181743D01*
X0Y180000D01*
X0Y20000D01*
X50350Y53800D02*
X61350Y53800D01*
X61611Y53811D01*
X61871Y53846D01*
X62126Y53902D01*
X62376Y53981D01*
X62618Y54081D01*
X62850Y54202D01*
X63071Y54343D01*
X63278Y54502D01*
X63471Y54679D01*
X63648Y54872D01*
X63807Y55079D01*
X63948Y55300D01*
X64069Y55532D01*
X64169Y55774D01*
X64248Y56024D01*
X64304Y56279D01*
X64339Y56539D01*
X64350Y56800D01*
X64339Y57061D01*
X64304Y57321D01*
X64248Y57576D01*
X64169Y57826D01*
X64069Y58068D01*
X63948Y58300D01*
X63807Y58521D01*
X63648Y58728D01*
X63471Y58921D01*
X63278Y59098D01*
X63071Y59257D01*
X62850Y59398D01*
X62618Y59519D01*
X62376Y59619D01*
X62126Y59698D01*
X61871Y59754D01*
X61611Y59789D01*
X61350Y59800D01*
X50350Y59800D01*
X50089Y59789D01*
X49829Y59754D01*
X49574Y59698D01*
X49324Y59619D01*
X49082Y59519D01*
X48850Y59398D01*
X48629Y59257D01*
X48422Y59098D01*
X48229Y58921D01*
X48052Y58728D01*
X47893Y58521D01*
X47752Y58300D01*
X47631Y58068D01*
X47531Y57826D01*
X47452Y57576D01*
X47396Y57321D01*
X47361Y57061D01*
X47350Y56800D01*
X47361Y56539D01*
X47396Y56279D01*
X47452Y56024D01*
X47531Y55774D01*
X47631Y55532D01*
X47752Y55300D01*
X47893Y55079D01*
X48052Y54872D01*
X48229Y54679D01*
X48422Y54502D01*
X48629Y54343D01*
X48850Y54202D01*
X49082Y54081D01*
X49324Y53981D01*
X49574Y53902D01*
X49829Y53846D01*
X50089Y53811D01*
X50350Y53800D01*
X11000Y53800D02*
X17200Y53800D01*
X17461Y53811D01*
X17721Y53846D01*
X17976Y53902D01*
X18226Y53981D01*
X18468Y54081D01*
X18700Y54202D01*
X18921Y54343D01*
X19128Y54502D01*
X19321Y54679D01*
X19498Y54872D01*
X19657Y55079D01*
X19798Y55300D01*
X19919Y55532D01*
X20019Y55774D01*
X20098Y56024D01*
X20154Y56279D01*
X20189Y56539D01*
X20200Y56800D01*
X20189Y57061D01*
X20154Y57321D01*
X20098Y57576D01*
X20019Y57826D01*
X19919Y58068D01*
X19798Y58300D01*
X19657Y58521D01*
X19498Y58728D01*
X19321Y58921D01*
X19128Y59098D01*
X18921Y59257D01*
X18700Y59398D01*
X18468Y59519D01*
X18226Y59619D01*
X17976Y59698D01*
X17721Y59754D01*
X17461Y59789D01*
X17200Y59800D01*
X11000Y59800D01*
X10739Y59789D01*
X10479Y59754D01*
X10224Y59698D01*
X9974Y59619D01*
X9732Y59519D01*
X9500Y59398D01*
X9279Y59257D01*
X9072Y59098D01*
X8879Y58921D01*
X8702Y58728D01*
X8543Y58521D01*
X8402Y58300D01*
X8281Y58068D01*
X8181Y57826D01*
X8102Y57576D01*
X8046Y57321D01*
X8011Y57061D01*
X8000Y56800D01*
X8011Y56539D01*
X8046Y56279D01*
X8102Y56024D01*
X8181Y55774D01*
X8281Y55532D01*
X8402Y55300D01*
X8543Y55079D01*
X8702Y54872D01*
X8879Y54679D01*
X9072Y54502D01*
X9279Y54343D01*
X9500Y54202D01*
X9732Y54081D01*
X9974Y53981D01*
X10224Y53902D01*
X10479Y53846D01*
X10739Y53811D01*
X11000Y53800D01*
X11000Y140200D02*
X17200Y140200D01*
X17461Y140211D01*
X17721Y140246D01*
X17976Y140302D01*
X18226Y140381D01*
X18468Y140481D01*
X18700Y140602D01*
X18921Y140743D01*
X19128Y140902D01*
X19321Y141079D01*
X19498Y141272D01*
X19657Y141479D01*
X19798Y141700D01*
X19919Y141932D01*
X20019Y142174D01*
X20098Y142424D01*
X20154Y142679D01*
X20189Y142939D01*
X20200Y143200D01*
X20189Y143461D01*
X20154Y143721D01*
X20098Y143976D01*
X20019Y144226D01*
X19919Y144468D01*
X19798Y144700D01*
X19657Y144921D01*
X19498Y145128D01*
X19321Y145321D01*
X19128Y145498D01*
X18921Y145657D01*
X18700Y145798D01*
X18468Y145919D01*
X18226Y146019D01*
X17976Y146098D01*
X17721Y146154D01*
X17461Y146189D01*
X17200Y146200D01*
X11000Y146200D01*
X10739Y146189D01*
X10479Y146154D01*
X10224Y146098D01*
X9974Y146019D01*
X9732Y145919D01*
X9500Y145798D01*
X9279Y145657D01*
X9072Y145498D01*
X8879Y145321D01*
X8702Y145128D01*
X8543Y144921D01*
X8402Y144700D01*
X8281Y144468D01*
X8181Y144226D01*
X8102Y143976D01*
X8046Y143721D01*
X8011Y143461D01*
X8000Y143200D01*
X8011Y142939D01*
X8046Y142679D01*
X8102Y142424D01*
X8181Y142174D01*
X8281Y141932D01*
X8402Y141700D01*
X8543Y141479D01*
X8702Y141272D01*
X8879Y141079D01*
X9072Y140902D01*
X9279Y140743D01*
X9500Y140602D01*
X9732Y140481D01*
X9974Y140381D01*
X10224Y140302D01*
X10479Y140246D01*
X10739Y140211D01*
X11000Y140200D01*
X50350Y140200D02*
X61350Y140200D01*
X61611Y140211D01*
X61871Y140246D01*
X62126Y140302D01*
X62376Y140381D01*
X62618Y140481D01*
X62850Y140602D01*
X63071Y140743D01*
X63278Y140902D01*
X63471Y141079D01*
X63648Y141272D01*
X63807Y141479D01*
X63948Y141700D01*
X64069Y141932D01*
X64169Y142174D01*
X64248Y142424D01*
X64304Y142679D01*
X64339Y142939D01*
X64350Y143200D01*
X64339Y143461D01*
X64304Y143721D01*
X64248Y143976D01*
X64169Y144226D01*
X64069Y144468D01*
X63948Y144700D01*
X63807Y144921D01*
X63648Y145128D01*
X63471Y145321D01*
X63278Y145498D01*
X63071Y145657D01*
X62850Y145798D01*
X62618Y145919D01*
X62376Y146019D01*
X62126Y146098D01*
X61871Y146154D01*
X61611Y146189D01*
X61350Y146200D01*
X50350Y146200D01*
X50089Y146189D01*
X49829Y146154D01*
X49574Y146098D01*
X49324Y146019D01*
X49082Y145919D01*
X48850Y145798D01*
X48629Y145657D01*
X48422Y145498D01*
X48229Y145321D01*
X48052Y145128D01*
X47893Y144921D01*
X47752Y144700D01*
X47631Y144468D01*
X47531Y144226D01*
X47452Y143976D01*
X47396Y143721D01*
X47361Y143461D01*
X47350Y143200D01*
X47361Y142939D01*
X47396Y142679D01*
X47452Y142424D01*
X47531Y142174D01*
X47631Y141932D01*
X47752Y141700D01*
X47893Y141479D01*
X48052Y141272D01*
X48229Y141079D01*
X48422Y140902D01*
X48629Y140743D01*
X48850Y140602D01*
X49082Y140481D01*
X49324Y140381D01*
X49574Y140302D01*
X49829Y140246D01*
X50089Y140211D01*
X50350Y140200D01*
X50337Y125650D02*
X49915Y125706D01*
X49503Y125816D01*
X49109Y125979D01*
X48741Y126192D01*
X48403Y126451D01*
X48101Y126753D01*
X47842Y127091D01*
X47629Y127459D01*
X47466Y127853D01*
X47356Y128265D01*
X47300Y128687D01*
X47300Y129113D01*
X47356Y129535D01*
X47466Y129947D01*
X47629Y130341D01*
X47842Y130709D01*
X48101Y131047D01*
X48403Y131349D01*
X48741Y131608D01*
X49109Y131821D01*
X49503Y131984D01*
X49915Y132094D01*
X50337Y132150D01*
X50763Y132150D01*
X51185Y132094D01*
X51597Y131984D01*
X51991Y131821D01*
X52359Y131608D01*
X52697Y131349D01*
X52999Y131047D01*
X53258Y130709D01*
X53471Y130341D01*
X53634Y129947D01*
X53744Y129535D01*
X53800Y129113D01*
X53800Y128687D01*
X53744Y128265D01*
X53634Y127853D01*
X53471Y127459D01*
X53258Y127091D01*
X52999Y126753D01*
X52697Y126451D01*
X52359Y126192D01*
X51991Y125979D01*
X51597Y125816D01*
X51185Y125706D01*
X50763Y125650D01*
X50337Y125650D01*
X50337Y67850D02*
X49915Y67906D01*
X49503Y68016D01*
X49109Y68179D01*
X48741Y68392D01*
X48403Y68651D01*
X48101Y68953D01*
X47842Y69291D01*
X47629Y69659D01*
X47466Y70053D01*
X47356Y70465D01*
X47300Y70887D01*
X47300Y71313D01*
X47356Y71735D01*
X47466Y72147D01*
X47629Y72541D01*
X47842Y72909D01*
X48101Y73247D01*
X48403Y73549D01*
X48741Y73808D01*
X49109Y74021D01*
X49503Y74184D01*
X49915Y74294D01*
X50337Y74350D01*
X50763Y74350D01*
X51185Y74294D01*
X51597Y74184D01*
X51991Y74021D01*
X52359Y73808D01*
X52697Y73549D01*
X52999Y73247D01*
X53258Y72909D01*
X53471Y72541D01*
X53634Y72147D01*
X53744Y71735D01*
X53800Y71313D01*
X53800Y70887D01*
X53744Y70465D01*
X53634Y70053D01*
X53471Y69659D01*
X53258Y69291D01*
X52999Y68953D01*
X52697Y68651D01*
X52359Y68392D01*
X51991Y68179D01*
X51597Y68016D01*
X51185Y67906D01*
X50763Y67850D01*
X50337Y67850D01*
X362732Y66950D02*
X363594Y66882D01*
X364448Y66747D01*
X365288Y66545D01*
X366110Y66278D01*
X366909Y65947D01*
X367679Y65555D01*
X368416Y65103D01*
X369115Y64595D01*
X369773Y64034D01*
X370384Y63423D01*
X370945Y62765D01*
X371453Y62066D01*
X371905Y61329D01*
X372297Y60559D01*
X372628Y59760D01*
X372895Y58938D01*
X373097Y58098D01*
X373232Y57244D01*
X373300Y56382D01*
X373300Y55518D01*
X373232Y54656D01*
X373097Y53802D01*
X372895Y52962D01*
X372628Y52140D01*
X372297Y51341D01*
X371905Y50571D01*
X371453Y49834D01*
X370945Y49135D01*
X370384Y48477D01*
X369773Y47866D01*
X369115Y47305D01*
X368416Y46797D01*
X367679Y46345D01*
X366909Y45953D01*
X366110Y45622D01*
X365288Y45355D01*
X364448Y45153D01*
X363594Y45018D01*
X362732Y44950D01*
X361868Y44950D01*
X361006Y45018D01*
X360152Y45153D01*
X359312Y45355D01*
X358490Y45622D01*
X357691Y45953D01*
X356921Y46345D01*
X356184Y46797D01*
X355485Y47305D01*
X354827Y47866D01*
X354216Y48477D01*
X353655Y49135D01*
X353147Y49834D01*
X352695Y50571D01*
X352303Y51341D01*
X351972Y52140D01*
X351705Y52962D01*
X351503Y53802D01*
X351368Y54656D01*
X351300Y55518D01*
X351300Y56382D01*
X351368Y57244D01*
X351503Y58098D01*
X351705Y58938D01*
X351972Y59760D01*
X352303Y60559D01*
X352695Y61329D01*
X353147Y62066D01*
X353655Y62765D01*
X354216Y63423D01*
X354827Y64034D01*
X355485Y64595D01*
X356184Y65103D01*
X356921Y65555D01*
X357691Y65947D01*
X358490Y66278D01*
X359312Y66545D01*
X360152Y66747D01*
X361006Y66882D01*
X361868Y66950D01*
X362732Y66950D01*
X388164Y157050D02*
X389091Y156984D01*
X390010Y156852D01*
X390917Y156654D01*
X391808Y156393D01*
X392678Y156068D01*
X393523Y155682D01*
X394338Y155237D01*
X395119Y154735D01*
X395862Y154179D01*
X396564Y153571D01*
X397221Y152914D01*
X397829Y152212D01*
X398385Y151469D01*
X398887Y150688D01*
X399332Y149873D01*
X399718Y149028D01*
X400043Y148158D01*
X400304Y147267D01*
X400502Y146360D01*
X400634Y145441D01*
X400700Y144514D01*
X400700Y143586D01*
X400634Y142659D01*
X400502Y141740D01*
X400304Y140833D01*
X400043Y139942D01*
X399718Y139072D01*
X399332Y138227D01*
X398887Y137412D01*
X398385Y136631D01*
X397829Y135888D01*
X397221Y135186D01*
X396564Y134529D01*
X395862Y133921D01*
X395119Y133365D01*
X394338Y132863D01*
X393523Y132418D01*
X392678Y132032D01*
X391808Y131707D01*
X390917Y131446D01*
X390010Y131248D01*
X389091Y131116D01*
X388164Y131050D01*
X387236Y131050D01*
X386309Y131116D01*
X385390Y131248D01*
X384483Y131446D01*
X383592Y131707D01*
X382722Y132032D01*
X381877Y132418D01*
X381062Y132863D01*
X380281Y133365D01*
X379538Y133921D01*
X378836Y134529D01*
X378179Y135186D01*
X377571Y135888D01*
X377015Y136631D01*
X376513Y137412D01*
X376068Y138227D01*
X375682Y139072D01*
X375357Y139942D01*
X375096Y140833D01*
X374898Y141740D01*
X374766Y142659D01*
X374700Y143586D01*
X374700Y144514D01*
X374766Y145441D01*
X374898Y146360D01*
X375096Y147267D01*
X375357Y148158D01*
X375682Y149028D01*
X376068Y149873D01*
X376513Y150688D01*
X377015Y151469D01*
X377571Y152212D01*
X378179Y152914D01*
X378836Y153571D01*
X379538Y154179D01*
X380281Y154735D01*
X381062Y155237D01*
X381877Y155682D01*
X382722Y156068D01*
X383592Y156393D01*
X384483Y156654D01*
X385390Y156852D01*
X386309Y156984D01*
X387236Y157050D01*
X388164Y157050D01*
M02*
