G04 EAGLE Gerber RS-274X export*
G75*
%MOMM*%
%FSLAX34Y34*%
%LPD*%
%INTop Copper*%
%IPPOS*%
%AMOC8*
5,1,8,0,0,1.08239X$1,22.5*%
G01*
%ADD10R,0.800000X0.250000*%
%ADD11R,0.250000X0.800000*%
%ADD12R,4.700000X4.700000*%
%ADD13R,1.000000X1.100000*%
%ADD14R,1.100000X1.000000*%
%ADD15R,1.200000X1.200000*%
%ADD16R,1.700000X0.300000*%
%ADD17R,1.700000X0.600000*%
%ADD18C,1.000000*%
%ADD19C,2.250000*%
%ADD20R,1.300000X1.500000*%
%ADD21R,1.086800X0.986800*%
%ADD22R,1.500000X1.500000*%
%ADD23R,1.500000X1.300000*%
%ADD24R,0.990000X0.690000*%
%ADD25R,1.400000X1.000000*%
%ADD26C,0.254000*%
%ADD27C,0.500000*%
%ADD28C,0.550000*%
%ADD29C,0.508000*%

G36*
X277848Y2016D02*
X277848Y2016D01*
X277967Y2023D01*
X278005Y2036D01*
X278046Y2041D01*
X278156Y2084D01*
X278269Y2121D01*
X278304Y2143D01*
X278341Y2158D01*
X278437Y2227D01*
X278538Y2291D01*
X278566Y2321D01*
X278599Y2344D01*
X278675Y2436D01*
X278756Y2523D01*
X278776Y2558D01*
X278801Y2589D01*
X278852Y2697D01*
X278910Y2801D01*
X278920Y2841D01*
X278937Y2877D01*
X278959Y2994D01*
X278989Y3109D01*
X278993Y3169D01*
X278997Y3189D01*
X278995Y3210D01*
X278999Y3270D01*
X278999Y6450D01*
X281050Y8501D01*
X282264Y8501D01*
X282362Y8513D01*
X282461Y8516D01*
X282519Y8533D01*
X282579Y8541D01*
X282671Y8577D01*
X282766Y8605D01*
X282819Y8635D01*
X282875Y8658D01*
X282955Y8716D01*
X283040Y8766D01*
X283116Y8832D01*
X283132Y8844D01*
X283140Y8854D01*
X283161Y8872D01*
X288628Y14339D01*
X288688Y14417D01*
X288756Y14489D01*
X288785Y14542D01*
X288822Y14590D01*
X288862Y14681D01*
X288910Y14768D01*
X288925Y14826D01*
X288949Y14882D01*
X288964Y14980D01*
X288989Y15076D01*
X288995Y15176D01*
X288999Y15196D01*
X288997Y15208D01*
X288999Y15236D01*
X288999Y27915D01*
X289585Y28501D01*
X305415Y28501D01*
X306001Y27915D01*
X306001Y12085D01*
X305415Y11499D01*
X292736Y11499D01*
X292638Y11487D01*
X292539Y11484D01*
X292481Y11467D01*
X292421Y11459D01*
X292329Y11423D01*
X292234Y11395D01*
X292181Y11365D01*
X292125Y11342D01*
X292045Y11284D01*
X291960Y11234D01*
X291884Y11168D01*
X291868Y11156D01*
X291860Y11146D01*
X291839Y11128D01*
X286372Y5661D01*
X286312Y5583D01*
X286244Y5511D01*
X286215Y5458D01*
X286178Y5410D01*
X286138Y5319D01*
X286090Y5232D01*
X286075Y5174D01*
X286051Y5118D01*
X286036Y5020D01*
X286011Y4924D01*
X286005Y4824D01*
X286001Y4804D01*
X286003Y4792D01*
X286001Y4764D01*
X286001Y3270D01*
X286016Y3152D01*
X286023Y3033D01*
X286036Y2995D01*
X286041Y2954D01*
X286084Y2844D01*
X286121Y2731D01*
X286143Y2696D01*
X286158Y2659D01*
X286227Y2563D01*
X286291Y2462D01*
X286321Y2434D01*
X286344Y2401D01*
X286436Y2325D01*
X286523Y2244D01*
X286558Y2224D01*
X286589Y2199D01*
X286697Y2148D01*
X286801Y2090D01*
X286841Y2080D01*
X286877Y2063D01*
X286994Y2041D01*
X287109Y2011D01*
X287169Y2007D01*
X287189Y2003D01*
X287210Y2005D01*
X287270Y2001D01*
X390000Y2001D01*
X390022Y2003D01*
X390100Y2005D01*
X392717Y2211D01*
X392784Y2225D01*
X392853Y2229D01*
X393009Y2269D01*
X397987Y3886D01*
X398095Y3937D01*
X398205Y3980D01*
X398257Y4013D01*
X398275Y4022D01*
X398291Y4035D01*
X398341Y4067D01*
X402576Y7143D01*
X402663Y7225D01*
X402754Y7300D01*
X402793Y7347D01*
X402808Y7361D01*
X402819Y7378D01*
X402857Y7424D01*
X405933Y11659D01*
X405991Y11763D01*
X406054Y11863D01*
X406077Y11919D01*
X406087Y11937D01*
X406092Y11957D01*
X406114Y12013D01*
X407731Y16991D01*
X407744Y17058D01*
X407767Y17124D01*
X407789Y17283D01*
X407995Y19900D01*
X407994Y19922D01*
X407999Y20000D01*
X407999Y180000D01*
X407997Y180022D01*
X407995Y180100D01*
X407789Y182717D01*
X407775Y182784D01*
X407771Y182853D01*
X407731Y183009D01*
X406114Y187987D01*
X406063Y188095D01*
X406020Y188205D01*
X405987Y188257D01*
X405978Y188275D01*
X405965Y188291D01*
X405933Y188341D01*
X402857Y192576D01*
X402775Y192663D01*
X402700Y192754D01*
X402653Y192793D01*
X402639Y192808D01*
X402622Y192819D01*
X402576Y192857D01*
X398341Y195933D01*
X398237Y195991D01*
X398137Y196054D01*
X398081Y196077D01*
X398063Y196087D01*
X398043Y196092D01*
X397987Y196114D01*
X393009Y197731D01*
X392942Y197744D01*
X392876Y197767D01*
X392717Y197789D01*
X390100Y197995D01*
X390078Y197994D01*
X390000Y197999D01*
X20000Y197999D01*
X19978Y197997D01*
X19900Y197995D01*
X17283Y197789D01*
X17216Y197775D01*
X17147Y197771D01*
X16991Y197731D01*
X12013Y196114D01*
X11905Y196063D01*
X11795Y196020D01*
X11743Y195987D01*
X11725Y195978D01*
X11709Y195965D01*
X11659Y195933D01*
X7424Y192857D01*
X7337Y192775D01*
X7246Y192700D01*
X7207Y192653D01*
X7192Y192639D01*
X7181Y192622D01*
X7143Y192576D01*
X4067Y188341D01*
X4009Y188237D01*
X3946Y188137D01*
X3923Y188081D01*
X3913Y188063D01*
X3908Y188043D01*
X3886Y187987D01*
X2269Y183009D01*
X2256Y182942D01*
X2233Y182876D01*
X2211Y182717D01*
X2005Y180100D01*
X2006Y180078D01*
X2001Y180000D01*
X2001Y20000D01*
X2003Y19978D01*
X2005Y19900D01*
X2211Y17283D01*
X2225Y17216D01*
X2229Y17147D01*
X2269Y16991D01*
X3886Y12013D01*
X3937Y11905D01*
X3980Y11795D01*
X4013Y11743D01*
X4022Y11725D01*
X4035Y11709D01*
X4067Y11659D01*
X7143Y7424D01*
X7225Y7337D01*
X7300Y7246D01*
X7347Y7207D01*
X7361Y7192D01*
X7378Y7181D01*
X7424Y7143D01*
X11659Y4067D01*
X11763Y4009D01*
X11863Y3946D01*
X11919Y3923D01*
X11937Y3913D01*
X11957Y3908D01*
X12012Y3886D01*
X16991Y2269D01*
X17058Y2256D01*
X17124Y2233D01*
X17283Y2211D01*
X19900Y2005D01*
X19922Y2006D01*
X20000Y2001D01*
X277730Y2001D01*
X277848Y2016D01*
G37*
%LPC*%
G36*
X338059Y32729D02*
X338059Y32729D01*
X336358Y34431D01*
X331161Y39628D01*
X331083Y39688D01*
X331011Y39756D01*
X330958Y39785D01*
X330910Y39822D01*
X330819Y39862D01*
X330732Y39910D01*
X330674Y39925D01*
X330618Y39949D01*
X330520Y39964D01*
X330424Y39989D01*
X330324Y39995D01*
X330304Y39999D01*
X330292Y39997D01*
X330264Y39999D01*
X322085Y39999D01*
X321499Y40585D01*
X321499Y52415D01*
X322085Y53001D01*
X330264Y53001D01*
X330362Y53013D01*
X330461Y53016D01*
X330519Y53033D01*
X330579Y53041D01*
X330671Y53077D01*
X330766Y53105D01*
X330819Y53135D01*
X330875Y53158D01*
X330955Y53216D01*
X331040Y53266D01*
X331116Y53332D01*
X331132Y53344D01*
X331140Y53354D01*
X331161Y53372D01*
X332621Y54833D01*
X332706Y54942D01*
X332795Y55049D01*
X332804Y55068D01*
X332816Y55084D01*
X332872Y55212D01*
X332931Y55337D01*
X332934Y55357D01*
X332943Y55376D01*
X332964Y55514D01*
X332990Y55650D01*
X332989Y55670D01*
X332992Y55690D01*
X332979Y55829D01*
X332971Y55967D01*
X332964Y55986D01*
X332963Y56006D01*
X332915Y56138D01*
X332873Y56269D01*
X332862Y56287D01*
X332855Y56306D01*
X332777Y56421D01*
X332702Y56538D01*
X332688Y56552D01*
X332676Y56569D01*
X332572Y56661D01*
X332471Y56756D01*
X332453Y56766D01*
X332438Y56779D01*
X332314Y56842D01*
X332192Y56910D01*
X332173Y56915D01*
X332155Y56924D01*
X332019Y56954D01*
X331884Y56989D01*
X331856Y56991D01*
X331844Y56994D01*
X331824Y56993D01*
X331724Y56999D01*
X322085Y56999D01*
X321499Y57585D01*
X321499Y65764D01*
X321487Y65862D01*
X321484Y65961D01*
X321467Y66019D01*
X321459Y66079D01*
X321423Y66171D01*
X321395Y66266D01*
X321365Y66319D01*
X321342Y66375D01*
X321284Y66455D01*
X321234Y66540D01*
X321168Y66616D01*
X321156Y66632D01*
X321146Y66640D01*
X321127Y66661D01*
X320229Y67559D01*
X320229Y69294D01*
X320217Y69392D01*
X320214Y69491D01*
X320197Y69550D01*
X320189Y69610D01*
X320153Y69702D01*
X320125Y69797D01*
X320095Y69849D01*
X320072Y69905D01*
X320014Y69985D01*
X319964Y70071D01*
X319898Y70146D01*
X319886Y70163D01*
X319876Y70171D01*
X319858Y70192D01*
X318999Y71050D01*
X318999Y73950D01*
X321050Y76001D01*
X323950Y76001D01*
X326001Y73950D01*
X326001Y71270D01*
X326016Y71152D01*
X326023Y71033D01*
X326036Y70995D01*
X326041Y70954D01*
X326084Y70844D01*
X326121Y70731D01*
X326143Y70696D01*
X326158Y70659D01*
X326227Y70563D01*
X326291Y70462D01*
X326321Y70434D01*
X326344Y70401D01*
X326436Y70325D01*
X326523Y70244D01*
X326558Y70224D01*
X326589Y70199D01*
X326697Y70148D01*
X326801Y70090D01*
X326841Y70080D01*
X326877Y70063D01*
X326994Y70041D01*
X327109Y70011D01*
X327169Y70007D01*
X327189Y70003D01*
X327210Y70005D01*
X327270Y70001D01*
X327730Y70001D01*
X327848Y70016D01*
X327967Y70023D01*
X328005Y70036D01*
X328046Y70041D01*
X328156Y70084D01*
X328269Y70121D01*
X328304Y70143D01*
X328341Y70158D01*
X328437Y70227D01*
X328538Y70291D01*
X328566Y70321D01*
X328599Y70344D01*
X328675Y70436D01*
X328756Y70523D01*
X328776Y70558D01*
X328801Y70589D01*
X328852Y70697D01*
X328910Y70801D01*
X328920Y70841D01*
X328937Y70877D01*
X328959Y70994D01*
X328989Y71109D01*
X328993Y71169D01*
X328997Y71189D01*
X328995Y71210D01*
X328999Y71270D01*
X328999Y73950D01*
X331050Y76001D01*
X333950Y76001D01*
X335563Y74388D01*
X335672Y74303D01*
X335779Y74214D01*
X335798Y74206D01*
X335814Y74193D01*
X335942Y74138D01*
X336067Y74079D01*
X336087Y74075D01*
X336106Y74067D01*
X336244Y74045D01*
X336380Y74019D01*
X336400Y74020D01*
X336420Y74017D01*
X336559Y74030D01*
X336697Y74039D01*
X336716Y74045D01*
X336736Y74047D01*
X336868Y74094D01*
X336999Y74137D01*
X337017Y74148D01*
X337036Y74155D01*
X337151Y74233D01*
X337268Y74307D01*
X337282Y74322D01*
X337299Y74333D01*
X337391Y74437D01*
X337486Y74539D01*
X337496Y74556D01*
X337509Y74572D01*
X337573Y74696D01*
X337640Y74817D01*
X337645Y74837D01*
X337654Y74855D01*
X337684Y74991D01*
X337719Y75125D01*
X337721Y75153D01*
X337724Y75165D01*
X337723Y75186D01*
X337729Y75286D01*
X337729Y102534D01*
X337717Y102632D01*
X337714Y102731D01*
X337697Y102789D01*
X337689Y102849D01*
X337653Y102941D01*
X337625Y103036D01*
X337595Y103089D01*
X337572Y103145D01*
X337514Y103225D01*
X337464Y103310D01*
X337398Y103386D01*
X337386Y103402D01*
X337376Y103410D01*
X337358Y103431D01*
X334161Y106628D01*
X334083Y106688D01*
X334011Y106756D01*
X333958Y106785D01*
X333910Y106822D01*
X333819Y106862D01*
X333732Y106910D01*
X333674Y106925D01*
X333618Y106949D01*
X333520Y106964D01*
X333424Y106989D01*
X333324Y106995D01*
X333304Y106999D01*
X333292Y106997D01*
X333264Y106999D01*
X321085Y106999D01*
X320499Y107585D01*
X320499Y115764D01*
X320487Y115862D01*
X320484Y115961D01*
X320467Y116019D01*
X320459Y116079D01*
X320423Y116171D01*
X320395Y116266D01*
X320365Y116319D01*
X320342Y116375D01*
X320284Y116455D01*
X320234Y116540D01*
X320168Y116616D01*
X320156Y116632D01*
X320146Y116640D01*
X320128Y116661D01*
X316931Y119857D01*
X316668Y120121D01*
X316558Y120206D01*
X316451Y120295D01*
X316432Y120304D01*
X316416Y120316D01*
X316289Y120371D01*
X316163Y120431D01*
X316143Y120434D01*
X316124Y120442D01*
X315987Y120464D01*
X315850Y120490D01*
X315830Y120489D01*
X315810Y120492D01*
X315672Y120479D01*
X315533Y120471D01*
X315514Y120464D01*
X315494Y120463D01*
X315363Y120415D01*
X315231Y120373D01*
X315213Y120362D01*
X315194Y120355D01*
X315079Y120277D01*
X314962Y120202D01*
X314948Y120188D01*
X314931Y120176D01*
X314839Y120072D01*
X314744Y119971D01*
X314734Y119953D01*
X314721Y119938D01*
X314658Y119814D01*
X314590Y119692D01*
X314585Y119673D01*
X314576Y119655D01*
X314546Y119519D01*
X314511Y119384D01*
X314509Y119356D01*
X314506Y119344D01*
X314507Y119324D01*
X314501Y119224D01*
X314501Y117085D01*
X313915Y116499D01*
X299085Y116499D01*
X298499Y117085D01*
X298499Y127915D01*
X299085Y128501D01*
X305460Y128501D01*
X305578Y128516D01*
X305697Y128523D01*
X305735Y128536D01*
X305776Y128541D01*
X305886Y128584D01*
X305999Y128621D01*
X306034Y128643D01*
X306071Y128658D01*
X306167Y128727D01*
X306268Y128791D01*
X306296Y128821D01*
X306329Y128844D01*
X306405Y128936D01*
X306486Y129023D01*
X306506Y129058D01*
X306531Y129089D01*
X306582Y129197D01*
X306640Y129301D01*
X306650Y129341D01*
X306667Y129377D01*
X306689Y129494D01*
X306719Y129609D01*
X306723Y129669D01*
X306727Y129689D01*
X306725Y129710D01*
X306729Y129770D01*
X306729Y138941D01*
X318128Y150339D01*
X318188Y150417D01*
X318256Y150489D01*
X318285Y150542D01*
X318322Y150590D01*
X318362Y150681D01*
X318410Y150768D01*
X318425Y150826D01*
X318449Y150882D01*
X318464Y150980D01*
X318489Y151076D01*
X318495Y151176D01*
X318499Y151196D01*
X318497Y151208D01*
X318499Y151236D01*
X318499Y159415D01*
X319085Y160001D01*
X330915Y160001D01*
X331501Y159415D01*
X331501Y150276D01*
X331518Y150139D01*
X331531Y150000D01*
X331538Y149981D01*
X331541Y149961D01*
X331592Y149832D01*
X331639Y149701D01*
X331650Y149684D01*
X331658Y149665D01*
X331739Y149553D01*
X331817Y149437D01*
X331833Y149424D01*
X331844Y149408D01*
X331952Y149319D01*
X332056Y149227D01*
X332074Y149218D01*
X332089Y149205D01*
X332215Y149146D01*
X332339Y149082D01*
X332359Y149078D01*
X332377Y149069D01*
X332513Y149043D01*
X332649Y149013D01*
X332670Y149013D01*
X332689Y149010D01*
X332828Y149018D01*
X332967Y149022D01*
X332987Y149028D01*
X333007Y149029D01*
X333139Y149072D01*
X333273Y149111D01*
X333290Y149121D01*
X333309Y149127D01*
X333427Y149202D01*
X333547Y149272D01*
X333568Y149291D01*
X333578Y149298D01*
X333592Y149313D01*
X333667Y149379D01*
X337358Y153069D01*
X337418Y153147D01*
X337486Y153219D01*
X337515Y153272D01*
X337552Y153320D01*
X337592Y153411D01*
X337640Y153498D01*
X337655Y153556D01*
X337679Y153612D01*
X337694Y153710D01*
X337719Y153806D01*
X337725Y153906D01*
X337729Y153926D01*
X337727Y153938D01*
X337729Y153966D01*
X337729Y186034D01*
X337717Y186132D01*
X337714Y186231D01*
X337697Y186289D01*
X337689Y186349D01*
X337653Y186441D01*
X337625Y186536D01*
X337603Y186575D01*
X337601Y186581D01*
X337592Y186594D01*
X337572Y186645D01*
X337514Y186725D01*
X337464Y186810D01*
X337434Y186844D01*
X337430Y186850D01*
X337421Y186859D01*
X337398Y186886D01*
X337386Y186902D01*
X337376Y186910D01*
X337358Y186931D01*
X334431Y189858D01*
X334353Y189918D01*
X334281Y189986D01*
X334228Y190015D01*
X334180Y190052D01*
X334089Y190092D01*
X334002Y190140D01*
X333944Y190155D01*
X333888Y190179D01*
X333790Y190194D01*
X333694Y190219D01*
X333594Y190225D01*
X333574Y190229D01*
X333562Y190227D01*
X333534Y190229D01*
X260639Y190229D01*
X260501Y190212D01*
X260363Y190199D01*
X260344Y190192D01*
X260324Y190189D01*
X260194Y190138D01*
X260064Y190091D01*
X260047Y190080D01*
X260028Y190072D01*
X259916Y189991D01*
X259800Y189913D01*
X259787Y189897D01*
X259771Y189886D01*
X259682Y189779D01*
X259590Y189674D01*
X259581Y189656D01*
X259568Y189641D01*
X259509Y189515D01*
X259445Y189391D01*
X259441Y189371D01*
X259432Y189353D01*
X259406Y189217D01*
X259376Y189081D01*
X259376Y189060D01*
X259373Y189041D01*
X259381Y188901D01*
X259385Y188763D01*
X259391Y188743D01*
X259392Y188723D01*
X259435Y188591D01*
X259474Y188457D01*
X259484Y188440D01*
X259490Y188421D01*
X259565Y188303D01*
X259635Y188183D01*
X259654Y188162D01*
X259661Y188152D01*
X259675Y188138D01*
X259742Y188062D01*
X260162Y187642D01*
X260240Y187582D01*
X260312Y187514D01*
X260365Y187485D01*
X260413Y187448D01*
X260504Y187408D01*
X260591Y187360D01*
X260649Y187345D01*
X260705Y187321D01*
X260803Y187306D01*
X260899Y187281D01*
X260999Y187275D01*
X261019Y187271D01*
X261031Y187273D01*
X261059Y187271D01*
X311941Y187271D01*
X321839Y177372D01*
X321917Y177312D01*
X321989Y177244D01*
X322042Y177215D01*
X322090Y177178D01*
X322181Y177138D01*
X322268Y177090D01*
X322326Y177075D01*
X322382Y177051D01*
X322480Y177036D01*
X322576Y177011D01*
X322676Y177005D01*
X322696Y177001D01*
X322708Y177003D01*
X322736Y177001D01*
X330915Y177001D01*
X331501Y176415D01*
X331501Y165585D01*
X330915Y164999D01*
X319085Y164999D01*
X318499Y165585D01*
X318499Y173764D01*
X318487Y173862D01*
X318484Y173961D01*
X318467Y174019D01*
X318459Y174079D01*
X318423Y174171D01*
X318395Y174266D01*
X318365Y174319D01*
X318342Y174375D01*
X318284Y174455D01*
X318234Y174540D01*
X318168Y174616D01*
X318156Y174632D01*
X318146Y174640D01*
X318128Y174661D01*
X310431Y182358D01*
X310353Y182418D01*
X310281Y182486D01*
X310228Y182515D01*
X310180Y182552D01*
X310089Y182592D01*
X310002Y182640D01*
X309944Y182655D01*
X309888Y182679D01*
X309790Y182694D01*
X309694Y182719D01*
X309594Y182725D01*
X309574Y182729D01*
X309562Y182727D01*
X309534Y182729D01*
X261059Y182729D01*
X260961Y182717D01*
X260862Y182714D01*
X260804Y182697D01*
X260744Y182689D01*
X260652Y182653D01*
X260557Y182625D01*
X260504Y182595D01*
X260448Y182572D01*
X260368Y182514D01*
X260283Y182464D01*
X260207Y182398D01*
X260191Y182386D01*
X260183Y182376D01*
X260162Y182358D01*
X259054Y181249D01*
X255946Y181249D01*
X253749Y183446D01*
X253749Y186554D01*
X255258Y188063D01*
X255343Y188172D01*
X255432Y188279D01*
X255441Y188298D01*
X255453Y188314D01*
X255509Y188442D01*
X255568Y188567D01*
X255571Y188587D01*
X255579Y188606D01*
X255601Y188744D01*
X255627Y188880D01*
X255626Y188900D01*
X255629Y188920D01*
X255616Y189059D01*
X255608Y189197D01*
X255601Y189216D01*
X255600Y189236D01*
X255552Y189368D01*
X255510Y189499D01*
X255499Y189517D01*
X255492Y189536D01*
X255414Y189651D01*
X255339Y189768D01*
X255325Y189782D01*
X255313Y189799D01*
X255209Y189891D01*
X255108Y189986D01*
X255090Y189996D01*
X255075Y190009D01*
X254951Y190073D01*
X254829Y190140D01*
X254810Y190145D01*
X254792Y190154D01*
X254656Y190184D01*
X254521Y190219D01*
X254493Y190221D01*
X254481Y190224D01*
X254461Y190223D01*
X254361Y190229D01*
X167466Y190229D01*
X167368Y190217D01*
X167269Y190214D01*
X167211Y190197D01*
X167151Y190189D01*
X167059Y190153D01*
X166964Y190125D01*
X166911Y190095D01*
X166855Y190072D01*
X166775Y190014D01*
X166690Y189964D01*
X166614Y189898D01*
X166598Y189886D01*
X166590Y189876D01*
X166569Y189858D01*
X160372Y183661D01*
X160312Y183583D01*
X160244Y183511D01*
X160215Y183458D01*
X160178Y183410D01*
X160138Y183319D01*
X160090Y183232D01*
X160075Y183174D01*
X160051Y183118D01*
X160036Y183020D01*
X160011Y182924D01*
X160005Y182824D01*
X160001Y182804D01*
X160003Y182792D01*
X160001Y182764D01*
X160001Y174585D01*
X159415Y173999D01*
X157040Y173999D01*
X156922Y173984D01*
X156803Y173977D01*
X156765Y173964D01*
X156724Y173959D01*
X156614Y173916D01*
X156501Y173879D01*
X156466Y173857D01*
X156429Y173842D01*
X156332Y173772D01*
X156232Y173709D01*
X156204Y173679D01*
X156171Y173656D01*
X156095Y173564D01*
X156014Y173477D01*
X155994Y173442D01*
X155969Y173411D01*
X155918Y173303D01*
X155860Y173199D01*
X155850Y173159D01*
X155833Y173123D01*
X155811Y173006D01*
X155781Y172891D01*
X155777Y172831D01*
X155773Y172811D01*
X155775Y172790D01*
X155771Y172730D01*
X155771Y171059D01*
X151372Y166661D01*
X151312Y166583D01*
X151244Y166511D01*
X151215Y166458D01*
X151178Y166410D01*
X151138Y166319D01*
X151090Y166232D01*
X151075Y166174D01*
X151051Y166118D01*
X151036Y166020D01*
X151011Y165924D01*
X151005Y165824D01*
X151001Y165804D01*
X151003Y165792D01*
X151001Y165764D01*
X151001Y157585D01*
X150415Y156999D01*
X139585Y156999D01*
X138999Y157585D01*
X138999Y165631D01*
X138982Y165769D01*
X138969Y165907D01*
X138962Y165926D01*
X138959Y165946D01*
X138908Y166075D01*
X138861Y166207D01*
X138850Y166223D01*
X138842Y166242D01*
X138761Y166354D01*
X138682Y166470D01*
X138667Y166483D01*
X138656Y166499D01*
X138548Y166588D01*
X138444Y166680D01*
X138426Y166689D01*
X138411Y166702D01*
X138285Y166761D01*
X138161Y166825D01*
X138141Y166829D01*
X138123Y166838D01*
X137987Y166864D01*
X137850Y166894D01*
X137830Y166894D01*
X137811Y166897D01*
X137672Y166889D01*
X137532Y166884D01*
X137513Y166879D01*
X137493Y166878D01*
X137411Y166851D01*
X135220Y166851D01*
X135102Y166836D01*
X134983Y166829D01*
X134945Y166816D01*
X134904Y166811D01*
X134794Y166767D01*
X134681Y166731D01*
X134646Y166709D01*
X134609Y166694D01*
X134513Y166624D01*
X134412Y166560D01*
X134384Y166531D01*
X134351Y166507D01*
X134275Y166415D01*
X134194Y166329D01*
X134174Y166293D01*
X134149Y166262D01*
X134098Y166155D01*
X134040Y166050D01*
X134030Y166011D01*
X134013Y165975D01*
X133991Y165858D01*
X133961Y165742D01*
X133957Y165682D01*
X133953Y165662D01*
X133955Y165642D01*
X133951Y165582D01*
X133951Y160635D01*
X133365Y160049D01*
X131040Y160049D01*
X130922Y160034D01*
X130803Y160027D01*
X130765Y160014D01*
X130724Y160009D01*
X130614Y159966D01*
X130501Y159929D01*
X130466Y159907D01*
X130429Y159892D01*
X130333Y159823D01*
X130232Y159759D01*
X130204Y159729D01*
X130171Y159706D01*
X130095Y159614D01*
X130014Y159527D01*
X129994Y159492D01*
X129969Y159461D01*
X129918Y159353D01*
X129860Y159249D01*
X129850Y159209D01*
X129833Y159173D01*
X129811Y159056D01*
X129781Y158941D01*
X129777Y158881D01*
X129773Y158861D01*
X129775Y158840D01*
X129771Y158780D01*
X129771Y158559D01*
X129783Y158461D01*
X129786Y158362D01*
X129803Y158304D01*
X129811Y158244D01*
X129847Y158152D01*
X129875Y158057D01*
X129905Y158004D01*
X129928Y157948D01*
X129986Y157868D01*
X130036Y157783D01*
X130102Y157707D01*
X130114Y157691D01*
X130124Y157683D01*
X130142Y157662D01*
X131251Y156554D01*
X131251Y153446D01*
X129922Y152117D01*
X129837Y152008D01*
X129748Y151901D01*
X129739Y151882D01*
X129727Y151866D01*
X129671Y151738D01*
X129612Y151613D01*
X129609Y151593D01*
X129601Y151574D01*
X129579Y151436D01*
X129553Y151300D01*
X129554Y151280D01*
X129551Y151260D01*
X129564Y151121D01*
X129572Y150983D01*
X129579Y150964D01*
X129580Y150944D01*
X129628Y150812D01*
X129670Y150681D01*
X129681Y150663D01*
X129688Y150644D01*
X129766Y150529D01*
X129841Y150412D01*
X129855Y150398D01*
X129867Y150381D01*
X129971Y150289D01*
X130072Y150194D01*
X130090Y150184D01*
X130105Y150171D01*
X130229Y150107D01*
X130351Y150040D01*
X130370Y150035D01*
X130388Y150026D01*
X130524Y149996D01*
X130659Y149961D01*
X130687Y149959D01*
X130699Y149956D01*
X130719Y149957D01*
X130819Y149951D01*
X133365Y149951D01*
X133951Y149365D01*
X133951Y141635D01*
X133365Y141049D01*
X122635Y141049D01*
X122049Y141635D01*
X122049Y149365D01*
X122635Y149951D01*
X124181Y149951D01*
X124318Y149968D01*
X124457Y149981D01*
X124476Y149988D01*
X124496Y149991D01*
X124625Y150042D01*
X124756Y150089D01*
X124773Y150100D01*
X124792Y150108D01*
X124904Y150189D01*
X125019Y150267D01*
X125033Y150283D01*
X125049Y150294D01*
X125138Y150402D01*
X125230Y150506D01*
X125239Y150524D01*
X125252Y150539D01*
X125311Y150665D01*
X125375Y150789D01*
X125379Y150809D01*
X125388Y150827D01*
X125414Y150964D01*
X125444Y151099D01*
X125444Y151120D01*
X125447Y151139D01*
X125439Y151277D01*
X125435Y151417D01*
X125429Y151437D01*
X125428Y151457D01*
X125385Y151589D01*
X125346Y151723D01*
X125336Y151740D01*
X125330Y151759D01*
X125255Y151877D01*
X125185Y151997D01*
X125166Y152018D01*
X125159Y152028D01*
X125144Y152042D01*
X125078Y152117D01*
X123749Y153446D01*
X123749Y156554D01*
X124858Y157662D01*
X124918Y157740D01*
X124986Y157812D01*
X125015Y157865D01*
X125052Y157913D01*
X125092Y158004D01*
X125140Y158091D01*
X125155Y158149D01*
X125179Y158205D01*
X125194Y158303D01*
X125219Y158399D01*
X125225Y158499D01*
X125229Y158519D01*
X125227Y158531D01*
X125229Y158559D01*
X125229Y158780D01*
X125214Y158898D01*
X125207Y159017D01*
X125194Y159055D01*
X125189Y159096D01*
X125146Y159206D01*
X125109Y159319D01*
X125087Y159354D01*
X125072Y159391D01*
X125003Y159487D01*
X124939Y159588D01*
X124909Y159616D01*
X124886Y159649D01*
X124794Y159725D01*
X124707Y159806D01*
X124672Y159826D01*
X124641Y159851D01*
X124533Y159902D01*
X124429Y159960D01*
X124389Y159970D01*
X124353Y159987D01*
X124236Y160009D01*
X124121Y160039D01*
X124061Y160043D01*
X124041Y160047D01*
X124020Y160045D01*
X123960Y160049D01*
X122635Y160049D01*
X122049Y160635D01*
X122049Y168365D01*
X122635Y168951D01*
X130582Y168951D01*
X130700Y168966D01*
X130819Y168973D01*
X130857Y168986D01*
X130897Y168991D01*
X131008Y169034D01*
X131121Y169071D01*
X131155Y169093D01*
X131193Y169108D01*
X131289Y169177D01*
X131390Y169241D01*
X131418Y169271D01*
X131450Y169294D01*
X131526Y169386D01*
X131608Y169473D01*
X131627Y169508D01*
X131653Y169539D01*
X131704Y169647D01*
X131761Y169751D01*
X131771Y169791D01*
X131789Y169827D01*
X131811Y169944D01*
X131841Y170059D01*
X131845Y170119D01*
X131848Y170139D01*
X131847Y170160D01*
X131851Y170220D01*
X131851Y172385D01*
X131871Y172513D01*
X131897Y172650D01*
X131896Y172670D01*
X131899Y172689D01*
X131886Y172828D01*
X131878Y172967D01*
X131871Y172986D01*
X131870Y173006D01*
X131822Y173137D01*
X131780Y173269D01*
X131769Y173286D01*
X131762Y173305D01*
X131684Y173421D01*
X131609Y173538D01*
X131595Y173552D01*
X131584Y173568D01*
X131479Y173660D01*
X131378Y173756D01*
X131360Y173766D01*
X131345Y173779D01*
X131221Y173842D01*
X131099Y173910D01*
X131080Y173915D01*
X131062Y173924D01*
X130926Y173954D01*
X130791Y173989D01*
X130764Y173991D01*
X130752Y173993D01*
X130731Y173993D01*
X130631Y173999D01*
X130585Y173999D01*
X129999Y174585D01*
X129999Y175230D01*
X129984Y175348D01*
X129977Y175467D01*
X129964Y175505D01*
X129959Y175546D01*
X129916Y175656D01*
X129879Y175769D01*
X129857Y175804D01*
X129842Y175841D01*
X129773Y175937D01*
X129709Y176038D01*
X129679Y176066D01*
X129656Y176099D01*
X129564Y176175D01*
X129477Y176256D01*
X129442Y176276D01*
X129411Y176301D01*
X129303Y176352D01*
X129199Y176410D01*
X129159Y176420D01*
X129123Y176437D01*
X129006Y176459D01*
X128891Y176489D01*
X128831Y176493D01*
X128811Y176497D01*
X128790Y176495D01*
X128730Y176499D01*
X126050Y176499D01*
X123999Y178550D01*
X123999Y181450D01*
X126050Y183501D01*
X128730Y183501D01*
X128848Y183516D01*
X128967Y183523D01*
X129005Y183536D01*
X129046Y183541D01*
X129156Y183584D01*
X129269Y183621D01*
X129304Y183643D01*
X129341Y183658D01*
X129437Y183727D01*
X129538Y183791D01*
X129566Y183821D01*
X129599Y183844D01*
X129675Y183936D01*
X129756Y184023D01*
X129776Y184058D01*
X129801Y184089D01*
X129852Y184197D01*
X129910Y184301D01*
X129920Y184341D01*
X129937Y184377D01*
X129959Y184494D01*
X129989Y184609D01*
X129993Y184669D01*
X129997Y184689D01*
X129997Y184692D01*
X129996Y184711D01*
X129999Y184770D01*
X129999Y185415D01*
X130585Y186001D01*
X142415Y186001D01*
X143001Y185415D01*
X143001Y174585D01*
X142415Y173999D01*
X140980Y173999D01*
X140842Y173982D01*
X140703Y173969D01*
X140684Y173962D01*
X140664Y173959D01*
X140534Y173908D01*
X140404Y173861D01*
X140387Y173850D01*
X140368Y173842D01*
X140256Y173761D01*
X140141Y173683D01*
X140127Y173667D01*
X140111Y173656D01*
X140022Y173548D01*
X139930Y173444D01*
X139921Y173426D01*
X139908Y173411D01*
X139849Y173285D01*
X139786Y173161D01*
X139781Y173141D01*
X139773Y173123D01*
X139747Y172986D01*
X139716Y172851D01*
X139717Y172830D01*
X139713Y172811D01*
X139722Y172672D01*
X139726Y172533D01*
X139731Y172513D01*
X139733Y172493D01*
X139775Y172361D01*
X139814Y172227D01*
X139824Y172210D01*
X139831Y172191D01*
X139905Y172073D01*
X139976Y171953D01*
X139994Y171932D01*
X140001Y171922D01*
X140016Y171908D01*
X140082Y171832D01*
X140744Y171170D01*
X141542Y170372D01*
X141620Y170312D01*
X141693Y170244D01*
X141746Y170215D01*
X141793Y170178D01*
X141884Y170138D01*
X141971Y170090D01*
X142030Y170075D01*
X142085Y170051D01*
X142183Y170036D01*
X142279Y170011D01*
X142379Y170005D01*
X142399Y170001D01*
X142412Y170003D01*
X142440Y170001D01*
X147764Y170001D01*
X147862Y170013D01*
X147961Y170016D01*
X148019Y170033D01*
X148079Y170041D01*
X148171Y170077D01*
X148266Y170105D01*
X148319Y170135D01*
X148375Y170158D01*
X148455Y170216D01*
X148540Y170266D01*
X148616Y170332D01*
X148632Y170344D01*
X148640Y170354D01*
X148661Y170372D01*
X150121Y171833D01*
X150206Y171942D01*
X150295Y172049D01*
X150304Y172068D01*
X150316Y172084D01*
X150371Y172211D01*
X150431Y172337D01*
X150434Y172357D01*
X150443Y172376D01*
X150464Y172514D01*
X150490Y172650D01*
X150489Y172670D01*
X150492Y172690D01*
X150479Y172829D01*
X150471Y172967D01*
X150464Y172986D01*
X150463Y173006D01*
X150415Y173138D01*
X150373Y173269D01*
X150362Y173287D01*
X150355Y173306D01*
X150277Y173421D01*
X150202Y173538D01*
X150188Y173552D01*
X150176Y173569D01*
X150072Y173661D01*
X149971Y173756D01*
X149953Y173766D01*
X149938Y173779D01*
X149814Y173843D01*
X149692Y173910D01*
X149673Y173915D01*
X149655Y173924D01*
X149519Y173954D01*
X149384Y173989D01*
X149356Y173991D01*
X149344Y173994D01*
X149324Y173993D01*
X149224Y173999D01*
X147585Y173999D01*
X146999Y174585D01*
X146999Y185415D01*
X147585Y186001D01*
X155764Y186001D01*
X155862Y186013D01*
X155961Y186016D01*
X156019Y186033D01*
X156079Y186041D01*
X156171Y186077D01*
X156266Y186105D01*
X156319Y186135D01*
X156375Y186158D01*
X156455Y186216D01*
X156540Y186266D01*
X156616Y186332D01*
X156632Y186344D01*
X156640Y186354D01*
X156661Y186372D01*
X165059Y194771D01*
X335941Y194771D01*
X342271Y188441D01*
X342271Y151559D01*
X333441Y142729D01*
X326466Y142729D01*
X326368Y142717D01*
X326269Y142714D01*
X326211Y142697D01*
X326151Y142689D01*
X326059Y142653D01*
X325964Y142625D01*
X325911Y142595D01*
X325855Y142572D01*
X325775Y142514D01*
X325690Y142464D01*
X325614Y142398D01*
X325598Y142386D01*
X325590Y142376D01*
X325569Y142358D01*
X323379Y140167D01*
X323294Y140058D01*
X323205Y139951D01*
X323196Y139932D01*
X323184Y139916D01*
X323128Y139788D01*
X323069Y139663D01*
X323066Y139643D01*
X323057Y139624D01*
X323036Y139486D01*
X323010Y139350D01*
X323011Y139330D01*
X323008Y139310D01*
X323021Y139171D01*
X323029Y139033D01*
X323036Y139014D01*
X323037Y138994D01*
X323085Y138862D01*
X323127Y138731D01*
X323138Y138713D01*
X323145Y138694D01*
X323223Y138579D01*
X323298Y138462D01*
X323312Y138448D01*
X323324Y138431D01*
X323428Y138339D01*
X323529Y138244D01*
X323547Y138234D01*
X323562Y138221D01*
X323686Y138157D01*
X323808Y138090D01*
X323827Y138085D01*
X323845Y138076D01*
X323981Y138046D01*
X324116Y138011D01*
X324144Y138009D01*
X324156Y138006D01*
X324176Y138007D01*
X324276Y138001D01*
X335915Y138001D01*
X336501Y137415D01*
X336501Y135540D01*
X336516Y135422D01*
X336523Y135303D01*
X336536Y135265D01*
X336541Y135224D01*
X336584Y135114D01*
X336621Y135001D01*
X336643Y134966D01*
X336658Y134929D01*
X336727Y134833D01*
X336791Y134732D01*
X336821Y134704D01*
X336844Y134671D01*
X336936Y134595D01*
X337023Y134514D01*
X337058Y134494D01*
X337089Y134469D01*
X337197Y134418D01*
X337301Y134360D01*
X337341Y134350D01*
X337377Y134333D01*
X337494Y134311D01*
X337609Y134281D01*
X337669Y134277D01*
X337689Y134273D01*
X337710Y134275D01*
X337770Y134271D01*
X341441Y134271D01*
X347271Y128441D01*
X347271Y111466D01*
X347283Y111368D01*
X347286Y111269D01*
X347303Y111211D01*
X347311Y111151D01*
X347347Y111059D01*
X347375Y110964D01*
X347405Y110911D01*
X347428Y110855D01*
X347486Y110775D01*
X347536Y110690D01*
X347602Y110614D01*
X347614Y110598D01*
X347624Y110590D01*
X347642Y110569D01*
X348523Y109688D01*
X348562Y109658D01*
X348596Y109621D01*
X348688Y109561D01*
X348774Y109493D01*
X348820Y109474D01*
X348861Y109446D01*
X348965Y109411D01*
X349066Y109367D01*
X349115Y109359D01*
X349162Y109343D01*
X349272Y109334D01*
X349380Y109317D01*
X349430Y109322D01*
X349479Y109318D01*
X349588Y109337D01*
X349697Y109347D01*
X349744Y109364D01*
X349793Y109372D01*
X349893Y109417D01*
X349996Y109455D01*
X350037Y109482D01*
X350083Y109503D01*
X350168Y109571D01*
X350259Y109633D01*
X350292Y109670D01*
X350331Y109701D01*
X350397Y109789D01*
X350470Y109872D01*
X350492Y109916D01*
X350522Y109955D01*
X350593Y110100D01*
X351914Y113289D01*
X355361Y116736D01*
X358117Y117877D01*
X358237Y117946D01*
X358360Y118011D01*
X358375Y118025D01*
X358393Y118035D01*
X358493Y118132D01*
X358596Y118225D01*
X358607Y118242D01*
X358621Y118256D01*
X358694Y118374D01*
X358771Y118491D01*
X358777Y118510D01*
X358788Y118527D01*
X358829Y118660D01*
X358874Y118792D01*
X358875Y118812D01*
X358881Y118831D01*
X358888Y118970D01*
X358899Y119109D01*
X358896Y119129D01*
X358897Y119149D01*
X358868Y119285D01*
X358845Y119422D01*
X358836Y119441D01*
X358832Y119460D01*
X358771Y119585D01*
X358714Y119712D01*
X358701Y119728D01*
X358692Y119746D01*
X358602Y119852D01*
X358515Y119960D01*
X358499Y119973D01*
X358486Y119988D01*
X358373Y120068D01*
X358261Y120152D01*
X358236Y120164D01*
X358226Y120171D01*
X358207Y120178D01*
X358117Y120223D01*
X355361Y121364D01*
X351914Y124811D01*
X350049Y129313D01*
X350049Y134187D01*
X351914Y138689D01*
X355361Y142136D01*
X359863Y144001D01*
X364737Y144001D01*
X369239Y142136D01*
X370533Y140843D01*
X370642Y140758D01*
X370749Y140669D01*
X370768Y140660D01*
X370784Y140648D01*
X370911Y140592D01*
X371037Y140533D01*
X371057Y140529D01*
X371076Y140521D01*
X371214Y140499D01*
X371350Y140473D01*
X371370Y140475D01*
X371390Y140471D01*
X371529Y140485D01*
X371667Y140493D01*
X371686Y140499D01*
X371706Y140501D01*
X371838Y140548D01*
X371969Y140591D01*
X371987Y140602D01*
X372006Y140609D01*
X372121Y140687D01*
X372238Y140761D01*
X372252Y140776D01*
X372269Y140787D01*
X372361Y140892D01*
X372456Y140993D01*
X372466Y141011D01*
X372479Y141026D01*
X372543Y141150D01*
X372610Y141271D01*
X372615Y141291D01*
X372624Y141309D01*
X372654Y141445D01*
X372689Y141579D01*
X372691Y141607D01*
X372694Y141619D01*
X372693Y141640D01*
X372699Y141740D01*
X372699Y147034D01*
X374983Y152547D01*
X379203Y156767D01*
X384716Y159051D01*
X390684Y159051D01*
X396197Y156767D01*
X400417Y152547D01*
X402701Y147034D01*
X402701Y141066D01*
X400417Y135553D01*
X396197Y131333D01*
X395509Y131048D01*
X395466Y131023D01*
X395419Y131007D01*
X395328Y130945D01*
X395233Y130890D01*
X395197Y130856D01*
X395156Y130828D01*
X395083Y130746D01*
X395004Y130669D01*
X394978Y130627D01*
X394946Y130590D01*
X394896Y130492D01*
X394838Y130398D01*
X394824Y130351D01*
X394801Y130306D01*
X394777Y130199D01*
X394745Y130094D01*
X394742Y130044D01*
X394731Y129996D01*
X394735Y129886D01*
X394729Y129776D01*
X394739Y129728D01*
X394741Y129678D01*
X394772Y129572D01*
X394794Y129465D01*
X394816Y129420D01*
X394829Y129373D01*
X394885Y129278D01*
X394933Y129179D01*
X394966Y129141D01*
X394991Y129099D01*
X395097Y128978D01*
X398086Y125989D01*
X399951Y121487D01*
X399951Y116613D01*
X398086Y112111D01*
X394639Y108664D01*
X391883Y107523D01*
X391763Y107454D01*
X391639Y107389D01*
X391624Y107375D01*
X391607Y107365D01*
X391507Y107268D01*
X391404Y107175D01*
X391393Y107158D01*
X391378Y107144D01*
X391306Y107025D01*
X391229Y106909D01*
X391223Y106890D01*
X391212Y106873D01*
X391171Y106740D01*
X391126Y106608D01*
X391125Y106588D01*
X391119Y106569D01*
X391112Y106430D01*
X391101Y106291D01*
X391104Y106271D01*
X391104Y106251D01*
X391132Y106115D01*
X391155Y105978D01*
X391164Y105959D01*
X391168Y105940D01*
X391229Y105814D01*
X391286Y105688D01*
X391299Y105672D01*
X391308Y105654D01*
X391398Y105548D01*
X391485Y105440D01*
X391501Y105427D01*
X391514Y105412D01*
X391628Y105332D01*
X391739Y105248D01*
X391764Y105236D01*
X391774Y105229D01*
X391793Y105222D01*
X391883Y105177D01*
X394639Y104036D01*
X398086Y100589D01*
X399951Y96087D01*
X399951Y91213D01*
X398341Y87328D01*
X398334Y87299D01*
X398320Y87273D01*
X398292Y87146D01*
X398257Y87021D01*
X398257Y86992D01*
X398251Y86963D01*
X398254Y86833D01*
X398252Y86703D01*
X398259Y86675D01*
X398260Y86645D01*
X398296Y86520D01*
X398327Y86394D01*
X398340Y86368D01*
X398349Y86340D01*
X398414Y86228D01*
X398475Y86113D01*
X398495Y86091D01*
X398510Y86066D01*
X398617Y85945D01*
X403069Y81492D01*
X404771Y79791D01*
X404771Y51559D01*
X385941Y32729D01*
X338059Y32729D01*
G37*
%LPD*%
%LPC*%
G36*
X193550Y6499D02*
X193550Y6499D01*
X191499Y8550D01*
X191499Y11230D01*
X191484Y11348D01*
X191477Y11467D01*
X191464Y11505D01*
X191459Y11546D01*
X191416Y11656D01*
X191379Y11769D01*
X191357Y11804D01*
X191342Y11841D01*
X191273Y11937D01*
X191209Y12038D01*
X191179Y12066D01*
X191156Y12099D01*
X191064Y12175D01*
X190977Y12256D01*
X190942Y12276D01*
X190911Y12301D01*
X190803Y12352D01*
X190699Y12410D01*
X190659Y12420D01*
X190623Y12437D01*
X190506Y12459D01*
X190391Y12489D01*
X190331Y12493D01*
X190311Y12497D01*
X190290Y12495D01*
X190230Y12499D01*
X189585Y12499D01*
X188999Y13085D01*
X188999Y24915D01*
X189585Y25501D01*
X200414Y25501D01*
X200562Y25353D01*
X200672Y25268D01*
X200779Y25179D01*
X200798Y25170D01*
X200814Y25158D01*
X200942Y25102D01*
X201067Y25043D01*
X201087Y25040D01*
X201106Y25031D01*
X201244Y25009D01*
X201380Y24984D01*
X201400Y24985D01*
X201420Y24982D01*
X201559Y24995D01*
X201697Y25003D01*
X201716Y25009D01*
X201736Y25011D01*
X201867Y25058D01*
X201999Y25101D01*
X202017Y25112D01*
X202036Y25119D01*
X202150Y25197D01*
X202268Y25271D01*
X202282Y25286D01*
X202299Y25298D01*
X202391Y25402D01*
X202486Y25503D01*
X202496Y25521D01*
X202509Y25536D01*
X202572Y25660D01*
X202640Y25782D01*
X202645Y25801D01*
X202654Y25819D01*
X202684Y25955D01*
X202719Y26090D01*
X202721Y26118D01*
X202724Y26130D01*
X202723Y26150D01*
X202729Y26250D01*
X202729Y28750D01*
X202712Y28888D01*
X202699Y29026D01*
X202692Y29045D01*
X202689Y29065D01*
X202638Y29194D01*
X202591Y29325D01*
X202580Y29342D01*
X202572Y29361D01*
X202491Y29474D01*
X202413Y29589D01*
X202397Y29602D01*
X202386Y29618D01*
X202278Y29707D01*
X202174Y29799D01*
X202156Y29808D01*
X202141Y29821D01*
X202015Y29880D01*
X201891Y29944D01*
X201871Y29948D01*
X201853Y29957D01*
X201717Y29983D01*
X201581Y30013D01*
X201560Y30013D01*
X201541Y30016D01*
X201402Y30008D01*
X201263Y30004D01*
X201243Y29998D01*
X201223Y29997D01*
X201091Y29954D01*
X200957Y29915D01*
X200940Y29905D01*
X200921Y29899D01*
X200803Y29824D01*
X200683Y29754D01*
X200662Y29735D01*
X200652Y29729D01*
X200638Y29714D01*
X200562Y29647D01*
X200414Y29499D01*
X189585Y29499D01*
X188999Y30085D01*
X188999Y41915D01*
X189585Y42501D01*
X191460Y42501D01*
X191578Y42516D01*
X191697Y42523D01*
X191735Y42536D01*
X191776Y42541D01*
X191886Y42584D01*
X191999Y42621D01*
X192034Y42643D01*
X192071Y42658D01*
X192167Y42727D01*
X192268Y42791D01*
X192296Y42821D01*
X192329Y42844D01*
X192405Y42936D01*
X192486Y43023D01*
X192506Y43058D01*
X192531Y43089D01*
X192582Y43197D01*
X192640Y43301D01*
X192650Y43341D01*
X192667Y43377D01*
X192689Y43494D01*
X192719Y43609D01*
X192723Y43669D01*
X192727Y43689D01*
X192725Y43710D01*
X192729Y43770D01*
X192729Y45941D01*
X197358Y50569D01*
X197418Y50647D01*
X197486Y50719D01*
X197515Y50772D01*
X197552Y50820D01*
X197592Y50911D01*
X197640Y50998D01*
X197655Y51056D01*
X197679Y51112D01*
X197694Y51210D01*
X197719Y51306D01*
X197725Y51406D01*
X197729Y51426D01*
X197727Y51438D01*
X197729Y51466D01*
X197729Y52730D01*
X197714Y52848D01*
X197707Y52967D01*
X197694Y53005D01*
X197689Y53046D01*
X197646Y53156D01*
X197609Y53269D01*
X197587Y53304D01*
X197572Y53341D01*
X197503Y53437D01*
X197439Y53538D01*
X197409Y53566D01*
X197386Y53599D01*
X197294Y53675D01*
X197207Y53756D01*
X197172Y53776D01*
X197141Y53801D01*
X197033Y53852D01*
X196929Y53910D01*
X196889Y53920D01*
X196853Y53937D01*
X196736Y53959D01*
X196621Y53989D01*
X196561Y53993D01*
X196541Y53997D01*
X196520Y53995D01*
X196460Y53999D01*
X193530Y53999D01*
X191479Y56050D01*
X191479Y57980D01*
X191464Y58098D01*
X191457Y58217D01*
X191444Y58255D01*
X191439Y58296D01*
X191396Y58406D01*
X191359Y58519D01*
X191337Y58554D01*
X191322Y58591D01*
X191269Y58664D01*
X191269Y65250D01*
X191269Y71251D01*
X191460Y71251D01*
X191578Y71266D01*
X191697Y71273D01*
X191735Y71286D01*
X191776Y71291D01*
X191886Y71334D01*
X191999Y71371D01*
X192034Y71393D01*
X192071Y71408D01*
X192168Y71478D01*
X192268Y71541D01*
X192296Y71571D01*
X192329Y71594D01*
X192404Y71686D01*
X192486Y71773D01*
X192506Y71808D01*
X192531Y71839D01*
X192582Y71947D01*
X192640Y72051D01*
X192650Y72090D01*
X192667Y72127D01*
X192689Y72244D01*
X192719Y72359D01*
X192723Y72420D01*
X192727Y72440D01*
X192725Y72460D01*
X192729Y72520D01*
X192729Y74230D01*
X192714Y74348D01*
X192707Y74467D01*
X192694Y74505D01*
X192689Y74546D01*
X192646Y74656D01*
X192609Y74769D01*
X192587Y74804D01*
X192572Y74841D01*
X192503Y74937D01*
X192439Y75038D01*
X192409Y75066D01*
X192386Y75099D01*
X192294Y75175D01*
X192207Y75256D01*
X192172Y75276D01*
X192141Y75301D01*
X192033Y75352D01*
X191929Y75410D01*
X191889Y75420D01*
X191853Y75437D01*
X191736Y75459D01*
X191621Y75489D01*
X191561Y75493D01*
X191541Y75497D01*
X191520Y75495D01*
X191460Y75499D01*
X181085Y75499D01*
X180499Y76085D01*
X180499Y123915D01*
X181085Y124501D01*
X181460Y124501D01*
X181578Y124516D01*
X181697Y124523D01*
X181735Y124536D01*
X181776Y124541D01*
X181886Y124584D01*
X181999Y124621D01*
X182034Y124643D01*
X182071Y124658D01*
X182167Y124727D01*
X182268Y124791D01*
X182296Y124821D01*
X182329Y124844D01*
X182405Y124936D01*
X182486Y125023D01*
X182506Y125058D01*
X182531Y125089D01*
X182582Y125197D01*
X182640Y125301D01*
X182650Y125341D01*
X182667Y125377D01*
X182689Y125494D01*
X182719Y125609D01*
X182723Y125669D01*
X182727Y125689D01*
X182725Y125710D01*
X182729Y125770D01*
X182729Y127480D01*
X182714Y127598D01*
X182707Y127717D01*
X182694Y127755D01*
X182689Y127796D01*
X182646Y127906D01*
X182609Y128019D01*
X182587Y128054D01*
X182572Y128091D01*
X182503Y128187D01*
X182439Y128288D01*
X182409Y128316D01*
X182386Y128349D01*
X182294Y128425D01*
X182207Y128506D01*
X182172Y128526D01*
X182141Y128551D01*
X182033Y128602D01*
X181929Y128660D01*
X181889Y128670D01*
X181853Y128687D01*
X181736Y128709D01*
X181621Y128739D01*
X181561Y128743D01*
X181541Y128747D01*
X181520Y128745D01*
X181460Y128749D01*
X181269Y128749D01*
X181269Y134750D01*
X181269Y140751D01*
X181460Y140751D01*
X181578Y140766D01*
X181697Y140773D01*
X181735Y140786D01*
X181776Y140791D01*
X181886Y140834D01*
X181999Y140871D01*
X182034Y140893D01*
X182071Y140908D01*
X182168Y140978D01*
X182268Y141041D01*
X182296Y141071D01*
X182329Y141094D01*
X182404Y141186D01*
X182486Y141273D01*
X182506Y141308D01*
X182531Y141339D01*
X182582Y141447D01*
X182640Y141551D01*
X182650Y141590D01*
X182667Y141627D01*
X182689Y141744D01*
X182719Y141859D01*
X182723Y141920D01*
X182727Y141940D01*
X182725Y141960D01*
X182729Y142020D01*
X182729Y152356D01*
X182713Y152487D01*
X182702Y152619D01*
X182693Y152645D01*
X182689Y152671D01*
X182641Y152794D01*
X182597Y152919D01*
X182582Y152942D01*
X182572Y152967D01*
X182495Y153074D01*
X182421Y153184D01*
X182401Y153203D01*
X182386Y153224D01*
X182283Y153309D01*
X182185Y153397D01*
X182161Y153410D01*
X182141Y153427D01*
X182021Y153484D01*
X181904Y153545D01*
X181877Y153551D01*
X181853Y153563D01*
X181723Y153588D01*
X181594Y153618D01*
X181567Y153617D01*
X181541Y153622D01*
X181409Y153614D01*
X181276Y153612D01*
X181250Y153604D01*
X181223Y153603D01*
X181097Y153562D01*
X180970Y153526D01*
X180935Y153509D01*
X180921Y153505D01*
X180902Y153493D01*
X180825Y153455D01*
X180272Y153136D01*
X179763Y152999D01*
X176499Y152999D01*
X176499Y157501D01*
X181531Y157501D01*
X181531Y157500D01*
X181538Y157481D01*
X181541Y157461D01*
X181592Y157332D01*
X181639Y157201D01*
X181650Y157184D01*
X181658Y157165D01*
X181739Y157053D01*
X181817Y156937D01*
X181833Y156924D01*
X181844Y156908D01*
X181952Y156819D01*
X182056Y156727D01*
X182074Y156718D01*
X182089Y156705D01*
X182215Y156646D01*
X182339Y156582D01*
X182359Y156578D01*
X182377Y156569D01*
X182513Y156543D01*
X182649Y156513D01*
X182670Y156513D01*
X182689Y156510D01*
X182828Y156518D01*
X182967Y156522D01*
X182987Y156528D01*
X183007Y156529D01*
X183139Y156572D01*
X183273Y156611D01*
X183290Y156621D01*
X183309Y156627D01*
X183427Y156702D01*
X183547Y156772D01*
X183568Y156791D01*
X183578Y156797D01*
X183592Y156812D01*
X183667Y156879D01*
X184128Y157339D01*
X184188Y157417D01*
X184256Y157489D01*
X184285Y157542D01*
X184322Y157590D01*
X184362Y157681D01*
X184410Y157768D01*
X184425Y157826D01*
X184449Y157882D01*
X184464Y157980D01*
X184489Y158076D01*
X184495Y158176D01*
X184499Y158196D01*
X184497Y158208D01*
X184499Y158236D01*
X184499Y165415D01*
X184858Y165773D01*
X184918Y165851D01*
X184986Y165923D01*
X185015Y165976D01*
X185052Y166024D01*
X185092Y166115D01*
X185140Y166202D01*
X185155Y166260D01*
X185179Y166316D01*
X185194Y166414D01*
X185219Y166510D01*
X185225Y166609D01*
X185229Y166630D01*
X185227Y166642D01*
X185229Y166670D01*
X185229Y166794D01*
X185217Y166892D01*
X185214Y166991D01*
X185197Y167050D01*
X185189Y167110D01*
X185153Y167202D01*
X185125Y167297D01*
X185095Y167349D01*
X185072Y167405D01*
X185014Y167485D01*
X184964Y167571D01*
X184898Y167646D01*
X184886Y167663D01*
X184876Y167671D01*
X184858Y167692D01*
X183999Y168550D01*
X183999Y171450D01*
X186050Y173501D01*
X188950Y173501D01*
X190352Y172098D01*
X190447Y172025D01*
X190536Y171947D01*
X190572Y171928D01*
X190604Y171903D01*
X190713Y171856D01*
X190819Y171802D01*
X190858Y171793D01*
X190896Y171777D01*
X191013Y171758D01*
X191129Y171732D01*
X191170Y171733D01*
X191210Y171727D01*
X191328Y171738D01*
X191447Y171742D01*
X191486Y171753D01*
X191526Y171757D01*
X191639Y171797D01*
X191753Y171830D01*
X191787Y171851D01*
X191826Y171865D01*
X191924Y171931D01*
X192027Y171992D01*
X192072Y172032D01*
X192089Y172043D01*
X192102Y172058D01*
X192147Y172098D01*
X193550Y173501D01*
X196450Y173501D01*
X198501Y171450D01*
X198501Y168550D01*
X197642Y167692D01*
X197582Y167613D01*
X197514Y167541D01*
X197485Y167488D01*
X197448Y167440D01*
X197408Y167349D01*
X197360Y167263D01*
X197345Y167204D01*
X197321Y167149D01*
X197306Y167051D01*
X197281Y166955D01*
X197275Y166855D01*
X197271Y166834D01*
X197273Y166822D01*
X197271Y166794D01*
X197271Y166170D01*
X197283Y166072D01*
X197286Y165973D01*
X197303Y165915D01*
X197311Y165855D01*
X197347Y165763D01*
X197375Y165668D01*
X197405Y165615D01*
X197428Y165559D01*
X197486Y165479D01*
X197501Y165454D01*
X197501Y154585D01*
X196915Y153999D01*
X188540Y153999D01*
X188422Y153984D01*
X188303Y153977D01*
X188265Y153964D01*
X188224Y153959D01*
X188114Y153916D01*
X188001Y153879D01*
X187966Y153857D01*
X187929Y153842D01*
X187833Y153773D01*
X187732Y153709D01*
X187704Y153679D01*
X187671Y153656D01*
X187595Y153564D01*
X187514Y153477D01*
X187494Y153442D01*
X187469Y153411D01*
X187418Y153303D01*
X187360Y153199D01*
X187350Y153159D01*
X187333Y153123D01*
X187311Y153006D01*
X187281Y152891D01*
X187277Y152831D01*
X187273Y152811D01*
X187275Y152790D01*
X187271Y152730D01*
X187271Y142020D01*
X187286Y141902D01*
X187293Y141783D01*
X187306Y141745D01*
X187311Y141704D01*
X187354Y141594D01*
X187391Y141481D01*
X187413Y141446D01*
X187428Y141409D01*
X187497Y141313D01*
X187561Y141212D01*
X187591Y141184D01*
X187614Y141151D01*
X187706Y141075D01*
X187793Y140994D01*
X187828Y140974D01*
X187859Y140949D01*
X187967Y140898D01*
X188071Y140840D01*
X188111Y140830D01*
X188147Y140813D01*
X188264Y140791D01*
X188379Y140761D01*
X188439Y140757D01*
X188459Y140753D01*
X188480Y140755D01*
X188540Y140751D01*
X188731Y140751D01*
X188731Y134750D01*
X188731Y128749D01*
X188540Y128749D01*
X188422Y128734D01*
X188303Y128727D01*
X188265Y128714D01*
X188224Y128709D01*
X188114Y128666D01*
X188001Y128629D01*
X187966Y128607D01*
X187929Y128592D01*
X187833Y128523D01*
X187732Y128459D01*
X187704Y128429D01*
X187671Y128406D01*
X187595Y128314D01*
X187514Y128227D01*
X187494Y128192D01*
X187469Y128161D01*
X187418Y128053D01*
X187360Y127949D01*
X187350Y127909D01*
X187333Y127873D01*
X187311Y127756D01*
X187281Y127641D01*
X187277Y127581D01*
X187273Y127561D01*
X187275Y127540D01*
X187271Y127480D01*
X187271Y125770D01*
X187286Y125652D01*
X187293Y125533D01*
X187306Y125495D01*
X187311Y125454D01*
X187354Y125344D01*
X187391Y125231D01*
X187413Y125196D01*
X187428Y125159D01*
X187497Y125063D01*
X187561Y124962D01*
X187591Y124934D01*
X187614Y124901D01*
X187706Y124825D01*
X187793Y124744D01*
X187828Y124724D01*
X187859Y124699D01*
X187967Y124648D01*
X188071Y124590D01*
X188111Y124580D01*
X188147Y124563D01*
X188264Y124541D01*
X188379Y124511D01*
X188439Y124507D01*
X188459Y124503D01*
X188480Y124505D01*
X188540Y124501D01*
X221460Y124501D01*
X221578Y124516D01*
X221697Y124523D01*
X221735Y124536D01*
X221776Y124541D01*
X221886Y124584D01*
X221999Y124621D01*
X222034Y124643D01*
X222071Y124658D01*
X222167Y124727D01*
X222268Y124791D01*
X222296Y124821D01*
X222329Y124844D01*
X222405Y124936D01*
X222486Y125023D01*
X222506Y125058D01*
X222531Y125089D01*
X222582Y125197D01*
X222640Y125301D01*
X222650Y125341D01*
X222667Y125377D01*
X222689Y125494D01*
X222719Y125609D01*
X222723Y125669D01*
X222727Y125689D01*
X222725Y125710D01*
X222729Y125770D01*
X222729Y128480D01*
X222714Y128598D01*
X222707Y128717D01*
X222694Y128755D01*
X222689Y128796D01*
X222646Y128906D01*
X222609Y129019D01*
X222587Y129054D01*
X222572Y129091D01*
X222503Y129187D01*
X222439Y129288D01*
X222409Y129316D01*
X222386Y129349D01*
X222294Y129425D01*
X222207Y129506D01*
X222172Y129526D01*
X222141Y129551D01*
X222033Y129602D01*
X221929Y129660D01*
X221889Y129670D01*
X221853Y129687D01*
X221736Y129709D01*
X221621Y129739D01*
X221561Y129743D01*
X221541Y129747D01*
X221520Y129745D01*
X221460Y129749D01*
X218318Y129749D01*
X218303Y129760D01*
X218214Y129839D01*
X218178Y129857D01*
X218146Y129882D01*
X218037Y129930D01*
X217931Y129984D01*
X217892Y129992D01*
X217854Y130009D01*
X217737Y130027D01*
X217621Y130053D01*
X217580Y130052D01*
X217540Y130058D01*
X217422Y130047D01*
X217303Y130044D01*
X217264Y130032D01*
X217224Y130029D01*
X217112Y129988D01*
X216997Y129955D01*
X216963Y129935D01*
X216924Y129921D01*
X216826Y129854D01*
X216723Y129794D01*
X216678Y129754D01*
X216671Y129749D01*
X213318Y129749D01*
X213303Y129760D01*
X213214Y129839D01*
X213178Y129857D01*
X213146Y129882D01*
X213037Y129930D01*
X212931Y129984D01*
X212892Y129992D01*
X212854Y130009D01*
X212737Y130027D01*
X212621Y130053D01*
X212580Y130052D01*
X212540Y130058D01*
X212422Y130047D01*
X212303Y130044D01*
X212264Y130032D01*
X212224Y130029D01*
X212112Y129988D01*
X211997Y129955D01*
X211963Y129935D01*
X211924Y129921D01*
X211826Y129854D01*
X211723Y129794D01*
X211678Y129754D01*
X211671Y129749D01*
X208318Y129749D01*
X208303Y129760D01*
X208214Y129839D01*
X208178Y129857D01*
X208146Y129882D01*
X208037Y129930D01*
X207931Y129984D01*
X207892Y129992D01*
X207854Y130009D01*
X207737Y130027D01*
X207621Y130053D01*
X207580Y130052D01*
X207540Y130058D01*
X207422Y130047D01*
X207303Y130044D01*
X207264Y130032D01*
X207224Y130029D01*
X207112Y129988D01*
X206997Y129955D01*
X206963Y129935D01*
X206924Y129921D01*
X206826Y129854D01*
X206723Y129794D01*
X206678Y129754D01*
X206671Y129749D01*
X203318Y129749D01*
X203303Y129760D01*
X203214Y129839D01*
X203178Y129857D01*
X203146Y129882D01*
X203037Y129930D01*
X202931Y129984D01*
X202892Y129992D01*
X202854Y130009D01*
X202737Y130027D01*
X202621Y130053D01*
X202580Y130052D01*
X202540Y130058D01*
X202422Y130047D01*
X202303Y130044D01*
X202264Y130032D01*
X202224Y130029D01*
X202112Y129988D01*
X201997Y129955D01*
X201963Y129935D01*
X201924Y129921D01*
X201826Y129854D01*
X201723Y129794D01*
X201678Y129754D01*
X201671Y129749D01*
X198318Y129749D01*
X198303Y129760D01*
X198214Y129839D01*
X198178Y129857D01*
X198146Y129882D01*
X198037Y129930D01*
X197931Y129984D01*
X197892Y129992D01*
X197854Y130009D01*
X197737Y130027D01*
X197621Y130053D01*
X197580Y130052D01*
X197540Y130058D01*
X197422Y130047D01*
X197303Y130044D01*
X197264Y130032D01*
X197224Y130029D01*
X197112Y129988D01*
X196997Y129955D01*
X196963Y129935D01*
X196924Y129921D01*
X196826Y129854D01*
X196723Y129794D01*
X196678Y129754D01*
X196671Y129749D01*
X193604Y129749D01*
X193506Y129737D01*
X193407Y129734D01*
X193349Y129717D01*
X193289Y129709D01*
X193197Y129673D01*
X193102Y129645D01*
X193050Y129615D01*
X192993Y129592D01*
X192913Y129534D01*
X192828Y129484D01*
X192752Y129418D01*
X192736Y129406D01*
X192728Y129396D01*
X192707Y129378D01*
X192479Y129149D01*
X192022Y128886D01*
X191513Y128749D01*
X191269Y128749D01*
X191269Y134750D01*
X191269Y140751D01*
X191513Y140751D01*
X192022Y140614D01*
X192479Y140351D01*
X192707Y140122D01*
X192785Y140062D01*
X192857Y139994D01*
X192910Y139965D01*
X192958Y139928D01*
X193049Y139888D01*
X193136Y139840D01*
X193194Y139825D01*
X193250Y139801D01*
X193348Y139786D01*
X193444Y139761D01*
X193544Y139755D01*
X193564Y139751D01*
X193576Y139753D01*
X193604Y139751D01*
X196682Y139751D01*
X196697Y139740D01*
X196786Y139661D01*
X196822Y139643D01*
X196854Y139618D01*
X196963Y139570D01*
X197069Y139516D01*
X197109Y139508D01*
X197146Y139491D01*
X197263Y139473D01*
X197379Y139447D01*
X197420Y139448D01*
X197460Y139442D01*
X197579Y139453D01*
X197697Y139456D01*
X197736Y139468D01*
X197776Y139471D01*
X197889Y139512D01*
X198003Y139545D01*
X198038Y139565D01*
X198076Y139579D01*
X198174Y139646D01*
X198277Y139706D01*
X198322Y139746D01*
X198329Y139751D01*
X201682Y139751D01*
X201697Y139740D01*
X201786Y139661D01*
X201822Y139643D01*
X201854Y139618D01*
X201963Y139570D01*
X202069Y139516D01*
X202109Y139508D01*
X202146Y139491D01*
X202263Y139473D01*
X202379Y139447D01*
X202420Y139448D01*
X202460Y139442D01*
X202579Y139453D01*
X202697Y139456D01*
X202736Y139468D01*
X202776Y139471D01*
X202889Y139512D01*
X203003Y139545D01*
X203038Y139565D01*
X203076Y139579D01*
X203174Y139646D01*
X203277Y139706D01*
X203322Y139746D01*
X203329Y139751D01*
X206682Y139751D01*
X206697Y139740D01*
X206786Y139661D01*
X206822Y139643D01*
X206854Y139618D01*
X206963Y139570D01*
X207069Y139516D01*
X207109Y139508D01*
X207146Y139491D01*
X207263Y139473D01*
X207379Y139447D01*
X207420Y139448D01*
X207460Y139442D01*
X207579Y139453D01*
X207697Y139456D01*
X207736Y139468D01*
X207776Y139471D01*
X207889Y139512D01*
X208003Y139545D01*
X208038Y139565D01*
X208076Y139579D01*
X208174Y139646D01*
X208277Y139706D01*
X208322Y139746D01*
X208329Y139751D01*
X211682Y139751D01*
X211697Y139740D01*
X211786Y139661D01*
X211822Y139643D01*
X211854Y139618D01*
X211963Y139570D01*
X212069Y139516D01*
X212109Y139508D01*
X212146Y139491D01*
X212263Y139473D01*
X212379Y139447D01*
X212420Y139448D01*
X212460Y139442D01*
X212579Y139453D01*
X212697Y139456D01*
X212736Y139468D01*
X212776Y139471D01*
X212889Y139512D01*
X213003Y139545D01*
X213038Y139565D01*
X213076Y139579D01*
X213174Y139646D01*
X213277Y139706D01*
X213322Y139746D01*
X213329Y139751D01*
X216682Y139751D01*
X216697Y139740D01*
X216786Y139661D01*
X216822Y139643D01*
X216854Y139618D01*
X216963Y139570D01*
X217069Y139516D01*
X217109Y139508D01*
X217146Y139491D01*
X217263Y139473D01*
X217379Y139447D01*
X217420Y139448D01*
X217460Y139442D01*
X217579Y139453D01*
X217697Y139456D01*
X217736Y139468D01*
X217776Y139471D01*
X217889Y139512D01*
X218003Y139545D01*
X218038Y139565D01*
X218076Y139579D01*
X218174Y139646D01*
X218277Y139706D01*
X218322Y139746D01*
X218329Y139751D01*
X221460Y139751D01*
X221578Y139766D01*
X221697Y139773D01*
X221735Y139786D01*
X221776Y139791D01*
X221886Y139834D01*
X221999Y139871D01*
X222034Y139893D01*
X222071Y139908D01*
X222167Y139977D01*
X222268Y140041D01*
X222296Y140071D01*
X222329Y140094D01*
X222405Y140186D01*
X222486Y140273D01*
X222506Y140308D01*
X222531Y140339D01*
X222582Y140447D01*
X222640Y140551D01*
X222650Y140591D01*
X222667Y140627D01*
X222689Y140744D01*
X222719Y140859D01*
X222723Y140919D01*
X222727Y140939D01*
X222725Y140960D01*
X222729Y141020D01*
X222729Y152730D01*
X222714Y152848D01*
X222707Y152967D01*
X222694Y153005D01*
X222689Y153046D01*
X222646Y153156D01*
X222609Y153269D01*
X222587Y153304D01*
X222572Y153341D01*
X222503Y153437D01*
X222439Y153538D01*
X222409Y153566D01*
X222386Y153599D01*
X222294Y153675D01*
X222207Y153756D01*
X222172Y153776D01*
X222141Y153801D01*
X222033Y153852D01*
X221929Y153910D01*
X221889Y153920D01*
X221853Y153937D01*
X221736Y153959D01*
X221621Y153989D01*
X221561Y153993D01*
X221541Y153997D01*
X221520Y153995D01*
X221460Y153999D01*
X213085Y153999D01*
X212499Y154585D01*
X212499Y165447D01*
X212515Y165476D01*
X212552Y165524D01*
X212592Y165615D01*
X212640Y165702D01*
X212655Y165760D01*
X212679Y165816D01*
X212694Y165914D01*
X212719Y166010D01*
X212725Y166110D01*
X212729Y166130D01*
X212727Y166142D01*
X212729Y166170D01*
X212729Y166794D01*
X212717Y166892D01*
X212714Y166991D01*
X212697Y167050D01*
X212689Y167110D01*
X212653Y167202D01*
X212625Y167297D01*
X212595Y167349D01*
X212572Y167405D01*
X212514Y167485D01*
X212464Y167571D01*
X212398Y167646D01*
X212386Y167663D01*
X212376Y167671D01*
X212358Y167692D01*
X211499Y168550D01*
X211499Y171450D01*
X213550Y173501D01*
X216450Y173501D01*
X217852Y172098D01*
X217947Y172025D01*
X218036Y171947D01*
X218072Y171928D01*
X218104Y171903D01*
X218213Y171856D01*
X218319Y171802D01*
X218358Y171793D01*
X218396Y171777D01*
X218513Y171758D01*
X218629Y171732D01*
X218670Y171733D01*
X218710Y171727D01*
X218828Y171738D01*
X218947Y171742D01*
X218986Y171753D01*
X219026Y171757D01*
X219139Y171797D01*
X219253Y171830D01*
X219287Y171851D01*
X219326Y171865D01*
X219424Y171931D01*
X219527Y171992D01*
X219572Y172032D01*
X219589Y172043D01*
X219602Y172058D01*
X219647Y172098D01*
X221050Y173501D01*
X223950Y173501D01*
X226001Y171450D01*
X226001Y168550D01*
X225142Y167692D01*
X225082Y167613D01*
X225014Y167541D01*
X224985Y167488D01*
X224948Y167440D01*
X224908Y167349D01*
X224860Y167263D01*
X224845Y167204D01*
X224821Y167149D01*
X224806Y167051D01*
X224781Y166955D01*
X224775Y166855D01*
X224771Y166834D01*
X224773Y166822D01*
X224771Y166794D01*
X224771Y166670D01*
X224783Y166572D01*
X224786Y166473D01*
X224803Y166415D01*
X224811Y166355D01*
X224847Y166263D01*
X224875Y166168D01*
X224905Y166115D01*
X224928Y166059D01*
X224986Y165979D01*
X225036Y165894D01*
X225102Y165818D01*
X225114Y165802D01*
X225124Y165794D01*
X225142Y165773D01*
X225501Y165415D01*
X225501Y158236D01*
X225513Y158138D01*
X225516Y158039D01*
X225533Y157981D01*
X225541Y157921D01*
X225577Y157829D01*
X225605Y157734D01*
X225635Y157681D01*
X225658Y157625D01*
X225716Y157545D01*
X225766Y157460D01*
X225832Y157384D01*
X225844Y157368D01*
X225854Y157360D01*
X225872Y157339D01*
X226333Y156879D01*
X226442Y156794D01*
X226549Y156705D01*
X226568Y156696D01*
X226584Y156684D01*
X226712Y156628D01*
X226837Y156569D01*
X226857Y156566D01*
X226876Y156557D01*
X227014Y156536D01*
X227150Y156510D01*
X227170Y156511D01*
X227190Y156508D01*
X227329Y156521D01*
X227467Y156529D01*
X227486Y156536D01*
X227506Y156537D01*
X227638Y156585D01*
X227769Y156627D01*
X227787Y156638D01*
X227806Y156645D01*
X227921Y156723D01*
X228038Y156798D01*
X228052Y156812D01*
X228069Y156824D01*
X228161Y156928D01*
X228256Y157029D01*
X228266Y157047D01*
X228279Y157062D01*
X228343Y157186D01*
X228410Y157308D01*
X228415Y157327D01*
X228424Y157345D01*
X228454Y157481D01*
X228459Y157501D01*
X233501Y157501D01*
X233501Y152999D01*
X230237Y152999D01*
X229728Y153136D01*
X229175Y153455D01*
X229052Y153506D01*
X228933Y153563D01*
X228906Y153568D01*
X228881Y153578D01*
X228750Y153598D01*
X228620Y153622D01*
X228594Y153621D01*
X228567Y153625D01*
X228435Y153611D01*
X228303Y153603D01*
X228277Y153594D01*
X228251Y153592D01*
X228126Y153545D01*
X228001Y153505D01*
X227978Y153490D01*
X227952Y153481D01*
X227844Y153405D01*
X227732Y153335D01*
X227713Y153315D01*
X227691Y153299D01*
X227605Y153199D01*
X227514Y153103D01*
X227501Y153079D01*
X227483Y153059D01*
X227424Y152940D01*
X227360Y152824D01*
X227354Y152798D01*
X227342Y152774D01*
X227314Y152644D01*
X227281Y152516D01*
X227279Y152478D01*
X227275Y152463D01*
X227276Y152441D01*
X227271Y152356D01*
X227271Y142020D01*
X227286Y141902D01*
X227293Y141783D01*
X227306Y141745D01*
X227311Y141704D01*
X227354Y141594D01*
X227391Y141481D01*
X227413Y141446D01*
X227428Y141409D01*
X227497Y141313D01*
X227561Y141212D01*
X227591Y141184D01*
X227614Y141151D01*
X227706Y141075D01*
X227793Y140994D01*
X227828Y140974D01*
X227859Y140949D01*
X227967Y140898D01*
X228071Y140840D01*
X228111Y140830D01*
X228147Y140813D01*
X228264Y140791D01*
X228379Y140761D01*
X228439Y140757D01*
X228459Y140753D01*
X228480Y140755D01*
X228540Y140751D01*
X228731Y140751D01*
X228731Y134750D01*
X228731Y128749D01*
X228540Y128749D01*
X228422Y128734D01*
X228303Y128727D01*
X228265Y128714D01*
X228224Y128709D01*
X228114Y128666D01*
X228001Y128629D01*
X227966Y128607D01*
X227929Y128592D01*
X227833Y128523D01*
X227732Y128459D01*
X227704Y128429D01*
X227671Y128406D01*
X227595Y128314D01*
X227514Y128227D01*
X227494Y128192D01*
X227469Y128161D01*
X227418Y128053D01*
X227360Y127949D01*
X227350Y127909D01*
X227333Y127873D01*
X227311Y127756D01*
X227281Y127641D01*
X227277Y127581D01*
X227273Y127561D01*
X227275Y127540D01*
X227271Y127480D01*
X227271Y125770D01*
X227286Y125652D01*
X227293Y125533D01*
X227306Y125495D01*
X227311Y125454D01*
X227354Y125344D01*
X227391Y125231D01*
X227413Y125196D01*
X227428Y125159D01*
X227497Y125063D01*
X227561Y124962D01*
X227591Y124934D01*
X227614Y124901D01*
X227706Y124825D01*
X227793Y124744D01*
X227828Y124724D01*
X227859Y124699D01*
X227967Y124648D01*
X228071Y124590D01*
X228111Y124580D01*
X228147Y124563D01*
X228264Y124541D01*
X228379Y124511D01*
X228439Y124507D01*
X228459Y124503D01*
X228480Y124505D01*
X228540Y124501D01*
X228915Y124501D01*
X229501Y123915D01*
X229501Y79236D01*
X229513Y79138D01*
X229516Y79039D01*
X229533Y78981D01*
X229541Y78921D01*
X229577Y78829D01*
X229605Y78734D01*
X229635Y78681D01*
X229658Y78625D01*
X229716Y78545D01*
X229766Y78460D01*
X229832Y78384D01*
X229844Y78368D01*
X229854Y78360D01*
X229872Y78339D01*
X230569Y77642D01*
X230647Y77582D01*
X230719Y77514D01*
X230772Y77485D01*
X230820Y77448D01*
X230911Y77408D01*
X230998Y77360D01*
X231056Y77345D01*
X231112Y77321D01*
X231210Y77306D01*
X231306Y77281D01*
X231406Y77275D01*
X231426Y77271D01*
X231438Y77273D01*
X231466Y77271D01*
X232480Y77271D01*
X232598Y77286D01*
X232717Y77293D01*
X232755Y77306D01*
X232796Y77311D01*
X232906Y77354D01*
X233019Y77391D01*
X233054Y77413D01*
X233091Y77428D01*
X233187Y77497D01*
X233288Y77561D01*
X233316Y77591D01*
X233349Y77614D01*
X233425Y77706D01*
X233506Y77793D01*
X233526Y77828D01*
X233551Y77859D01*
X233602Y77967D01*
X233660Y78071D01*
X233670Y78111D01*
X233687Y78147D01*
X233709Y78264D01*
X233739Y78379D01*
X233743Y78439D01*
X233747Y78459D01*
X233745Y78480D01*
X233749Y78540D01*
X233749Y78731D01*
X239750Y78731D01*
X245751Y78731D01*
X245751Y78540D01*
X245766Y78422D01*
X245773Y78303D01*
X245786Y78265D01*
X245791Y78224D01*
X245834Y78114D01*
X245871Y78001D01*
X245893Y77966D01*
X245908Y77929D01*
X245978Y77832D01*
X246041Y77732D01*
X246071Y77704D01*
X246094Y77671D01*
X246186Y77596D01*
X246273Y77514D01*
X246308Y77494D01*
X246339Y77469D01*
X246447Y77418D01*
X246551Y77360D01*
X246590Y77350D01*
X246627Y77333D01*
X246744Y77311D01*
X246859Y77281D01*
X246920Y77277D01*
X246940Y77273D01*
X246960Y77275D01*
X247020Y77271D01*
X257356Y77271D01*
X257487Y77287D01*
X257619Y77298D01*
X257645Y77307D01*
X257671Y77311D01*
X257794Y77359D01*
X257919Y77403D01*
X257942Y77418D01*
X257967Y77428D01*
X258074Y77505D01*
X258184Y77579D01*
X258203Y77599D01*
X258224Y77614D01*
X258309Y77717D01*
X258397Y77815D01*
X258410Y77839D01*
X258427Y77859D01*
X258484Y77979D01*
X258545Y78096D01*
X258551Y78123D01*
X258563Y78147D01*
X258588Y78277D01*
X258618Y78406D01*
X258617Y78433D01*
X258622Y78459D01*
X258614Y78591D01*
X258612Y78724D01*
X258604Y78750D01*
X258603Y78777D01*
X258562Y78903D01*
X258526Y79030D01*
X258509Y79065D01*
X258505Y79079D01*
X258493Y79098D01*
X258455Y79175D01*
X258136Y79728D01*
X257999Y80237D01*
X257999Y83501D01*
X262501Y83501D01*
X262501Y78499D01*
X261776Y78499D01*
X261639Y78482D01*
X261500Y78469D01*
X261481Y78462D01*
X261461Y78459D01*
X261332Y78408D01*
X261201Y78361D01*
X261184Y78350D01*
X261165Y78342D01*
X261053Y78261D01*
X260938Y78183D01*
X260924Y78167D01*
X260908Y78156D01*
X260819Y78048D01*
X260727Y77944D01*
X260718Y77926D01*
X260705Y77911D01*
X260646Y77785D01*
X260582Y77661D01*
X260578Y77641D01*
X260569Y77623D01*
X260543Y77486D01*
X260513Y77351D01*
X260513Y77330D01*
X260510Y77311D01*
X260518Y77172D01*
X260522Y77033D01*
X260528Y77013D01*
X260529Y76993D01*
X260572Y76861D01*
X260611Y76727D01*
X260621Y76710D01*
X260627Y76691D01*
X260702Y76573D01*
X260772Y76453D01*
X260791Y76432D01*
X260798Y76422D01*
X260812Y76408D01*
X260879Y76333D01*
X261339Y75872D01*
X261417Y75812D01*
X261489Y75744D01*
X261542Y75715D01*
X261590Y75678D01*
X261681Y75638D01*
X261768Y75590D01*
X261826Y75575D01*
X261882Y75551D01*
X261980Y75536D01*
X262076Y75511D01*
X262176Y75505D01*
X262196Y75501D01*
X262208Y75503D01*
X262236Y75501D01*
X270415Y75501D01*
X270773Y75142D01*
X270851Y75082D01*
X270923Y75014D01*
X270976Y74985D01*
X271024Y74948D01*
X271115Y74908D01*
X271202Y74860D01*
X271260Y74845D01*
X271316Y74821D01*
X271414Y74806D01*
X271510Y74781D01*
X271610Y74775D01*
X271630Y74771D01*
X271642Y74773D01*
X271670Y74771D01*
X271794Y74771D01*
X271892Y74783D01*
X271991Y74786D01*
X272050Y74803D01*
X272110Y74811D01*
X272202Y74847D01*
X272297Y74875D01*
X272349Y74905D01*
X272405Y74928D01*
X272485Y74986D01*
X272571Y75036D01*
X272646Y75102D01*
X272663Y75114D01*
X272671Y75124D01*
X272692Y75142D01*
X273550Y76001D01*
X276450Y76001D01*
X278501Y73950D01*
X278501Y71050D01*
X277098Y69648D01*
X277025Y69553D01*
X276947Y69464D01*
X276928Y69428D01*
X276903Y69396D01*
X276856Y69287D01*
X276802Y69181D01*
X276793Y69142D01*
X276777Y69104D01*
X276758Y68987D01*
X276732Y68871D01*
X276733Y68830D01*
X276727Y68790D01*
X276738Y68672D01*
X276742Y68553D01*
X276753Y68514D01*
X276757Y68474D01*
X276797Y68361D01*
X276830Y68247D01*
X276851Y68213D01*
X276865Y68174D01*
X276931Y68076D01*
X276992Y67973D01*
X277032Y67928D01*
X277043Y67911D01*
X277058Y67898D01*
X277098Y67853D01*
X278501Y66450D01*
X278501Y63550D01*
X276450Y61499D01*
X273550Y61499D01*
X272692Y62358D01*
X272613Y62418D01*
X272541Y62486D01*
X272488Y62515D01*
X272440Y62552D01*
X272349Y62592D01*
X272263Y62640D01*
X272204Y62655D01*
X272149Y62679D01*
X272051Y62694D01*
X271955Y62719D01*
X271855Y62725D01*
X271834Y62729D01*
X271822Y62727D01*
X271794Y62729D01*
X271170Y62729D01*
X271072Y62717D01*
X270973Y62714D01*
X270915Y62697D01*
X270855Y62689D01*
X270763Y62653D01*
X270668Y62625D01*
X270615Y62595D01*
X270559Y62572D01*
X270479Y62514D01*
X270454Y62499D01*
X259585Y62499D01*
X258999Y63085D01*
X258999Y71264D01*
X258987Y71362D01*
X258984Y71461D01*
X258967Y71519D01*
X258959Y71579D01*
X258923Y71671D01*
X258895Y71767D01*
X258865Y71819D01*
X258842Y71875D01*
X258784Y71955D01*
X258734Y72040D01*
X258668Y72116D01*
X258656Y72132D01*
X258646Y72140D01*
X258627Y72161D01*
X258431Y72358D01*
X258353Y72418D01*
X258281Y72486D01*
X258228Y72515D01*
X258180Y72552D01*
X258089Y72592D01*
X258002Y72640D01*
X257944Y72655D01*
X257888Y72679D01*
X257790Y72694D01*
X257694Y72719D01*
X257594Y72725D01*
X257574Y72729D01*
X257562Y72727D01*
X257534Y72729D01*
X232250Y72729D01*
X232112Y72712D01*
X231974Y72699D01*
X231955Y72692D01*
X231935Y72689D01*
X231806Y72638D01*
X231675Y72591D01*
X231658Y72580D01*
X231639Y72572D01*
X231527Y72491D01*
X231411Y72413D01*
X231398Y72397D01*
X231382Y72386D01*
X231293Y72278D01*
X231201Y72174D01*
X231192Y72156D01*
X231179Y72141D01*
X231120Y72015D01*
X231056Y71891D01*
X231052Y71871D01*
X231043Y71853D01*
X231017Y71716D01*
X230987Y71581D01*
X230987Y71560D01*
X230984Y71541D01*
X230992Y71402D01*
X230996Y71263D01*
X231002Y71243D01*
X231003Y71223D01*
X231046Y71091D01*
X231085Y70957D01*
X231095Y70940D01*
X231101Y70921D01*
X231176Y70803D01*
X231246Y70683D01*
X231265Y70662D01*
X231271Y70652D01*
X231287Y70638D01*
X231353Y70563D01*
X232251Y69665D01*
X232251Y60835D01*
X231665Y60249D01*
X228318Y60249D01*
X228303Y60260D01*
X228214Y60339D01*
X228178Y60357D01*
X228146Y60382D01*
X228037Y60430D01*
X227931Y60484D01*
X227891Y60492D01*
X227854Y60509D01*
X227737Y60527D01*
X227621Y60553D01*
X227580Y60552D01*
X227540Y60558D01*
X227421Y60547D01*
X227303Y60544D01*
X227264Y60532D01*
X227224Y60529D01*
X227111Y60488D01*
X226997Y60455D01*
X226962Y60435D01*
X226924Y60421D01*
X226826Y60354D01*
X226723Y60294D01*
X226678Y60254D01*
X226671Y60249D01*
X223318Y60249D01*
X223303Y60260D01*
X223214Y60339D01*
X223178Y60357D01*
X223146Y60382D01*
X223037Y60430D01*
X222931Y60484D01*
X222891Y60492D01*
X222854Y60509D01*
X222737Y60527D01*
X222621Y60553D01*
X222580Y60552D01*
X222540Y60558D01*
X222421Y60547D01*
X222303Y60544D01*
X222264Y60532D01*
X222224Y60529D01*
X222111Y60488D01*
X221997Y60455D01*
X221962Y60435D01*
X221924Y60421D01*
X221826Y60354D01*
X221723Y60294D01*
X221678Y60254D01*
X221671Y60249D01*
X218318Y60249D01*
X218303Y60260D01*
X218214Y60339D01*
X218178Y60357D01*
X218146Y60382D01*
X218037Y60430D01*
X217931Y60484D01*
X217891Y60492D01*
X217854Y60509D01*
X217737Y60527D01*
X217621Y60553D01*
X217580Y60552D01*
X217540Y60558D01*
X217421Y60547D01*
X217303Y60544D01*
X217264Y60532D01*
X217224Y60529D01*
X217111Y60488D01*
X216997Y60455D01*
X216962Y60435D01*
X216924Y60421D01*
X216826Y60354D01*
X216723Y60294D01*
X216678Y60254D01*
X216671Y60249D01*
X213318Y60249D01*
X213303Y60260D01*
X213214Y60339D01*
X213178Y60357D01*
X213146Y60382D01*
X213037Y60430D01*
X212931Y60484D01*
X212891Y60492D01*
X212854Y60509D01*
X212737Y60527D01*
X212621Y60553D01*
X212580Y60552D01*
X212540Y60558D01*
X212421Y60547D01*
X212303Y60544D01*
X212264Y60532D01*
X212224Y60529D01*
X212111Y60488D01*
X211997Y60455D01*
X211962Y60435D01*
X211924Y60421D01*
X211826Y60354D01*
X211723Y60294D01*
X211678Y60254D01*
X211671Y60249D01*
X208540Y60249D01*
X208422Y60234D01*
X208303Y60227D01*
X208265Y60214D01*
X208224Y60209D01*
X208114Y60166D01*
X208001Y60129D01*
X207966Y60107D01*
X207929Y60092D01*
X207833Y60023D01*
X207732Y59959D01*
X207704Y59929D01*
X207671Y59906D01*
X207595Y59814D01*
X207514Y59727D01*
X207494Y59692D01*
X207469Y59661D01*
X207418Y59553D01*
X207360Y59449D01*
X207350Y59409D01*
X207333Y59373D01*
X207311Y59256D01*
X207281Y59141D01*
X207277Y59081D01*
X207273Y59061D01*
X207275Y59040D01*
X207271Y58980D01*
X207271Y51466D01*
X207283Y51368D01*
X207286Y51269D01*
X207303Y51211D01*
X207311Y51151D01*
X207347Y51059D01*
X207375Y50964D01*
X207405Y50911D01*
X207428Y50855D01*
X207486Y50775D01*
X207536Y50690D01*
X207602Y50614D01*
X207614Y50598D01*
X207624Y50590D01*
X207642Y50569D01*
X210569Y47642D01*
X210647Y47582D01*
X210719Y47514D01*
X210772Y47485D01*
X210820Y47448D01*
X210911Y47408D01*
X210998Y47360D01*
X211056Y47345D01*
X211112Y47321D01*
X211210Y47306D01*
X211306Y47281D01*
X211406Y47275D01*
X211426Y47271D01*
X211438Y47273D01*
X211466Y47271D01*
X225691Y47271D01*
X231530Y41431D01*
X231608Y41371D01*
X231680Y41303D01*
X231733Y41274D01*
X231781Y41237D01*
X231872Y41197D01*
X231959Y41149D01*
X232017Y41134D01*
X232073Y41110D01*
X232171Y41095D01*
X232267Y41070D01*
X232367Y41064D01*
X232387Y41060D01*
X232399Y41062D01*
X232427Y41060D01*
X240474Y41060D01*
X241060Y40474D01*
X241060Y39540D01*
X241075Y39422D01*
X241082Y39303D01*
X241095Y39265D01*
X241100Y39224D01*
X241143Y39114D01*
X241180Y39001D01*
X241202Y38966D01*
X241217Y38929D01*
X241286Y38833D01*
X241350Y38732D01*
X241380Y38704D01*
X241403Y38671D01*
X241495Y38595D01*
X241582Y38514D01*
X241617Y38494D01*
X241648Y38469D01*
X241756Y38418D01*
X241860Y38360D01*
X241900Y38350D01*
X241936Y38333D01*
X242053Y38311D01*
X242168Y38281D01*
X242228Y38277D01*
X242248Y38273D01*
X242269Y38275D01*
X242329Y38271D01*
X247730Y38271D01*
X247848Y38286D01*
X247967Y38293D01*
X248005Y38306D01*
X248046Y38311D01*
X248156Y38354D01*
X248269Y38391D01*
X248304Y38413D01*
X248341Y38428D01*
X248437Y38497D01*
X248538Y38561D01*
X248566Y38591D01*
X248599Y38614D01*
X248675Y38706D01*
X248756Y38793D01*
X248776Y38828D01*
X248801Y38859D01*
X248852Y38967D01*
X248910Y39071D01*
X248920Y39111D01*
X248937Y39147D01*
X248959Y39264D01*
X248989Y39379D01*
X248993Y39439D01*
X248997Y39459D01*
X248995Y39480D01*
X248999Y39540D01*
X248999Y41915D01*
X249585Y42501D01*
X260415Y42501D01*
X261001Y41915D01*
X261001Y30085D01*
X260415Y29499D01*
X249585Y29499D01*
X248999Y30085D01*
X248999Y32460D01*
X248984Y32578D01*
X248977Y32697D01*
X248964Y32735D01*
X248959Y32776D01*
X248916Y32886D01*
X248879Y32999D01*
X248857Y33034D01*
X248842Y33071D01*
X248773Y33167D01*
X248709Y33268D01*
X248679Y33296D01*
X248656Y33329D01*
X248564Y33405D01*
X248477Y33486D01*
X248442Y33506D01*
X248411Y33531D01*
X248303Y33582D01*
X248199Y33640D01*
X248159Y33650D01*
X248123Y33667D01*
X248006Y33689D01*
X247891Y33719D01*
X247831Y33723D01*
X247811Y33727D01*
X247790Y33725D01*
X247730Y33729D01*
X242329Y33729D01*
X242211Y33714D01*
X242092Y33707D01*
X242054Y33694D01*
X242013Y33689D01*
X241903Y33646D01*
X241790Y33609D01*
X241755Y33587D01*
X241718Y33572D01*
X241622Y33503D01*
X241521Y33439D01*
X241493Y33409D01*
X241460Y33386D01*
X241384Y33294D01*
X241303Y33207D01*
X241283Y33172D01*
X241258Y33141D01*
X241207Y33033D01*
X241149Y32929D01*
X241139Y32889D01*
X241122Y32853D01*
X241100Y32736D01*
X241070Y32621D01*
X241066Y32561D01*
X241062Y32541D01*
X241064Y32520D01*
X241060Y32460D01*
X241060Y29776D01*
X240474Y29190D01*
X228776Y29190D01*
X228190Y29776D01*
X228190Y30425D01*
X228173Y30563D01*
X228160Y30702D01*
X228153Y30721D01*
X228150Y30741D01*
X228099Y30870D01*
X228052Y31001D01*
X228041Y31018D01*
X228033Y31036D01*
X227952Y31149D01*
X227873Y31264D01*
X227858Y31278D01*
X227847Y31294D01*
X227739Y31383D01*
X227635Y31475D01*
X227617Y31484D01*
X227602Y31497D01*
X227476Y31556D01*
X227352Y31619D01*
X227332Y31624D01*
X227314Y31632D01*
X227178Y31658D01*
X227041Y31689D01*
X227021Y31688D01*
X227002Y31692D01*
X226863Y31683D01*
X226724Y31679D01*
X226704Y31673D01*
X226684Y31672D01*
X226552Y31629D01*
X226534Y31624D01*
X223079Y31624D01*
X222961Y31609D01*
X222842Y31602D01*
X222804Y31589D01*
X222763Y31584D01*
X222653Y31541D01*
X222540Y31504D01*
X222505Y31482D01*
X222468Y31467D01*
X222372Y31398D01*
X222271Y31334D01*
X222243Y31304D01*
X222210Y31281D01*
X222134Y31189D01*
X222053Y31102D01*
X222033Y31067D01*
X222008Y31036D01*
X221957Y30928D01*
X221899Y30824D01*
X221889Y30784D01*
X221872Y30748D01*
X221850Y30631D01*
X221820Y30516D01*
X221816Y30456D01*
X221812Y30436D01*
X221814Y30415D01*
X221810Y30355D01*
X221810Y29776D01*
X221224Y29190D01*
X209527Y29190D01*
X209438Y29279D01*
X209328Y29364D01*
X209221Y29453D01*
X209202Y29462D01*
X209186Y29474D01*
X209058Y29530D01*
X208933Y29589D01*
X208913Y29592D01*
X208894Y29601D01*
X208756Y29623D01*
X208620Y29648D01*
X208600Y29647D01*
X208580Y29650D01*
X208441Y29637D01*
X208303Y29629D01*
X208284Y29623D01*
X208264Y29621D01*
X208133Y29574D01*
X208001Y29531D01*
X207983Y29520D01*
X207964Y29513D01*
X207850Y29435D01*
X207732Y29361D01*
X207718Y29346D01*
X207701Y29334D01*
X207609Y29230D01*
X207514Y29129D01*
X207504Y29111D01*
X207491Y29096D01*
X207427Y28972D01*
X207360Y28850D01*
X207355Y28831D01*
X207346Y28813D01*
X207316Y28677D01*
X207281Y28542D01*
X207279Y28514D01*
X207276Y28502D01*
X207277Y28482D01*
X207271Y28382D01*
X207271Y26618D01*
X207288Y26480D01*
X207301Y26342D01*
X207308Y26323D01*
X207311Y26303D01*
X207362Y26173D01*
X207409Y26043D01*
X207420Y26026D01*
X207428Y26007D01*
X207509Y25895D01*
X207587Y25779D01*
X207603Y25766D01*
X207614Y25750D01*
X207721Y25661D01*
X207826Y25569D01*
X207844Y25560D01*
X207859Y25547D01*
X207985Y25488D01*
X208109Y25424D01*
X208129Y25420D01*
X208147Y25411D01*
X208283Y25385D01*
X208419Y25355D01*
X208440Y25355D01*
X208459Y25352D01*
X208598Y25360D01*
X208737Y25364D01*
X208757Y25370D01*
X208777Y25371D01*
X208909Y25414D01*
X209043Y25453D01*
X209060Y25463D01*
X209079Y25469D01*
X209197Y25544D01*
X209317Y25614D01*
X209338Y25633D01*
X209348Y25639D01*
X209362Y25654D01*
X209438Y25721D01*
X209527Y25810D01*
X221224Y25810D01*
X221810Y25224D01*
X221810Y24575D01*
X221827Y24436D01*
X221840Y24298D01*
X221847Y24279D01*
X221850Y24259D01*
X221901Y24130D01*
X221948Y23999D01*
X221959Y23982D01*
X221967Y23964D01*
X222048Y23851D01*
X222127Y23736D01*
X222142Y23722D01*
X222153Y23706D01*
X222261Y23617D01*
X222365Y23525D01*
X222383Y23516D01*
X222398Y23503D01*
X222524Y23444D01*
X222648Y23381D01*
X222668Y23376D01*
X222686Y23368D01*
X222822Y23342D01*
X222959Y23311D01*
X222979Y23312D01*
X222998Y23308D01*
X223137Y23317D01*
X223276Y23321D01*
X223296Y23327D01*
X223316Y23328D01*
X223448Y23371D01*
X223466Y23376D01*
X226921Y23376D01*
X227039Y23391D01*
X227158Y23398D01*
X227196Y23411D01*
X227237Y23416D01*
X227347Y23459D01*
X227460Y23496D01*
X227495Y23518D01*
X227532Y23533D01*
X227628Y23602D01*
X227729Y23666D01*
X227757Y23696D01*
X227790Y23719D01*
X227866Y23811D01*
X227947Y23898D01*
X227967Y23933D01*
X227992Y23964D01*
X228043Y24072D01*
X228101Y24176D01*
X228111Y24216D01*
X228128Y24252D01*
X228150Y24369D01*
X228180Y24484D01*
X228184Y24544D01*
X228188Y24564D01*
X228186Y24585D01*
X228190Y24645D01*
X228190Y25224D01*
X228776Y25810D01*
X240474Y25810D01*
X241060Y25224D01*
X241060Y14526D01*
X240474Y13940D01*
X228776Y13940D01*
X228190Y14526D01*
X228190Y15105D01*
X228175Y15223D01*
X228168Y15342D01*
X228155Y15380D01*
X228150Y15421D01*
X228107Y15531D01*
X228070Y15644D01*
X228048Y15679D01*
X228033Y15716D01*
X227964Y15812D01*
X227900Y15913D01*
X227870Y15941D01*
X227847Y15974D01*
X227755Y16050D01*
X227668Y16131D01*
X227633Y16151D01*
X227602Y16176D01*
X227494Y16227D01*
X227390Y16285D01*
X227350Y16295D01*
X227314Y16312D01*
X227197Y16334D01*
X227082Y16364D01*
X227022Y16368D01*
X227002Y16372D01*
X226981Y16370D01*
X226921Y16374D01*
X223489Y16374D01*
X223472Y16382D01*
X223452Y16386D01*
X223434Y16394D01*
X223296Y16416D01*
X223159Y16442D01*
X223139Y16441D01*
X223120Y16444D01*
X222981Y16431D01*
X222842Y16422D01*
X222823Y16416D01*
X222803Y16414D01*
X222671Y16367D01*
X222540Y16324D01*
X222523Y16313D01*
X222504Y16307D01*
X222388Y16228D01*
X222271Y16154D01*
X222257Y16139D01*
X222240Y16128D01*
X222148Y16024D01*
X222053Y15922D01*
X222043Y15905D01*
X222030Y15890D01*
X221967Y15766D01*
X221899Y15644D01*
X221894Y15624D01*
X221885Y15606D01*
X221855Y15471D01*
X221820Y15336D01*
X221818Y15308D01*
X221816Y15296D01*
X221816Y15276D01*
X221810Y15175D01*
X221810Y14526D01*
X221224Y13940D01*
X209526Y13940D01*
X208940Y14526D01*
X208940Y16335D01*
X208925Y16453D01*
X208918Y16572D01*
X208905Y16610D01*
X208900Y16651D01*
X208857Y16761D01*
X208820Y16874D01*
X208798Y16909D01*
X208783Y16946D01*
X208714Y17042D01*
X208650Y17143D01*
X208620Y17171D01*
X208597Y17204D01*
X208505Y17280D01*
X208418Y17361D01*
X208383Y17381D01*
X208352Y17406D01*
X208244Y17457D01*
X208140Y17515D01*
X208100Y17525D01*
X208064Y17542D01*
X207947Y17564D01*
X207832Y17594D01*
X207772Y17598D01*
X207752Y17602D01*
X207731Y17600D01*
X207671Y17604D01*
X206684Y17604D01*
X204431Y19858D01*
X203167Y21121D01*
X203058Y21206D01*
X202951Y21295D01*
X202932Y21304D01*
X202916Y21316D01*
X202789Y21371D01*
X202663Y21431D01*
X202643Y21434D01*
X202624Y21443D01*
X202486Y21464D01*
X202350Y21490D01*
X202330Y21489D01*
X202310Y21492D01*
X202171Y21479D01*
X202033Y21471D01*
X202014Y21464D01*
X201994Y21463D01*
X201862Y21415D01*
X201731Y21373D01*
X201713Y21362D01*
X201694Y21355D01*
X201579Y21277D01*
X201462Y21202D01*
X201448Y21188D01*
X201431Y21176D01*
X201339Y21072D01*
X201244Y20971D01*
X201234Y20953D01*
X201221Y20938D01*
X201157Y20814D01*
X201090Y20692D01*
X201085Y20673D01*
X201076Y20655D01*
X201046Y20519D01*
X201011Y20384D01*
X201009Y20356D01*
X201006Y20344D01*
X201007Y20324D01*
X201001Y20224D01*
X201001Y13085D01*
X200415Y12499D01*
X199770Y12499D01*
X199652Y12484D01*
X199533Y12477D01*
X199495Y12464D01*
X199454Y12459D01*
X199344Y12416D01*
X199231Y12379D01*
X199196Y12357D01*
X199159Y12342D01*
X199063Y12273D01*
X198962Y12209D01*
X198934Y12179D01*
X198901Y12156D01*
X198825Y12064D01*
X198744Y11977D01*
X198724Y11942D01*
X198699Y11911D01*
X198648Y11803D01*
X198590Y11699D01*
X198580Y11659D01*
X198563Y11623D01*
X198541Y11506D01*
X198511Y11391D01*
X198507Y11331D01*
X198503Y11311D01*
X198505Y11290D01*
X198501Y11230D01*
X198501Y8550D01*
X196450Y6499D01*
X193550Y6499D01*
G37*
%LPD*%
%LPC*%
G36*
X31085Y33499D02*
X31085Y33499D01*
X30499Y34085D01*
X30499Y45915D01*
X31085Y46501D01*
X32960Y46501D01*
X33078Y46516D01*
X33197Y46523D01*
X33235Y46536D01*
X33276Y46541D01*
X33386Y46584D01*
X33499Y46621D01*
X33534Y46643D01*
X33571Y46658D01*
X33667Y46727D01*
X33768Y46791D01*
X33796Y46821D01*
X33829Y46844D01*
X33905Y46936D01*
X33986Y47023D01*
X34006Y47058D01*
X34031Y47089D01*
X34082Y47197D01*
X34140Y47301D01*
X34150Y47341D01*
X34167Y47377D01*
X34189Y47494D01*
X34219Y47609D01*
X34223Y47669D01*
X34227Y47689D01*
X34225Y47710D01*
X34229Y47770D01*
X34229Y53441D01*
X38858Y58069D01*
X38918Y58147D01*
X38986Y58219D01*
X39015Y58272D01*
X39052Y58320D01*
X39092Y58411D01*
X39140Y58498D01*
X39155Y58556D01*
X39179Y58612D01*
X39194Y58710D01*
X39219Y58806D01*
X39225Y58906D01*
X39229Y58926D01*
X39227Y58938D01*
X39229Y58966D01*
X39229Y77441D01*
X46559Y84771D01*
X54330Y84771D01*
X54448Y84786D01*
X54567Y84793D01*
X54605Y84806D01*
X54646Y84811D01*
X54756Y84854D01*
X54869Y84891D01*
X54904Y84913D01*
X54941Y84928D01*
X55037Y84997D01*
X55138Y85061D01*
X55166Y85091D01*
X55199Y85114D01*
X55275Y85206D01*
X55356Y85293D01*
X55376Y85328D01*
X55401Y85359D01*
X55452Y85467D01*
X55510Y85571D01*
X55520Y85611D01*
X55537Y85647D01*
X55559Y85764D01*
X55589Y85879D01*
X55593Y85939D01*
X55597Y85959D01*
X55595Y85980D01*
X55599Y86040D01*
X55599Y88646D01*
X55587Y88744D01*
X55584Y88843D01*
X55567Y88901D01*
X55559Y88961D01*
X55523Y89053D01*
X55495Y89148D01*
X55465Y89201D01*
X55442Y89257D01*
X55384Y89337D01*
X55334Y89422D01*
X55268Y89497D01*
X55256Y89514D01*
X55246Y89522D01*
X55227Y89543D01*
X54599Y90171D01*
X54599Y92960D01*
X54584Y93078D01*
X54577Y93197D01*
X54564Y93235D01*
X54559Y93276D01*
X54516Y93386D01*
X54479Y93499D01*
X54457Y93534D01*
X54442Y93571D01*
X54373Y93667D01*
X54309Y93768D01*
X54279Y93796D01*
X54256Y93829D01*
X54164Y93905D01*
X54077Y93986D01*
X54042Y94006D01*
X54011Y94031D01*
X53903Y94082D01*
X53799Y94140D01*
X53759Y94150D01*
X53723Y94167D01*
X53704Y94171D01*
X49229Y98645D01*
X49229Y106355D01*
X50937Y108063D01*
X51022Y108172D01*
X51111Y108279D01*
X51120Y108298D01*
X51132Y108314D01*
X51187Y108442D01*
X51246Y108567D01*
X51250Y108587D01*
X51258Y108606D01*
X51280Y108744D01*
X51306Y108880D01*
X51305Y108900D01*
X51308Y108920D01*
X51295Y109059D01*
X51286Y109197D01*
X51280Y109216D01*
X51278Y109236D01*
X51231Y109368D01*
X51188Y109499D01*
X51178Y109517D01*
X51171Y109536D01*
X51093Y109650D01*
X51018Y109768D01*
X51003Y109782D01*
X50992Y109799D01*
X50888Y109891D01*
X50787Y109986D01*
X50769Y109996D01*
X50754Y110009D01*
X50630Y110073D01*
X50508Y110140D01*
X50489Y110145D01*
X50470Y110154D01*
X50335Y110184D01*
X50200Y110219D01*
X50172Y110221D01*
X50160Y110224D01*
X50140Y110223D01*
X50040Y110229D01*
X46559Y110229D01*
X39229Y117559D01*
X39229Y141034D01*
X39217Y141132D01*
X39214Y141231D01*
X39197Y141289D01*
X39189Y141349D01*
X39153Y141441D01*
X39125Y141536D01*
X39095Y141589D01*
X39072Y141645D01*
X39014Y141725D01*
X38964Y141810D01*
X38898Y141886D01*
X38886Y141902D01*
X38876Y141910D01*
X38858Y141931D01*
X34229Y146559D01*
X34229Y152230D01*
X34214Y152348D01*
X34207Y152467D01*
X34194Y152505D01*
X34189Y152546D01*
X34146Y152656D01*
X34109Y152769D01*
X34087Y152804D01*
X34072Y152841D01*
X34003Y152937D01*
X33939Y153038D01*
X33909Y153066D01*
X33886Y153099D01*
X33794Y153175D01*
X33707Y153256D01*
X33672Y153276D01*
X33641Y153301D01*
X33533Y153352D01*
X33429Y153410D01*
X33389Y153420D01*
X33353Y153437D01*
X33236Y153459D01*
X33121Y153489D01*
X33061Y153493D01*
X33041Y153497D01*
X33020Y153495D01*
X32960Y153499D01*
X31085Y153499D01*
X30499Y154085D01*
X30499Y165915D01*
X31085Y166501D01*
X41915Y166501D01*
X42501Y165915D01*
X42501Y154085D01*
X41915Y153499D01*
X40040Y153499D01*
X39922Y153484D01*
X39803Y153477D01*
X39765Y153464D01*
X39724Y153459D01*
X39614Y153416D01*
X39501Y153379D01*
X39466Y153357D01*
X39429Y153342D01*
X39333Y153273D01*
X39232Y153209D01*
X39204Y153179D01*
X39171Y153156D01*
X39095Y153064D01*
X39014Y152977D01*
X38994Y152942D01*
X38969Y152911D01*
X38918Y152803D01*
X38860Y152699D01*
X38850Y152659D01*
X38833Y152623D01*
X38811Y152506D01*
X38781Y152391D01*
X38777Y152331D01*
X38773Y152311D01*
X38775Y152290D01*
X38771Y152230D01*
X38771Y148966D01*
X38783Y148868D01*
X38786Y148769D01*
X38803Y148711D01*
X38811Y148651D01*
X38847Y148559D01*
X38875Y148464D01*
X38905Y148411D01*
X38928Y148355D01*
X38986Y148275D01*
X39036Y148190D01*
X39102Y148114D01*
X39114Y148098D01*
X39124Y148090D01*
X39142Y148069D01*
X42557Y144654D01*
X42597Y144623D01*
X42630Y144587D01*
X42722Y144526D01*
X42809Y144459D01*
X42854Y144439D01*
X42896Y144412D01*
X43000Y144376D01*
X43101Y144333D01*
X43150Y144325D01*
X43197Y144309D01*
X43306Y144300D01*
X43415Y144283D01*
X43464Y144287D01*
X43514Y144283D01*
X43622Y144302D01*
X43731Y144313D01*
X43778Y144329D01*
X43827Y144338D01*
X43927Y144383D01*
X44031Y144420D01*
X44072Y144448D01*
X44117Y144468D01*
X44203Y144537D01*
X44294Y144599D01*
X44327Y144636D01*
X44365Y144667D01*
X44432Y144755D01*
X44504Y144837D01*
X44527Y144881D01*
X44557Y144921D01*
X44628Y145066D01*
X45263Y146599D01*
X46951Y148287D01*
X49156Y149201D01*
X62544Y149201D01*
X64749Y148287D01*
X66437Y146599D01*
X67351Y144394D01*
X67351Y142006D01*
X66437Y139801D01*
X65054Y138417D01*
X64969Y138308D01*
X64880Y138201D01*
X64871Y138182D01*
X64859Y138166D01*
X64803Y138038D01*
X64744Y137913D01*
X64741Y137893D01*
X64732Y137874D01*
X64711Y137736D01*
X64685Y137600D01*
X64686Y137580D01*
X64683Y137560D01*
X64696Y137421D01*
X64704Y137283D01*
X64711Y137264D01*
X64712Y137244D01*
X64760Y137112D01*
X64802Y136981D01*
X64813Y136963D01*
X64820Y136944D01*
X64898Y136829D01*
X64973Y136712D01*
X64987Y136698D01*
X64999Y136681D01*
X65103Y136589D01*
X65204Y136494D01*
X65222Y136484D01*
X65237Y136471D01*
X65361Y136407D01*
X65483Y136340D01*
X65502Y136335D01*
X65520Y136326D01*
X65656Y136296D01*
X65791Y136261D01*
X65819Y136259D01*
X65831Y136256D01*
X65851Y136257D01*
X65951Y136251D01*
X74014Y136251D01*
X74260Y136006D01*
X74354Y135933D01*
X74443Y135854D01*
X74479Y135835D01*
X74511Y135811D01*
X74620Y135763D01*
X74726Y135709D01*
X74766Y135700D01*
X74803Y135684D01*
X74921Y135666D01*
X75037Y135639D01*
X75077Y135641D01*
X75117Y135634D01*
X75236Y135646D01*
X75355Y135649D01*
X75393Y135660D01*
X75434Y135664D01*
X75546Y135704D01*
X75660Y135738D01*
X75682Y135751D01*
X78700Y135751D01*
X80751Y133700D01*
X80751Y130800D01*
X80158Y130207D01*
X80073Y130098D01*
X79984Y129991D01*
X79976Y129972D01*
X79963Y129956D01*
X79908Y129829D01*
X79849Y129703D01*
X79845Y129683D01*
X79837Y129664D01*
X79815Y129526D01*
X79789Y129390D01*
X79790Y129370D01*
X79787Y129350D01*
X79800Y129211D01*
X79809Y129073D01*
X79815Y129054D01*
X79817Y129034D01*
X79864Y128902D01*
X79907Y128771D01*
X79918Y128753D01*
X79925Y128734D01*
X80003Y128619D01*
X80077Y128502D01*
X80092Y128488D01*
X80103Y128471D01*
X80207Y128379D01*
X80309Y128284D01*
X80326Y128274D01*
X80342Y128261D01*
X80465Y128198D01*
X80587Y128130D01*
X80607Y128125D01*
X80625Y128116D01*
X80761Y128086D01*
X80895Y128051D01*
X80923Y128049D01*
X80935Y128046D01*
X80956Y128047D01*
X81056Y128041D01*
X81467Y128041D01*
X83541Y125967D01*
X83541Y123033D01*
X81467Y120959D01*
X75870Y120959D01*
X75752Y120944D01*
X75633Y120937D01*
X75595Y120924D01*
X75554Y120919D01*
X75444Y120876D01*
X75331Y120839D01*
X75296Y120817D01*
X75259Y120802D01*
X75163Y120733D01*
X75062Y120669D01*
X75034Y120639D01*
X75001Y120616D01*
X74925Y120524D01*
X74844Y120437D01*
X74824Y120402D01*
X74799Y120371D01*
X74748Y120263D01*
X74690Y120159D01*
X74680Y120119D01*
X74663Y120083D01*
X74641Y119966D01*
X74611Y119851D01*
X74607Y119791D01*
X74603Y119771D01*
X74605Y119750D01*
X74601Y119690D01*
X74601Y115376D01*
X74592Y115355D01*
X74573Y115237D01*
X74547Y115121D01*
X74548Y115080D01*
X74542Y115041D01*
X74553Y114922D01*
X74556Y114803D01*
X74568Y114764D01*
X74571Y114724D01*
X74601Y114642D01*
X74601Y112040D01*
X74616Y111922D01*
X74623Y111803D01*
X74636Y111765D01*
X74641Y111724D01*
X74684Y111614D01*
X74721Y111501D01*
X74743Y111466D01*
X74758Y111429D01*
X74827Y111333D01*
X74891Y111232D01*
X74921Y111204D01*
X74944Y111171D01*
X75036Y111095D01*
X75123Y111014D01*
X75158Y110994D01*
X75189Y110969D01*
X75297Y110918D01*
X75401Y110860D01*
X75441Y110850D01*
X75477Y110833D01*
X75594Y110811D01*
X75709Y110781D01*
X75769Y110777D01*
X75789Y110773D01*
X75810Y110775D01*
X75870Y110771D01*
X94039Y110771D01*
X94138Y110783D01*
X94237Y110786D01*
X94295Y110803D01*
X94355Y110811D01*
X94447Y110847D01*
X94542Y110875D01*
X94594Y110905D01*
X94651Y110928D01*
X94731Y110986D01*
X94816Y111036D01*
X94892Y111102D01*
X94908Y111114D01*
X94916Y111124D01*
X94937Y111142D01*
X96628Y112833D01*
X96688Y112911D01*
X96756Y112983D01*
X96785Y113036D01*
X96822Y113084D01*
X96862Y113175D01*
X96910Y113262D01*
X96925Y113320D01*
X96949Y113376D01*
X96964Y113474D01*
X96989Y113570D01*
X96995Y113670D01*
X96999Y113690D01*
X96997Y113703D01*
X96999Y113731D01*
X96999Y121329D01*
X98171Y122501D01*
X109829Y122501D01*
X111001Y121329D01*
X111001Y108671D01*
X109829Y107499D01*
X101071Y107499D01*
X100972Y107487D01*
X100873Y107484D01*
X100815Y107467D01*
X100755Y107459D01*
X100663Y107423D01*
X100568Y107395D01*
X100516Y107365D01*
X100459Y107342D01*
X100379Y107284D01*
X100294Y107234D01*
X100218Y107168D01*
X100202Y107156D01*
X100194Y107146D01*
X100173Y107128D01*
X98943Y105897D01*
X98870Y105803D01*
X98791Y105714D01*
X98773Y105678D01*
X98748Y105646D01*
X98701Y105537D01*
X98647Y105431D01*
X98638Y105392D01*
X98622Y105354D01*
X98603Y105237D01*
X98577Y105121D01*
X98578Y105080D01*
X98572Y105040D01*
X98583Y104922D01*
X98587Y104803D01*
X98598Y104764D01*
X98602Y104724D01*
X98642Y104612D01*
X98675Y104497D01*
X98696Y104462D01*
X98709Y104424D01*
X98776Y104326D01*
X98837Y104223D01*
X98876Y104178D01*
X98888Y104161D01*
X98903Y104148D01*
X98943Y104102D01*
X100173Y102872D01*
X100251Y102812D01*
X100323Y102744D01*
X100377Y102715D01*
X100424Y102678D01*
X100515Y102638D01*
X100602Y102590D01*
X100661Y102575D01*
X100716Y102551D01*
X100814Y102536D01*
X100910Y102511D01*
X101010Y102505D01*
X101030Y102501D01*
X101043Y102503D01*
X101071Y102501D01*
X109829Y102501D01*
X111001Y101329D01*
X111001Y88671D01*
X109829Y87499D01*
X98161Y87499D01*
X98098Y87548D01*
X97991Y87637D01*
X97972Y87646D01*
X97956Y87658D01*
X97828Y87713D01*
X97703Y87772D01*
X97683Y87776D01*
X97664Y87784D01*
X97527Y87806D01*
X97390Y87832D01*
X97370Y87831D01*
X97350Y87834D01*
X97212Y87821D01*
X97073Y87813D01*
X97054Y87806D01*
X97034Y87804D01*
X96903Y87757D01*
X96771Y87714D01*
X96753Y87704D01*
X96734Y87697D01*
X96619Y87619D01*
X96502Y87544D01*
X96488Y87530D01*
X96471Y87518D01*
X96379Y87414D01*
X96284Y87313D01*
X96274Y87295D01*
X96261Y87280D01*
X96197Y87156D01*
X96130Y87034D01*
X96125Y87015D01*
X96116Y86997D01*
X96086Y86860D01*
X96051Y86726D01*
X96049Y86698D01*
X96046Y86686D01*
X96047Y86666D01*
X96041Y86566D01*
X96041Y83770D01*
X96056Y83652D01*
X96063Y83533D01*
X96076Y83495D01*
X96081Y83454D01*
X96124Y83344D01*
X96161Y83231D01*
X96183Y83196D01*
X96198Y83159D01*
X96267Y83063D01*
X96331Y82962D01*
X96361Y82934D01*
X96384Y82901D01*
X96476Y82825D01*
X96563Y82744D01*
X96598Y82724D01*
X96629Y82699D01*
X96737Y82648D01*
X96841Y82590D01*
X96881Y82580D01*
X96917Y82563D01*
X97034Y82541D01*
X97149Y82511D01*
X97209Y82507D01*
X97229Y82503D01*
X97250Y82505D01*
X97310Y82501D01*
X100415Y82501D01*
X101001Y81915D01*
X101001Y68085D01*
X100415Y67499D01*
X84585Y67499D01*
X83999Y68085D01*
X83999Y70690D01*
X83984Y70808D01*
X83977Y70927D01*
X83964Y70965D01*
X83959Y71006D01*
X83916Y71116D01*
X83879Y71229D01*
X83857Y71264D01*
X83842Y71301D01*
X83773Y71397D01*
X83709Y71498D01*
X83679Y71526D01*
X83656Y71559D01*
X83564Y71635D01*
X83477Y71716D01*
X83442Y71736D01*
X83411Y71761D01*
X83303Y71812D01*
X83199Y71870D01*
X83159Y71880D01*
X83123Y71897D01*
X83006Y71919D01*
X82891Y71949D01*
X82831Y71953D01*
X82811Y71957D01*
X82790Y71955D01*
X82730Y71959D01*
X81056Y71959D01*
X80918Y71942D01*
X80779Y71929D01*
X80760Y71922D01*
X80740Y71919D01*
X80611Y71868D01*
X80480Y71821D01*
X80463Y71810D01*
X80445Y71802D01*
X80332Y71721D01*
X80217Y71643D01*
X80204Y71627D01*
X80187Y71616D01*
X80098Y71508D01*
X80006Y71404D01*
X79997Y71386D01*
X79984Y71371D01*
X79925Y71245D01*
X79862Y71121D01*
X79857Y71101D01*
X79849Y71083D01*
X79823Y70946D01*
X79792Y70811D01*
X79793Y70790D01*
X79789Y70771D01*
X79798Y70632D01*
X79802Y70493D01*
X79808Y70473D01*
X79809Y70453D01*
X79852Y70321D01*
X79890Y70187D01*
X79901Y70170D01*
X79907Y70151D01*
X79981Y70033D01*
X80052Y69913D01*
X80070Y69892D01*
X80077Y69882D01*
X80092Y69868D01*
X80158Y69793D01*
X80751Y69200D01*
X80751Y66300D01*
X78700Y64249D01*
X75670Y64249D01*
X75588Y64291D01*
X75549Y64300D01*
X75512Y64316D01*
X75394Y64334D01*
X75278Y64361D01*
X75237Y64359D01*
X75198Y64366D01*
X75079Y64354D01*
X74960Y64351D01*
X74921Y64340D01*
X74881Y64336D01*
X74769Y64296D01*
X74654Y64262D01*
X74620Y64242D01*
X74582Y64228D01*
X74483Y64162D01*
X74381Y64101D01*
X74335Y64061D01*
X74319Y64050D01*
X74305Y64035D01*
X74260Y63994D01*
X74014Y63749D01*
X65951Y63749D01*
X65813Y63732D01*
X65675Y63719D01*
X65656Y63712D01*
X65636Y63709D01*
X65506Y63658D01*
X65376Y63611D01*
X65359Y63600D01*
X65340Y63592D01*
X65228Y63511D01*
X65112Y63433D01*
X65099Y63417D01*
X65083Y63406D01*
X64994Y63298D01*
X64902Y63194D01*
X64893Y63176D01*
X64880Y63161D01*
X64821Y63035D01*
X64757Y62911D01*
X64753Y62891D01*
X64744Y62873D01*
X64718Y62736D01*
X64688Y62601D01*
X64688Y62580D01*
X64685Y62561D01*
X64693Y62422D01*
X64697Y62283D01*
X64703Y62263D01*
X64704Y62243D01*
X64747Y62111D01*
X64786Y61977D01*
X64796Y61960D01*
X64802Y61941D01*
X64877Y61823D01*
X64947Y61703D01*
X64966Y61682D01*
X64973Y61672D01*
X64988Y61658D01*
X65054Y61583D01*
X66437Y60199D01*
X67351Y57994D01*
X67351Y55606D01*
X66437Y53401D01*
X64749Y51713D01*
X62544Y50799D01*
X49156Y50799D01*
X46951Y51713D01*
X45263Y53401D01*
X44628Y54934D01*
X44603Y54977D01*
X44586Y55024D01*
X44525Y55115D01*
X44470Y55211D01*
X44435Y55246D01*
X44408Y55287D01*
X44325Y55360D01*
X44249Y55439D01*
X44206Y55465D01*
X44169Y55498D01*
X44071Y55548D01*
X43978Y55605D01*
X43930Y55620D01*
X43886Y55643D01*
X43779Y55667D01*
X43674Y55699D01*
X43624Y55701D01*
X43576Y55712D01*
X43466Y55709D01*
X43356Y55714D01*
X43308Y55704D01*
X43258Y55703D01*
X43152Y55672D01*
X43045Y55650D01*
X43000Y55628D01*
X42952Y55614D01*
X42858Y55558D01*
X42759Y55510D01*
X42721Y55478D01*
X42678Y55453D01*
X42557Y55346D01*
X39142Y51931D01*
X39082Y51853D01*
X39014Y51781D01*
X38985Y51728D01*
X38948Y51680D01*
X38908Y51589D01*
X38860Y51502D01*
X38845Y51444D01*
X38821Y51388D01*
X38806Y51290D01*
X38781Y51194D01*
X38775Y51094D01*
X38771Y51074D01*
X38773Y51062D01*
X38771Y51034D01*
X38771Y47770D01*
X38786Y47652D01*
X38793Y47533D01*
X38806Y47495D01*
X38811Y47454D01*
X38854Y47344D01*
X38891Y47231D01*
X38913Y47196D01*
X38928Y47159D01*
X38997Y47063D01*
X39061Y46962D01*
X39091Y46934D01*
X39114Y46901D01*
X39206Y46825D01*
X39293Y46744D01*
X39328Y46724D01*
X39359Y46699D01*
X39467Y46648D01*
X39571Y46590D01*
X39611Y46580D01*
X39647Y46563D01*
X39764Y46541D01*
X39879Y46511D01*
X39939Y46507D01*
X39959Y46503D01*
X39980Y46505D01*
X40040Y46501D01*
X41915Y46501D01*
X42501Y45915D01*
X42501Y34085D01*
X41915Y33499D01*
X31085Y33499D01*
G37*
%LPD*%
%LPC*%
G36*
X107085Y69499D02*
X107085Y69499D01*
X106499Y70085D01*
X106499Y81915D01*
X107085Y82501D01*
X117915Y82501D01*
X118501Y81915D01*
X118501Y79776D01*
X118518Y79639D01*
X118531Y79500D01*
X118538Y79481D01*
X118541Y79461D01*
X118592Y79332D01*
X118639Y79201D01*
X118650Y79184D01*
X118658Y79165D01*
X118739Y79053D01*
X118817Y78938D01*
X118833Y78924D01*
X118844Y78908D01*
X118952Y78819D01*
X119056Y78727D01*
X119074Y78718D01*
X119089Y78705D01*
X119215Y78646D01*
X119339Y78582D01*
X119359Y78578D01*
X119377Y78569D01*
X119513Y78543D01*
X119649Y78513D01*
X119670Y78513D01*
X119689Y78510D01*
X119828Y78518D01*
X119967Y78522D01*
X119987Y78528D01*
X120007Y78529D01*
X120139Y78572D01*
X120273Y78611D01*
X120290Y78621D01*
X120309Y78627D01*
X120427Y78702D01*
X120547Y78772D01*
X120568Y78791D01*
X120578Y78798D01*
X120592Y78812D01*
X120667Y78879D01*
X127121Y85333D01*
X127206Y85442D01*
X127295Y85549D01*
X127304Y85568D01*
X127316Y85584D01*
X127372Y85712D01*
X127431Y85837D01*
X127434Y85857D01*
X127443Y85876D01*
X127464Y86013D01*
X127490Y86150D01*
X127489Y86170D01*
X127492Y86190D01*
X127479Y86329D01*
X127471Y86467D01*
X127464Y86486D01*
X127463Y86506D01*
X127415Y86638D01*
X127373Y86769D01*
X127362Y86787D01*
X127355Y86806D01*
X127277Y86921D01*
X127202Y87038D01*
X127188Y87052D01*
X127176Y87069D01*
X127072Y87161D01*
X126971Y87256D01*
X126953Y87266D01*
X126938Y87279D01*
X126814Y87342D01*
X126692Y87410D01*
X126673Y87415D01*
X126655Y87424D01*
X126519Y87454D01*
X126384Y87489D01*
X126356Y87491D01*
X126344Y87494D01*
X126324Y87493D01*
X126224Y87499D01*
X115171Y87499D01*
X113999Y88671D01*
X113999Y101329D01*
X115171Y102501D01*
X123929Y102501D01*
X124028Y102513D01*
X124127Y102516D01*
X124185Y102533D01*
X124245Y102541D01*
X124337Y102577D01*
X124432Y102605D01*
X124484Y102635D01*
X124541Y102658D01*
X124621Y102716D01*
X124706Y102766D01*
X124782Y102832D01*
X124798Y102844D01*
X124806Y102854D01*
X124827Y102872D01*
X125667Y103713D01*
X126057Y104102D01*
X126130Y104197D01*
X126209Y104286D01*
X126227Y104322D01*
X126252Y104354D01*
X126299Y104463D01*
X126353Y104569D01*
X126362Y104609D01*
X126378Y104646D01*
X126397Y104763D01*
X126423Y104879D01*
X126422Y104920D01*
X126428Y104960D01*
X126417Y105078D01*
X126413Y105197D01*
X126402Y105236D01*
X126398Y105276D01*
X126358Y105389D01*
X126325Y105503D01*
X126304Y105537D01*
X126291Y105576D01*
X126224Y105674D01*
X126163Y105777D01*
X126124Y105822D01*
X126112Y105839D01*
X126097Y105852D01*
X126057Y105897D01*
X124827Y107128D01*
X124749Y107188D01*
X124677Y107256D01*
X124624Y107285D01*
X124576Y107322D01*
X124485Y107362D01*
X124398Y107410D01*
X124340Y107425D01*
X124284Y107449D01*
X124186Y107464D01*
X124090Y107489D01*
X123990Y107495D01*
X123970Y107499D01*
X123957Y107497D01*
X123929Y107499D01*
X115171Y107499D01*
X113999Y108671D01*
X113999Y121329D01*
X115171Y122501D01*
X126829Y122501D01*
X128001Y121329D01*
X128001Y113731D01*
X128013Y113632D01*
X128016Y113533D01*
X128033Y113475D01*
X128041Y113415D01*
X128077Y113323D01*
X128105Y113228D01*
X128135Y113176D01*
X128158Y113119D01*
X128216Y113039D01*
X128266Y112954D01*
X128332Y112878D01*
X128344Y112862D01*
X128354Y112854D01*
X128372Y112833D01*
X130293Y110912D01*
X130371Y110852D01*
X130443Y110784D01*
X130496Y110755D01*
X130544Y110718D01*
X130635Y110678D01*
X130722Y110630D01*
X130780Y110615D01*
X130836Y110591D01*
X130934Y110576D01*
X131030Y110551D01*
X131130Y110545D01*
X131150Y110541D01*
X131163Y110543D01*
X131191Y110541D01*
X140389Y110541D01*
X140488Y110553D01*
X140587Y110556D01*
X140645Y110573D01*
X140705Y110581D01*
X140797Y110617D01*
X140892Y110645D01*
X140944Y110675D01*
X141001Y110698D01*
X141081Y110756D01*
X141166Y110806D01*
X141242Y110872D01*
X141258Y110884D01*
X141266Y110894D01*
X141287Y110912D01*
X148645Y118271D01*
X162980Y118271D01*
X163098Y118286D01*
X163217Y118293D01*
X163255Y118306D01*
X163296Y118311D01*
X163406Y118354D01*
X163519Y118391D01*
X163554Y118413D01*
X163591Y118428D01*
X163687Y118497D01*
X163788Y118561D01*
X163816Y118591D01*
X163849Y118614D01*
X163925Y118706D01*
X163947Y118731D01*
X170250Y118731D01*
X176251Y118731D01*
X176251Y118487D01*
X176143Y118084D01*
X176128Y117979D01*
X176105Y117876D01*
X176107Y117822D01*
X176100Y117769D01*
X176112Y117664D01*
X176115Y117558D01*
X176130Y117507D01*
X176136Y117453D01*
X176174Y117354D01*
X176203Y117253D01*
X176231Y117206D01*
X176250Y117156D01*
X176251Y117155D01*
X176251Y107921D01*
X175622Y107293D01*
X175562Y107215D01*
X175494Y107143D01*
X175465Y107090D01*
X175428Y107042D01*
X175388Y106951D01*
X175340Y106864D01*
X175325Y106806D01*
X175301Y106750D01*
X175286Y106652D01*
X175261Y106556D01*
X175255Y106456D01*
X175251Y106436D01*
X175253Y106424D01*
X175251Y106396D01*
X175251Y103318D01*
X175240Y103303D01*
X175161Y103214D01*
X175143Y103178D01*
X175118Y103146D01*
X175070Y103037D01*
X175016Y102931D01*
X175008Y102892D01*
X174991Y102854D01*
X174973Y102737D01*
X174947Y102621D01*
X174948Y102580D01*
X174942Y102540D01*
X174953Y102422D01*
X174956Y102303D01*
X174968Y102264D01*
X174971Y102224D01*
X175012Y102112D01*
X175045Y101997D01*
X175065Y101963D01*
X175079Y101924D01*
X175146Y101826D01*
X175206Y101723D01*
X175246Y101678D01*
X175251Y101671D01*
X175251Y98604D01*
X175263Y98506D01*
X175266Y98407D01*
X175283Y98349D01*
X175291Y98289D01*
X175327Y98197D01*
X175355Y98102D01*
X175385Y98050D01*
X175408Y97993D01*
X175466Y97913D01*
X175516Y97828D01*
X175582Y97752D01*
X175594Y97736D01*
X175604Y97728D01*
X175622Y97707D01*
X175851Y97479D01*
X176114Y97022D01*
X176251Y96513D01*
X176251Y96269D01*
X170250Y96269D01*
X163966Y96269D01*
X163933Y96319D01*
X163917Y96332D01*
X163906Y96349D01*
X163798Y96437D01*
X163694Y96529D01*
X163676Y96539D01*
X163661Y96551D01*
X163535Y96611D01*
X163411Y96674D01*
X163391Y96678D01*
X163373Y96687D01*
X163236Y96713D01*
X163101Y96744D01*
X163080Y96743D01*
X163061Y96747D01*
X162922Y96738D01*
X162783Y96734D01*
X162763Y96728D01*
X162743Y96727D01*
X162611Y96684D01*
X162477Y96646D01*
X162460Y96635D01*
X162441Y96629D01*
X162323Y96554D01*
X162203Y96484D01*
X162182Y96465D01*
X162172Y96459D01*
X162158Y96444D01*
X162083Y96378D01*
X160136Y94431D01*
X158434Y92729D01*
X141466Y92729D01*
X141368Y92717D01*
X141269Y92714D01*
X141211Y92697D01*
X141151Y92689D01*
X141059Y92653D01*
X140964Y92625D01*
X140911Y92595D01*
X140855Y92572D01*
X140775Y92514D01*
X140690Y92464D01*
X140614Y92398D01*
X140598Y92386D01*
X140590Y92376D01*
X140569Y92358D01*
X121941Y73729D01*
X119770Y73729D01*
X119652Y73714D01*
X119533Y73707D01*
X119495Y73694D01*
X119454Y73689D01*
X119344Y73646D01*
X119231Y73609D01*
X119196Y73587D01*
X119159Y73572D01*
X119063Y73503D01*
X118962Y73439D01*
X118934Y73409D01*
X118901Y73386D01*
X118825Y73294D01*
X118744Y73207D01*
X118724Y73172D01*
X118699Y73141D01*
X118648Y73033D01*
X118590Y72929D01*
X118580Y72889D01*
X118563Y72853D01*
X118541Y72736D01*
X118511Y72621D01*
X118507Y72560D01*
X118503Y72541D01*
X118505Y72520D01*
X118501Y72460D01*
X118501Y70085D01*
X117915Y69499D01*
X107085Y69499D01*
G37*
%LPD*%
%LPC*%
G36*
X239750Y81269D02*
X239750Y81269D01*
X233749Y81269D01*
X233749Y81513D01*
X233886Y82022D01*
X234149Y82478D01*
X234377Y82707D01*
X234438Y82785D01*
X234506Y82857D01*
X234535Y82910D01*
X234572Y82958D01*
X234612Y83049D01*
X234660Y83136D01*
X234675Y83194D01*
X234699Y83250D01*
X234714Y83348D01*
X234739Y83444D01*
X234745Y83544D01*
X234749Y83564D01*
X234747Y83576D01*
X234749Y83604D01*
X234749Y86682D01*
X234760Y86697D01*
X234839Y86786D01*
X234857Y86822D01*
X234882Y86854D01*
X234930Y86963D01*
X234984Y87069D01*
X234992Y87108D01*
X235009Y87146D01*
X235027Y87263D01*
X235053Y87379D01*
X235052Y87420D01*
X235058Y87460D01*
X235047Y87578D01*
X235044Y87697D01*
X235032Y87736D01*
X235029Y87776D01*
X234988Y87888D01*
X234955Y88003D01*
X234935Y88037D01*
X234921Y88076D01*
X234854Y88174D01*
X234794Y88277D01*
X234754Y88322D01*
X234749Y88329D01*
X234749Y91682D01*
X234760Y91697D01*
X234839Y91786D01*
X234857Y91822D01*
X234882Y91854D01*
X234930Y91963D01*
X234984Y92069D01*
X234992Y92108D01*
X235009Y92146D01*
X235027Y92263D01*
X235053Y92379D01*
X235052Y92420D01*
X235058Y92460D01*
X235047Y92578D01*
X235044Y92697D01*
X235032Y92736D01*
X235029Y92776D01*
X234988Y92888D01*
X234955Y93003D01*
X234935Y93037D01*
X234921Y93076D01*
X234854Y93174D01*
X234794Y93277D01*
X234754Y93322D01*
X234749Y93329D01*
X234749Y96682D01*
X234760Y96697D01*
X234839Y96786D01*
X234857Y96822D01*
X234882Y96854D01*
X234930Y96963D01*
X234984Y97069D01*
X234992Y97108D01*
X235009Y97146D01*
X235027Y97263D01*
X235053Y97379D01*
X235052Y97420D01*
X235058Y97460D01*
X235047Y97578D01*
X235044Y97697D01*
X235032Y97736D01*
X235029Y97776D01*
X234988Y97888D01*
X234955Y98003D01*
X234935Y98037D01*
X234921Y98076D01*
X234854Y98174D01*
X234794Y98277D01*
X234754Y98322D01*
X234749Y98329D01*
X234749Y101682D01*
X234760Y101697D01*
X234839Y101786D01*
X234857Y101822D01*
X234882Y101854D01*
X234930Y101963D01*
X234984Y102069D01*
X234992Y102108D01*
X235009Y102146D01*
X235027Y102263D01*
X235053Y102379D01*
X235052Y102420D01*
X235058Y102460D01*
X235047Y102578D01*
X235044Y102697D01*
X235032Y102736D01*
X235029Y102776D01*
X234988Y102888D01*
X234955Y103003D01*
X234935Y103037D01*
X234921Y103076D01*
X234854Y103174D01*
X234794Y103277D01*
X234754Y103322D01*
X234749Y103329D01*
X234749Y106682D01*
X234760Y106697D01*
X234839Y106786D01*
X234857Y106822D01*
X234882Y106854D01*
X234930Y106963D01*
X234984Y107069D01*
X234992Y107108D01*
X235009Y107146D01*
X235027Y107263D01*
X235053Y107379D01*
X235052Y107420D01*
X235058Y107460D01*
X235047Y107578D01*
X235044Y107697D01*
X235032Y107736D01*
X235029Y107776D01*
X234988Y107888D01*
X234955Y108003D01*
X234935Y108037D01*
X234921Y108076D01*
X234854Y108174D01*
X234794Y108277D01*
X234754Y108322D01*
X234749Y108329D01*
X234749Y111682D01*
X234760Y111697D01*
X234839Y111786D01*
X234857Y111822D01*
X234882Y111854D01*
X234930Y111963D01*
X234984Y112069D01*
X234992Y112108D01*
X235009Y112146D01*
X235027Y112263D01*
X235053Y112379D01*
X235052Y112420D01*
X235058Y112460D01*
X235047Y112578D01*
X235044Y112697D01*
X235032Y112736D01*
X235029Y112776D01*
X234988Y112888D01*
X234955Y113003D01*
X234935Y113037D01*
X234921Y113076D01*
X234854Y113174D01*
X234794Y113277D01*
X234754Y113322D01*
X234749Y113329D01*
X234749Y116682D01*
X234760Y116697D01*
X234839Y116786D01*
X234856Y116818D01*
X234859Y116822D01*
X234860Y116826D01*
X234882Y116854D01*
X234930Y116963D01*
X234984Y117069D01*
X234991Y117104D01*
X234994Y117110D01*
X234995Y117115D01*
X235009Y117146D01*
X235027Y117263D01*
X235053Y117379D01*
X235052Y117413D01*
X235054Y117422D01*
X235054Y117429D01*
X235058Y117460D01*
X235047Y117578D01*
X235044Y117697D01*
X235035Y117727D01*
X235034Y117739D01*
X235031Y117749D01*
X235029Y117776D01*
X234988Y117888D01*
X234955Y118003D01*
X234941Y118027D01*
X234936Y118042D01*
X234929Y118053D01*
X234921Y118076D01*
X234854Y118174D01*
X234794Y118277D01*
X234772Y118301D01*
X234766Y118311D01*
X234753Y118322D01*
X234749Y118329D01*
X234749Y121682D01*
X234760Y121697D01*
X234839Y121786D01*
X234857Y121822D01*
X234882Y121854D01*
X234930Y121963D01*
X234984Y122069D01*
X234992Y122108D01*
X235009Y122146D01*
X235027Y122263D01*
X235053Y122379D01*
X235052Y122420D01*
X235058Y122460D01*
X235047Y122578D01*
X235044Y122697D01*
X235032Y122736D01*
X235029Y122776D01*
X234988Y122888D01*
X234955Y123003D01*
X234935Y123037D01*
X234921Y123076D01*
X234854Y123174D01*
X234794Y123277D01*
X234754Y123322D01*
X234749Y123329D01*
X234749Y126665D01*
X235335Y127251D01*
X238264Y127251D01*
X238362Y127263D01*
X238461Y127266D01*
X238477Y127271D01*
X248534Y127271D01*
X248632Y127283D01*
X248731Y127286D01*
X248789Y127303D01*
X248849Y127311D01*
X248941Y127347D01*
X249036Y127375D01*
X249089Y127405D01*
X249145Y127428D01*
X249225Y127486D01*
X249310Y127536D01*
X249386Y127602D01*
X249402Y127614D01*
X249410Y127624D01*
X249431Y127642D01*
X254858Y133069D01*
X254918Y133147D01*
X254986Y133219D01*
X255015Y133272D01*
X255052Y133320D01*
X255092Y133411D01*
X255140Y133498D01*
X255155Y133556D01*
X255179Y133612D01*
X255194Y133710D01*
X255219Y133806D01*
X255225Y133906D01*
X255229Y133926D01*
X255227Y133938D01*
X255229Y133966D01*
X255229Y144230D01*
X255214Y144348D01*
X255207Y144467D01*
X255194Y144505D01*
X255189Y144546D01*
X255146Y144656D01*
X255109Y144769D01*
X255087Y144804D01*
X255072Y144841D01*
X255003Y144937D01*
X254939Y145038D01*
X254909Y145066D01*
X254886Y145099D01*
X254794Y145175D01*
X254707Y145256D01*
X254672Y145276D01*
X254641Y145301D01*
X254533Y145352D01*
X254429Y145410D01*
X254389Y145420D01*
X254353Y145437D01*
X254236Y145459D01*
X254121Y145489D01*
X254061Y145493D01*
X254041Y145497D01*
X254020Y145495D01*
X253960Y145499D01*
X251585Y145499D01*
X250999Y146085D01*
X250999Y156915D01*
X251585Y157501D01*
X263415Y157501D01*
X264001Y156915D01*
X264001Y146085D01*
X263415Y145499D01*
X261040Y145499D01*
X260922Y145484D01*
X260803Y145477D01*
X260765Y145464D01*
X260724Y145459D01*
X260614Y145416D01*
X260501Y145379D01*
X260466Y145357D01*
X260429Y145342D01*
X260333Y145273D01*
X260232Y145209D01*
X260204Y145179D01*
X260171Y145156D01*
X260095Y145064D01*
X260014Y144977D01*
X259994Y144942D01*
X259969Y144911D01*
X259918Y144803D01*
X259860Y144699D01*
X259850Y144659D01*
X259833Y144623D01*
X259811Y144506D01*
X259781Y144391D01*
X259777Y144331D01*
X259773Y144311D01*
X259775Y144290D01*
X259771Y144230D01*
X259771Y131559D01*
X258069Y129858D01*
X252649Y124437D01*
X252564Y124328D01*
X252475Y124221D01*
X252466Y124202D01*
X252454Y124186D01*
X252398Y124058D01*
X252339Y123933D01*
X252336Y123913D01*
X252327Y123894D01*
X252306Y123756D01*
X252280Y123620D01*
X252281Y123600D01*
X252278Y123580D01*
X252291Y123441D01*
X252299Y123303D01*
X252306Y123284D01*
X252307Y123264D01*
X252355Y123132D01*
X252397Y123001D01*
X252408Y122983D01*
X252415Y122964D01*
X252493Y122849D01*
X252568Y122732D01*
X252582Y122718D01*
X252594Y122701D01*
X252698Y122609D01*
X252799Y122514D01*
X252817Y122504D01*
X252832Y122491D01*
X252956Y122427D01*
X253078Y122360D01*
X253097Y122355D01*
X253115Y122346D01*
X253251Y122316D01*
X253386Y122281D01*
X253414Y122279D01*
X253426Y122276D01*
X253446Y122277D01*
X253546Y122271D01*
X267034Y122271D01*
X267132Y122283D01*
X267231Y122286D01*
X267289Y122303D01*
X267349Y122311D01*
X267441Y122347D01*
X267536Y122375D01*
X267589Y122405D01*
X267645Y122428D01*
X267725Y122486D01*
X267810Y122536D01*
X267886Y122602D01*
X267902Y122614D01*
X267910Y122624D01*
X267931Y122642D01*
X277358Y132069D01*
X277418Y132147D01*
X277486Y132219D01*
X277515Y132272D01*
X277552Y132320D01*
X277592Y132411D01*
X277640Y132498D01*
X277655Y132556D01*
X277679Y132612D01*
X277694Y132710D01*
X277719Y132806D01*
X277725Y132906D01*
X277729Y132926D01*
X277727Y132938D01*
X277729Y132966D01*
X277729Y144230D01*
X277714Y144348D01*
X277707Y144467D01*
X277694Y144505D01*
X277689Y144546D01*
X277646Y144656D01*
X277609Y144769D01*
X277587Y144804D01*
X277572Y144841D01*
X277503Y144937D01*
X277439Y145038D01*
X277409Y145066D01*
X277386Y145099D01*
X277294Y145175D01*
X277207Y145256D01*
X277172Y145276D01*
X277141Y145301D01*
X277033Y145352D01*
X276929Y145410D01*
X276889Y145420D01*
X276853Y145437D01*
X276736Y145459D01*
X276621Y145489D01*
X276561Y145493D01*
X276541Y145497D01*
X276520Y145495D01*
X276460Y145499D01*
X274085Y145499D01*
X273499Y146085D01*
X273499Y156915D01*
X274085Y157501D01*
X285915Y157501D01*
X286501Y156915D01*
X286501Y146085D01*
X285915Y145499D01*
X283540Y145499D01*
X283422Y145484D01*
X283303Y145477D01*
X283265Y145464D01*
X283224Y145459D01*
X283114Y145416D01*
X283001Y145379D01*
X282966Y145357D01*
X282929Y145342D01*
X282833Y145273D01*
X282732Y145209D01*
X282704Y145179D01*
X282671Y145156D01*
X282595Y145064D01*
X282514Y144977D01*
X282494Y144942D01*
X282469Y144911D01*
X282418Y144803D01*
X282360Y144699D01*
X282350Y144659D01*
X282333Y144623D01*
X282311Y144506D01*
X282281Y144391D01*
X282277Y144331D01*
X282273Y144311D01*
X282275Y144290D01*
X282271Y144230D01*
X282271Y130559D01*
X269441Y117729D01*
X246020Y117729D01*
X245902Y117714D01*
X245783Y117707D01*
X245745Y117694D01*
X245704Y117689D01*
X245594Y117646D01*
X245481Y117609D01*
X245446Y117587D01*
X245409Y117572D01*
X245312Y117502D01*
X245212Y117439D01*
X245184Y117409D01*
X245151Y117386D01*
X245075Y117294D01*
X244994Y117207D01*
X244974Y117172D01*
X244949Y117141D01*
X244898Y117033D01*
X244840Y116929D01*
X244830Y116889D01*
X244813Y116853D01*
X244791Y116736D01*
X244761Y116621D01*
X244757Y116561D01*
X244753Y116541D01*
X244755Y116520D01*
X244751Y116460D01*
X244751Y113318D01*
X244740Y113303D01*
X244661Y113214D01*
X244643Y113178D01*
X244618Y113146D01*
X244570Y113037D01*
X244516Y112931D01*
X244508Y112891D01*
X244491Y112854D01*
X244473Y112737D01*
X244447Y112621D01*
X244448Y112580D01*
X244442Y112540D01*
X244453Y112421D01*
X244456Y112303D01*
X244468Y112264D01*
X244471Y112224D01*
X244512Y112111D01*
X244545Y111997D01*
X244565Y111962D01*
X244579Y111924D01*
X244646Y111826D01*
X244706Y111723D01*
X244746Y111678D01*
X244751Y111671D01*
X244751Y108318D01*
X244740Y108303D01*
X244661Y108214D01*
X244643Y108178D01*
X244618Y108146D01*
X244570Y108037D01*
X244516Y107931D01*
X244508Y107891D01*
X244491Y107854D01*
X244473Y107737D01*
X244447Y107621D01*
X244448Y107580D01*
X244442Y107540D01*
X244453Y107421D01*
X244456Y107303D01*
X244468Y107264D01*
X244471Y107224D01*
X244512Y107111D01*
X244545Y106997D01*
X244565Y106962D01*
X244579Y106924D01*
X244646Y106826D01*
X244706Y106723D01*
X244746Y106678D01*
X244751Y106671D01*
X244751Y103318D01*
X244740Y103303D01*
X244661Y103214D01*
X244643Y103178D01*
X244618Y103146D01*
X244570Y103037D01*
X244516Y102931D01*
X244508Y102891D01*
X244491Y102854D01*
X244473Y102737D01*
X244447Y102621D01*
X244448Y102580D01*
X244442Y102540D01*
X244453Y102421D01*
X244456Y102303D01*
X244468Y102264D01*
X244471Y102224D01*
X244512Y102111D01*
X244545Y101997D01*
X244565Y101962D01*
X244579Y101924D01*
X244646Y101826D01*
X244706Y101723D01*
X244746Y101678D01*
X244751Y101671D01*
X244751Y98318D01*
X244740Y98303D01*
X244661Y98214D01*
X244643Y98178D01*
X244618Y98146D01*
X244570Y98037D01*
X244516Y97931D01*
X244508Y97891D01*
X244491Y97854D01*
X244473Y97737D01*
X244447Y97621D01*
X244448Y97580D01*
X244442Y97540D01*
X244453Y97421D01*
X244456Y97303D01*
X244468Y97264D01*
X244471Y97224D01*
X244512Y97111D01*
X244545Y96997D01*
X244565Y96962D01*
X244579Y96924D01*
X244646Y96826D01*
X244706Y96723D01*
X244746Y96678D01*
X244751Y96671D01*
X244751Y93318D01*
X244740Y93303D01*
X244661Y93214D01*
X244643Y93178D01*
X244618Y93146D01*
X244570Y93037D01*
X244516Y92931D01*
X244508Y92891D01*
X244491Y92854D01*
X244473Y92737D01*
X244447Y92621D01*
X244448Y92580D01*
X244442Y92540D01*
X244453Y92421D01*
X244456Y92303D01*
X244468Y92264D01*
X244471Y92224D01*
X244512Y92111D01*
X244545Y91997D01*
X244565Y91962D01*
X244579Y91924D01*
X244646Y91826D01*
X244706Y91723D01*
X244746Y91678D01*
X244751Y91671D01*
X244751Y88318D01*
X244740Y88303D01*
X244661Y88214D01*
X244643Y88178D01*
X244618Y88146D01*
X244570Y88037D01*
X244516Y87931D01*
X244508Y87891D01*
X244491Y87854D01*
X244473Y87737D01*
X244447Y87621D01*
X244448Y87580D01*
X244442Y87540D01*
X244453Y87421D01*
X244456Y87303D01*
X244468Y87264D01*
X244471Y87224D01*
X244512Y87111D01*
X244545Y86997D01*
X244565Y86962D01*
X244579Y86924D01*
X244646Y86826D01*
X244706Y86723D01*
X244746Y86678D01*
X244751Y86671D01*
X244751Y83604D01*
X244763Y83506D01*
X244766Y83407D01*
X244783Y83349D01*
X244791Y83289D01*
X244827Y83197D01*
X244855Y83102D01*
X244885Y83050D01*
X244908Y82993D01*
X244966Y82913D01*
X245016Y82828D01*
X245082Y82752D01*
X245094Y82736D01*
X245104Y82728D01*
X245122Y82707D01*
X245351Y82479D01*
X245614Y82022D01*
X245751Y81513D01*
X245751Y81269D01*
X239750Y81269D01*
X239750Y81269D01*
G37*
%LPD*%
%LPC*%
G36*
X118550Y37499D02*
X118550Y37499D01*
X116499Y39550D01*
X116499Y42450D01*
X117358Y43308D01*
X117418Y43387D01*
X117486Y43459D01*
X117515Y43512D01*
X117552Y43560D01*
X117592Y43651D01*
X117640Y43737D01*
X117655Y43796D01*
X117679Y43851D01*
X117694Y43949D01*
X117719Y44045D01*
X117725Y44145D01*
X117729Y44166D01*
X117727Y44178D01*
X117729Y44206D01*
X117729Y47098D01*
X117773Y47111D01*
X117790Y47121D01*
X117809Y47127D01*
X117927Y47202D01*
X118047Y47272D01*
X118068Y47291D01*
X118078Y47298D01*
X118092Y47313D01*
X118167Y47379D01*
X119431Y48642D01*
X126559Y55771D01*
X127230Y55771D01*
X127348Y55786D01*
X127467Y55793D01*
X127505Y55806D01*
X127546Y55811D01*
X127656Y55854D01*
X127769Y55891D01*
X127804Y55913D01*
X127841Y55928D01*
X127937Y55997D01*
X128038Y56061D01*
X128066Y56091D01*
X128099Y56114D01*
X128175Y56206D01*
X128256Y56293D01*
X128276Y56328D01*
X128301Y56359D01*
X128352Y56467D01*
X128410Y56571D01*
X128420Y56611D01*
X128437Y56647D01*
X128459Y56764D01*
X128489Y56879D01*
X128493Y56939D01*
X128497Y56959D01*
X128495Y56980D01*
X128499Y57040D01*
X128499Y58915D01*
X129085Y59501D01*
X131460Y59501D01*
X131578Y59516D01*
X131697Y59523D01*
X131735Y59536D01*
X131776Y59541D01*
X131886Y59584D01*
X131999Y59621D01*
X132034Y59643D01*
X132071Y59658D01*
X132167Y59727D01*
X132268Y59791D01*
X132296Y59821D01*
X132329Y59844D01*
X132405Y59936D01*
X132486Y60023D01*
X132506Y60058D01*
X132531Y60089D01*
X132582Y60197D01*
X132640Y60301D01*
X132650Y60341D01*
X132667Y60377D01*
X132689Y60494D01*
X132719Y60609D01*
X132723Y60669D01*
X132727Y60689D01*
X132725Y60710D01*
X132729Y60770D01*
X132729Y72291D01*
X134778Y74339D01*
X134838Y74417D01*
X134906Y74489D01*
X134935Y74542D01*
X134972Y74590D01*
X135012Y74681D01*
X135060Y74768D01*
X135075Y74826D01*
X135099Y74882D01*
X135114Y74980D01*
X135139Y75076D01*
X135145Y75176D01*
X135149Y75196D01*
X135147Y75208D01*
X135149Y75236D01*
X135149Y76450D01*
X137200Y78501D01*
X140100Y78501D01*
X142151Y76450D01*
X142151Y73550D01*
X140100Y71499D01*
X138886Y71499D01*
X138788Y71487D01*
X138689Y71484D01*
X138631Y71467D01*
X138571Y71459D01*
X138479Y71423D01*
X138384Y71395D01*
X138331Y71365D01*
X138275Y71342D01*
X138195Y71284D01*
X138110Y71234D01*
X138034Y71168D01*
X138018Y71156D01*
X138010Y71146D01*
X137989Y71128D01*
X137642Y70781D01*
X137582Y70703D01*
X137514Y70631D01*
X137485Y70578D01*
X137448Y70530D01*
X137408Y70439D01*
X137360Y70352D01*
X137345Y70294D01*
X137321Y70238D01*
X137306Y70140D01*
X137281Y70044D01*
X137275Y69944D01*
X137271Y69924D01*
X137273Y69912D01*
X137271Y69884D01*
X137271Y60770D01*
X137286Y60652D01*
X137293Y60533D01*
X137306Y60495D01*
X137311Y60454D01*
X137354Y60344D01*
X137391Y60231D01*
X137413Y60196D01*
X137428Y60159D01*
X137497Y60063D01*
X137561Y59962D01*
X137591Y59934D01*
X137614Y59901D01*
X137706Y59825D01*
X137793Y59744D01*
X137828Y59724D01*
X137859Y59699D01*
X137967Y59648D01*
X138071Y59590D01*
X138111Y59580D01*
X138147Y59563D01*
X138264Y59541D01*
X138379Y59511D01*
X138439Y59507D01*
X138459Y59503D01*
X138480Y59505D01*
X138540Y59501D01*
X140915Y59501D01*
X141501Y58915D01*
X141501Y57040D01*
X141516Y56922D01*
X141523Y56803D01*
X141536Y56765D01*
X141541Y56724D01*
X141584Y56614D01*
X141621Y56501D01*
X141643Y56466D01*
X141658Y56429D01*
X141727Y56333D01*
X141791Y56232D01*
X141821Y56204D01*
X141844Y56171D01*
X141936Y56095D01*
X142023Y56014D01*
X142058Y55994D01*
X142089Y55969D01*
X142197Y55918D01*
X142301Y55860D01*
X142341Y55850D01*
X142377Y55833D01*
X142494Y55811D01*
X142609Y55781D01*
X142669Y55777D01*
X142689Y55773D01*
X142710Y55775D01*
X142770Y55771D01*
X147730Y55771D01*
X147848Y55786D01*
X147967Y55793D01*
X148005Y55806D01*
X148046Y55811D01*
X148156Y55854D01*
X148269Y55891D01*
X148304Y55913D01*
X148341Y55928D01*
X148437Y55997D01*
X148538Y56061D01*
X148566Y56091D01*
X148599Y56114D01*
X148675Y56206D01*
X148756Y56293D01*
X148776Y56328D01*
X148801Y56359D01*
X148852Y56467D01*
X148910Y56571D01*
X148920Y56611D01*
X148937Y56647D01*
X148959Y56764D01*
X148989Y56879D01*
X148993Y56939D01*
X148997Y56959D01*
X148995Y56980D01*
X148999Y57040D01*
X148999Y59415D01*
X149585Y60001D01*
X160415Y60001D01*
X161001Y59415D01*
X161001Y57040D01*
X161016Y56922D01*
X161023Y56803D01*
X161036Y56765D01*
X161041Y56724D01*
X161084Y56614D01*
X161121Y56501D01*
X161143Y56466D01*
X161158Y56429D01*
X161227Y56333D01*
X161291Y56232D01*
X161321Y56204D01*
X161344Y56171D01*
X161436Y56095D01*
X161523Y56014D01*
X161558Y55994D01*
X161589Y55969D01*
X161697Y55918D01*
X161801Y55860D01*
X161841Y55850D01*
X161877Y55833D01*
X161994Y55811D01*
X162109Y55781D01*
X162169Y55777D01*
X162189Y55773D01*
X162210Y55775D01*
X162270Y55771D01*
X179534Y55771D01*
X179632Y55783D01*
X179731Y55786D01*
X179789Y55803D01*
X179849Y55811D01*
X179941Y55847D01*
X180036Y55875D01*
X180089Y55905D01*
X180145Y55928D01*
X180225Y55986D01*
X180310Y56036D01*
X180386Y56102D01*
X180402Y56114D01*
X180410Y56124D01*
X180431Y56142D01*
X182358Y58069D01*
X182418Y58147D01*
X182486Y58219D01*
X182515Y58272D01*
X182552Y58320D01*
X182592Y58411D01*
X182640Y58498D01*
X182655Y58556D01*
X182679Y58612D01*
X182694Y58710D01*
X182719Y58806D01*
X182724Y58886D01*
X182727Y58900D01*
X182726Y58910D01*
X182729Y58926D01*
X182727Y58938D01*
X182729Y58966D01*
X182729Y58980D01*
X182714Y59098D01*
X182707Y59217D01*
X182699Y59242D01*
X182699Y59243D01*
X182697Y59249D01*
X182694Y59255D01*
X182689Y59296D01*
X182646Y59406D01*
X182609Y59519D01*
X182587Y59554D01*
X182572Y59591D01*
X182503Y59687D01*
X182439Y59788D01*
X182409Y59816D01*
X182386Y59849D01*
X182294Y59925D01*
X182207Y60006D01*
X182172Y60026D01*
X182141Y60051D01*
X182033Y60102D01*
X181929Y60160D01*
X181889Y60170D01*
X181853Y60187D01*
X181736Y60209D01*
X181621Y60239D01*
X181561Y60243D01*
X181541Y60247D01*
X181520Y60245D01*
X181460Y60249D01*
X178335Y60249D01*
X177749Y60835D01*
X177749Y69665D01*
X178335Y70251D01*
X181682Y70251D01*
X181697Y70240D01*
X181786Y70161D01*
X181822Y70143D01*
X181854Y70118D01*
X181963Y70070D01*
X182069Y70016D01*
X182108Y70008D01*
X182146Y69991D01*
X182263Y69973D01*
X182379Y69947D01*
X182420Y69948D01*
X182460Y69942D01*
X182578Y69953D01*
X182697Y69956D01*
X182736Y69968D01*
X182776Y69971D01*
X182888Y70012D01*
X183003Y70045D01*
X183037Y70065D01*
X183076Y70079D01*
X183174Y70146D01*
X183277Y70206D01*
X183322Y70246D01*
X183329Y70251D01*
X186396Y70251D01*
X186494Y70263D01*
X186593Y70266D01*
X186651Y70283D01*
X186711Y70291D01*
X186803Y70327D01*
X186898Y70355D01*
X186950Y70385D01*
X187007Y70408D01*
X187087Y70466D01*
X187172Y70516D01*
X187248Y70582D01*
X187264Y70594D01*
X187272Y70604D01*
X187293Y70622D01*
X187521Y70851D01*
X187978Y71114D01*
X188487Y71251D01*
X188731Y71251D01*
X188731Y65250D01*
X188731Y59249D01*
X188540Y59249D01*
X188422Y59234D01*
X188303Y59227D01*
X188265Y59214D01*
X188224Y59209D01*
X188114Y59166D01*
X188001Y59129D01*
X187966Y59107D01*
X187929Y59092D01*
X187833Y59023D01*
X187732Y58959D01*
X187704Y58929D01*
X187671Y58906D01*
X187595Y58814D01*
X187514Y58727D01*
X187494Y58692D01*
X187469Y58661D01*
X187418Y58553D01*
X187360Y58449D01*
X187350Y58409D01*
X187333Y58373D01*
X187311Y58256D01*
X187281Y58141D01*
X187277Y58081D01*
X187273Y58061D01*
X187275Y58040D01*
X187271Y57980D01*
X187271Y56559D01*
X181941Y51229D01*
X162270Y51229D01*
X162152Y51214D01*
X162033Y51207D01*
X161995Y51194D01*
X161954Y51189D01*
X161844Y51146D01*
X161731Y51109D01*
X161696Y51087D01*
X161659Y51072D01*
X161563Y51003D01*
X161462Y50939D01*
X161434Y50909D01*
X161401Y50886D01*
X161325Y50794D01*
X161244Y50707D01*
X161224Y50672D01*
X161199Y50641D01*
X161148Y50533D01*
X161090Y50429D01*
X161080Y50389D01*
X161063Y50353D01*
X161041Y50236D01*
X161011Y50121D01*
X161007Y50061D01*
X161003Y50041D01*
X161005Y50020D01*
X161001Y49960D01*
X161001Y47585D01*
X160415Y46999D01*
X149585Y46999D01*
X148999Y47585D01*
X148999Y49960D01*
X148984Y50078D01*
X148977Y50197D01*
X148964Y50235D01*
X148959Y50276D01*
X148916Y50386D01*
X148879Y50499D01*
X148857Y50534D01*
X148842Y50571D01*
X148773Y50667D01*
X148709Y50768D01*
X148679Y50796D01*
X148656Y50829D01*
X148564Y50905D01*
X148477Y50986D01*
X148442Y51006D01*
X148411Y51031D01*
X148303Y51082D01*
X148199Y51140D01*
X148159Y51150D01*
X148123Y51167D01*
X148006Y51189D01*
X147891Y51219D01*
X147831Y51223D01*
X147811Y51227D01*
X147790Y51225D01*
X147730Y51229D01*
X142770Y51229D01*
X142652Y51214D01*
X142533Y51207D01*
X142495Y51194D01*
X142454Y51189D01*
X142344Y51146D01*
X142231Y51109D01*
X142196Y51087D01*
X142159Y51072D01*
X142063Y51003D01*
X141962Y50939D01*
X141934Y50909D01*
X141901Y50886D01*
X141825Y50794D01*
X141744Y50707D01*
X141724Y50672D01*
X141699Y50641D01*
X141648Y50533D01*
X141590Y50429D01*
X141580Y50389D01*
X141563Y50353D01*
X141541Y50236D01*
X141511Y50121D01*
X141507Y50061D01*
X141503Y50041D01*
X141505Y50020D01*
X141501Y49960D01*
X141501Y48085D01*
X140915Y47499D01*
X129085Y47499D01*
X128499Y48085D01*
X128499Y48224D01*
X128482Y48361D01*
X128469Y48500D01*
X128462Y48519D01*
X128459Y48539D01*
X128408Y48668D01*
X128361Y48799D01*
X128350Y48816D01*
X128342Y48835D01*
X128261Y48947D01*
X128183Y49063D01*
X128167Y49076D01*
X128156Y49092D01*
X128048Y49181D01*
X127944Y49273D01*
X127926Y49282D01*
X127911Y49295D01*
X127785Y49354D01*
X127661Y49418D01*
X127641Y49422D01*
X127623Y49431D01*
X127487Y49457D01*
X127351Y49487D01*
X127330Y49487D01*
X127311Y49490D01*
X127172Y49482D01*
X127033Y49478D01*
X127013Y49472D01*
X126993Y49471D01*
X126861Y49428D01*
X126727Y49389D01*
X126710Y49379D01*
X126691Y49373D01*
X126573Y49298D01*
X126453Y49228D01*
X126432Y49209D01*
X126422Y49202D01*
X126408Y49187D01*
X126333Y49121D01*
X122642Y45431D01*
X122582Y45353D01*
X122514Y45281D01*
X122485Y45228D01*
X122448Y45180D01*
X122408Y45089D01*
X122360Y45002D01*
X122345Y44944D01*
X122321Y44888D01*
X122306Y44790D01*
X122281Y44694D01*
X122275Y44594D01*
X122271Y44574D01*
X122273Y44562D01*
X122271Y44534D01*
X122271Y44206D01*
X122283Y44108D01*
X122286Y44009D01*
X122303Y43950D01*
X122311Y43890D01*
X122347Y43798D01*
X122375Y43703D01*
X122405Y43651D01*
X122428Y43595D01*
X122486Y43515D01*
X122536Y43429D01*
X122602Y43354D01*
X122614Y43337D01*
X122624Y43329D01*
X122642Y43308D01*
X123501Y42450D01*
X123501Y39550D01*
X121450Y37499D01*
X118550Y37499D01*
G37*
%LPD*%
%LPC*%
G36*
X79585Y139999D02*
X79585Y139999D01*
X78999Y140585D01*
X78999Y142484D01*
X78982Y142622D01*
X78969Y142761D01*
X78962Y142780D01*
X78959Y142800D01*
X78908Y142929D01*
X78861Y143060D01*
X78850Y143077D01*
X78842Y143095D01*
X78761Y143208D01*
X78683Y143323D01*
X78667Y143336D01*
X78656Y143353D01*
X78548Y143442D01*
X78444Y143534D01*
X78426Y143543D01*
X78411Y143556D01*
X78285Y143615D01*
X78161Y143678D01*
X78141Y143683D01*
X78123Y143691D01*
X77986Y143717D01*
X77851Y143748D01*
X77830Y143747D01*
X77811Y143751D01*
X77672Y143742D01*
X77533Y143738D01*
X77513Y143732D01*
X77493Y143731D01*
X77361Y143688D01*
X77227Y143650D01*
X77210Y143639D01*
X77191Y143633D01*
X77073Y143559D01*
X76953Y143488D01*
X76932Y143470D01*
X76922Y143463D01*
X76908Y143448D01*
X76833Y143382D01*
X76450Y142999D01*
X73550Y142999D01*
X71499Y145050D01*
X71499Y147950D01*
X73550Y150001D01*
X76450Y150001D01*
X76833Y149618D01*
X76942Y149533D01*
X77049Y149444D01*
X77068Y149436D01*
X77084Y149423D01*
X77212Y149368D01*
X77337Y149309D01*
X77357Y149305D01*
X77376Y149297D01*
X77514Y149275D01*
X77650Y149249D01*
X77670Y149250D01*
X77690Y149247D01*
X77829Y149260D01*
X77967Y149269D01*
X77986Y149275D01*
X78006Y149277D01*
X78137Y149324D01*
X78269Y149367D01*
X78287Y149378D01*
X78306Y149385D01*
X78420Y149462D01*
X78538Y149537D01*
X78552Y149552D01*
X78569Y149563D01*
X78661Y149667D01*
X78756Y149769D01*
X78766Y149786D01*
X78779Y149802D01*
X78842Y149925D01*
X78910Y150047D01*
X78915Y150067D01*
X78924Y150085D01*
X78954Y150221D01*
X78989Y150355D01*
X78991Y150383D01*
X78994Y150395D01*
X78993Y150416D01*
X78999Y150516D01*
X78999Y152415D01*
X79585Y153001D01*
X87764Y153001D01*
X87862Y153013D01*
X87961Y153016D01*
X88019Y153033D01*
X88079Y153041D01*
X88171Y153077D01*
X88266Y153105D01*
X88319Y153135D01*
X88375Y153158D01*
X88455Y153216D01*
X88540Y153266D01*
X88616Y153332D01*
X88632Y153344D01*
X88640Y153354D01*
X88661Y153372D01*
X89121Y153833D01*
X89206Y153942D01*
X89295Y154049D01*
X89304Y154068D01*
X89316Y154084D01*
X89372Y154212D01*
X89431Y154337D01*
X89434Y154357D01*
X89443Y154376D01*
X89464Y154514D01*
X89490Y154650D01*
X89489Y154670D01*
X89492Y154690D01*
X89479Y154828D01*
X89471Y154967D01*
X89464Y154986D01*
X89463Y155006D01*
X89415Y155138D01*
X89373Y155269D01*
X89362Y155287D01*
X89355Y155306D01*
X89277Y155421D01*
X89202Y155538D01*
X89188Y155552D01*
X89176Y155569D01*
X89072Y155660D01*
X88971Y155756D01*
X88953Y155766D01*
X88938Y155779D01*
X88814Y155842D01*
X88692Y155910D01*
X88673Y155915D01*
X88655Y155924D01*
X88519Y155954D01*
X88384Y155989D01*
X88356Y155991D01*
X88344Y155994D01*
X88324Y155993D01*
X88224Y155999D01*
X87499Y155999D01*
X87499Y161001D01*
X92001Y161001D01*
X92001Y158540D01*
X92016Y158422D01*
X92023Y158303D01*
X92035Y158265D01*
X92041Y158224D01*
X92084Y158114D01*
X92121Y158001D01*
X92143Y157966D01*
X92158Y157929D01*
X92227Y157833D01*
X92291Y157732D01*
X92321Y157704D01*
X92344Y157671D01*
X92436Y157595D01*
X92523Y157514D01*
X92558Y157494D01*
X92589Y157469D01*
X92697Y157418D01*
X92801Y157360D01*
X92841Y157350D01*
X92877Y157333D01*
X92994Y157311D01*
X93109Y157281D01*
X93169Y157277D01*
X93189Y157273D01*
X93210Y157275D01*
X93270Y157271D01*
X94880Y157271D01*
X94998Y157286D01*
X95117Y157293D01*
X95155Y157306D01*
X95196Y157311D01*
X95306Y157354D01*
X95419Y157391D01*
X95454Y157413D01*
X95491Y157428D01*
X95587Y157497D01*
X95688Y157561D01*
X95716Y157591D01*
X95749Y157614D01*
X95825Y157706D01*
X95906Y157793D01*
X95926Y157828D01*
X95951Y157859D01*
X96002Y157967D01*
X96060Y158071D01*
X96070Y158111D01*
X96087Y158147D01*
X96109Y158264D01*
X96139Y158379D01*
X96143Y158439D01*
X96147Y158459D01*
X96145Y158480D01*
X96149Y158540D01*
X96149Y158696D01*
X96137Y158794D01*
X96134Y158893D01*
X96117Y158951D01*
X96109Y159011D01*
X96073Y159103D01*
X96045Y159198D01*
X96015Y159250D01*
X95992Y159307D01*
X95934Y159387D01*
X95884Y159472D01*
X95818Y159548D01*
X95806Y159564D01*
X95796Y159572D01*
X95778Y159593D01*
X95549Y159821D01*
X95286Y160278D01*
X95149Y160787D01*
X95149Y162776D01*
X101645Y162776D01*
X101763Y162791D01*
X101882Y162798D01*
X101920Y162810D01*
X101960Y162816D01*
X102071Y162859D01*
X102088Y162865D01*
X102126Y162855D01*
X102162Y162838D01*
X102279Y162816D01*
X102395Y162786D01*
X102455Y162782D01*
X102475Y162778D01*
X102495Y162780D01*
X102555Y162776D01*
X109051Y162776D01*
X109051Y160787D01*
X108914Y160278D01*
X108651Y159821D01*
X108422Y159593D01*
X108362Y159515D01*
X108294Y159443D01*
X108265Y159390D01*
X108228Y159342D01*
X108188Y159251D01*
X108140Y159164D01*
X108125Y159106D01*
X108101Y159050D01*
X108086Y158952D01*
X108061Y158856D01*
X108055Y158756D01*
X108051Y158736D01*
X108053Y158724D01*
X108051Y158696D01*
X108051Y151132D01*
X107990Y151053D01*
X107911Y150964D01*
X107893Y150928D01*
X107868Y150896D01*
X107821Y150787D01*
X107766Y150681D01*
X107758Y150641D01*
X107741Y150604D01*
X107723Y150487D01*
X107697Y150371D01*
X107698Y150330D01*
X107692Y150290D01*
X107703Y150172D01*
X107706Y150053D01*
X107718Y150014D01*
X107721Y149974D01*
X107762Y149861D01*
X107795Y149747D01*
X107815Y149713D01*
X107829Y149674D01*
X107896Y149576D01*
X107956Y149473D01*
X107996Y149428D01*
X108008Y149411D01*
X108023Y149398D01*
X108051Y149366D01*
X108051Y141635D01*
X107465Y141049D01*
X96735Y141049D01*
X96149Y141635D01*
X96149Y149368D01*
X96210Y149447D01*
X96289Y149536D01*
X96307Y149572D01*
X96332Y149604D01*
X96380Y149713D01*
X96434Y149819D01*
X96442Y149859D01*
X96459Y149896D01*
X96477Y150013D01*
X96503Y150129D01*
X96502Y150170D01*
X96508Y150210D01*
X96497Y150329D01*
X96494Y150447D01*
X96482Y150486D01*
X96479Y150526D01*
X96438Y150638D01*
X96405Y150753D01*
X96385Y150788D01*
X96371Y150826D01*
X96304Y150924D01*
X96244Y151027D01*
X96204Y151072D01*
X96192Y151089D01*
X96177Y151102D01*
X96149Y151134D01*
X96149Y151374D01*
X96132Y151511D01*
X96119Y151650D01*
X96112Y151669D01*
X96109Y151689D01*
X96058Y151818D01*
X96011Y151949D01*
X96000Y151966D01*
X95992Y151985D01*
X95911Y152097D01*
X95833Y152212D01*
X95817Y152226D01*
X95806Y152242D01*
X95698Y152331D01*
X95594Y152423D01*
X95576Y152432D01*
X95561Y152445D01*
X95435Y152504D01*
X95311Y152568D01*
X95291Y152572D01*
X95273Y152581D01*
X95137Y152607D01*
X95001Y152637D01*
X94980Y152637D01*
X94961Y152640D01*
X94822Y152632D01*
X94683Y152628D01*
X94663Y152622D01*
X94643Y152621D01*
X94511Y152578D01*
X94377Y152539D01*
X94360Y152529D01*
X94341Y152523D01*
X94223Y152448D01*
X94103Y152378D01*
X94082Y152359D01*
X94072Y152352D01*
X94058Y152338D01*
X93983Y152271D01*
X91372Y149661D01*
X91312Y149583D01*
X91244Y149511D01*
X91215Y149458D01*
X91178Y149410D01*
X91138Y149319D01*
X91090Y149232D01*
X91075Y149174D01*
X91051Y149118D01*
X91036Y149020D01*
X91011Y148924D01*
X91005Y148824D01*
X91001Y148804D01*
X91003Y148792D01*
X91001Y148764D01*
X91001Y140585D01*
X90415Y139999D01*
X79585Y139999D01*
G37*
%LPD*%
%LPC*%
G36*
X34085Y177999D02*
X34085Y177999D01*
X33499Y178585D01*
X33499Y191415D01*
X34085Y192001D01*
X46915Y192001D01*
X47501Y191415D01*
X47501Y188540D01*
X47516Y188422D01*
X47523Y188303D01*
X47536Y188265D01*
X47541Y188224D01*
X47584Y188114D01*
X47621Y188001D01*
X47643Y187966D01*
X47658Y187929D01*
X47727Y187833D01*
X47791Y187732D01*
X47821Y187704D01*
X47844Y187671D01*
X47936Y187595D01*
X48023Y187514D01*
X48058Y187494D01*
X48089Y187469D01*
X48197Y187418D01*
X48301Y187360D01*
X48341Y187350D01*
X48377Y187333D01*
X48494Y187311D01*
X48609Y187281D01*
X48669Y187277D01*
X48689Y187273D01*
X48710Y187275D01*
X48770Y187271D01*
X59230Y187271D01*
X59348Y187286D01*
X59467Y187293D01*
X59505Y187306D01*
X59546Y187311D01*
X59656Y187354D01*
X59769Y187391D01*
X59804Y187413D01*
X59841Y187428D01*
X59937Y187497D01*
X60038Y187561D01*
X60066Y187591D01*
X60099Y187614D01*
X60175Y187706D01*
X60256Y187793D01*
X60276Y187828D01*
X60301Y187859D01*
X60352Y187967D01*
X60410Y188071D01*
X60420Y188111D01*
X60437Y188147D01*
X60459Y188264D01*
X60489Y188379D01*
X60493Y188439D01*
X60497Y188459D01*
X60495Y188480D01*
X60499Y188540D01*
X60499Y190915D01*
X61085Y191501D01*
X71915Y191501D01*
X72501Y190915D01*
X72501Y179085D01*
X71915Y178499D01*
X61085Y178499D01*
X60499Y179085D01*
X60499Y181460D01*
X60484Y181578D01*
X60477Y181697D01*
X60464Y181735D01*
X60459Y181776D01*
X60416Y181886D01*
X60379Y181999D01*
X60357Y182034D01*
X60342Y182071D01*
X60273Y182167D01*
X60209Y182268D01*
X60179Y182296D01*
X60156Y182329D01*
X60064Y182405D01*
X59977Y182486D01*
X59942Y182506D01*
X59911Y182531D01*
X59803Y182582D01*
X59699Y182640D01*
X59659Y182650D01*
X59623Y182667D01*
X59506Y182689D01*
X59391Y182719D01*
X59331Y182723D01*
X59311Y182727D01*
X59290Y182725D01*
X59230Y182729D01*
X48770Y182729D01*
X48652Y182714D01*
X48533Y182707D01*
X48495Y182694D01*
X48454Y182689D01*
X48344Y182646D01*
X48231Y182609D01*
X48196Y182587D01*
X48159Y182572D01*
X48063Y182503D01*
X47962Y182439D01*
X47934Y182409D01*
X47901Y182386D01*
X47825Y182294D01*
X47744Y182207D01*
X47724Y182172D01*
X47699Y182141D01*
X47648Y182033D01*
X47590Y181929D01*
X47580Y181889D01*
X47563Y181853D01*
X47541Y181736D01*
X47511Y181621D01*
X47507Y181561D01*
X47503Y181541D01*
X47505Y181520D01*
X47501Y181460D01*
X47501Y178585D01*
X46915Y177999D01*
X34085Y177999D01*
G37*
%LPD*%
%LPC*%
G36*
X158550Y66499D02*
X158550Y66499D01*
X156499Y68550D01*
X156499Y71450D01*
X158550Y73501D01*
X159764Y73501D01*
X159862Y73513D01*
X159961Y73516D01*
X160019Y73533D01*
X160079Y73541D01*
X160171Y73577D01*
X160266Y73605D01*
X160319Y73635D01*
X160375Y73658D01*
X160455Y73716D01*
X160540Y73766D01*
X160616Y73832D01*
X160632Y73844D01*
X160640Y73854D01*
X160661Y73872D01*
X162351Y75563D01*
X162436Y75672D01*
X162525Y75779D01*
X162534Y75798D01*
X162546Y75814D01*
X162602Y75942D01*
X162661Y76067D01*
X162664Y76087D01*
X162673Y76106D01*
X162694Y76244D01*
X162720Y76380D01*
X162719Y76400D01*
X162722Y76420D01*
X162709Y76559D01*
X162701Y76697D01*
X162694Y76716D01*
X162693Y76736D01*
X162645Y76868D01*
X162603Y76999D01*
X162592Y77017D01*
X162585Y77036D01*
X162507Y77151D01*
X162432Y77268D01*
X162418Y77282D01*
X162406Y77299D01*
X162302Y77391D01*
X162201Y77486D01*
X162183Y77496D01*
X162168Y77509D01*
X162044Y77573D01*
X161922Y77640D01*
X161903Y77645D01*
X161885Y77654D01*
X161749Y77684D01*
X161614Y77719D01*
X161586Y77721D01*
X161574Y77724D01*
X161554Y77723D01*
X161454Y77729D01*
X155726Y77729D01*
X155628Y77717D01*
X155529Y77714D01*
X155470Y77697D01*
X155410Y77689D01*
X155318Y77653D01*
X155223Y77625D01*
X155171Y77595D01*
X155115Y77572D01*
X155034Y77514D01*
X154949Y77464D01*
X154874Y77398D01*
X154857Y77386D01*
X154849Y77376D01*
X154828Y77357D01*
X153950Y76479D01*
X151050Y76479D01*
X148999Y78530D01*
X148999Y81430D01*
X151050Y83481D01*
X153950Y83481D01*
X154333Y83098D01*
X154442Y83013D01*
X154549Y82924D01*
X154568Y82916D01*
X154584Y82903D01*
X154712Y82848D01*
X154837Y82789D01*
X154857Y82785D01*
X154876Y82777D01*
X155014Y82755D01*
X155150Y82729D01*
X155170Y82730D01*
X155190Y82727D01*
X155329Y82740D01*
X155467Y82749D01*
X155486Y82755D01*
X155506Y82757D01*
X155637Y82804D01*
X155769Y82847D01*
X155787Y82858D01*
X155806Y82865D01*
X155920Y82942D01*
X156038Y83017D01*
X156052Y83032D01*
X156069Y83043D01*
X156160Y83147D01*
X156256Y83249D01*
X156266Y83266D01*
X156279Y83282D01*
X156342Y83405D01*
X156410Y83527D01*
X156415Y83547D01*
X156424Y83565D01*
X156454Y83701D01*
X156489Y83835D01*
X156491Y83863D01*
X156494Y83875D01*
X156493Y83896D01*
X156499Y83996D01*
X156499Y86450D01*
X158550Y88501D01*
X161450Y88501D01*
X162308Y87642D01*
X162387Y87582D01*
X162459Y87514D01*
X162512Y87485D01*
X162560Y87448D01*
X162651Y87408D01*
X162737Y87360D01*
X162796Y87345D01*
X162851Y87321D01*
X162949Y87306D01*
X163045Y87281D01*
X163145Y87275D01*
X163166Y87271D01*
X163178Y87273D01*
X163206Y87271D01*
X163980Y87271D01*
X164098Y87286D01*
X164217Y87293D01*
X164255Y87306D01*
X164296Y87311D01*
X164406Y87354D01*
X164519Y87391D01*
X164554Y87413D01*
X164591Y87428D01*
X164687Y87497D01*
X164788Y87561D01*
X164816Y87591D01*
X164849Y87614D01*
X164925Y87706D01*
X165006Y87793D01*
X165026Y87828D01*
X165051Y87859D01*
X165102Y87967D01*
X165160Y88071D01*
X165170Y88111D01*
X165187Y88147D01*
X165209Y88264D01*
X165239Y88379D01*
X165243Y88439D01*
X165247Y88459D01*
X165245Y88480D01*
X165249Y88540D01*
X165249Y91396D01*
X165237Y91494D01*
X165234Y91593D01*
X165217Y91651D01*
X165209Y91711D01*
X165173Y91803D01*
X165145Y91898D01*
X165115Y91950D01*
X165092Y92007D01*
X165034Y92087D01*
X164984Y92172D01*
X164918Y92248D01*
X164906Y92264D01*
X164896Y92272D01*
X164878Y92293D01*
X164649Y92521D01*
X164386Y92978D01*
X164249Y93487D01*
X164249Y93731D01*
X170250Y93731D01*
X176251Y93731D01*
X176251Y93487D01*
X176114Y92978D01*
X175851Y92521D01*
X175622Y92293D01*
X175562Y92215D01*
X175494Y92143D01*
X175465Y92090D01*
X175428Y92042D01*
X175388Y91951D01*
X175340Y91864D01*
X175325Y91806D01*
X175301Y91750D01*
X175286Y91652D01*
X175261Y91556D01*
X175255Y91456D01*
X175251Y91436D01*
X175253Y91424D01*
X175251Y91396D01*
X175251Y88318D01*
X175240Y88303D01*
X175161Y88214D01*
X175143Y88178D01*
X175118Y88146D01*
X175070Y88037D01*
X175016Y87931D01*
X175008Y87892D01*
X174991Y87854D01*
X174973Y87737D01*
X174947Y87621D01*
X174948Y87580D01*
X174942Y87540D01*
X174953Y87422D01*
X174956Y87303D01*
X174968Y87264D01*
X174971Y87224D01*
X175012Y87112D01*
X175045Y86997D01*
X175065Y86963D01*
X175079Y86924D01*
X175146Y86826D01*
X175206Y86723D01*
X175246Y86678D01*
X175251Y86671D01*
X175251Y83318D01*
X175240Y83303D01*
X175161Y83214D01*
X175143Y83178D01*
X175118Y83146D01*
X175070Y83037D01*
X175016Y82931D01*
X175008Y82892D01*
X174991Y82854D01*
X174973Y82737D01*
X174947Y82621D01*
X174948Y82580D01*
X174942Y82540D01*
X174953Y82422D01*
X174956Y82303D01*
X174968Y82264D01*
X174971Y82224D01*
X175012Y82112D01*
X175045Y81997D01*
X175065Y81963D01*
X175079Y81924D01*
X175146Y81826D01*
X175206Y81723D01*
X175246Y81678D01*
X175251Y81671D01*
X175251Y78318D01*
X175240Y78303D01*
X175161Y78214D01*
X175143Y78178D01*
X175118Y78146D01*
X175070Y78037D01*
X175016Y77931D01*
X175008Y77892D01*
X174991Y77854D01*
X174973Y77737D01*
X174947Y77621D01*
X174948Y77580D01*
X174942Y77540D01*
X174953Y77422D01*
X174956Y77303D01*
X174968Y77264D01*
X174971Y77224D01*
X175012Y77112D01*
X175045Y76997D01*
X175065Y76963D01*
X175079Y76924D01*
X175146Y76826D01*
X175206Y76723D01*
X175246Y76678D01*
X175251Y76671D01*
X175251Y73335D01*
X174665Y72749D01*
X171736Y72749D01*
X171638Y72737D01*
X171538Y72734D01*
X171523Y72729D01*
X166466Y72729D01*
X166368Y72717D01*
X166269Y72714D01*
X166211Y72697D01*
X166151Y72689D01*
X166059Y72653D01*
X165964Y72625D01*
X165911Y72595D01*
X165855Y72572D01*
X165775Y72514D01*
X165690Y72464D01*
X165614Y72398D01*
X165598Y72386D01*
X165590Y72376D01*
X165569Y72358D01*
X163872Y70661D01*
X163812Y70583D01*
X163744Y70511D01*
X163715Y70458D01*
X163678Y70410D01*
X163638Y70319D01*
X163590Y70232D01*
X163575Y70174D01*
X163551Y70118D01*
X163536Y70020D01*
X163511Y69924D01*
X163505Y69824D01*
X163501Y69804D01*
X163503Y69792D01*
X163501Y69764D01*
X163501Y68550D01*
X161450Y66499D01*
X158550Y66499D01*
G37*
%LPD*%
%LPC*%
G36*
X274085Y162499D02*
X274085Y162499D01*
X273499Y163085D01*
X273499Y173915D01*
X274085Y174501D01*
X285915Y174501D01*
X286501Y173915D01*
X286501Y172040D01*
X286516Y171922D01*
X286523Y171803D01*
X286536Y171765D01*
X286541Y171724D01*
X286584Y171614D01*
X286621Y171501D01*
X286643Y171466D01*
X286658Y171429D01*
X286727Y171333D01*
X286791Y171232D01*
X286821Y171204D01*
X286844Y171171D01*
X286936Y171095D01*
X287023Y171014D01*
X287058Y170994D01*
X287089Y170969D01*
X287197Y170918D01*
X287301Y170860D01*
X287341Y170850D01*
X287377Y170833D01*
X287494Y170811D01*
X287609Y170781D01*
X287669Y170777D01*
X287689Y170773D01*
X287710Y170775D01*
X287770Y170771D01*
X289230Y170771D01*
X289348Y170786D01*
X289467Y170793D01*
X289505Y170806D01*
X289546Y170811D01*
X289656Y170854D01*
X289769Y170891D01*
X289804Y170913D01*
X289841Y170928D01*
X289937Y170997D01*
X290038Y171061D01*
X290066Y171091D01*
X290099Y171114D01*
X290175Y171206D01*
X290256Y171293D01*
X290276Y171328D01*
X290301Y171359D01*
X290352Y171467D01*
X290410Y171571D01*
X290420Y171611D01*
X290437Y171647D01*
X290459Y171764D01*
X290489Y171879D01*
X290493Y171939D01*
X290497Y171959D01*
X290495Y171980D01*
X290499Y172040D01*
X290499Y176915D01*
X291085Y177501D01*
X303915Y177501D01*
X304501Y176915D01*
X304501Y164085D01*
X303915Y163499D01*
X291085Y163499D01*
X290499Y164085D01*
X290499Y164960D01*
X290484Y165078D01*
X290477Y165197D01*
X290464Y165235D01*
X290459Y165276D01*
X290416Y165386D01*
X290379Y165499D01*
X290357Y165534D01*
X290342Y165571D01*
X290273Y165667D01*
X290209Y165768D01*
X290179Y165796D01*
X290156Y165829D01*
X290064Y165905D01*
X289977Y165986D01*
X289942Y166006D01*
X289911Y166031D01*
X289803Y166082D01*
X289699Y166140D01*
X289659Y166150D01*
X289623Y166167D01*
X289506Y166189D01*
X289391Y166219D01*
X289331Y166223D01*
X289311Y166227D01*
X289290Y166225D01*
X289230Y166229D01*
X287770Y166229D01*
X287652Y166214D01*
X287533Y166207D01*
X287495Y166194D01*
X287454Y166189D01*
X287344Y166146D01*
X287231Y166109D01*
X287196Y166087D01*
X287159Y166072D01*
X287063Y166003D01*
X286962Y165939D01*
X286934Y165909D01*
X286901Y165886D01*
X286825Y165794D01*
X286744Y165707D01*
X286724Y165672D01*
X286699Y165641D01*
X286648Y165533D01*
X286590Y165429D01*
X286580Y165389D01*
X286563Y165353D01*
X286541Y165236D01*
X286511Y165121D01*
X286507Y165061D01*
X286503Y165041D01*
X286505Y165020D01*
X286501Y164960D01*
X286501Y163085D01*
X285915Y162499D01*
X274085Y162499D01*
G37*
%LPD*%
%LPC*%
G36*
X296050Y78999D02*
X296050Y78999D01*
X293999Y81050D01*
X293999Y83950D01*
X294382Y84333D01*
X294467Y84442D01*
X294556Y84549D01*
X294564Y84568D01*
X294577Y84584D01*
X294632Y84712D01*
X294691Y84837D01*
X294695Y84857D01*
X294703Y84876D01*
X294725Y85014D01*
X294751Y85150D01*
X294750Y85170D01*
X294753Y85190D01*
X294740Y85329D01*
X294731Y85467D01*
X294725Y85486D01*
X294723Y85506D01*
X294676Y85637D01*
X294633Y85769D01*
X294622Y85787D01*
X294615Y85806D01*
X294538Y85920D01*
X294463Y86038D01*
X294448Y86052D01*
X294437Y86069D01*
X294333Y86161D01*
X294231Y86256D01*
X294214Y86266D01*
X294198Y86279D01*
X294075Y86342D01*
X293953Y86410D01*
X293933Y86415D01*
X293915Y86424D01*
X293779Y86454D01*
X293645Y86489D01*
X293617Y86491D01*
X293605Y86494D01*
X293584Y86493D01*
X293484Y86499D01*
X289585Y86499D01*
X288999Y87085D01*
X288999Y102915D01*
X289585Y103501D01*
X305415Y103501D01*
X306001Y102915D01*
X306001Y87085D01*
X305415Y86499D01*
X301516Y86499D01*
X301378Y86482D01*
X301239Y86469D01*
X301220Y86462D01*
X301200Y86459D01*
X301071Y86408D01*
X300940Y86361D01*
X300923Y86350D01*
X300905Y86342D01*
X300792Y86261D01*
X300677Y86183D01*
X300664Y86167D01*
X300647Y86156D01*
X300558Y86048D01*
X300466Y85944D01*
X300457Y85926D01*
X300444Y85911D01*
X300385Y85785D01*
X300322Y85661D01*
X300317Y85641D01*
X300309Y85623D01*
X300283Y85486D01*
X300252Y85351D01*
X300253Y85330D01*
X300249Y85311D01*
X300258Y85172D01*
X300262Y85033D01*
X300268Y85013D01*
X300269Y84993D01*
X300312Y84861D01*
X300350Y84727D01*
X300361Y84710D01*
X300367Y84691D01*
X300441Y84573D01*
X300512Y84453D01*
X300530Y84432D01*
X300537Y84422D01*
X300552Y84408D01*
X300618Y84333D01*
X301001Y83950D01*
X301001Y81050D01*
X298950Y78999D01*
X296050Y78999D01*
G37*
%LPD*%
%LPC*%
G36*
X68585Y8999D02*
X68585Y8999D01*
X67999Y9585D01*
X67999Y12730D01*
X67984Y12848D01*
X67977Y12967D01*
X67964Y13005D01*
X67959Y13046D01*
X67916Y13156D01*
X67879Y13269D01*
X67857Y13304D01*
X67842Y13341D01*
X67773Y13437D01*
X67709Y13538D01*
X67679Y13566D01*
X67656Y13599D01*
X67564Y13675D01*
X67477Y13756D01*
X67442Y13776D01*
X67411Y13801D01*
X67303Y13852D01*
X67199Y13910D01*
X67159Y13920D01*
X67123Y13937D01*
X67006Y13959D01*
X66891Y13989D01*
X66831Y13993D01*
X66811Y13997D01*
X66790Y13995D01*
X66730Y13999D01*
X63550Y13999D01*
X61499Y16050D01*
X61499Y18950D01*
X63550Y21001D01*
X66730Y21001D01*
X66848Y21016D01*
X66967Y21023D01*
X67005Y21036D01*
X67046Y21041D01*
X67156Y21084D01*
X67269Y21121D01*
X67304Y21143D01*
X67341Y21158D01*
X67437Y21227D01*
X67538Y21291D01*
X67566Y21321D01*
X67599Y21344D01*
X67675Y21436D01*
X67756Y21523D01*
X67776Y21558D01*
X67801Y21589D01*
X67852Y21697D01*
X67910Y21801D01*
X67920Y21841D01*
X67937Y21877D01*
X67959Y21994D01*
X67989Y22109D01*
X67993Y22169D01*
X67997Y22189D01*
X67995Y22210D01*
X67997Y22228D01*
X67997Y22229D01*
X67999Y22270D01*
X67999Y25415D01*
X68585Y26001D01*
X82415Y26001D01*
X83001Y25415D01*
X83001Y9585D01*
X82415Y8999D01*
X68585Y8999D01*
G37*
%LPD*%
%LPC*%
G36*
X13085Y177999D02*
X13085Y177999D01*
X12499Y178585D01*
X12499Y180230D01*
X12484Y180348D01*
X12477Y180467D01*
X12464Y180505D01*
X12459Y180546D01*
X12416Y180656D01*
X12379Y180769D01*
X12357Y180804D01*
X12342Y180841D01*
X12273Y180937D01*
X12209Y181038D01*
X12179Y181066D01*
X12156Y181099D01*
X12064Y181175D01*
X11977Y181256D01*
X11942Y181276D01*
X11911Y181301D01*
X11803Y181352D01*
X11699Y181410D01*
X11659Y181420D01*
X11623Y181437D01*
X11506Y181459D01*
X11391Y181489D01*
X11331Y181493D01*
X11311Y181497D01*
X11290Y181495D01*
X11230Y181499D01*
X8550Y181499D01*
X6499Y183550D01*
X6499Y186450D01*
X8550Y188501D01*
X11230Y188501D01*
X11348Y188516D01*
X11467Y188523D01*
X11505Y188536D01*
X11546Y188541D01*
X11656Y188584D01*
X11769Y188621D01*
X11804Y188643D01*
X11841Y188658D01*
X11937Y188727D01*
X12038Y188791D01*
X12066Y188821D01*
X12099Y188844D01*
X12175Y188936D01*
X12256Y189023D01*
X12276Y189058D01*
X12301Y189089D01*
X12352Y189197D01*
X12410Y189301D01*
X12420Y189341D01*
X12437Y189377D01*
X12459Y189494D01*
X12489Y189609D01*
X12493Y189669D01*
X12497Y189689D01*
X12495Y189710D01*
X12499Y189770D01*
X12499Y191415D01*
X13085Y192001D01*
X25915Y192001D01*
X26501Y191415D01*
X26501Y178585D01*
X25915Y177999D01*
X13085Y177999D01*
G37*
%LPD*%
%LPC*%
G36*
X48085Y153499D02*
X48085Y153499D01*
X47499Y154085D01*
X47499Y165915D01*
X48085Y166501D01*
X58915Y166501D01*
X59501Y165915D01*
X59501Y164770D01*
X59516Y164652D01*
X59523Y164533D01*
X59536Y164495D01*
X59541Y164454D01*
X59584Y164344D01*
X59621Y164231D01*
X59643Y164196D01*
X59658Y164159D01*
X59727Y164063D01*
X59791Y163962D01*
X59821Y163934D01*
X59844Y163901D01*
X59936Y163825D01*
X60023Y163744D01*
X60058Y163724D01*
X60089Y163699D01*
X60197Y163648D01*
X60301Y163590D01*
X60341Y163580D01*
X60377Y163563D01*
X60494Y163541D01*
X60609Y163511D01*
X60669Y163507D01*
X60689Y163503D01*
X60710Y163505D01*
X60770Y163501D01*
X63950Y163501D01*
X66001Y161450D01*
X66001Y158550D01*
X63950Y156499D01*
X60770Y156499D01*
X60652Y156484D01*
X60533Y156477D01*
X60495Y156464D01*
X60454Y156459D01*
X60344Y156416D01*
X60231Y156379D01*
X60196Y156357D01*
X60159Y156342D01*
X60063Y156273D01*
X59962Y156209D01*
X59934Y156179D01*
X59901Y156156D01*
X59825Y156064D01*
X59744Y155977D01*
X59724Y155942D01*
X59699Y155911D01*
X59648Y155803D01*
X59590Y155699D01*
X59580Y155659D01*
X59563Y155623D01*
X59541Y155506D01*
X59511Y155391D01*
X59507Y155331D01*
X59503Y155311D01*
X59505Y155290D01*
X59501Y155230D01*
X59501Y154085D01*
X58915Y153499D01*
X48085Y153499D01*
G37*
%LPD*%
%LPC*%
G36*
X48085Y33499D02*
X48085Y33499D01*
X47499Y34085D01*
X47499Y45915D01*
X48085Y46501D01*
X58915Y46501D01*
X59501Y45915D01*
X59501Y44770D01*
X59516Y44652D01*
X59523Y44533D01*
X59536Y44495D01*
X59541Y44454D01*
X59584Y44344D01*
X59621Y44231D01*
X59643Y44196D01*
X59658Y44159D01*
X59727Y44063D01*
X59791Y43962D01*
X59821Y43934D01*
X59844Y43901D01*
X59936Y43825D01*
X60023Y43744D01*
X60058Y43724D01*
X60089Y43699D01*
X60197Y43648D01*
X60301Y43590D01*
X60341Y43580D01*
X60377Y43563D01*
X60494Y43541D01*
X60609Y43511D01*
X60669Y43507D01*
X60689Y43503D01*
X60710Y43505D01*
X60770Y43501D01*
X63950Y43501D01*
X66001Y41450D01*
X66001Y38550D01*
X63950Y36499D01*
X60770Y36499D01*
X60652Y36484D01*
X60533Y36477D01*
X60495Y36464D01*
X60454Y36459D01*
X60344Y36416D01*
X60231Y36379D01*
X60196Y36357D01*
X60159Y36342D01*
X60063Y36273D01*
X59962Y36209D01*
X59934Y36179D01*
X59901Y36156D01*
X59825Y36064D01*
X59744Y35977D01*
X59724Y35942D01*
X59699Y35911D01*
X59648Y35803D01*
X59590Y35699D01*
X59580Y35659D01*
X59563Y35623D01*
X59541Y35506D01*
X59511Y35391D01*
X59507Y35331D01*
X59503Y35311D01*
X59505Y35290D01*
X59501Y35230D01*
X59501Y34085D01*
X58915Y33499D01*
X48085Y33499D01*
G37*
%LPD*%
%LPC*%
G36*
X111050Y46499D02*
X111050Y46499D01*
X108999Y48550D01*
X108999Y51230D01*
X108984Y51348D01*
X108977Y51467D01*
X108964Y51505D01*
X108959Y51546D01*
X108916Y51656D01*
X108879Y51769D01*
X108857Y51804D01*
X108842Y51841D01*
X108773Y51937D01*
X108709Y52038D01*
X108679Y52066D01*
X108656Y52099D01*
X108564Y52175D01*
X108477Y52256D01*
X108442Y52276D01*
X108411Y52301D01*
X108303Y52352D01*
X108199Y52410D01*
X108159Y52420D01*
X108123Y52437D01*
X108006Y52459D01*
X107891Y52489D01*
X107831Y52493D01*
X107811Y52497D01*
X107790Y52495D01*
X107730Y52499D01*
X107085Y52499D01*
X106499Y53085D01*
X106499Y64915D01*
X107085Y65501D01*
X117915Y65501D01*
X118501Y64915D01*
X118501Y53085D01*
X117915Y52499D01*
X117270Y52499D01*
X117152Y52484D01*
X117033Y52477D01*
X116995Y52464D01*
X116954Y52459D01*
X116844Y52416D01*
X116731Y52379D01*
X116696Y52357D01*
X116659Y52342D01*
X116563Y52273D01*
X116462Y52209D01*
X116434Y52179D01*
X116401Y52156D01*
X116325Y52064D01*
X116244Y51977D01*
X116224Y51942D01*
X116199Y51911D01*
X116148Y51803D01*
X116090Y51699D01*
X116080Y51659D01*
X116063Y51623D01*
X116041Y51506D01*
X116011Y51391D01*
X116007Y51331D01*
X116003Y51311D01*
X116005Y51290D01*
X116001Y51230D01*
X116001Y48392D01*
X115957Y48380D01*
X115940Y48369D01*
X115921Y48363D01*
X115803Y48289D01*
X115683Y48218D01*
X115662Y48200D01*
X115652Y48193D01*
X115638Y48178D01*
X115563Y48112D01*
X113950Y46499D01*
X111050Y46499D01*
G37*
%LPD*%
%LPC*%
G36*
X153550Y23999D02*
X153550Y23999D01*
X151499Y26050D01*
X151499Y28730D01*
X151484Y28848D01*
X151477Y28967D01*
X151464Y29005D01*
X151459Y29046D01*
X151416Y29156D01*
X151379Y29269D01*
X151357Y29304D01*
X151342Y29341D01*
X151273Y29437D01*
X151209Y29538D01*
X151179Y29566D01*
X151156Y29599D01*
X151064Y29674D01*
X150977Y29756D01*
X150942Y29776D01*
X150911Y29801D01*
X150803Y29852D01*
X150699Y29910D01*
X150659Y29920D01*
X150623Y29937D01*
X150506Y29959D01*
X150391Y29989D01*
X150331Y29993D01*
X150311Y29997D01*
X150290Y29995D01*
X150230Y29999D01*
X149585Y29999D01*
X148999Y30585D01*
X148999Y42415D01*
X149585Y43001D01*
X160415Y43001D01*
X161001Y42415D01*
X161001Y30585D01*
X160415Y29999D01*
X159770Y29999D01*
X159652Y29984D01*
X159533Y29977D01*
X159495Y29964D01*
X159454Y29959D01*
X159344Y29916D01*
X159231Y29879D01*
X159196Y29857D01*
X159159Y29842D01*
X159063Y29773D01*
X158962Y29709D01*
X158934Y29679D01*
X158901Y29656D01*
X158825Y29564D01*
X158744Y29477D01*
X158724Y29442D01*
X158699Y29411D01*
X158648Y29303D01*
X158590Y29199D01*
X158580Y29159D01*
X158563Y29123D01*
X158541Y29006D01*
X158511Y28891D01*
X158507Y28831D01*
X158503Y28811D01*
X158505Y28790D01*
X158501Y28730D01*
X158501Y26050D01*
X156450Y23999D01*
X153550Y23999D01*
G37*
%LPD*%
%LPC*%
G36*
X173550Y6499D02*
X173550Y6499D01*
X171499Y8550D01*
X171499Y11230D01*
X171484Y11348D01*
X171477Y11467D01*
X171464Y11505D01*
X171459Y11546D01*
X171416Y11656D01*
X171379Y11769D01*
X171357Y11804D01*
X171342Y11841D01*
X171273Y11937D01*
X171209Y12038D01*
X171179Y12066D01*
X171156Y12099D01*
X171064Y12175D01*
X170977Y12256D01*
X170942Y12276D01*
X170911Y12301D01*
X170803Y12352D01*
X170699Y12410D01*
X170659Y12420D01*
X170623Y12437D01*
X170506Y12459D01*
X170391Y12489D01*
X170331Y12493D01*
X170311Y12497D01*
X170290Y12495D01*
X170230Y12499D01*
X169585Y12499D01*
X168999Y13085D01*
X168999Y24915D01*
X169585Y25501D01*
X180415Y25501D01*
X181001Y24915D01*
X181001Y13085D01*
X180415Y12499D01*
X179770Y12499D01*
X179652Y12484D01*
X179533Y12477D01*
X179495Y12464D01*
X179454Y12459D01*
X179344Y12416D01*
X179231Y12379D01*
X179196Y12357D01*
X179159Y12342D01*
X179063Y12273D01*
X178962Y12209D01*
X178934Y12179D01*
X178901Y12156D01*
X178825Y12064D01*
X178744Y11977D01*
X178724Y11942D01*
X178699Y11911D01*
X178648Y11803D01*
X178590Y11699D01*
X178580Y11659D01*
X178563Y11623D01*
X178541Y11506D01*
X178511Y11391D01*
X178507Y11331D01*
X178503Y11311D01*
X178505Y11290D01*
X178501Y11230D01*
X178501Y8550D01*
X176450Y6499D01*
X173550Y6499D01*
G37*
%LPD*%
%LPC*%
G36*
X253550Y6499D02*
X253550Y6499D01*
X251499Y8550D01*
X251499Y11230D01*
X251484Y11348D01*
X251477Y11467D01*
X251464Y11505D01*
X251459Y11546D01*
X251416Y11656D01*
X251379Y11769D01*
X251357Y11804D01*
X251342Y11841D01*
X251273Y11937D01*
X251209Y12038D01*
X251179Y12066D01*
X251156Y12099D01*
X251064Y12175D01*
X250977Y12256D01*
X250942Y12276D01*
X250911Y12301D01*
X250803Y12352D01*
X250699Y12410D01*
X250659Y12420D01*
X250623Y12437D01*
X250506Y12459D01*
X250391Y12489D01*
X250331Y12493D01*
X250311Y12497D01*
X250290Y12495D01*
X250230Y12499D01*
X249585Y12499D01*
X248999Y13085D01*
X248999Y24915D01*
X249585Y25501D01*
X260415Y25501D01*
X261001Y24915D01*
X261001Y13085D01*
X260415Y12499D01*
X259770Y12499D01*
X259652Y12484D01*
X259533Y12477D01*
X259495Y12464D01*
X259454Y12459D01*
X259344Y12416D01*
X259231Y12379D01*
X259196Y12357D01*
X259159Y12342D01*
X259063Y12273D01*
X258962Y12209D01*
X258934Y12179D01*
X258901Y12156D01*
X258825Y12064D01*
X258744Y11977D01*
X258724Y11942D01*
X258699Y11911D01*
X258648Y11803D01*
X258590Y11699D01*
X258580Y11659D01*
X258563Y11623D01*
X258541Y11506D01*
X258511Y11391D01*
X258507Y11331D01*
X258503Y11311D01*
X258505Y11290D01*
X258501Y11230D01*
X258501Y8550D01*
X256450Y6499D01*
X253550Y6499D01*
G37*
%LPD*%
%LPC*%
G36*
X143550Y133999D02*
X143550Y133999D01*
X141499Y136050D01*
X141499Y138730D01*
X141484Y138848D01*
X141477Y138967D01*
X141464Y139005D01*
X141459Y139046D01*
X141416Y139156D01*
X141379Y139269D01*
X141357Y139304D01*
X141342Y139341D01*
X141273Y139437D01*
X141209Y139538D01*
X141179Y139566D01*
X141156Y139599D01*
X141064Y139675D01*
X140977Y139756D01*
X140942Y139776D01*
X140911Y139801D01*
X140803Y139852D01*
X140699Y139910D01*
X140659Y139920D01*
X140623Y139937D01*
X140506Y139959D01*
X140391Y139989D01*
X140331Y139993D01*
X140311Y139997D01*
X140290Y139995D01*
X140230Y139999D01*
X139585Y139999D01*
X138999Y140585D01*
X138999Y152415D01*
X139585Y153001D01*
X150415Y153001D01*
X151001Y152415D01*
X151001Y140585D01*
X150415Y139999D01*
X149770Y139999D01*
X149652Y139984D01*
X149533Y139977D01*
X149495Y139964D01*
X149454Y139959D01*
X149344Y139916D01*
X149231Y139879D01*
X149196Y139857D01*
X149159Y139842D01*
X149063Y139773D01*
X148962Y139709D01*
X148934Y139679D01*
X148901Y139656D01*
X148825Y139564D01*
X148744Y139477D01*
X148724Y139442D01*
X148699Y139411D01*
X148648Y139303D01*
X148590Y139199D01*
X148580Y139159D01*
X148563Y139123D01*
X148541Y139006D01*
X148511Y138891D01*
X148507Y138831D01*
X148503Y138811D01*
X148505Y138790D01*
X148501Y138730D01*
X148501Y136050D01*
X146450Y133999D01*
X143550Y133999D01*
G37*
%LPD*%
%LPC*%
G36*
X9856Y50799D02*
X9856Y50799D01*
X7651Y51713D01*
X5963Y53401D01*
X5049Y55606D01*
X5049Y57994D01*
X5963Y60199D01*
X7651Y61887D01*
X9856Y62801D01*
X18244Y62801D01*
X20449Y61887D01*
X22137Y60199D01*
X23051Y57994D01*
X23051Y55606D01*
X22137Y53401D01*
X20449Y51713D01*
X18244Y50799D01*
X9856Y50799D01*
G37*
%LPD*%
%LPC*%
G36*
X9856Y137199D02*
X9856Y137199D01*
X7651Y138113D01*
X5963Y139801D01*
X5049Y142006D01*
X5049Y144394D01*
X5963Y146599D01*
X7651Y148287D01*
X9856Y149201D01*
X18244Y149201D01*
X20449Y148287D01*
X22137Y146599D01*
X23051Y144394D01*
X23051Y142006D01*
X22137Y139801D01*
X20449Y138113D01*
X18244Y137199D01*
X9856Y137199D01*
G37*
%LPD*%
%LPC*%
G36*
X170250Y121269D02*
X170250Y121269D01*
X164249Y121269D01*
X164249Y121513D01*
X164276Y121615D01*
X164291Y121720D01*
X164314Y121823D01*
X164312Y121876D01*
X164320Y121930D01*
X164308Y122035D01*
X164304Y122140D01*
X164289Y122192D01*
X164283Y122246D01*
X164245Y122344D01*
X164216Y122446D01*
X164189Y122492D01*
X164169Y122543D01*
X164108Y122629D01*
X164054Y122720D01*
X163998Y122784D01*
X163985Y122802D01*
X163973Y122812D01*
X163948Y122841D01*
X160661Y126128D01*
X160583Y126188D01*
X160511Y126256D01*
X160458Y126285D01*
X160410Y126322D01*
X160319Y126362D01*
X160232Y126410D01*
X160174Y126425D01*
X160118Y126449D01*
X160020Y126464D01*
X159924Y126489D01*
X159824Y126495D01*
X159804Y126499D01*
X159792Y126497D01*
X159764Y126499D01*
X158550Y126499D01*
X156499Y128550D01*
X156499Y131450D01*
X158550Y133501D01*
X161450Y133501D01*
X163501Y131450D01*
X163501Y130236D01*
X163513Y130138D01*
X163516Y130039D01*
X163533Y129981D01*
X163541Y129921D01*
X163577Y129829D01*
X163605Y129734D01*
X163635Y129681D01*
X163658Y129625D01*
X163716Y129545D01*
X163766Y129460D01*
X163832Y129384D01*
X163844Y129368D01*
X163854Y129360D01*
X163872Y129339D01*
X165569Y127642D01*
X165647Y127582D01*
X165719Y127514D01*
X165772Y127485D01*
X165820Y127448D01*
X165911Y127408D01*
X165998Y127360D01*
X166056Y127345D01*
X166112Y127321D01*
X166210Y127306D01*
X166306Y127281D01*
X166406Y127275D01*
X166426Y127271D01*
X166438Y127273D01*
X166466Y127271D01*
X171538Y127271D01*
X171576Y127261D01*
X171675Y127255D01*
X171695Y127251D01*
X171708Y127253D01*
X171736Y127251D01*
X174665Y127251D01*
X175251Y126665D01*
X175251Y123604D01*
X175263Y123506D01*
X175266Y123407D01*
X175283Y123349D01*
X175291Y123289D01*
X175327Y123197D01*
X175355Y123102D01*
X175385Y123049D01*
X175408Y122993D01*
X175466Y122913D01*
X175516Y122828D01*
X175582Y122752D01*
X175594Y122736D01*
X175604Y122728D01*
X175623Y122707D01*
X175851Y122478D01*
X176114Y122022D01*
X176251Y121513D01*
X176251Y121269D01*
X170250Y121269D01*
X170250Y121269D01*
G37*
%LPD*%
%LPC*%
G36*
X97039Y20039D02*
X97039Y20039D01*
X97039Y27001D01*
X101263Y27001D01*
X101772Y26864D01*
X102229Y26601D01*
X102601Y26229D01*
X102864Y25772D01*
X103001Y25263D01*
X103001Y20039D01*
X97039Y20039D01*
G37*
%LPD*%
%LPC*%
G36*
X95039Y57539D02*
X95039Y57539D01*
X95039Y63501D01*
X100263Y63501D01*
X100772Y63364D01*
X101229Y63101D01*
X101601Y62729D01*
X101864Y62272D01*
X102001Y61763D01*
X102001Y57539D01*
X95039Y57539D01*
G37*
%LPD*%
%LPC*%
G36*
X85999Y20039D02*
X85999Y20039D01*
X85999Y25263D01*
X86136Y25772D01*
X86399Y26229D01*
X86771Y26601D01*
X87228Y26864D01*
X87737Y27001D01*
X91961Y27001D01*
X91961Y20039D01*
X85999Y20039D01*
G37*
%LPD*%
%LPC*%
G36*
X82999Y57539D02*
X82999Y57539D01*
X82999Y61763D01*
X83136Y62272D01*
X83399Y62729D01*
X83771Y63101D01*
X84228Y63364D01*
X84737Y63501D01*
X89961Y63501D01*
X89961Y57539D01*
X82999Y57539D01*
G37*
%LPD*%
%LPC*%
G36*
X97039Y7999D02*
X97039Y7999D01*
X97039Y14961D01*
X103001Y14961D01*
X103001Y9737D01*
X102864Y9228D01*
X102601Y8771D01*
X102229Y8399D01*
X101772Y8136D01*
X101263Y7999D01*
X97039Y7999D01*
G37*
%LPD*%
%LPC*%
G36*
X95039Y46499D02*
X95039Y46499D01*
X95039Y52461D01*
X102001Y52461D01*
X102001Y48237D01*
X101864Y47728D01*
X101601Y47271D01*
X101229Y46899D01*
X100772Y46636D01*
X100263Y46499D01*
X95039Y46499D01*
G37*
%LPD*%
%LPC*%
G36*
X84737Y46499D02*
X84737Y46499D01*
X84228Y46636D01*
X83771Y46899D01*
X83399Y47271D01*
X83136Y47728D01*
X82999Y48237D01*
X82999Y52461D01*
X89961Y52461D01*
X89961Y46499D01*
X84737Y46499D01*
G37*
%LPD*%
%LPC*%
G36*
X87737Y7999D02*
X87737Y7999D01*
X87228Y8136D01*
X86771Y8399D01*
X86399Y8771D01*
X86136Y9228D01*
X85999Y9737D01*
X85999Y14961D01*
X91961Y14961D01*
X91961Y7999D01*
X87737Y7999D01*
G37*
%LPD*%
%LPC*%
G36*
X300039Y152039D02*
X300039Y152039D01*
X300039Y157501D01*
X303763Y157501D01*
X304272Y157364D01*
X304729Y157101D01*
X305101Y156729D01*
X305364Y156272D01*
X305501Y155763D01*
X305501Y152039D01*
X300039Y152039D01*
G37*
%LPD*%
%LPC*%
G36*
X289499Y152039D02*
X289499Y152039D01*
X289499Y155763D01*
X289636Y156272D01*
X289899Y156729D01*
X290271Y157101D01*
X290728Y157364D01*
X291237Y157501D01*
X294961Y157501D01*
X294961Y152039D01*
X289499Y152039D01*
G37*
%LPD*%
%LPC*%
G36*
X300039Y141499D02*
X300039Y141499D01*
X300039Y146961D01*
X305501Y146961D01*
X305501Y143237D01*
X305364Y142728D01*
X305101Y142271D01*
X304729Y141899D01*
X304272Y141636D01*
X303763Y141499D01*
X300039Y141499D01*
G37*
%LPD*%
%LPC*%
G36*
X291237Y141499D02*
X291237Y141499D01*
X290728Y141636D01*
X290271Y141899D01*
X289899Y142271D01*
X289636Y142728D01*
X289499Y143237D01*
X289499Y146961D01*
X294961Y146961D01*
X294961Y141499D01*
X291237Y141499D01*
G37*
%LPD*%
%LPC*%
G36*
X259999Y170999D02*
X259999Y170999D01*
X259999Y175501D01*
X263263Y175501D01*
X263772Y175364D01*
X264229Y175101D01*
X264601Y174729D01*
X264864Y174272D01*
X265001Y173763D01*
X265001Y170999D01*
X259999Y170999D01*
G37*
%LPD*%
%LPC*%
G36*
X177499Y38499D02*
X177499Y38499D01*
X177499Y43501D01*
X180263Y43501D01*
X180772Y43364D01*
X181229Y43101D01*
X181601Y42729D01*
X181864Y42272D01*
X182001Y41763D01*
X182001Y38499D01*
X177499Y38499D01*
G37*
%LPD*%
%LPC*%
G36*
X137499Y38999D02*
X137499Y38999D01*
X137499Y43501D01*
X140763Y43501D01*
X141272Y43364D01*
X141729Y43101D01*
X142101Y42729D01*
X142364Y42272D01*
X142501Y41763D01*
X142501Y38999D01*
X137499Y38999D01*
G37*
%LPD*%
%LPC*%
G36*
X85999Y187499D02*
X85999Y187499D01*
X85999Y192501D01*
X88763Y192501D01*
X89272Y192364D01*
X89729Y192101D01*
X90101Y191729D01*
X90364Y191272D01*
X90501Y190763D01*
X90501Y187499D01*
X85999Y187499D01*
G37*
%LPD*%
%LPC*%
G36*
X87499Y165999D02*
X87499Y165999D01*
X87499Y171001D01*
X90263Y171001D01*
X90772Y170864D01*
X91229Y170601D01*
X91601Y170229D01*
X91864Y169772D01*
X92001Y169263D01*
X92001Y165999D01*
X87499Y165999D01*
G37*
%LPD*%
%LPC*%
G36*
X267499Y88499D02*
X267499Y88499D01*
X267499Y93501D01*
X270263Y93501D01*
X270772Y93364D01*
X271229Y93101D01*
X271601Y92729D01*
X271864Y92272D01*
X272001Y91763D01*
X272001Y88499D01*
X267499Y88499D01*
G37*
%LPD*%
%LPC*%
G36*
X238499Y162499D02*
X238499Y162499D01*
X238499Y167001D01*
X241763Y167001D01*
X242272Y166864D01*
X242729Y166601D01*
X243101Y166229D01*
X243364Y165772D01*
X243501Y165263D01*
X243501Y162499D01*
X238499Y162499D01*
G37*
%LPD*%
%LPC*%
G36*
X176499Y162499D02*
X176499Y162499D01*
X176499Y167001D01*
X179763Y167001D01*
X180272Y166864D01*
X180729Y166601D01*
X181101Y166229D01*
X181364Y165772D01*
X181501Y165263D01*
X181501Y162499D01*
X176499Y162499D01*
G37*
%LPD*%
%LPC*%
G36*
X85999Y177499D02*
X85999Y177499D01*
X85999Y182501D01*
X90501Y182501D01*
X90501Y179237D01*
X90364Y178728D01*
X90101Y178271D01*
X89729Y177899D01*
X89272Y177636D01*
X88763Y177499D01*
X85999Y177499D01*
G37*
%LPD*%
%LPC*%
G36*
X249999Y170999D02*
X249999Y170999D01*
X249999Y173763D01*
X250136Y174272D01*
X250399Y174729D01*
X250771Y175101D01*
X251228Y175364D01*
X251737Y175501D01*
X255001Y175501D01*
X255001Y170999D01*
X249999Y170999D01*
G37*
%LPD*%
%LPC*%
G36*
X127499Y38999D02*
X127499Y38999D01*
X127499Y41763D01*
X127636Y42272D01*
X127899Y42729D01*
X128271Y43101D01*
X128728Y43364D01*
X129237Y43501D01*
X132501Y43501D01*
X132501Y38999D01*
X127499Y38999D01*
G37*
%LPD*%
%LPC*%
G36*
X228499Y162499D02*
X228499Y162499D01*
X228499Y165263D01*
X228636Y165772D01*
X228899Y166229D01*
X229271Y166601D01*
X229728Y166864D01*
X230237Y167001D01*
X233501Y167001D01*
X233501Y162499D01*
X228499Y162499D01*
G37*
%LPD*%
%LPC*%
G36*
X166499Y162499D02*
X166499Y162499D01*
X166499Y165263D01*
X166636Y165772D01*
X166899Y166229D01*
X167271Y166601D01*
X167728Y166864D01*
X168237Y167001D01*
X171501Y167001D01*
X171501Y162499D01*
X166499Y162499D01*
G37*
%LPD*%
%LPC*%
G36*
X167999Y38499D02*
X167999Y38499D01*
X167999Y41763D01*
X168136Y42272D01*
X168399Y42729D01*
X168771Y43101D01*
X169228Y43364D01*
X169737Y43501D01*
X172501Y43501D01*
X172501Y38499D01*
X167999Y38499D01*
G37*
%LPD*%
%LPC*%
G36*
X76499Y187499D02*
X76499Y187499D01*
X76499Y190763D01*
X76636Y191272D01*
X76899Y191729D01*
X77271Y192101D01*
X77728Y192364D01*
X78237Y192501D01*
X81001Y192501D01*
X81001Y187499D01*
X76499Y187499D01*
G37*
%LPD*%
%LPC*%
G36*
X257999Y88499D02*
X257999Y88499D01*
X257999Y91763D01*
X258136Y92272D01*
X258399Y92729D01*
X258771Y93101D01*
X259228Y93364D01*
X259737Y93501D01*
X262501Y93501D01*
X262501Y88499D01*
X257999Y88499D01*
G37*
%LPD*%
%LPC*%
G36*
X259999Y161499D02*
X259999Y161499D01*
X259999Y166001D01*
X265001Y166001D01*
X265001Y163237D01*
X264864Y162728D01*
X264601Y162271D01*
X264229Y161899D01*
X263772Y161636D01*
X263263Y161499D01*
X259999Y161499D01*
G37*
%LPD*%
%LPC*%
G36*
X137499Y29499D02*
X137499Y29499D01*
X137499Y34001D01*
X142501Y34001D01*
X142501Y31237D01*
X142364Y30728D01*
X142101Y30271D01*
X141729Y29899D01*
X141272Y29636D01*
X140763Y29499D01*
X137499Y29499D01*
G37*
%LPD*%
%LPC*%
G36*
X77999Y165999D02*
X77999Y165999D01*
X77999Y169263D01*
X78136Y169772D01*
X78399Y170229D01*
X78771Y170601D01*
X79228Y170864D01*
X79737Y171001D01*
X82501Y171001D01*
X82501Y165999D01*
X77999Y165999D01*
G37*
%LPD*%
%LPC*%
G36*
X267499Y78499D02*
X267499Y78499D01*
X267499Y83501D01*
X272001Y83501D01*
X272001Y80237D01*
X271864Y79728D01*
X271601Y79271D01*
X271229Y78899D01*
X270772Y78636D01*
X270263Y78499D01*
X267499Y78499D01*
G37*
%LPD*%
%LPC*%
G36*
X177499Y28499D02*
X177499Y28499D01*
X177499Y33501D01*
X182001Y33501D01*
X182001Y30237D01*
X181864Y29728D01*
X181601Y29271D01*
X181229Y28899D01*
X180772Y28636D01*
X180263Y28499D01*
X177499Y28499D01*
G37*
%LPD*%
%LPC*%
G36*
X238499Y152999D02*
X238499Y152999D01*
X238499Y157501D01*
X243501Y157501D01*
X243501Y154737D01*
X243364Y154228D01*
X243101Y153771D01*
X242729Y153399D01*
X242272Y153136D01*
X241763Y152999D01*
X238499Y152999D01*
G37*
%LPD*%
%LPC*%
G36*
X129237Y29499D02*
X129237Y29499D01*
X128728Y29636D01*
X128271Y29899D01*
X127899Y30271D01*
X127636Y30728D01*
X127499Y31237D01*
X127499Y34001D01*
X132501Y34001D01*
X132501Y29499D01*
X129237Y29499D01*
G37*
%LPD*%
%LPC*%
G36*
X251737Y161499D02*
X251737Y161499D01*
X251228Y161636D01*
X250771Y161899D01*
X250399Y162271D01*
X250136Y162728D01*
X249999Y163237D01*
X249999Y166001D01*
X255001Y166001D01*
X255001Y161499D01*
X251737Y161499D01*
G37*
%LPD*%
%LPC*%
G36*
X169737Y28499D02*
X169737Y28499D01*
X169228Y28636D01*
X168771Y28899D01*
X168399Y29271D01*
X168136Y29728D01*
X167999Y30237D01*
X167999Y33501D01*
X172501Y33501D01*
X172501Y28499D01*
X169737Y28499D01*
G37*
%LPD*%
%LPC*%
G36*
X79737Y155999D02*
X79737Y155999D01*
X79228Y156136D01*
X78771Y156399D01*
X78399Y156771D01*
X78136Y157228D01*
X77999Y157737D01*
X77999Y161001D01*
X82501Y161001D01*
X82501Y155999D01*
X79737Y155999D01*
G37*
%LPD*%
%LPC*%
G36*
X168237Y152999D02*
X168237Y152999D01*
X167728Y153136D01*
X167271Y153399D01*
X166899Y153771D01*
X166636Y154228D01*
X166499Y154737D01*
X166499Y157501D01*
X171501Y157501D01*
X171501Y152999D01*
X168237Y152999D01*
G37*
%LPD*%
%LPC*%
G36*
X78237Y177499D02*
X78237Y177499D01*
X77728Y177636D01*
X77271Y177899D01*
X76899Y178271D01*
X76636Y178728D01*
X76499Y179237D01*
X76499Y182501D01*
X81001Y182501D01*
X81001Y177499D01*
X78237Y177499D01*
G37*
%LPD*%
%LPC*%
G36*
X103824Y166224D02*
X103824Y166224D01*
X103824Y169951D01*
X107313Y169951D01*
X107822Y169814D01*
X108279Y169551D01*
X108651Y169179D01*
X108914Y168722D01*
X109051Y168213D01*
X109051Y166224D01*
X103824Y166224D01*
G37*
%LPD*%
%LPC*%
G36*
X95149Y166224D02*
X95149Y166224D01*
X95149Y168213D01*
X95286Y168722D01*
X95549Y169179D01*
X95921Y169551D01*
X96378Y169814D01*
X96887Y169951D01*
X100376Y169951D01*
X100376Y166224D01*
X95149Y166224D01*
G37*
%LPD*%
%LPC*%
G36*
X231269Y136019D02*
X231269Y136019D01*
X231269Y140751D01*
X231513Y140751D01*
X232022Y140614D01*
X232479Y140351D01*
X232851Y139979D01*
X233114Y139522D01*
X233251Y139013D01*
X233251Y136019D01*
X231269Y136019D01*
G37*
%LPD*%
%LPC*%
G36*
X231269Y128749D02*
X231269Y128749D01*
X231269Y133481D01*
X233251Y133481D01*
X233251Y130487D01*
X233114Y129978D01*
X232851Y129521D01*
X232479Y129149D01*
X232022Y128886D01*
X231513Y128749D01*
X231269Y128749D01*
G37*
%LPD*%
%LPC*%
G36*
X176749Y136019D02*
X176749Y136019D01*
X176749Y139013D01*
X176886Y139522D01*
X177149Y139979D01*
X177521Y140351D01*
X177978Y140614D01*
X178487Y140751D01*
X178731Y140751D01*
X178731Y136019D01*
X176749Y136019D01*
G37*
%LPD*%
%LPC*%
G36*
X178487Y128749D02*
X178487Y128749D01*
X177978Y128886D01*
X177521Y129149D01*
X177149Y129521D01*
X176886Y129978D01*
X176749Y130487D01*
X176749Y133481D01*
X178731Y133481D01*
X178731Y128749D01*
X178487Y128749D01*
G37*
%LPD*%
%LPC*%
G36*
X297499Y149499D02*
X297499Y149499D01*
X297499Y149501D01*
X297501Y149501D01*
X297501Y149499D01*
X297499Y149499D01*
G37*
%LPD*%
%LPC*%
G36*
X92499Y54999D02*
X92499Y54999D01*
X92499Y55001D01*
X92501Y55001D01*
X92501Y54999D01*
X92499Y54999D01*
G37*
%LPD*%
%LPC*%
G36*
X94499Y17499D02*
X94499Y17499D01*
X94499Y17501D01*
X94501Y17501D01*
X94501Y17499D01*
X94499Y17499D01*
G37*
%LPD*%
D10*
X170250Y125000D03*
X170250Y120000D03*
X170250Y115000D03*
X170250Y110000D03*
X170250Y105000D03*
X170250Y100000D03*
X170250Y95000D03*
X170250Y90000D03*
X170250Y85000D03*
X170250Y80000D03*
X170250Y75000D03*
D11*
X180000Y65250D03*
X185000Y65250D03*
X190000Y65250D03*
X195000Y65250D03*
X200000Y65250D03*
X205000Y65250D03*
X210000Y65250D03*
X215000Y65250D03*
X220000Y65250D03*
X225000Y65250D03*
X230000Y65250D03*
D10*
X239750Y75000D03*
X239750Y80000D03*
X239750Y85000D03*
X239750Y90000D03*
X239750Y95000D03*
X239750Y100000D03*
X239750Y105000D03*
X239750Y110000D03*
X239750Y115000D03*
X239750Y120000D03*
X239750Y125000D03*
D11*
X230000Y134750D03*
X225000Y134750D03*
X220000Y134750D03*
X215000Y134750D03*
X210000Y134750D03*
X205000Y134750D03*
X200000Y134750D03*
X195000Y134750D03*
X190000Y134750D03*
X185000Y134750D03*
X180000Y134750D03*
D12*
X205000Y100000D03*
D13*
X112500Y76000D03*
X112500Y59000D03*
X104000Y95000D03*
X121000Y95000D03*
X104000Y115000D03*
X121000Y115000D03*
X175000Y36000D03*
X175000Y19000D03*
D14*
X174000Y160000D03*
X191000Y160000D03*
D13*
X265000Y86000D03*
X265000Y69000D03*
D14*
X236000Y160000D03*
X219000Y160000D03*
D13*
X327500Y46500D03*
X327500Y63500D03*
D14*
X280000Y151500D03*
X280000Y168500D03*
D15*
X297500Y170500D03*
X297500Y149500D03*
D16*
X65100Y92500D03*
X65100Y97500D03*
D17*
X65100Y67750D03*
X65100Y75500D03*
D16*
X65100Y82500D03*
X65100Y87500D03*
X65100Y107500D03*
X65100Y102500D03*
D17*
X65100Y132250D03*
X65100Y124500D03*
D16*
X65100Y117500D03*
X65100Y112500D03*
D18*
X61350Y143200D02*
X50350Y143200D01*
X50350Y56800D02*
X61350Y56800D01*
X17050Y143200D02*
X11050Y143200D01*
X11050Y56800D02*
X17050Y56800D01*
D19*
X362300Y80950D03*
X362300Y106350D03*
X362300Y131750D03*
X387700Y68250D03*
X387700Y93650D03*
X387700Y119050D03*
D20*
X94500Y17500D03*
X75500Y17500D03*
D14*
X153500Y180000D03*
X136500Y180000D03*
D13*
X145000Y163500D03*
X145000Y146500D03*
X85000Y163500D03*
X85000Y146500D03*
X53500Y40000D03*
X36500Y40000D03*
X53500Y160000D03*
X36500Y160000D03*
D14*
X257500Y151500D03*
X257500Y168500D03*
X135000Y53500D03*
X135000Y36500D03*
D13*
X155000Y53500D03*
X155000Y36500D03*
D15*
X19500Y185000D03*
X40500Y185000D03*
D13*
X83500Y185000D03*
X66500Y185000D03*
X195000Y36000D03*
X195000Y19000D03*
X255000Y36000D03*
X255000Y19000D03*
D21*
X234625Y35125D03*
X215375Y35125D03*
X215375Y19875D03*
X234625Y19875D03*
D14*
X325000Y171000D03*
X325000Y154000D03*
D22*
X297500Y95000D03*
X297500Y20000D03*
D23*
X92500Y75000D03*
X92500Y55000D03*
D24*
X102100Y164500D03*
X102100Y155000D03*
X102100Y145500D03*
X128000Y145500D03*
X128000Y164500D03*
D25*
X306500Y122500D03*
X328500Y132000D03*
X328500Y113000D03*
D26*
X62500Y40000D02*
X53500Y40000D01*
D27*
X62500Y40000D03*
D26*
X62500Y160000D02*
X53500Y160000D01*
D27*
X62500Y160000D03*
D26*
X65100Y67750D02*
X77250Y67750D01*
D27*
X77250Y67750D03*
D26*
X77250Y132250D02*
X65100Y132250D01*
D27*
X77250Y132250D03*
D26*
X19500Y185000D02*
X10000Y185000D01*
D27*
X10000Y185000D03*
D26*
X195000Y19000D02*
X195000Y10000D01*
D27*
X195000Y10000D03*
D26*
X255000Y10000D02*
X255000Y19000D01*
D27*
X255000Y10000D03*
D26*
X175000Y10000D02*
X175000Y19000D01*
D27*
X175000Y10000D03*
D26*
X215375Y35125D02*
X224875Y35125D01*
D27*
X224875Y35125D03*
D26*
X225125Y19875D02*
X234625Y19875D01*
D27*
X225125Y19875D03*
D26*
X191000Y160000D02*
X193500Y162500D01*
X191000Y160000D02*
X190500Y160500D01*
X187500Y163500D01*
X187500Y170000D01*
D27*
X187500Y170000D03*
D26*
X195000Y164000D02*
X191000Y160000D01*
X195000Y164000D02*
X195000Y170000D01*
D27*
X195000Y170000D03*
D26*
X215000Y164000D02*
X219000Y160000D01*
X215000Y164000D02*
X215000Y170000D01*
D27*
X215000Y170000D03*
D26*
X219500Y160500D02*
X219000Y160000D01*
X219500Y160500D02*
X222500Y163500D01*
X222500Y170000D01*
D27*
X222500Y170000D03*
X194980Y57500D03*
D26*
X185000Y120000D02*
X185000Y134750D01*
X225000Y134750D02*
X225000Y120000D01*
X230000Y75000D02*
X239750Y75000D01*
X230000Y75000D02*
X227500Y77500D01*
D27*
X322500Y72500D03*
D26*
X327500Y63500D02*
X332500Y68500D01*
X332500Y72500D01*
D27*
X332500Y72500D03*
D26*
X259000Y75000D02*
X239750Y75000D01*
X259000Y75000D02*
X265000Y69000D01*
X225000Y155000D02*
X219500Y160500D01*
X225000Y155000D02*
X225000Y134750D01*
X190500Y160500D02*
X185000Y155000D01*
X185000Y140000D02*
X185000Y134750D01*
X185000Y140000D02*
X185000Y155000D01*
X112500Y59000D02*
X112500Y50000D01*
D27*
X112500Y50000D03*
D26*
X265000Y69000D02*
X268500Y72500D01*
X275000Y72500D01*
D27*
X275000Y72500D03*
D26*
X269000Y65000D02*
X265000Y69000D01*
X269000Y65000D02*
X275000Y65000D01*
D27*
X275000Y65000D03*
D26*
X194980Y65230D02*
X194980Y57500D01*
X194980Y65230D02*
X195000Y65250D01*
X195000Y90000D02*
X205000Y100000D01*
X195000Y90000D02*
X195000Y65250D01*
X170250Y105000D02*
X162750Y105000D01*
X161730Y103980D01*
X157500Y103980D01*
D27*
X157500Y103980D03*
D26*
X297500Y95000D02*
X297500Y82500D01*
D27*
X297500Y82500D03*
D26*
X155000Y36500D02*
X155000Y27500D01*
D27*
X155000Y27500D03*
D26*
X75500Y17500D02*
X65000Y17500D01*
D27*
X65000Y17500D03*
D26*
X85000Y146500D02*
X84000Y147500D01*
X145000Y146500D02*
X145000Y137500D01*
D27*
X145000Y137500D03*
D26*
X136500Y180000D02*
X127500Y180000D01*
D27*
X127500Y180000D03*
D26*
X322500Y68500D02*
X327500Y63500D01*
X322500Y68500D02*
X322500Y72500D01*
X85000Y146500D02*
X75000Y146500D01*
D27*
X75000Y146500D03*
D26*
X85000Y146500D02*
X93500Y155000D01*
X102100Y155000D01*
D28*
X120000Y190000D03*
X110000Y190000D03*
D26*
X259000Y80000D02*
X265000Y86000D01*
X259000Y80000D02*
X239750Y80000D01*
X230000Y134750D02*
X230000Y154000D01*
X236000Y160000D01*
X180000Y154000D02*
X174000Y160000D01*
X180000Y154000D02*
X180000Y134750D01*
X170250Y95000D02*
X165000Y95000D01*
X162500Y92500D01*
D27*
X145000Y32300D03*
D26*
X239750Y120000D02*
X268500Y120000D01*
X280000Y131500D02*
X280000Y151500D01*
X280000Y131500D02*
X268500Y120000D01*
X280000Y168500D02*
X295500Y168500D01*
X297500Y170500D01*
X104000Y95000D02*
X103420Y95000D01*
X65300Y102700D02*
X65100Y102500D01*
X80000Y102500D01*
X95920Y102500D01*
X103420Y95000D01*
X77500Y92500D02*
X65100Y92500D01*
X77500Y92500D02*
X80000Y95000D01*
X80000Y102500D01*
D28*
X127500Y155000D03*
D26*
X127500Y164000D01*
X128000Y164500D01*
X65100Y82500D02*
X47500Y82500D01*
X41500Y76500D02*
X41500Y57500D01*
X36500Y52500D01*
X36500Y40000D01*
X41500Y76500D02*
X47500Y82500D01*
X47500Y112500D02*
X65100Y112500D01*
X41500Y142500D02*
X36500Y147500D01*
X36500Y160000D01*
X41500Y142500D02*
X41500Y118500D01*
X47500Y112500D01*
X239750Y125000D02*
X250000Y125000D01*
X257500Y132500D01*
X257500Y151500D01*
D27*
X160000Y85000D03*
D26*
X170250Y85000D01*
D27*
X152500Y79980D03*
D26*
X152520Y80000D01*
X170250Y80000D01*
D27*
X160000Y70000D03*
D26*
X165000Y75000D01*
X170250Y75000D01*
X185000Y65250D02*
X185000Y57500D01*
D27*
X138650Y75000D03*
D26*
X135000Y71350D02*
X135000Y53500D01*
X135000Y71350D02*
X138650Y75000D01*
X135000Y53500D02*
X155000Y53500D01*
X181000Y53500D01*
X185000Y57500D01*
X135000Y53500D02*
X127500Y53500D01*
X120000Y46000D01*
X120000Y41000D01*
D27*
X120000Y41000D03*
X282500Y5000D03*
D26*
X297500Y20000D01*
X129310Y102730D02*
X121580Y95000D01*
X129310Y102730D02*
X144151Y102730D01*
X151421Y110000D02*
X170250Y110000D01*
X151421Y110000D02*
X144151Y102730D01*
X121580Y95000D02*
X121000Y95000D01*
X129310Y107270D02*
X121580Y115000D01*
X129310Y107270D02*
X142270Y107270D01*
X150000Y115000D02*
X170250Y115000D01*
X150000Y115000D02*
X142270Y107270D01*
X121580Y115000D02*
X121000Y115000D01*
X104000Y115000D02*
X103420Y115000D01*
X65330Y107270D02*
X65100Y107500D01*
X95920Y107500D01*
X103420Y115000D01*
X65100Y97500D02*
X55000Y97500D01*
X52500Y100000D01*
X55000Y107500D02*
X65100Y107500D01*
X55000Y107500D02*
X52500Y105000D01*
X52500Y100000D01*
X112500Y76000D02*
X121000Y76000D01*
X140000Y95000D01*
X162494Y100000D02*
X170250Y100000D01*
X162494Y100000D02*
X157494Y95000D01*
X140000Y95000D01*
X66500Y185000D02*
X40500Y185000D01*
X205000Y50000D02*
X210000Y45000D01*
X205000Y50000D02*
X205000Y65250D01*
X235500Y36000D02*
X255000Y36000D01*
X235500Y36000D02*
X234625Y35125D01*
X224750Y45000D01*
X210000Y45000D01*
X195000Y37500D02*
X195000Y36000D01*
X207625Y19875D02*
X215375Y19875D01*
X207625Y19875D02*
X205000Y22500D01*
X205000Y35000D01*
X202500Y37500D01*
X195000Y37500D01*
X195000Y36000D02*
X195000Y45000D01*
X200000Y50000D01*
X200000Y65250D01*
X170250Y125000D02*
X165000Y125000D01*
X160000Y130000D01*
D27*
X160000Y130000D03*
D28*
X257500Y185000D03*
D26*
X311000Y185000D01*
X325000Y171000D01*
X309000Y125000D02*
X306500Y122500D01*
X309000Y125000D02*
X309000Y138000D01*
X325000Y154000D01*
D29*
X92000Y75500D02*
X65100Y75500D01*
X92000Y75500D02*
X92500Y75000D01*
X80000Y124500D02*
X65100Y124500D01*
D27*
X80000Y124500D03*
D29*
X92500Y87500D02*
X92500Y75000D01*
D27*
X92500Y87500D03*
D26*
X145000Y163500D02*
X153500Y172000D01*
X153500Y180000D01*
D28*
X135602Y170602D03*
D26*
X138102Y170602D02*
X145000Y163703D01*
X138102Y170602D02*
X135602Y170602D01*
X387700Y93650D02*
X402500Y78850D01*
X339000Y35000D02*
X327500Y46500D01*
X402500Y52500D02*
X402500Y78850D01*
X402500Y52500D02*
X385000Y35000D01*
X339000Y35000D01*
X327500Y46500D02*
X340000Y59000D01*
X340000Y104000D02*
X331000Y113000D01*
X328500Y113000D01*
X340000Y104000D02*
X340000Y59000D01*
X328500Y113000D02*
X327000Y113000D01*
X317500Y122500D01*
X317500Y137500D02*
X325000Y145000D01*
X332500Y145000D01*
X340000Y152500D01*
X340000Y187500D02*
X335000Y192500D01*
X166000Y192500D01*
X153500Y180000D01*
X317500Y137500D02*
X317500Y122500D01*
X340000Y152500D02*
X340000Y187500D01*
X340500Y132000D02*
X328500Y132000D01*
X345000Y110000D02*
X348650Y106350D01*
X362300Y106350D01*
X345000Y127500D02*
X340500Y132000D01*
X345000Y127500D02*
X345000Y110000D01*
M02*
