G04 EAGLE Gerber RS-274X export*
G75*
%MOMM*%
%FSLAX34Y34*%
%LPD*%
%INSolderpaste Top*%
%IPPOS*%
%AMOC8*
5,1,8,0,0,1.08239X$1,22.5*%
G01*
%ADD10R,0.800000X0.250000*%
%ADD11R,0.250000X0.800000*%
%ADD12R,1.000000X1.100000*%
%ADD13R,1.100000X1.000000*%
%ADD14R,1.200000X1.200000*%
%ADD15R,1.700000X0.300000*%
%ADD16R,1.700000X0.600000*%
%ADD17R,1.300000X1.500000*%
%ADD18R,1.086800X0.986800*%
%ADD19R,1.500000X1.500000*%
%ADD20R,1.500000X1.300000*%
%ADD21R,0.990000X0.690000*%
%ADD22R,1.400000X1.000000*%

G36*
X61805Y51754D02*
X61805Y51754D01*
X61808Y51751D01*
X62903Y51931D01*
X62909Y51937D01*
X62914Y51934D01*
X63942Y52353D01*
X63946Y52360D01*
X63951Y52358D01*
X64860Y52996D01*
X64863Y53003D01*
X64868Y53003D01*
X65612Y53826D01*
X65613Y53834D01*
X65619Y53835D01*
X66161Y54803D01*
X66160Y54812D01*
X66166Y54814D01*
X66479Y55878D01*
X66476Y55886D01*
X66481Y55889D01*
X66549Y56997D01*
X66545Y57004D01*
X66549Y57007D01*
X66379Y58115D01*
X66373Y58121D01*
X66376Y58126D01*
X65964Y59168D01*
X65957Y59172D01*
X65959Y59177D01*
X65325Y60102D01*
X65317Y60104D01*
X65318Y60110D01*
X64495Y60870D01*
X64486Y60871D01*
X64486Y60877D01*
X63514Y61434D01*
X63506Y61433D01*
X63504Y61439D01*
X62432Y61766D01*
X62424Y61763D01*
X62421Y61768D01*
X61304Y61849D01*
X61301Y61848D01*
X61300Y61849D01*
X49300Y61849D01*
X49297Y61847D01*
X49290Y61847D01*
X49289Y61848D01*
X48345Y61629D01*
X48339Y61623D01*
X48334Y61625D01*
X47462Y61202D01*
X47459Y61194D01*
X47453Y61196D01*
X46697Y60589D01*
X46695Y60581D01*
X46689Y60581D01*
X46088Y59821D01*
X46088Y59812D01*
X46082Y59811D01*
X45664Y58936D01*
X45666Y58928D01*
X45661Y58926D01*
X45449Y57980D01*
X45452Y57973D01*
X45447Y57969D01*
X45451Y57000D01*
X45451Y56999D01*
X45470Y55931D01*
X45475Y55924D01*
X45471Y55920D01*
X45727Y54883D01*
X45734Y54878D01*
X45731Y54872D01*
X46212Y53918D01*
X46219Y53915D01*
X46218Y53909D01*
X46899Y53086D01*
X46907Y53084D01*
X46907Y53078D01*
X47754Y52427D01*
X47762Y52427D01*
X47763Y52421D01*
X48734Y51974D01*
X48742Y51976D01*
X48744Y51971D01*
X49790Y51752D01*
X49797Y51755D01*
X49800Y51751D01*
X61800Y51751D01*
X61805Y51754D01*
G37*
G36*
X61805Y138155D02*
X61805Y138155D01*
X61808Y138151D01*
X62914Y138344D01*
X62919Y138349D01*
X62919Y138350D01*
X62924Y138347D01*
X63959Y138780D01*
X63963Y138787D01*
X63968Y138785D01*
X64881Y139438D01*
X64883Y139446D01*
X64889Y139445D01*
X65633Y140284D01*
X65634Y140293D01*
X65639Y140293D01*
X66178Y141277D01*
X66177Y141285D01*
X66178Y141286D01*
X66182Y141287D01*
X66183Y141289D01*
X66365Y141930D01*
X66489Y142366D01*
X66487Y142371D01*
X66489Y142373D01*
X66487Y142375D01*
X66491Y142377D01*
X66549Y143497D01*
X66546Y143502D01*
X66549Y143506D01*
X66431Y144551D01*
X66425Y144557D01*
X66429Y144562D01*
X66081Y145556D01*
X66074Y145560D01*
X66076Y145565D01*
X65516Y146457D01*
X65509Y146460D01*
X65509Y146465D01*
X64765Y147209D01*
X64757Y147211D01*
X64757Y147216D01*
X63865Y147776D01*
X63857Y147776D01*
X63856Y147781D01*
X62862Y148129D01*
X62854Y148126D01*
X62851Y148131D01*
X61806Y148249D01*
X61802Y148247D01*
X61800Y148249D01*
X49800Y148249D01*
X49797Y148247D01*
X49794Y148247D01*
X49792Y148249D01*
X48796Y148091D01*
X48790Y148085D01*
X48785Y148088D01*
X47849Y147713D01*
X47845Y147706D01*
X47839Y147708D01*
X47010Y147134D01*
X47007Y147126D01*
X47002Y147127D01*
X46321Y146383D01*
X46320Y146374D01*
X46314Y146374D01*
X45816Y145497D01*
X45817Y145489D01*
X45812Y145486D01*
X45624Y144862D01*
X45521Y144521D01*
X45522Y144518D01*
X45521Y144517D01*
X45524Y144513D01*
X45519Y144510D01*
X45451Y143503D01*
X45452Y143501D01*
X45451Y143500D01*
X45460Y142419D01*
X45465Y142412D01*
X45461Y142408D01*
X45711Y141356D01*
X45717Y141351D01*
X45714Y141346D01*
X46191Y140376D01*
X46199Y140373D01*
X46197Y140367D01*
X46878Y139528D01*
X46886Y139526D01*
X46886Y139520D01*
X47737Y138854D01*
X47745Y138853D01*
X47746Y138848D01*
X48723Y138387D01*
X48731Y138389D01*
X48734Y138384D01*
X49789Y138152D01*
X49797Y138155D01*
X49800Y138151D01*
X61800Y138151D01*
X61805Y138155D01*
G37*
G36*
X17004Y51754D02*
X17004Y51754D01*
X17006Y51751D01*
X18139Y51901D01*
X18145Y51907D01*
X18150Y51904D01*
X19220Y52302D01*
X19224Y52309D01*
X19230Y52307D01*
X20185Y52934D01*
X20188Y52942D01*
X20193Y52941D01*
X20985Y53764D01*
X20986Y53772D01*
X20992Y53773D01*
X21581Y54752D01*
X21580Y54760D01*
X21585Y54762D01*
X21941Y55847D01*
X21939Y55855D01*
X21943Y55858D01*
X22049Y56995D01*
X22044Y57004D01*
X22048Y57009D01*
X21841Y58146D01*
X21835Y58152D01*
X21838Y58157D01*
X21383Y59219D01*
X21376Y59223D01*
X21378Y59229D01*
X20698Y60164D01*
X20690Y60166D01*
X20691Y60172D01*
X19820Y60932D01*
X19812Y60932D01*
X19811Y60938D01*
X18792Y61485D01*
X18784Y61484D01*
X18782Y61489D01*
X17668Y61796D01*
X17660Y61793D01*
X17657Y61798D01*
X16502Y61849D01*
X16501Y61848D01*
X16500Y61849D01*
X10500Y61849D01*
X10497Y61847D01*
X10492Y61847D01*
X10491Y61848D01*
X9410Y61636D01*
X9405Y61630D01*
X9400Y61633D01*
X8394Y61186D01*
X8390Y61179D01*
X8384Y61181D01*
X7503Y60521D01*
X7500Y60513D01*
X7495Y60513D01*
X6782Y59674D01*
X6782Y59666D01*
X6776Y59665D01*
X6268Y58688D01*
X6269Y58680D01*
X6264Y58678D01*
X5986Y57613D01*
X5989Y57605D01*
X5985Y57602D01*
X5951Y56502D01*
X5955Y56496D01*
X5951Y56493D01*
X6106Y55418D01*
X6112Y55412D01*
X6109Y55407D01*
X6499Y54393D01*
X6506Y54389D01*
X6505Y54383D01*
X7111Y53481D01*
X7119Y53479D01*
X7118Y53473D01*
X7910Y52729D01*
X7918Y52728D01*
X7918Y52722D01*
X8856Y52173D01*
X8864Y52174D01*
X8866Y52168D01*
X9902Y51841D01*
X9910Y51844D01*
X9913Y51839D01*
X10996Y51751D01*
X10999Y51753D01*
X11000Y51751D01*
X17000Y51751D01*
X17004Y51754D01*
G37*
G36*
X17003Y138153D02*
X17003Y138153D01*
X17005Y138151D01*
X18097Y138252D01*
X18103Y138257D01*
X18108Y138254D01*
X19151Y138595D01*
X19156Y138602D01*
X19161Y138600D01*
X20102Y139164D01*
X20105Y139172D01*
X20111Y139171D01*
X20903Y139931D01*
X20904Y139939D01*
X20910Y139940D01*
X21513Y140857D01*
X21512Y140865D01*
X21518Y140867D01*
X21901Y141895D01*
X21899Y141903D01*
X21904Y141906D01*
X22049Y142994D01*
X22045Y143001D01*
X22049Y143005D01*
X21943Y144142D01*
X21938Y144148D01*
X21941Y144153D01*
X21585Y145238D01*
X21578Y145243D01*
X21581Y145248D01*
X20992Y146227D01*
X20984Y146230D01*
X20985Y146236D01*
X20193Y147059D01*
X20185Y147060D01*
X20185Y147066D01*
X19230Y147693D01*
X19222Y147692D01*
X19220Y147698D01*
X18150Y148096D01*
X18142Y148094D01*
X18139Y148099D01*
X17006Y148249D01*
X17003Y148247D01*
X17002Y148247D01*
X17000Y148249D01*
X11000Y148249D01*
X10997Y148247D01*
X10995Y148247D01*
X10994Y148249D01*
X9861Y148099D01*
X9855Y148093D01*
X9850Y148096D01*
X8780Y147698D01*
X8776Y147691D01*
X8770Y147693D01*
X7815Y147066D01*
X7812Y147058D01*
X7807Y147059D01*
X7015Y146236D01*
X7014Y146228D01*
X7008Y146227D01*
X6419Y145248D01*
X6420Y145240D01*
X6415Y145238D01*
X6059Y144153D01*
X6062Y144145D01*
X6057Y144142D01*
X5951Y143005D01*
X5955Y142998D01*
X5951Y142994D01*
X6096Y141906D01*
X6102Y141900D01*
X6099Y141895D01*
X6483Y140867D01*
X6489Y140862D01*
X6488Y140857D01*
X7090Y139940D01*
X7098Y139937D01*
X7097Y139931D01*
X7889Y139171D01*
X7897Y139170D01*
X7898Y139164D01*
X8839Y138600D01*
X8847Y138601D01*
X8849Y138595D01*
X9892Y138254D01*
X9900Y138256D01*
X9903Y138252D01*
X10996Y138151D01*
X10998Y138153D01*
X11000Y138151D01*
X17000Y138151D01*
X17003Y138153D01*
G37*
D10*
X170250Y125000D03*
X170250Y120000D03*
X170250Y115000D03*
X170250Y110000D03*
X170250Y105000D03*
X170250Y100000D03*
X170250Y95000D03*
X170250Y90000D03*
X170250Y85000D03*
X170250Y80000D03*
X170250Y75000D03*
D11*
X180000Y65250D03*
X185000Y65250D03*
X190000Y65250D03*
X195000Y65250D03*
X200000Y65250D03*
X205000Y65250D03*
X210000Y65250D03*
X215000Y65250D03*
X220000Y65250D03*
X225000Y65250D03*
X230000Y65250D03*
D10*
X239750Y75000D03*
X239750Y80000D03*
X239750Y85000D03*
X239750Y90000D03*
X239750Y95000D03*
X239750Y100000D03*
X239750Y105000D03*
X239750Y110000D03*
X239750Y115000D03*
X239750Y120000D03*
X239750Y125000D03*
D11*
X230000Y134750D03*
X225000Y134750D03*
X220000Y134750D03*
X215000Y134750D03*
X210000Y134750D03*
X205000Y134750D03*
X200000Y134750D03*
X195000Y134750D03*
X190000Y134750D03*
X185000Y134750D03*
X180000Y134750D03*
D12*
X112500Y76000D03*
X112500Y59000D03*
X104000Y95000D03*
X121000Y95000D03*
X104000Y115000D03*
X121000Y115000D03*
X175000Y36000D03*
X175000Y19000D03*
D13*
X174000Y160000D03*
X191000Y160000D03*
D12*
X265000Y86000D03*
X265000Y69000D03*
D13*
X236000Y160000D03*
X219000Y160000D03*
D12*
X327500Y46500D03*
X327500Y63500D03*
D13*
X280000Y151500D03*
X280000Y168500D03*
D14*
X297500Y170500D03*
X297500Y149500D03*
D15*
X65100Y92500D03*
X65100Y97500D03*
D16*
X65100Y67750D03*
X65100Y75500D03*
D15*
X65100Y82500D03*
X65100Y87500D03*
X65100Y107500D03*
X65100Y102500D03*
D16*
X65100Y132250D03*
X65100Y124500D03*
D15*
X65100Y117500D03*
X65100Y112500D03*
D17*
X94500Y17500D03*
X75500Y17500D03*
D13*
X153500Y180000D03*
X136500Y180000D03*
D12*
X145000Y163500D03*
X145000Y146500D03*
X85000Y163500D03*
X85000Y146500D03*
X53500Y40000D03*
X36500Y40000D03*
X53500Y160000D03*
X36500Y160000D03*
D13*
X257500Y151500D03*
X257500Y168500D03*
X135000Y53500D03*
X135000Y36500D03*
D12*
X155000Y53500D03*
X155000Y36500D03*
D14*
X19500Y185000D03*
X40500Y185000D03*
D12*
X83500Y185000D03*
X66500Y185000D03*
X195000Y36000D03*
X195000Y19000D03*
X255000Y36000D03*
X255000Y19000D03*
D18*
X234625Y35125D03*
X215375Y35125D03*
X215375Y19875D03*
X234625Y19875D03*
D13*
X325000Y171000D03*
X325000Y154000D03*
D19*
X297500Y95000D03*
X297500Y20000D03*
D20*
X92500Y75000D03*
X92500Y55000D03*
D21*
X102100Y164500D03*
X102100Y155000D03*
X102100Y145500D03*
X128000Y145500D03*
X128000Y164500D03*
D22*
X306500Y122500D03*
X328500Y132000D03*
X328500Y113000D03*
M02*
